<svg id="Layer_28" data-name="Layer 28" xmlns="http://www.w3.org/2000/svg" xmlns:xlink="http://www.w3.org/1999/xlink" viewBox="0 0 511.26 376.78"><defs><style>.cls-1{fill:url(#radial-gradient);}.cls-2{fill:url(#radial-gradient-2);}</style><radialGradient id="radial-gradient" cx="2174.53" cy="830.61" r="216.86" gradientUnits="userSpaceOnUse"><stop offset="0" stop-color="#fafe12"/><stop offset="0.11" stop-color="#f5f912"/><stop offset="0.24" stop-color="#e6e912"/><stop offset="0.39" stop-color="#cecf13"/><stop offset="0.55" stop-color="#acab14"/><stop offset="0.71" stop-color="#817d15"/><stop offset="0.88" stop-color="#4d4616"/><stop offset="1" stop-color="#261c17"/></radialGradient><radialGradient id="radial-gradient-2" cx="1829.99" cy="730.62" r="351.87" xlink:href="#radial-gradient"/></defs><path d="M1781.58,847.32c-1.63-1.09-2.51-2-3.56-2.31-10-3.33-20-6.86-30.24-9.71a45.72,45.72,0,0,0-22.35-.91,46.57,46.57,0,0,0-12.9,4.73c-6.66,3.8-12.81,8.49-19.31,12.6-6.32,4-12.38,8.85-20.27,9.19a37.82,37.82,0,0,1-11.11-1.19c-3.27-.87-5.61-3.18-7.46-6.44-4.54-8-5.82-16.68-6.25-25.55-.12-2.42,1.12-5,1.95-7.36,2.38-6.9,3.92-14.13,8.54-20.14,1.58-2.06,2.79-3.18,5.73-3.09a59.77,59.77,0,0,1,22.29,5.28c4.07,1.78,8.16,3.51,12.16,5.44a42.27,42.27,0,0,0,22.94,3.84c7-.7,13.88-1.92,20.84-2.63a123,123,0,0,1,12.3-.4c14.36,0,28.76-1.15,43,.85,10.58,1.47,21.24,2.69,31.34,6.51,1.11.42,2.57.5,3.3,1.27,2.66,2.78,5.1,1.58,7.84.2,5.8-2.9,11.62-5.77,17.57-8.34q19.05-8.22,38.26-16.08c7.9-3.22,16-6.07,24-9.06a333,333,0,0,0,50.52-23.78,157.57,157.57,0,0,0,28.16-20.41c7.16-6.6,13.95-13.66,21.57-19.66s13.08-14.3,19.93-21.14c8.73-8.73,18.39-15.82,31.11-17.07a22.69,22.69,0,0,1,10,1.25c8.5,3.22,16.4,7.57,22.59,14.52,1.46,1.65,3.35,2.91,5,4.45a70.87,70.87,0,0,1,6,6.21c4.83,6,9.66,11.94,14.13,18.17,2.14,3,3.51,6.57,5.14,9.93,5.77,11.91,9.26,24.58,12.24,37.4,1.74,7.48,3.81,14.9,5.17,22.45,1.76,9.74,3.06,19.57,4.38,29.38,1.17,8.63,2.23,17.29,3.09,26a104.33,104.33,0,0,1,0,10.76c0,10.73,0,21.46-.18,32.19-.1,6.63-.52,13.25-.66,19.88-.33,16.26-3.06,32.24-6,48.16-2,10.69-3.94,21.51-10.33,30.8-.84,1.22-1,2.9-1.47,4.35-1.68,5-3.29,10.08-5.12,15a11,11,0,0,1-2.68,4.32,171.73,171.73,0,0,1-13.63,11.54,44.37,44.37,0,0,1-27.84,8.71,46.21,46.21,0,0,1-25.49-7.8c-13.86-9.33-28.16-18.07-42.72-26.26-10.69-6-22-10.94-33.21-16-10.42-4.7-21-9.19-31.62-13.26a290,290,0,0,0-37.3-11.56c-3.92-.92-7.64-2.72-12-4.32-1.23,4.53-2.26,8.62-3.45,12.65-.77,2.62-1.76,5.18-2.68,7.75-4.5,12.56-9.73,24.82-17.36,35.8-3.27,4.71-7.7,8.66-11.86,12.69-13.75,13.3-30.73,20.62-48.8,25.74a55.1,55.1,0,0,1-10.13,1.46c-5.75.51-11.53.46-17,2.86-3.3,1.45-6.89,1.56-10.55,1.36a113.67,113.67,0,0,1-25.21-3.91,78.87,78.87,0,0,1-16.47-6.93c-5.78-3.24-11.69-6.76-16.34-11.37-5-5-8.76-11.23-12.82-17.1A78,78,0,0,1,1705,993.59c-1.81-7.22-4.28-14.44-3.62-22.07.25-2.86,1.18-5.65,1.63-8.49,1.46-9.24,1-18.78,3.94-27.79,2.73-8.26,4.58-17.06,8.78-24.51,4.78-8.48,9.69-17.16,17.42-23.79,7-6,13-13.05,19.8-19.27a132.66,132.66,0,0,1,13-9.86C1770.87,854.38,1775.86,851.16,1781.58,847.32Zm-17.26-32.38a5.7,5.7,0,0,1-1.77.9c-5.42.47-10.85.82-16.27,1.28-4.64.4-9.28.9-15,1.46l6.86,8.23c1.72-1.94,2.88-3.35,4.16-4.66a26.19,26.19,0,0,1,3.77-3.38c.51-.34,1.55.1,2.82.24-5.06,4.53-5.06,4.53-5.92,7.81,2.79.72,5.55,1.62,8.38,2.12s5.72,2.54,8.32,1.1c1.55-4.11,3-7.7,4.24-11.36a17.53,17.53,0,0,0,.4-3.76l3,2.84c-1.5,3.36-3.5,6.53-2.63,10.62l21.71-12.71-.29-.73Zm275.24,32.78h-.1c0,4.27-.39,8.59.08,12.81,1,9.33,2.43,18.62,3.83,27.91,1.78,11.82,3.07,23.76,5.73,35.39,4.75,20.8,10.18,41.46,19.06,61,1.55,3.41,2.24,7.27,4.15,10.42,3.52,5.81,7.61,11.28,11.56,16.82,2.76,3.87,5.75,7.38,10.5,9.22,2.18.85,3.67,1.09,5.65-.09,1.23-.73,3.26-1.63,4.17-1.12,4.22,2.41,6.79-.12,9.4-2.63,2.45-2.36,4.46-5.25,7.16-7.23a23.55,23.55,0,0,0,9-13.21c1.21-4.26,2.18-8.76,4.33-12.55a55.53,55.53,0,0,0,6.74-18.59c2.22-13.48,4.46-27,6-40.53,1-9,.94-18.06,1.19-27.1.12-4.44-.16-8.89-.19-13.33-.07-10.92.32-21.86-.29-32.74-.55-9.88-2.13-19.7-3.32-29.54a303,303,0,0,0-11.12-54.07c-2.73-8.77-4.11-18-9-26-4.63-7.56-8.87-15.42-14.2-22.46-4.69-6.2-10.42-11.68-16.13-17-3.82-3.57-7.91-7.16-13.25-8.48a9,9,0,0,0-4.82-.07,24.21,24.21,0,0,0-13.52,11.2c-4.84,8.44-9.26,17.08-12.21,26.43-4.32,13.73-7.56,27.65-8.37,42.06-.22,3.9-.18,7.81-.4,11.71-.48,8.67-1.32,17.33-1.51,26C2039.36,823.85,2039.56,835.79,2039.56,847.72Zm-92.39,52.1-1.62.37c-1-2.26-2-4.5-2.92-6.79-4.05-10.16-8.61-20.16-12-30.55-5.21-16.13-6-32.85-4.86-49.71.43-6.33.54-12.65,3.11-18.6.43-1,.71-2,1.14-3.31a8.34,8.34,0,0,0-2,.12c-8,2.92-16.06,5.84-24,8.87a5.66,5.66,0,0,0-2.54,2.16c-3.9,6.2-7.94,12.33-11.43,18.76s-5.78,13.48-5.22,21.09c.2,2.62.52,5,2.84,6.83,1.67,1.32,2.15,3.25,2.06,5.5-.26,6.65-.25,13.32-.38,20-.25,13.51-.71,27-4,40.23-1.55,6.29-3.45,12.5-5.29,18.72-1.21,4.1.31,7.36,4.39,8.7a21.61,21.61,0,0,0,4.53.88,101.16,101.16,0,0,1,25.79,6.32c4.13,1.55,8.43,2.69,12.67,3.94.34.1.84-.36,1.5-.66-7.09-15.83-5-32.56-5.21-49.09-4.63,1.59-4.58,1.57-7-3-.71-1.34-1.88-2.42-2.69-3.71-1.27-2-2.51-4-3.59-6.13-3.23-6.29-4.91-13.07-6.33-20-1.77-8.56-3.13-17.13-2.38-25.93,1.13-13.29,5.39-25.71,10.37-37.92a43.85,43.85,0,0,1,4.32-7.54c.48-.72,1.72-.94,3.38-1.78-2.14,3.48-4.12,5.9-5.23,8.66-2.36,5.87-4.28,11.9-6.33,17.88-4.45,13.05-5.71,26.32-2.78,39.89,1.11,5.17,1.84,10.45,3.33,15.51,2.22,7.52,5.35,14.66,11.31,20.46a18.26,18.26,0,0,1,3.44-3,4,4,0,0,1,3.31,0,3.58,3.58,0,0,1,1.27,3c-1.16,7.67-.4,15.3,0,23a61.06,61.06,0,0,0,8.75,28.1c4.42,7.44,12.15,8.92,20.47,10.84-.72-2.62-1.33-4.38-1.66-6.19-.63-3.52-1.21-7-1.62-10.59-1-9.33.86-18.45,2.68-27.45a86.48,86.48,0,0,1,6.42-20.44c5-10.27,11-20,16.71-29.94,6.5-11.21,13.2-22.32,19.79-33.49.83-1.41,1.34-3.11,3.69-3.6a13,13,0,0,1,0,3c-.76,2.8-1.65,5.57-2.52,8.34-2.62,8.29-3.65,17.08-7.76,24.92a10.62,10.62,0,0,0-1,3.44,64.41,64.41,0,0,0,5.44,36.51c3.29,7.07,7.66,8.56,15,5.55,4-1.63,5.4-.72,5.43,3.48,0,.69,0,1.37-.08,2.05-1,12.25.91,24.2,4.28,35.87,2.27,7.83,5.41,15.42,8.31,23.06a69.82,69.82,0,0,0,4.07,8.83c2.3,4.19,4.85,8.24,7.3,12.35,2.83,4.75,6.2,8.84,11.21,11.65,6.52,3.65,12.71,7.89,19.08,11.83,2.19,1.35,4.52,2.33,7.34,1.64a5.34,5.34,0,0,0-.25-1.59,17.35,17.35,0,0,0-1.75-2.51,100,100,0,0,1-16.72-26.82c-1.75-4.25-2.93-8.74-4.61-13-7.61-19.43-13.79-39.26-17.2-59.9-1.56-9.44-3.42-18.83-4.7-28.3-2.14-15.72-4.55-31.4-4-47.38.47-15.18.12-30.4.68-45.58.55-15,1.31-30.07,5.19-44.72,4.1-15.47,6.8-31.42,15.27-45.43a10.75,10.75,0,0,0,.77-2.78c-4.78,2.23-8,5.74-10.88,9.76a30.46,30.46,0,0,1-4.88,5.87c-5.43,4.6-10.68,9.12-12.52,16.56-1.26,5.1-4,9.89-4.93,15-2.06,11.08-3.42,22.29-5,33.46a17.57,17.57,0,0,0,.14,4.09c.55,5.58.51,11.21,2.44,16.64,1.14,3.19,1.51,6.65,2.11,10a12.39,12.39,0,0,1-.12,2.84l-1.36.55c-2.65-3.47-3.07-8.15-5.05-12a103.44,103.44,0,0,1-5.28-12.78c-1.49-4.18-2.8-8.45-3.87-12.76a115.78,115.78,0,0,1-2.64-13.55c-.54-4.44-.29-9-1.22-13.86l-3.57,2.24c-8.84,5.47-17.44,11.4-26.59,16.28a279.7,279.7,0,0,1-28.9,13.18c-5,2-7.64,5.24-9.31,10-2.08,5.9-2.23,12-2.66,18.17-.84,12,.15,23.83,1.77,35.72,1.48,10.88,6.51,20.45,10.2,30.52a20.06,20.06,0,0,0,1.49,2.77,20.27,20.27,0,0,0,.86-7.33c-.29-9.29,1.15-18.43,2.85-27.49,2.18-11.64,6.74-22.57,11.26-33.46a24.12,24.12,0,0,1,4.93-7.09c5.23-5.51,8.16-5.43,13.71-.15a3.52,3.52,0,0,0,1.22.52c.28-.16.52-.22.56-.34a6.31,6.31,0,0,0,.53-1.94c.1-8,2.21-15.56,5.16-22.87,2.8-6.95,6-13.77,9.1-20.58.71-1.54,1.57-3.38,3.91-3.28.05.61.22,1,.08,1.21-6.85,9.24-10.3,20-13.6,30.79-2,6.4-2.92,13-1.22,19.71.34,1.35.5,2.75-1.72,3.51-2-1.71-4.27-3.43-6.23-5.47-3.47-3.61-6.08-4.06-9.3-.19a40.56,40.56,0,0,0-7.23,11.64c-4.8,13.14-10,26.23-10.84,40.45-.72,11.75-2.46,23.51,1.59,35.05C1947.51,897.22,1947.17,898.58,1947.17,899.82Zm-223.92,26.24c.62.54,1.26.86,1.51,1.37a52.37,52.37,0,0,0,10.89,15.36c4.38,4.14,8.94,8.2,14.79,9.79,3.67,1,7.44,1.63,11,3a32.87,32.87,0,0,0,21.64.7c4.83-1.49,9.72-3.28,11-9.34-2.3-1.11-4.91-1.63-6.4-3.22-5-5.34-9.68-11-14.4-16.66a7.17,7.17,0,0,1-1.15-2.81c-1.78-7.12-3.39-14.3-5.29-21.39a53.05,53.05,0,0,1-.88-21.39,33.47,33.47,0,0,1,4.44-12.83,10.19,10.19,0,0,1-.2,4.49c-4.3,13.66-2.47,27,1.76,40.3a44.42,44.42,0,0,0,3.4,8.52c3.87,6.74,10.34,10.72,16.53,15,7.14,4.94,14.28,4.07,21.21.89-2.74-6.49-5.69-12.61-7.88-19-1.71-5-3.27-10.2-3.5-15.39-.8-17.53,2.37-34.36,10.74-50,2.71-5.06,5.27-10.2,8.34-16.16-2.11.63-3.45.77-4.53,1.39-11.89,6.74-24,13.09-35.49,20.51-8.68,5.62-16.61,12.46-24.59,19.1-4.57,3.8-8.6,8.25-12.79,12.48-5.65,5.72-11.06,11.75-14.8,18.85-4,7.68-7.26,15.8-10.74,23.77a24.22,24.22,0,0,0-1.57,5.4c-1.53,8.92-3.13,17.83-4.38,26.79-1.28,9.19-1.2,18.4,1.63,27.35,1,3,2.43,5.89,3.77,9.09,4-1.88,7.42-1.18,11-.72a83.83,83.83,0,0,0,14.76.71c4.68-.23,9.32-1.33,14.76-2.17-.41,2-.73,3.57-1.05,5.12-.72,3.53.24,5.68,3.71,6.8a21,21,0,0,0,7,.88c2.36-.08,4.7-.86,7.06-1.25,10.78-1.79,19.52-6.81,25.86-15.89,2.43-3.5,5.32-6.67,7.88-10.08a29.19,29.19,0,0,0,2.19-4c-2.75-3-5-1.78-7.41-.64a161.28,161.28,0,0,1-15.5,6.51c-7.42,2.53-15.11,2.12-22.84,1.42a78.66,78.66,0,0,1-27.89-8.07,13.74,13.74,0,0,1-2.51-2c.91-2.27,2.12-1.47,3.5-1.16,4,.89,8,2.3,12,2.09,8.46-.45,16.85-1.27,25-4.66,6.34-2.64,10.7-7,15-11.84.35-.38.2-1.22.4-2.64-9.38,2.48-18.41,4.14-27.42.78-8.82-3.29-17.67-6.54-24.86-12.94C1727,938.47,1722.4,931.64,1723.25,926.06ZM2033,996.69a7.39,7.39,0,0,0,0-1.82c-3.23-9.35-6.19-18.82-9.81-28a110.13,110.13,0,0,1-7.73-47.12c.1-1.66,0-3.32,0-5.12a12.36,12.36,0,0,0-2.59,0c-9.9,2.66-14.81-.16-18.7-9.66a65.08,65.08,0,0,1-4.6-33.08,29,29,0,0,1,2.73-9.73c3.2-6.19,3.26-13.1,5.5-19.55a6.29,6.29,0,0,0-2.55,2.38c-2.44,4.08-4.86,8.17-7.21,12.3-7.76,13.65-15.88,27.12-23,41.07-3.13,6.11-4.47,13.18-6.22,19.92-.79,3-.7,6.29-.82,9.46-.17,4.71-.84,9.53-.1,14.12,1.39,8.53,5.36,16.17,10.55,23a15.85,15.85,0,0,0,5.67,4.07c2.74,1.35,5.83,2,8.58,3.32,15.83,7.62,31.6,15.35,47.4,23C2030.94,995.75,2031.82,996.15,2033,996.69ZM1897.44,803.45a33.94,33.94,0,0,0-4.74,1c-11.52,4.71-23,9.41-34.47,14.35a7,7,0,0,0-3.41,4.06c-1.62,5.91-3.35,11.88-4,17.94-1.17,10.15-2.29,20.4,1.53,30.38a23.22,23.22,0,0,1,.91,6c.18,1.93,0,3.77-2,4.89a3.05,3.05,0,0,0-1.34,1.46c-1.88,5.29-4.08,10.51-5.36,16-.93,3.92-.79,8.14-.82,12.22,0,8.59,1.55,16.71,8.06,23a15.47,15.47,0,0,0,5,3.17,63.48,63.48,0,0,0,6.94,1.76,4.38,4.38,0,0,0,4.93-1.63c6.05-7,9.24-15.43,12.24-23.93,3-8.32,2.8-17.21,3.16-25.82.39-9.24.51-18.39,2.72-27.43.91-3.73.47-7.69-2-10.68a11.19,11.19,0,0,1-2.52-7c-.53-9.41,2.56-17.8,7.17-25.77C1892,813.06,1894.46,808.65,1897.44,803.45Zm-45.09,18.6c-7.85,3.54-15.16,6.78-22.41,10.15a7.09,7.09,0,0,0-3.12,2.46c-5.41,9.1-10.72,18.24-12.63,28.92-.9,5-2.27,10-3.51,14.93-3.15,12.61-3.72,25.1-.73,38,2,8.69,7.57,13.86,14,18.78a5.16,5.16,0,0,0,2.9.84c5.25.08,10.5,0,15.86,0a4.25,4.25,0,0,0,.38-1.35,11.84,11.84,0,0,0-.38-3c-3.24-10.31-3.34-20.91-2.73-31.5.45-7.73,1.81-15.38,8.08-20.94,2.12-1.88,2.21-4,1.54-6.48a70.64,70.64,0,0,1-.82-32.49C1850,834.53,1851.06,828.69,1852.35,822.05Zm-48,175.13-1.62-1.31c-.36.78-.68,1.58-1.1,2.32-3.18,5.58-8.39,9-13.78,11.83-6.39,3.34-13.62,4.48-20.71,5.35-8.8,1.07-13.44-3.17-13.12-11.1,0-.27-.28-.56-.62-1.19a67.26,67.26,0,0,1-29.78.06c-1.33-.28-2.85.34-5,.64,2.7,4.84,4.84,9.08,7.38,13.08a46,46,0,0,0,6.06,7.58c6.49,6.64,14.57,11.16,22.36,16a10.84,10.84,0,0,0,6.85,1.28,61.41,61.41,0,0,0,11.27-3.18,44.39,44.39,0,0,0,24.42-20.8C1800.47,1011.45,1802,1004.07,1804.35,997.18ZM1685.11,823.27c-.62-1.62-1.11-2.68-1.45-3.8-1-3.07-1.41-6.38-2.84-9.2-3.14-6.18-12.22-7-16.92-1.91a18.25,18.25,0,0,0-5,9.88c-.7,4.61-1,9.29-2,13.83-1.26,5.73.64,10.4,4,14.68,2.46,3.11,6.07,5.29,9.75,4.62,4.35-.79,7.12-4.45,8.59-8.74.32-1,.21-2.06.57-3a7.79,7.79,0,0,1,1.53-1.82c.66.51,1.19.72,1.42,1.11,3.21,5.5,5.89,6.12,10.94,2.61,2.23-1.56,4.63-2.87,6.87-4.42,2.8-1.93,6-3.58,8.15-6.09,3.15-3.68,6.77-4.36,11.24-4.16a26.84,26.84,0,0,0,12.22-2.37c-2.62-2.14-3-5.79-7.08-5.65a57.29,57.29,0,0,1-21.17-2.91,26.7,26.7,0,0,0-5.51-1c-7.23-.88-8.77,0-11.59,6.78C1686.71,821.94,1686.35,822.12,1685.11,823.27ZM1849.74,981c-2.5,12.76-4.47,25.58-12.17,36.29-7.46,10.37-16.6,19.26-26.58,27.41,2.56-.06,4.85-.67,7.18-.9,8.28-.84,15.3-3.81,20.83-10.41a63.92,63.92,0,0,0,10.31-17.36c1-2.37.64-5.27,1-8.76a27.46,27.46,0,0,1,4.31,2.62c3.4,3.13,3.68,3.14,6.75-.37,3.56-4.07,5.63-8.93,7.51-13.89a58.13,58.13,0,0,0,.62-40.64c-.84-2.43-2.14-4.13-5-4.52-4.22-.58-8.4-1.46-12.62-2.09a22.24,22.24,0,0,0-4.26.35c10.87,11.17,11.43,24.06,10,37.6C1852.93,986.71,1854,980.57,1849.74,981Zm-43.08,63.16,1.1.75c4.64-4.24,9.52-8.25,13.85-12.78a180.12,180.12,0,0,0,13.94-16.29c5.23-7,6.91-15.45,9-23.76,1.51-6,2.12-11.71-1.13-17.34-.3-.52.39-1.62.69-2.72l10.43,8.25c2.59-12.08-2.85-24.53-11.72-27.83a5.91,5.91,0,0,0-.8,1.19c-2.2,6.1-5,11.87-9.58,16.59a18.73,18.73,0,0,0-5.66,14,21.85,21.85,0,0,1-.51,5.6c-1.6,6.62.39,14.33-5.84,19.59-.32.27-.3,1-.43,1.46-.56,2.14-1.23,4.27-1.66,6.44a66.61,66.61,0,0,1-10.71,24.71A12.24,12.24,0,0,0,1806.66,1044.14Zm41.29-12.79a14.46,14.46,0,0,0,7.34-3.67c6.77-6,13.53-12,20-18.32A33.06,33.06,0,0,0,1881,1001c2.54-4.82,4.16-10.18,7.12-14.7s3.13-8.94,2.08-13.69-2.46-9.57-3.87-14.3a7.87,7.87,0,0,0-2-2.89c-3.63-3.73-8.1-3.36-12.91-2.75.35,1.32.64,2.3.86,3.29,1,4.66,2.6,9.28,3,14,1.11,14.43-3,27.64-10.39,39.94-2.91,4.86-5,5.78-10.47,4.52a4.4,4.4,0,0,0-.89,1.13C1851.74,1020.53,1850,1025.52,1848,1031.35Zm-69.92,15a53.06,53.06,0,0,1,6.16.91c5.22,1.45,10.14-.73,15.17-1.26,6.38-.68,6.69-7.42,9.93-11.27a21.65,21.65,0,0,0,1.67-3.17c3.9-6.64,4.69-14.24,6.31-21.53,1.83-8.16,3.17-16.46,1.75-24.91-.3-1.8.15-4.06-2.4-4.48-2.92-.48-3.11,2.07-3.8,3.9s-1.21,3.56-1.71,5.36c-2.87,10.35-4.59,21-9.7,30.71s-10.85,18.61-21,23.73A16.92,16.92,0,0,0,1778,1046.39Zm51.6-224c0-.45,0-.89,0-1.33a28.84,28.84,0,0,0-4.16-1.74c-4.64-1.14-9.33-2.09-14-3.17a22.16,22.16,0,0,0-13.12,1.16c-7.79,3-15.49,6.29-23.14,9.64a20.72,20.72,0,0,0-7.93,5.46c2.23,1.72,4,2.14,6.41,1a81.8,81.8,0,0,1,11.88-4.76c7.49-2.32,15.08-4.34,22.66-6.35,1.65-.44,3.62-1.11,5.36,1.41-10,4.82-19.85,9.45-28.08,16.77,2.23,2.54,4,2.43,6.37,1.19,9-4.82,18.14-9.47,27.25-14.13C1822.62,825.78,1826.14,824.14,1829.63,822.44Zm6.19,126.3c-.69-.53-.94-.89-1.2-.9-10-.39-19.71.52-28.86,4.85-3,1.4-4.32,5.5-3.28,8.79,1.48,4.65,4.87,6.64,9.49,7.28a14.06,14.06,0,0,0,13.61-5.17c2.27-2.73,4.33-5.64,6.36-8.56C1833.36,953,1834.56,950.79,1835.82,948.74Zm168.65-199c-1.2,16.74-.88,33,6.92,48.16a6.46,6.46,0,0,0,.74-3.82c-1.52-7.23.23-14.26,1.13-21.35.64-5.08,2-10.22,1.7-15.24a56.9,56.9,0,0,1,.86-13.7c.16-.94.21-1.9.42-3.81Zm-204,226.9c-3.72-3.93-7.89-5.65-13.08-2.83a17.72,17.72,0,0,1-2,.62c-9.34,3.84-18.8,7.11-29.08,7.2-1.47,0-2.93.74-5.09,1.32C1769.59,989.62,1788.79,987.66,1800.48,976.59Zm-.34-149.43c-8.44,1.3-16.47,3.51-23.87,8,4.37,4.15,5.78,4.27,9.67,1.3,1.48-1.13,3.11-2,4.67-3.07ZM1887,953.37l8.7,14.4c1.22-4.09,2.15-6.91,2.89-9.79.5-2-.34-3.33-2.45-3.6C1893.4,954,1890.63,953.77,1887,953.37Z" transform="translate(-1648.12 -681.85)"/><path class="cls-1" d="M2039.56,847.72c0-11.93-.2-23.87.07-35.79.19-8.68,1-17.34,1.51-26,.22-3.9.18-7.81.4-11.71.81-14.41,4-28.33,8.37-42.06,3-9.35,7.37-18,12.21-26.43a24.21,24.21,0,0,1,13.52-11.2,9,9,0,0,1,4.82.07c5.34,1.32,9.43,4.91,13.25,8.48,5.71,5.33,11.44,10.81,16.13,17,5.33,7,9.57,14.9,14.2,22.46,4.91,8,6.29,17.27,9,26a303,303,0,0,1,11.12,54.07c1.19,9.84,2.77,19.66,3.32,29.54.61,10.88.22,21.82.29,32.74,0,4.44.31,8.89.19,13.33-.25,9-.16,18.13-1.19,27.1-1.54,13.56-3.78,27-6,40.53a55.53,55.53,0,0,1-6.74,18.59c-2.15,3.79-3.12,8.29-4.33,12.55a23.55,23.55,0,0,1-9,13.21c-2.7,2-4.71,4.87-7.16,7.23-2.61,2.51-5.18,5-9.4,2.63-.91-.51-2.94.39-4.17,1.12-2,1.18-3.47.94-5.65.09-4.75-1.84-7.74-5.35-10.5-9.22-3.95-5.54-8-11-11.56-16.82-1.91-3.15-2.6-7-4.15-10.42-8.88-19.56-14.31-40.22-19.06-61-2.66-11.63-3.95-23.57-5.73-35.39-1.4-9.29-2.79-18.58-3.83-27.91-.47-4.22-.08-8.54-.08-12.81Z" transform="translate(-1648.12 -681.85)"/><path class="cls-2" d="M1947.17,899.82c0-1.24.34-2.6-.05-3.71-4-11.54-2.31-23.3-1.59-35.05.87-14.22,6-27.31,10.84-40.45A40.56,40.56,0,0,1,1963.6,809c3.22-3.87,5.83-3.42,9.3.19,2,2,4.26,3.76,6.23,5.47,2.22-.76,2.06-2.16,1.72-3.51-1.7-6.71-.74-13.31,1.22-19.71,3.3-10.78,6.75-21.55,13.6-30.79.14-.18,0-.6-.08-1.21-2.34-.1-3.2,1.74-3.91,3.28-3.14,6.81-6.3,13.63-9.1,20.58-2.95,7.31-5.06,14.88-5.16,22.87a6.31,6.31,0,0,1-.53,1.94c0,.12-.28.18-.56.34a3.52,3.52,0,0,1-1.22-.52c-5.55-5.28-8.48-5.36-13.71.15a24.12,24.12,0,0,0-4.93,7.09C1952,826,1947.39,837,1945.21,848.6c-1.7,9.06-3.14,18.2-2.85,27.49a20.27,20.27,0,0,1-.86,7.33,20.06,20.06,0,0,1-1.49-2.77c-3.69-10.07-8.72-19.64-10.2-30.52-1.62-11.89-2.61-23.73-1.77-35.72.43-6.14.58-12.27,2.66-18.17,1.67-4.75,4.27-8,9.31-10a279.7,279.7,0,0,0,28.9-13.18c9.15-4.88,17.75-10.81,26.59-16.28l3.57-2.24c.93,4.89.68,9.42,1.22,13.86a115.78,115.78,0,0,0,2.64,13.55c1.07,4.31,2.38,8.58,3.87,12.76a103.44,103.44,0,0,0,5.28,12.78c2,3.82,2.4,8.5,5.05,12l1.36-.55a12.39,12.39,0,0,0,.12-2.84c-.6-3.36-1-6.82-2.11-10-1.93-5.43-1.89-11.06-2.44-16.64a17.57,17.57,0,0,1-.14-4.09c1.57-11.17,2.93-22.38,5-33.46.95-5.13,3.67-9.92,4.93-15,1.84-7.44,7.09-12,12.52-16.56a30.46,30.46,0,0,0,4.88-5.87c2.83-4,6.1-7.53,10.88-9.76a10.75,10.75,0,0,1-.77,2.78c-8.47,14-11.17,30-15.27,45.43-3.88,14.65-4.64,29.7-5.19,44.72-.56,15.18-.21,30.4-.68,45.58-.5,16,1.91,31.66,4,47.38,1.28,9.47,3.14,18.86,4.7,28.3,3.41,20.64,9.59,40.47,17.2,59.9,1.68,4.29,2.86,8.78,4.61,13a100,100,0,0,0,16.72,26.82,17.35,17.35,0,0,1,1.75,2.51,5.34,5.34,0,0,1,.25,1.59c-2.82.69-5.15-.29-7.34-1.64-6.37-3.94-12.56-8.18-19.08-11.83-5-2.81-8.38-6.9-11.21-11.65-2.45-4.11-5-8.16-7.3-12.35a69.82,69.82,0,0,1-4.07-8.83c-2.9-7.64-6-15.23-8.31-23.06-3.37-11.67-5.27-23.62-4.28-35.87,0-.68.08-1.36.08-2.05,0-4.2-1.44-5.11-5.43-3.48-7.36,3-11.73,1.52-15-5.55a64.41,64.41,0,0,1-5.44-36.51,10.62,10.62,0,0,1,1-3.44c4.11-7.84,5.14-16.63,7.76-24.92.87-2.77,1.76-5.54,2.52-8.34a13,13,0,0,0,0-3c-2.35.49-2.86,2.19-3.69,3.6-6.59,11.17-13.29,22.28-19.79,33.49-5.74,9.89-11.75,19.67-16.71,29.94a86.48,86.48,0,0,0-6.42,20.44c-1.82,9-3.73,18.12-2.68,27.45.41,3.54,1,7.07,1.62,10.59.33,1.81.94,3.57,1.66,6.19-8.32-1.92-16-3.4-20.47-10.84a61.06,61.06,0,0,1-8.75-28.1c-.43-7.67-1.19-15.3,0-23a3.58,3.58,0,0,0-1.27-3,4,4,0,0,0-3.31,0,18.26,18.26,0,0,0-3.44,3c-6-5.8-9.09-12.94-11.31-20.46-1.49-5.06-2.22-10.34-3.33-15.51-2.93-13.57-1.67-26.84,2.78-39.89,2-6,4-12,6.33-17.88,1.11-2.76,3.09-5.18,5.23-8.66-1.66.84-2.9,1.06-3.38,1.78a43.85,43.85,0,0,0-4.32,7.54c-5,12.21-9.24,24.63-10.37,37.92-.75,8.8.61,17.37,2.38,25.93,1.42,6.88,3.1,13.66,6.33,20,1.08,2.1,2.32,4.13,3.59,6.13.81,1.29,2,2.37,2.69,3.71,2.43,4.59,2.38,4.61,7,3,.16,16.53-1.88,33.26,5.21,49.09-.66.3-1.16.76-1.5.66-4.24-1.25-8.54-2.39-12.67-3.94a101.16,101.16,0,0,0-25.79-6.32,21.61,21.61,0,0,1-4.53-.88c-4.08-1.34-5.6-4.6-4.39-8.7,1.84-6.22,3.74-12.43,5.29-18.72,3.27-13.21,3.73-26.72,4-40.23.13-6.66.12-13.33.38-20,.09-2.25-.39-4.18-2.06-5.5-2.32-1.81-2.64-4.21-2.84-6.83-.56-7.61,1.7-14.58,5.22-21.09s7.53-12.56,11.43-18.76a5.66,5.66,0,0,1,2.54-2.16c8-3,16-6,24-8.87a8.34,8.34,0,0,1,2-.12c-.43,1.26-.71,2.32-1.14,3.31-2.57,6-2.68,12.27-3.11,18.6-1.15,16.86-.35,33.58,4.86,49.71,3.36,10.39,7.92,20.39,12,30.55.91,2.29,1.94,4.53,2.92,6.79Z" transform="translate(-1648.12 -681.85)"/><path class="cls-2" d="M1723.25,926.06c-.85,5.58,3.76,12.41,14.73,22.18,7.19,6.4,16,9.65,24.86,12.94,9,3.36,18,1.7,27.42-.78-.2,1.42,0,2.26-.4,2.64-4.32,4.8-8.68,9.2-15,11.84-8.12,3.39-16.51,4.21-25,4.66-3.95.21-8-1.2-12-2.09-1.38-.31-2.59-1.11-3.5,1.16a13.74,13.74,0,0,0,2.51,2,78.66,78.66,0,0,0,27.89,8.07c7.73.7,15.42,1.11,22.84-1.42a161.28,161.28,0,0,0,15.5-6.51c2.46-1.14,4.66-2.34,7.41.64a29.19,29.19,0,0,1-2.19,4c-2.56,3.41-5.45,6.58-7.88,10.08-6.34,9.08-15.08,14.1-25.86,15.89-2.36.39-4.7,1.17-7.06,1.25a21,21,0,0,1-7-.88c-3.47-1.12-4.43-3.27-3.71-6.8.32-1.55.64-3.1,1.05-5.12-5.44.84-10.08,1.94-14.76,2.17a83.83,83.83,0,0,1-14.76-.71c-3.57-.46-7-1.16-11,.72-1.34-3.2-2.81-6.06-3.77-9.09-2.83-8.95-2.91-18.16-1.63-27.35,1.25-9,2.85-17.87,4.38-26.79a24.22,24.22,0,0,1,1.57-5.4c3.48-8,6.7-16.09,10.74-23.77,3.74-7.1,9.15-13.13,14.8-18.85,4.19-4.23,8.22-8.68,12.79-12.48,8-6.64,15.91-13.48,24.59-19.1,11.46-7.42,23.6-13.77,35.49-20.51,1.08-.62,2.42-.76,4.53-1.39-3.07,6-5.63,11.1-8.34,16.16-8.37,15.65-11.54,32.48-10.74,50,.23,5.19,1.79,10.43,3.5,15.39,2.19,6.39,5.14,12.51,7.88,19-6.93,3.18-14.07,4-21.21-.89-6.19-4.28-12.66-8.26-16.53-15a44.42,44.42,0,0,1-3.4-8.52c-4.23-13.26-6.06-26.64-1.76-40.3a10.19,10.19,0,0,0,.2-4.49,33.47,33.47,0,0,0-4.44,12.83,53.05,53.05,0,0,0,.88,21.39c1.9,7.09,3.51,14.27,5.29,21.39a7.17,7.17,0,0,0,1.15,2.81c4.72,5.63,9.38,11.32,14.4,16.66,1.49,1.59,4.1,2.11,6.4,3.22-1.29,6.06-6.18,7.85-11,9.34a32.87,32.87,0,0,1-21.64-.7c-3.61-1.35-7.38-2-11-3-5.85-1.59-10.41-5.65-14.79-9.79a52.37,52.37,0,0,1-10.89-15.36C1724.51,926.92,1723.87,926.6,1723.25,926.06Zm33.32-43.51c-2.8,1.6-2.89,1.6-3,3.45-.52,8.69-1.17,17.39,1.42,25.92a38.91,38.91,0,0,1,.75,5.12c-4.51-2.67-8-4.74-10.14-8.41-2-3.44-3.78-7-6.2-11.53-.35,7.47,3.28,11.9,7.22,16,3.22,3.35,7,6.11,12.74,6.65C1755,907.21,1754.94,895.13,1756.57,882.55Z" transform="translate(-1648.12 -681.85)"/><path class="cls-2" d="M2033,996.69c-1.19-.54-2.07-.94-2.94-1.36-15.8-7.69-31.57-15.42-47.4-23-2.75-1.32-5.84-2-8.58-3.32a15.85,15.85,0,0,1-5.67-4.07c-5.19-6.87-9.16-14.51-10.55-23-.74-4.59-.07-9.41.1-14.12.12-3.17,0-6.44.82-9.46,1.75-6.74,3.09-13.81,6.22-19.92,7.16-14,15.28-27.42,23-41.07,2.35-4.13,4.77-8.22,7.21-12.3a6.29,6.29,0,0,1,2.55-2.38c-2.24,6.45-2.3,13.36-5.5,19.55a29,29,0,0,0-2.73,9.73,65.08,65.08,0,0,0,4.6,33.08c3.89,9.5,8.8,12.32,18.7,9.66a12.36,12.36,0,0,1,2.59,0c0,1.8.08,3.46,0,5.12a110.13,110.13,0,0,0,7.73,47.12c3.62,9.2,6.58,18.67,9.81,28A7.39,7.39,0,0,1,2033,996.69Z" transform="translate(-1648.12 -681.85)"/><path class="cls-2" d="M1897.44,803.45c-3,5.2-5.49,9.61-8,14-4.61,8-7.7,16.36-7.17,25.77a11.19,11.19,0,0,0,2.52,7c2.46,3,2.9,6.95,2,10.68-2.21,9-2.33,18.19-2.72,27.43-.36,8.61-.21,17.5-3.16,25.82-3,8.5-6.19,16.94-12.24,23.93a4.38,4.38,0,0,1-4.93,1.63,63.48,63.48,0,0,1-6.94-1.76,15.47,15.47,0,0,1-5-3.17c-6.51-6.27-8.11-14.39-8.06-23,0-4.08-.11-8.3.82-12.22,1.28-5.44,3.48-10.66,5.36-16a3.05,3.05,0,0,1,1.34-1.46c2-1.12,2.17-3,2-4.89a23.22,23.22,0,0,0-.91-6c-3.82-10-2.7-20.23-1.53-30.38.7-6.06,2.43-12,4-17.94a7,7,0,0,1,3.41-4.06c11.42-4.94,23-9.64,34.47-14.35A33.94,33.94,0,0,1,1897.44,803.45Z" transform="translate(-1648.12 -681.85)"/><path class="cls-2" d="M1852.35,822.05c-1.29,6.64-2.4,12.48-3.58,18.31a70.64,70.64,0,0,0,.82,32.49c.67,2.52.58,4.6-1.54,6.48-6.27,5.56-7.63,13.21-8.08,20.94-.61,10.59-.51,21.19,2.73,31.5a11.84,11.84,0,0,1,.38,3,4.25,4.25,0,0,1-.38,1.35c-5.36,0-10.61,0-15.86,0a5.16,5.16,0,0,1-2.9-.84c-6.42-4.92-12-10.09-14-18.78-3-12.89-2.42-25.38.73-38,1.24-5,2.61-9.91,3.51-14.93,1.91-10.68,7.22-19.82,12.63-28.92a7.09,7.09,0,0,1,3.12-2.46C1837.19,828.83,1844.5,825.59,1852.35,822.05Z" transform="translate(-1648.12 -681.85)"/><path class="cls-2" d="M1804.35,997.18c-2.38,6.89-3.88,14.27-7.36,20.56a44.39,44.39,0,0,1-24.42,20.8,61.41,61.41,0,0,1-11.27,3.18,10.84,10.84,0,0,1-6.85-1.28c-7.79-4.84-15.87-9.36-22.36-16a46,46,0,0,1-6.06-7.58c-2.54-4-4.68-8.24-7.38-13.08,2.12-.3,3.64-.92,5-.64a67.26,67.26,0,0,0,29.78-.06c.34.63.64.92.62,1.19-.32,7.93,4.32,12.17,13.12,11.1,7.09-.87,14.32-2,20.71-5.35,5.39-2.82,10.6-6.25,13.78-11.83.42-.74.74-1.54,1.1-2.32Z" transform="translate(-1648.12 -681.85)"/><path class="cls-2" d="M1685.11,823.27c1.24-1.15,1.6-1.33,1.72-1.61,2.82-6.73,4.36-7.66,11.59-6.78a26.7,26.7,0,0,1,5.51,1,57.29,57.29,0,0,0,21.17,2.91c4.06-.14,4.46,3.51,7.08,5.65a26.84,26.84,0,0,1-12.22,2.37c-4.47-.2-8.09.48-11.24,4.16-2.15,2.51-5.35,4.16-8.15,6.09-2.24,1.55-4.64,2.86-6.87,4.42-5,3.51-7.73,2.89-10.94-2.61-.23-.39-.76-.6-1.42-1.11a7.79,7.79,0,0,0-1.53,1.82c-.36.94-.25,2-.57,3-1.47,4.29-4.24,8-8.59,8.74-3.68.67-7.29-1.51-9.75-4.62-3.4-4.28-5.3-9-4-14.68,1-4.54,1.34-9.22,2-13.83a18.25,18.25,0,0,1,5-9.88c4.7-5.07,13.78-4.27,16.92,1.91,1.43,2.82,1.89,6.13,2.84,9.2C1684,820.59,1684.49,821.65,1685.11,823.27Z" transform="translate(-1648.12 -681.85)"/><path class="cls-2" d="M1849.74,981c4.21-.41,3.19,5.73,7.94,5.33,1.39-13.54.83-26.43-10-37.6a22.24,22.24,0,0,1,4.26-.35c4.22.63,8.4,1.51,12.62,2.09,2.81.39,4.11,2.09,5,4.52a58.13,58.13,0,0,1-.62,40.64c-1.88,5-3.95,9.82-7.51,13.89-3.07,3.51-3.35,3.5-6.75.37a27.46,27.46,0,0,0-4.31-2.62c-.33,3.49,0,6.39-1,8.76a63.92,63.92,0,0,1-10.31,17.36c-5.53,6.6-12.55,9.57-20.83,10.41-2.33.23-4.62.84-7.18.9,10-8.15,19.12-17,26.58-27.41C1845.27,1006.56,1847.24,993.74,1849.74,981Z" transform="translate(-1648.12 -681.85)"/><path class="cls-2" d="M1806.66,1044.14a12.24,12.24,0,0,1,1-2.15,66.61,66.61,0,0,0,10.71-24.71c.43-2.17,1.1-4.3,1.66-6.44.13-.5.11-1.19.43-1.46,6.23-5.26,4.24-13,5.84-19.59a21.85,21.85,0,0,0,.51-5.6,18.73,18.73,0,0,1,5.66-14c4.54-4.72,7.38-10.49,9.58-16.59a5.91,5.91,0,0,1,.8-1.19c8.87,3.3,14.31,15.75,11.72,27.83L1844.1,972c-.3,1.1-1,2.2-.69,2.72,3.25,5.63,2.64,11.31,1.13,17.34-2.08,8.31-3.76,16.78-9,23.76a180.12,180.12,0,0,1-13.94,16.29c-4.33,4.53-9.21,8.54-13.85,12.78Z" transform="translate(-1648.12 -681.85)"/><path class="cls-2" d="M1848,1031.35c2-5.83,3.79-10.82,5.58-15.8a4.4,4.4,0,0,1,.89-1.13c5.44,1.26,7.56.34,10.47-4.52,7.34-12.3,11.5-25.51,10.39-39.94-.36-4.71-1.93-9.33-3-14-.22-1-.51-2-.86-3.29,4.81-.61,9.28-1,12.91,2.75a7.87,7.87,0,0,1,2,2.89c1.41,4.73,2.81,9.48,3.87,14.3s.85,9.2-2.08,13.69-4.58,9.88-7.12,14.7a33.06,33.06,0,0,1-5.74,8.35c-6.46,6.32-13.22,12.34-20,18.32A14.46,14.46,0,0,1,1848,1031.35Z" transform="translate(-1648.12 -681.85)"/><path class="cls-2" d="M1778,1046.39a16.92,16.92,0,0,1,2.36-2c10.17-5.12,15.92-14.1,21-23.73s6.83-20.36,9.7-30.71c.5-1.8,1.06-3.6,1.71-5.36s.88-4.38,3.8-3.9c2.55.42,2.1,2.68,2.4,4.48,1.42,8.45.08,16.75-1.75,24.91-1.62,7.29-2.41,14.89-6.31,21.53a21.65,21.65,0,0,1-1.67,3.17c-3.24,3.85-3.55,10.59-9.93,11.27-5,.53-9.95,2.71-15.17,1.26A53.06,53.06,0,0,0,1778,1046.39Z" transform="translate(-1648.12 -681.85)"/><path class="cls-2" d="M1829.63,822.44c-3.49,1.7-7,3.34-10.46,5.11-9.11,4.66-18.23,9.31-27.25,14.13-2.33,1.24-4.14,1.35-6.37-1.19,8.23-7.32,18.11-12,28.08-16.77-1.74-2.52-3.71-1.85-5.36-1.41-7.58,2-15.17,4-22.66,6.35a81.8,81.8,0,0,0-11.88,4.76c-2.41,1.18-4.18.76-6.41-1a20.72,20.72,0,0,1,7.93-5.46c7.65-3.35,15.35-6.63,23.14-9.64a22.16,22.16,0,0,1,13.12-1.16c4.65,1.08,9.34,2,14,3.17a28.84,28.84,0,0,1,4.16,1.74C1829.64,821.55,1829.64,822,1829.63,822.44Z" transform="translate(-1648.12 -681.85)"/><path class="cls-2" d="M2004.47,749.69l11.77-9.76c-.21,1.91-.26,2.87-.42,3.81a56.9,56.9,0,0,0-.86,13.7c.32,5-1.06,10.16-1.7,15.24-.9,7.09-2.65,14.12-1.13,21.35a6.46,6.46,0,0,1-.74,3.82C2003.59,782.66,2003.27,766.43,2004.47,749.69Z" transform="translate(-1648.12 -681.85)"/><path class="cls-2" d="M1800.48,976.59c-11.69,11.07-30.89,13-49.2,6.31,2.16-.58,3.62-1.3,5.09-1.32,10.28-.09,19.74-3.36,29.08-7.2a17.72,17.72,0,0,0,2-.62C1792.59,970.94,1796.76,972.66,1800.48,976.59Z" transform="translate(-1648.12 -681.85)"/><path class="cls-2" d="M1764.32,814.87a17,17,0,0,1-.39,3.81c-1.25,3.66-2.69,7.25-4.24,11.36-2.6,1.44-5.42-.58-8.32-1.1s-5.59-1.4-8.38-2.12c.86-3.28.86-3.28,5.92-7.81-1.27-.14-2.31-.58-2.82-.24a26.19,26.19,0,0,0-3.77,3.38c-1.28,1.31-2.44,2.72-4.16,4.66l-6.86-8.23c5.7-.56,10.34-1.06,15-1.46,5.42-.46,10.85-.81,16.27-1.28a5.7,5.7,0,0,0,1.77-.9Z" transform="translate(-1648.12 -681.85)"/><path class="cls-2" d="M1764.32,814.94h21.8l.29.73-21.71,12.71c-.87-4.09,1.13-7.26,2.63-10.62l-3-2.87Z" transform="translate(-1648.12 -681.85)"/><path class="cls-2" d="M1800.14,827.16l-9.53,6.18c-1.56,1-3.19,1.94-4.67,3.07-3.89,3-5.3,2.85-9.67-1.3C1783.67,830.67,1791.7,828.46,1800.14,827.16Z" transform="translate(-1648.12 -681.85)"/><path class="cls-2" d="M1887,953.37c3.62.4,6.39.66,9.14,1,2.11.27,2.95,1.62,2.45,3.6-.74,2.88-1.67,5.7-2.89,9.79Z" transform="translate(-1648.12 -681.85)"/><path d="M1756.57,882.55c-1.63,12.58-1.56,24.66,2.78,37.2-5.77-.54-9.52-3.3-12.74-6.65-3.94-4.1-7.57-8.53-7.22-16,2.42,4.53,4.2,8.09,6.2,11.53,2.12,3.67,5.63,5.74,10.14,8.41a38.91,38.91,0,0,0-.75-5.12c-2.59-8.53-1.94-17.23-1.42-25.92C1753.68,884.15,1753.77,884.15,1756.57,882.55Z" transform="translate(-1648.12 -681.85)"/></svg>