<svg id="Layer_29" data-name="Layer 29" xmlns="http://www.w3.org/2000/svg" xmlns:xlink="http://www.w3.org/1999/xlink" viewBox="0 0 338.98 465.39"><defs><style>.cls-1{fill:url(#radial-gradient);}.cls-2{fill:url(#radial-gradient-2);}.cls-3{fill:url(#radial-gradient-3);}.cls-4{fill:url(#radial-gradient-4);}.cls-5{fill:url(#radial-gradient-5);}.cls-6{fill:url(#radial-gradient-6);}.cls-7{fill:url(#radial-gradient-7);}.cls-8{fill:url(#radial-gradient-8);}.cls-9{fill:url(#radial-gradient-9);}.cls-10{fill:url(#radial-gradient-10);}.cls-11{fill:url(#radial-gradient-11);}.cls-12{fill:url(#radial-gradient-12);}.cls-13{fill:url(#radial-gradient-13);}.cls-14{fill:url(#radial-gradient-14);}.cls-15{fill:url(#radial-gradient-15);}.cls-16{fill:url(#radial-gradient-16);}.cls-17{fill:url(#radial-gradient-17);}.cls-18{fill:url(#radial-gradient-18);}</style><radialGradient id="radial-gradient" cx="2742.87" cy="109.1" r="173.34" gradientUnits="userSpaceOnUse"><stop offset="0" stop-color="#ff9500"/><stop offset="0.15" stop-color="#fd9001"/><stop offset="0.33" stop-color="#f78003"/><stop offset="0.53" stop-color="#ed6606"/><stop offset="0.75" stop-color="#df430a"/><stop offset="0.98" stop-color="#ce150f"/><stop offset="1" stop-color="#cc1010"/></radialGradient><radialGradient id="radial-gradient-2" cx="2568.61" cy="475.65" r="14.17" gradientUnits="userSpaceOnUse"><stop offset="0" stop-color="#d6ca71"/><stop offset="0.39" stop-color="#93884f"/><stop offset="1" stop-color="#261c17"/></radialGradient><radialGradient id="radial-gradient-3" cx="2556.88" cy="322.23" r="14.2" xlink:href="#radial-gradient-2"/><radialGradient id="radial-gradient-4" cx="2560.14" cy="351.99" r="14.54" xlink:href="#radial-gradient-2"/><radialGradient id="radial-gradient-5" cx="2561.32" cy="380" r="11.72" xlink:href="#radial-gradient-2"/><radialGradient id="radial-gradient-6" cx="2544.63" cy="86.79" r="10.46" xlink:href="#radial-gradient-2"/><radialGradient id="radial-gradient-7" cx="2555.78" cy="285.87" r="12.78" xlink:href="#radial-gradient-2"/><radialGradient id="radial-gradient-8" cx="2562.54" cy="433.1" r="11.28" xlink:href="#radial-gradient-2"/><radialGradient id="radial-gradient-9" cx="2550.87" cy="196.52" r="13.2" xlink:href="#radial-gradient-2"/><radialGradient id="radial-gradient-10" cx="2555.34" cy="252.7" r="11.07" xlink:href="#radial-gradient-2"/><radialGradient id="radial-gradient-11" cx="2561.37" cy="409.1" r="9.95" xlink:href="#radial-gradient-2"/><radialGradient id="radial-gradient-12" cx="2553.68" cy="223.65" r="10.76" xlink:href="#radial-gradient-2"/><radialGradient id="radial-gradient-13" cx="2564.99" cy="453.73" r="9.2" xlink:href="#radial-gradient-2"/><radialGradient id="radial-gradient-14" cx="2549.52" cy="135.87" r="10.51" xlink:href="#radial-gradient-2"/><radialGradient id="radial-gradient-15" cx="2549.87" cy="165.43" r="9.03" xlink:href="#radial-gradient-2"/><radialGradient id="radial-gradient-16" cx="2544.6" cy="66.12" r="7.49" xlink:href="#radial-gradient-2"/><radialGradient id="radial-gradient-17" cx="2548.26" cy="109.28" r="7.59" xlink:href="#radial-gradient-2"/><radialGradient id="radial-gradient-18" cx="2544.34" cy="49.02" r="5.6" xlink:href="#radial-gradient-2"/></defs><path d="M2536,106.21c-3-1.06-4.21-3.5-5.55-6.38-2-4.35-3.35-8.6-2.66-13.34a38.51,38.51,0,0,1,1.71-7.39,7.28,7.28,0,0,0,.45-4.69c-1.33-4.84-1.55-9.63,1.2-14.18.38-.63.19-1.58.34-2.37.58-3,.65-6.35,1.91-9.08,1.85-4,3.24-8.37,7.26-11.09,1.09-.74,1.46-2.54,2.18-3.83s1.67-1.7,3-.83a20.42,20.42,0,0,1,7.43,8.81A36.22,36.22,0,0,1,2557,58.33c-.05,2.75,1.19,5.53,1.83,8.29a6.38,6.38,0,0,1,.47,2.39c-.95,5.07.73,9.67,2.37,14.29,2.53,7.08,1.44,13.88-1.62,20.53-.28.61-.5,1.24-.73,1.88,0,.1.05.25.21.9,1.64,0,3.61.58,5.26.08,7.5-2.29,14.88-.85,22.21.49A111.45,111.45,0,0,1,2623.89,121c5,3,10.51,5.14,15.63,7.95,5.83,3.19,11.52,6.64,17.21,10.07,13.5,8.15,27.72,13.26,43.81,10.5,8-1.38,16-3,24.07-4.44a107.17,107.17,0,0,1,33.3-.77,133.6,133.6,0,0,1,27.55,6.89c11.66,4.13,22.05,10.56,32.16,17.37a140,140,0,0,1,24.7,20.59c5.63,6.08,11.75,11.73,17.06,18.07,2.91,3.47,4.72,7.9,6.79,12,1,2,0,4-2,5.14s-3.72,1-5-.9c-1.19-1.74-2.7-2-4.43-2.33-5.59-1.18-11.12-.64-16.62.41-6.13,1.17-12.44,1.92-18.27,4a139.21,139.21,0,0,0-21.1,9.61,260,260,0,0,0-23.45,14.75c-6.65,4.68-12.82,10.05-19.09,15.26-4,3.29-7.57,7-11.6,10.21-6.17,4.9-12.45,9.67-18.9,14.17a92.71,92.71,0,0,1-13.65,8.1c-6.51,3-13.26,5.6-20,8-10.07,3.54-20.67,2.7-31.09,3-7.88.2-15.77-.47-23.65-.4-7.19.07-14.39.6-21.58.95-1,0-1.89.22-2.83.27-10,.51-19.25,3.15-27.22,9.51-2,1.61-4.29,2.91-6.3,4.51-4.93,3.93-6.59,9.22-5.67,15.25a129.35,129.35,0,0,0,3.27,16.38,19.75,19.75,0,0,1-.28,11.24c-1.61,5.59-.93,11,0,16.53,1,6,1.83,12,.48,18.12a8.83,8.83,0,0,0,0,2.81c.3,2.57,1.21,5.2.89,7.68-.76,5.81,1,11.33,1.21,17a41.6,41.6,0,0,1-.64,8,10.43,10.43,0,0,0,.26,5.53,30.74,30.74,0,0,1,1.77,8.73,16.4,16.4,0,0,0,3.68,9.66c5.05,6.55,5.2,14.06,4.17,21.78-2.55,3.31-4.79,6.92-7.72,9.85-4.63,4.63-10.3,7.08-17,5.48-5.62-1.34-10.28-4.15-13.47-9.14-2.5-3.92-4.51-7.78-4.27-12.82.29-6.22-.77-12.48-.61-18.71a196.45,196.45,0,0,0-.75-20.74,4.22,4.22,0,0,1,.28-2c2.26-4.84,1.94-9.82.36-14.65-1.78-5.43-1-10.56,1.26-15.48a11.2,11.2,0,0,0,.06-9.47c-2.39-5.44-2.69-11-2.22-16.79a13.91,13.91,0,0,0-.17-2.8c-.5-4-1.08-8.07-1.55-12.11a23,23,0,0,1,.87-9.65c1.36-4.36.27-8.84-.2-13.28a141.48,141.48,0,0,1-1.28-16.16c0-5.53.92-11.05,1.42-16.57.05-.53.22-1.26,0-1.59-2.74-3.27-2.26-7.45-3.24-11.21-1.76-6.74-2.06-13.5.38-20.09,1.47-4,.94-7.8-.15-11.55a22.8,22.8,0,0,1,.14-14,12.32,12.32,0,0,0-.19-8.32,25.48,25.48,0,0,1-.55-14.45,5.28,5.28,0,0,0-.82-4.94,15.48,15.48,0,0,1-3.2-11.06c.53-6.1.86-12.2,1.28-18.3a1.74,1.74,0,0,1,.16-.8c3-4.56.25-9.09.05-13.66-.23-5.12,0-10.28.15-15.41a4.21,4.21,0,0,1,1-2.6c2.18-2.22,2-4.81,1-7.23-2.5-5.93-2.68-12.22-2.92-18.42-.13-3.43,1.11-6.91,1.69-10.38a9.88,9.88,0,0,0,.26-3.14C2537.76,115.52,2536.89,111.12,2536,106.21ZM2852.85,212a53,53,0,0,0-3.15-4.65c-1.6-1.84-3.4-3.51-5.09-5.28-10.82-11.37-22.48-21.73-35.91-30-7.06-4.34-14-8.83-21.75-12a114.45,114.45,0,0,0-28.61-7.94c-8-1-16-2-24-.87-9.55,1.37-19.09,2.91-28.49,5a71.51,71.51,0,0,1-22.29,1.18c-13.68-1.27-25.23-7.94-36.55-15.07-3.67-2.31-7.27-4.75-11.09-6.78-6.37-3.39-12.87-6.51-19.33-9.69-3.91-1.92-7.71-4.23-11.82-5.5-7.25-2.24-14.69-3.86-22.07-5.65-6.75-1.64-13.49-.87-20.22.24a3.69,3.69,0,0,0-3.27,3c-1.15,3.65-.57,6.72,1,10.16,2.58,5.66,4.95,11.53,2.76,18.06a11.83,11.83,0,0,0,.19,7.15c2.07,7.33,1.58,14.84.1,22.21a8.69,8.69,0,0,0,.25,5.5c2.69,5.93,2.9,12.33,2.08,18.42-.88,6.48-.91,12.57,1.46,18.65a15.87,15.87,0,0,1,.47,2,23.4,23.4,0,0,1-1,15.18c-.78,1.77-.11,3.06.59,4.59,1,2.32,2.35,4.72,2.59,7.18.63,6.63,1.05,13.32-.88,19.86a8.64,8.64,0,0,0,.31,5.56,26.76,26.76,0,0,1,1.71,7.1c.43,7,.55,14.06.78,21.1,0,.81-.33,1.74,0,2.41,1.59,3.72,1.65,7.66,2,11.58a6.69,6.69,0,0,0,.64,1.72c3.55-.34,5.18-3.19,7.55-4.91a49.41,49.41,0,0,1,23.65-9.27,228.41,228.41,0,0,1,32.14-1.35c2.72.08,5.43.41,8.15.38,6.24,0,12.51-.59,18.73-.28,7.14.36,14.08-.76,21.08-1.65a14.82,14.82,0,0,0,2.8-.58c10.49-3.45,20.67-7.58,30-13.66,7.73-5.06,15.43-10.15,22-16.74a61,61,0,0,1,5-4.2c5-4,9.86-8.13,14.94-12,6.37-4.86,12.8-9.64,19.39-14.19,5-3.48,10.26-6.69,15.55-9.75a110.87,110.87,0,0,1,31.22-12.78A122.68,122.68,0,0,1,2852.85,212Zm-284.55,249c-1.14.26-1.69.32-2.19.5-1.92.67-3.85,1.32-5.73,2.07-5.06,2-5.35,2.48-5.34,7.78a29.72,29.72,0,0,0,0,3.27c1,8.84,4.4,13.47,12.51,15.45,3.22.78,5.9.28,8.06-2.37,1.37-1.69,2.88-3.26,4.25-4.95,3.43-4.24,3-13.84-.67-17.82-.18-.2-.36-.46-.59-.54C2575,463.13,2571.42,462,2568.3,460.94Zm-16.58-120.53a41.41,41.41,0,0,1,11.73-12.1c.92-.64,1.42-2.26,1.63-3.5,1-6.32-.52-12.43-1.76-18.55a2.56,2.56,0,0,0-2.6-2.14,7.63,7.63,0,0,0-5.79,1.33c-1.87,1.43-4.84,2.43-5.6,4.88a30.83,30.83,0,0,0-.94,7.53A64.07,64.07,0,0,0,2551.72,340.41Zm14.22-6.34c-9.66,3.71-20.56,23.79-13.77,35.85.26,0,.6,0,.78-.11,4.86-3.72,9.78-7.31,15.39-9.89,1.94-.88,2.35-3,1.37-5.33a38.29,38.29,0,0,1-3.27-17A19.4,19.4,0,0,0,2565.94,334.07Zm2.45,31.67c-4.15.61-4.75.68-7.68,3.54-3.87,3.77-7.91,7.51-7.85,13.63,0,4.2,2.09,7.69,3.37,11.35l13.54-2.47c-.47-4.37-1.1-8.62-1.33-12.88S2568.39,370.35,2568.39,365.74ZM2553.27,97.12c2-4.62,1.19-8.8-.56-12.85-1.1-2.56-2.55-5-4-7.82-.6-.14-1.65-.43-2.71-.6a12.43,12.43,0,0,0-2.44-.1c-5.69.21-8.53,3-8.7,8.61a69.21,69.21,0,0,0,.38,7.33,9.84,9.84,0,0,0,2.64,6.16C2542.66,95,2547.73,95.79,2553.27,97.12Zm-3.57,205c4.86-2.83,8.83-5.09,12.74-7.45a2.6,2.6,0,0,0,.87-1.72c.44-3.78.85-7.53-.52-11.27-1.42-3.9-2.59-7.9-3.93-12a7.15,7.15,0,0,0-4.31,3.45c-1.44,2.19-3.41,4.18-3.36,7.1C2545.81,286.83,2548.12,293.92,2549.7,302.11Zm5.66,144.19a47.62,47.62,0,0,1,5.39-3.34,58.15,58.15,0,0,1,8-2.89,3.4,3.4,0,0,0,2.76-3.52q0-5.88-.29-11.75a9.48,9.48,0,0,0-1.14-3,2.73,2.73,0,0,0-4-1.48C2556.68,424.47,2550.3,434.42,2555.36,446.3Zm-9.49-232.39c2.77-3.14,4.64-6.15,7.3-8.07,3.67-2.67,5-5.79,4.31-10.08a19.92,19.92,0,0,1,0-2c-.31-5.11-1.08-10.09-4.25-14.58a16.77,16.77,0,0,0-7.69,9.79c-2.09,6.89-1.6,14-.84,21A26.27,26.27,0,0,0,2545.87,213.91Zm6.12,52.7c3.44-2.19,6.65-4.16,9.75-6.29a2.81,2.81,0,0,0,.78-2.09c-.12-6.92-1.17-13.6-5.27-19.44C2546.92,243.7,2545.72,256.32,2552,266.61ZM2564.71,398c-10.6,5.42-15,15.35-9.72,22.28l15-5.8c-.25-3.74-.53-7.22-.7-10.71C2569.12,400.68,2567.94,398.54,2564.71,398Zm-15.8-160.41c3.82-2.24,7-4,10-6a2.44,2.44,0,0,0,.84-1.73c.46-7.14-.71-13.91-4.59-20.11a11.56,11.56,0,0,0-5.48,10.34,7.65,7.65,0,0,1-.71,4.22C2546.37,228.53,2547.71,232.57,2548.91,237.55Zm7.3,224.65c2.91-1,5.62-1.92,8.3-2.89,2.85-1,5.62-.24,8.44.15,1.63.23,2.05-1.12,1.88-2.46a61.39,61.39,0,0,0-1.17-7.18c-1.06-4.16-4.82-5.71-8.61-3.69a24.8,24.8,0,0,0-3.84,2.32C2556.75,452,2553.25,457,2556.21,462.2ZM2549,122.12c-3.05,3.77-5.76,7.16-4.94,12.17.42,2.53.3,5.14.75,7.66s1,5.25,2.85,7.68c2.14-1.43,4.24-2.66,6.11-4.16a3.62,3.62,0,0,0,1.38-2.69c-.69-4.51-.43-9.22-2.71-13.43C2551.27,127.23,2550.34,125,2549,122.12Zm4.59,31.71c-9.62,5-10.74,11.79-7.17,23.21a12.64,12.64,0,0,1,3-2.09c5-1.61,6.46-5,5.62-9.9C2554.36,161.39,2554.05,157.69,2553.57,153.83Zm-15.18-80.37c4.51-.66,8.44-1.46,13,.82a76.29,76.29,0,0,0-1.79-8.7,66,66,0,0,0-3.39-7.37c-4.33-1.36-4.86,3.23-6.85,5.2C2536.68,66,2538.4,69.75,2538.39,73.46Zm7.39,45.41c6.78-3.76,8.71-7.59,6.28-13.53-.75-1.83-2.77-3.2-4.36-4.61a3.3,3.3,0,0,0-4-.62C2543.69,106.57,2542.41,113,2545.78,118.87Zm-5.39-63.2,8.23-.72c.26-4.74-2-8.26-4.91-12.58C2542,47.27,2539,50.86,2540.39,55.67Z" transform="translate(-2527.59 -32.57)"/><path class="cls-1" d="M2852.85,212a122.68,122.68,0,0,0-26.46,3.46,110.87,110.87,0,0,0-31.22,12.78c-5.29,3.06-10.52,6.27-15.55,9.75-6.59,4.55-13,9.33-19.39,14.19-5.08,3.86-10,8-14.94,12a61,61,0,0,0-5,4.2c-6.57,6.59-14.27,11.68-22,16.74-9.3,6.08-19.48,10.21-30,13.66a14.82,14.82,0,0,1-2.8.58c-7,.89-13.94,2-21.08,1.65-6.22-.31-12.49.23-18.73.28-2.72,0-5.43-.3-8.15-.38a228.41,228.41,0,0,0-32.14,1.35,49.41,49.41,0,0,0-23.65,9.27c-2.37,1.72-4,4.57-7.55,4.91a6.69,6.69,0,0,1-.64-1.72c-.35-3.92-.41-7.86-2-11.58-.29-.67.07-1.6,0-2.41-.23-7-.35-14.08-.78-21.1a26.76,26.76,0,0,0-1.71-7.1,8.64,8.64,0,0,1-.31-5.56c1.93-6.54,1.51-13.23.88-19.86-.24-2.46-1.54-4.86-2.59-7.18-.7-1.53-1.37-2.82-.59-4.59a23.4,23.4,0,0,0,1-15.18,15.87,15.87,0,0,0-.47-2c-2.37-6.08-2.34-12.17-1.46-18.65.82-6.09.61-12.49-2.08-18.42a8.69,8.69,0,0,1-.25-5.5c1.48-7.37,2-14.88-.1-22.21a11.83,11.83,0,0,1-.19-7.15c2.19-6.53-.18-12.4-2.76-18.06-1.57-3.44-2.15-6.51-1-10.16a3.69,3.69,0,0,1,3.27-3c6.73-1.11,13.47-1.88,20.22-.24,7.38,1.79,14.82,3.41,22.07,5.65,4.11,1.27,7.91,3.58,11.82,5.5,6.46,3.18,13,6.3,19.33,9.69,3.82,2,7.42,4.47,11.09,6.78,11.32,7.13,22.87,13.8,36.55,15.07a71.51,71.51,0,0,0,22.29-1.18c9.4-2.08,18.94-3.62,28.49-5,8-1.14,16-.17,24,.87a114.45,114.45,0,0,1,28.61,7.94c7.72,3.16,14.69,7.65,21.75,12,13.43,8.25,25.09,18.61,35.91,30,1.69,1.77,3.49,3.44,5.09,5.28A53,53,0,0,1,2852.85,212Z" transform="translate(-2527.59 -32.57)"/><path class="cls-2" d="M2568.3,460.94c3.12,1,6.72,2.19,10.31,3.39.23.08.41.34.59.54,3.71,4,4.1,13.58.67,17.82-1.37,1.69-2.88,3.26-4.25,4.95-2.16,2.65-4.84,3.15-8.06,2.37-8.11-2-11.53-6.61-12.51-15.45a29.72,29.72,0,0,1,0-3.27c0-5.3.28-5.75,5.34-7.78,1.88-.75,3.81-1.4,5.73-2.07C2566.61,461.26,2567.16,461.2,2568.3,460.94Z" transform="translate(-2527.59 -32.57)"/><path class="cls-3" d="M2551.72,340.41a64.07,64.07,0,0,1-3.33-22.55c.09-2.12-.09-4.42,1.87-6a1.39,1.39,0,0,0,.49-1.05c-.46-3.26,2.31-3.92,4.18-5.35a7.63,7.63,0,0,1,5.79-1.33,2.56,2.56,0,0,1,2.6,2.14c1.24,6.12,2.8,12.23,1.76,18.55-.21,1.24-.71,2.86-1.63,3.5A41.41,41.41,0,0,0,2551.72,340.41Z" transform="translate(-2527.59 -32.57)"/><path class="cls-4" d="M2565.94,334.07a19.4,19.4,0,0,1,.5,3.5,38.29,38.29,0,0,0,3.27,17c1,2.34.57,4.45-1.37,5.33-5.61,2.58-10.53,6.17-15.39,9.89-.18.14-.52.08-.78.11C2545.38,357.86,2556.28,337.78,2565.94,334.07Z" transform="translate(-2527.59 -32.57)"/><path class="cls-5" d="M2568.39,365.74c0,4.61-.18,8.9.05,13.17s.86,8.51,1.33,12.88l-13.54,2.47c-1.28-3.66-3.33-7.15-3.37-11.35-.06-6.12,4-9.86,7.85-13.63C2563.64,366.42,2564.24,366.35,2568.39,365.74Z" transform="translate(-2527.59 -32.57)"/><path class="cls-6" d="M2553.27,97.12c-5.54-1.33-10.61-2.14-15.43.73a9.84,9.84,0,0,1-2.64-6.16,69.21,69.21,0,0,1-.38-7.33c.17-5.66,3-8.4,8.7-8.61a12.43,12.43,0,0,1,2.44.1c1.06.17,2.11.46,2.71.6,1.49,2.85,2.94,5.26,4,7.82C2554.46,88.32,2555.3,92.5,2553.27,97.12Z" transform="translate(-2527.59 -32.57)"/><path class="cls-7" d="M2549.7,302.11c-1.58-8.19-3.89-15.28,1.49-21.92-.05-2.92,1.92-4.91,3.36-7.1a7.15,7.15,0,0,1,4.31-3.45c1.34,4.13,2.51,8.13,3.93,12,1.37,3.74,1,7.49.52,11.27a2.6,2.6,0,0,1-.87,1.72C2558.53,297,2554.56,299.28,2549.7,302.11Z" transform="translate(-2527.59 -32.57)"/><path class="cls-8" d="M2555.36,446.3c-5.06-11.88,1.32-21.83,10.68-26a2.73,2.73,0,0,1,4,1.48,9.48,9.48,0,0,1,1.14,3q.33,5.86.29,11.75a3.4,3.4,0,0,1-2.76,3.52,58.15,58.15,0,0,0-8,2.89A47.62,47.62,0,0,0,2555.36,446.3Z" transform="translate(-2527.59 -32.57)"/><path class="cls-9" d="M2545.87,213.91a26.27,26.27,0,0,1-1.14-4c-.76-7-1.25-14.1.84-21a16.77,16.77,0,0,1,7.69-9.79c3.17,4.49,3.94,9.47,4.25,14.58a19.92,19.92,0,0,0,0,2c.71,4.29-.64,7.41-4.31,10.08C2550.51,207.76,2548.64,210.77,2545.87,213.91Z" transform="translate(-2527.59 -32.57)"/><path class="cls-10" d="M2552,266.61c-6.27-10.29-5.07-22.91,5.26-27.82,4.1,5.84,5.15,12.52,5.27,19.44a2.81,2.81,0,0,1-.78,2.09C2558.64,262.45,2555.43,264.42,2552,266.61Z" transform="translate(-2527.59 -32.57)"/><path class="cls-11" d="M2564.71,398c3.23.58,4.41,2.72,4.56,5.77.17,3.49.45,7,.7,10.71l-15,5.8C2549.75,413.31,2554.11,403.38,2564.71,398Z" transform="translate(-2527.59 -32.57)"/><path class="cls-12" d="M2548.91,237.55c-1.2-5-2.54-9,.09-13.23a7.65,7.65,0,0,0,.71-4.22,11.56,11.56,0,0,1,5.48-10.34c3.88,6.2,5,13,4.59,20.11a2.44,2.44,0,0,1-.84,1.73C2555.87,233.51,2552.73,235.31,2548.91,237.55Z" transform="translate(-2527.59 -32.57)"/><path class="cls-13" d="M2556.21,462.2c-3-5.2.54-10.17,5-13.75a24.8,24.8,0,0,1,3.84-2.32c3.79-2,7.55-.47,8.61,3.69a61.39,61.39,0,0,1,1.17,7.18c.17,1.34-.25,2.69-1.88,2.46-2.82-.39-5.59-1.18-8.44-.15C2561.83,460.28,2559.12,461.19,2556.21,462.2Z" transform="translate(-2527.59 -32.57)"/><path class="cls-14" d="M2549,122.12c1.36,2.87,2.29,5.11,3.44,7.23,2.28,4.21,2,8.92,2.71,13.43a3.62,3.62,0,0,1-1.38,2.69c-1.87,1.5-4,2.73-6.11,4.16-1.88-2.43-2.38-5.1-2.85-7.68s-.33-5.13-.75-7.66C2543.22,129.28,2545.93,125.89,2549,122.12Z" transform="translate(-2527.59 -32.57)"/><path class="cls-15" d="M2553.57,153.83c.48,3.86.79,7.56,1.41,11.22.84,4.92-.64,8.29-5.62,9.9a12.64,12.64,0,0,0-3,2.09C2542.83,165.62,2544,158.82,2553.57,153.83Z" transform="translate(-2527.59 -32.57)"/><path class="cls-16" d="M2538.39,73.46c0-3.71-1.71-7.46.93-10,2-2,2.52-6.56,6.85-5.2a66,66,0,0,1,3.39,7.37,76.29,76.29,0,0,1,1.79,8.7C2546.83,72,2542.9,72.8,2538.39,73.46Z" transform="translate(-2527.59 -32.57)"/><path class="cls-17" d="M2545.78,118.87c-3.37-5.9-2.09-12.3-2.07-18.76a3.3,3.3,0,0,1,4,.62c1.59,1.41,3.61,2.78,4.36,4.61C2554.49,111.28,2552.56,115.11,2545.78,118.87Z" transform="translate(-2527.59 -32.57)"/><path class="cls-18" d="M2540.39,55.67c-1.36-4.81,1.6-8.4,3.32-13.3,2.86,4.32,5.17,7.84,4.91,12.58Z" transform="translate(-2527.59 -32.57)"/></svg>