<svg id="Layer_25" data-name="Layer 25" xmlns="http://www.w3.org/2000/svg" xmlns:xlink="http://www.w3.org/1999/xlink" viewBox="0 0 363.9 371.77"><defs><style>.cls-1{fill:url(#radial-gradient);}.cls-2{fill:url(#radial-gradient-10);}.cls-3{fill:url(#radial-gradient-15);}.cls-4{fill:url(#radial-gradient-18);}.cls-5{fill:url(#radial-gradient-19);}.cls-6{fill:url(#radial-gradient-22);}.cls-7{fill:url(#radial-gradient-23);}.cls-8{fill:url(#radial-gradient-24);}.cls-9{fill:url(#radial-gradient-26);}.cls-10{fill:url(#radial-gradient-28);}.cls-11{fill:url(#radial-gradient-29);}.cls-12{fill:url(#radial-gradient-30);}.cls-13{fill:url(#radial-gradient-31);}.cls-14{fill:url(#radial-gradient-32);}.cls-15{fill:url(#radial-gradient-33);}.cls-16{fill:url(#radial-gradient-34);}</style><radialGradient id="radial-gradient" cx="1087.09" cy="277.44" r="118.13" gradientUnits="userSpaceOnUse"><stop offset="0"/><stop offset="1" stop-color="#70cfff"/></radialGradient><radialGradient id="radial-gradient-10" cx="1229.06" cy="369.43" r="19.36" gradientUnits="userSpaceOnUse"><stop offset="0" stop-color="#fff"/><stop offset="0.11" stop-color="#fafafa"/><stop offset="0.24" stop-color="#ecebea"/><stop offset="0.4" stop-color="#d5d2d0"/><stop offset="0.56" stop-color="#b5afac"/><stop offset="0.73" stop-color="#8c837e"/><stop offset="0.9" stop-color="#5b4e47"/><stop offset="1" stop-color="#3d2d25"/></radialGradient><radialGradient id="radial-gradient-15" cx="1051.03" cy="446.52" r="19.39" xlink:href="#radial-gradient-10"/><radialGradient id="radial-gradient-18" cx="1120.14" cy="446.49" r="18.97" xlink:href="#radial-gradient-10"/><radialGradient id="radial-gradient-19" cx="987.29" cy="412.98" r="18.63" xlink:href="#radial-gradient-10"/><radialGradient id="radial-gradient-22" cx="943.79" cy="360.71" r="20.85" xlink:href="#radial-gradient-10"/><radialGradient id="radial-gradient-23" cx="944.84" cy="192.39" r="17.3" xlink:href="#radial-gradient-10"/><radialGradient id="radial-gradient-24" cx="923.62" cy="270" r="16" xlink:href="#radial-gradient-10"/><radialGradient id="radial-gradient-26" cx="1180.78" cy="417.1" r="16.58" xlink:href="#radial-gradient-10"/><radialGradient id="radial-gradient-28" cx="1216.17" cy="181.61" r="14.22" xlink:href="#radial-gradient-10"/><radialGradient id="radial-gradient-29" cx="1157.13" cy="131.34" r="14.93" xlink:href="#radial-gradient-10"/><radialGradient id="radial-gradient-30" cx="1249.46" cy="238.09" r="14.24" xlink:href="#radial-gradient-10"/><radialGradient id="radial-gradient-31" cx="1099.96" cy="115.77" r="15.95" xlink:href="#radial-gradient-10"/><radialGradient id="radial-gradient-32" cx="1253.86" cy="304.39" r="13.53" xlink:href="#radial-gradient-10"/><radialGradient id="radial-gradient-33" cx="986.57" cy="151.89" r="15.58" xlink:href="#radial-gradient-10"/><radialGradient id="radial-gradient-34" cx="1032.67" cy="126.07" r="13.75" xlink:href="#radial-gradient-10"/></defs><path d="M1270.29,295.55c-.36-1.84-.48-3.72-.76-5.57a6.36,6.36,0,0,0-7-5.65c-2.66.22-5.3.48-8.13.74a7.13,7.13,0,0,1,.48-1.65,12.92,12.92,0,0,0,1.49-7.63c-.38-4.29-.85-8.59-1.61-12.83a5.26,5.26,0,0,1,1.17-4.92c.25-.27.48-.57.72-.87,2.28-2.86,2.33-3.91.43-7-.51-.84-.92-1.75-1.36-2.6,7.37-4.39,7.84-6.76,2.63-12.66.49-.63,1-1.26,1.48-1.95,2.8-4.23,3.46-8.67,1-13.27a10.08,10.08,0,0,0-12.34-4.4,67.15,67.15,0,0,0-7.34,4.21c-.24-.5-.5-1-.72-1.46-2.67-6-5.51-11.83-10.27-16.56-2.37-2.35-2.34-5.44-.59-8.29,2.32-3.79,2.07-4.92-1.61-7.28-.13-.08-.16-.32-.28-.58a8.12,8.12,0,0,1,.74-1.43c1.11-1.41.77-2.74,0-4.17s-2.18-1.94-3.64-2.4c-1.68-.53-1.78-.82-1.37-2.4.34-1.35.62-2.72.9-4.09a9.81,9.81,0,0,0-8.16-12,13.07,13.07,0,0,0-9.14,1.94c-1.75,1.06-3.4,2.26-4.81,3.2-3.58-2.89-6.83-5.7-10.29-8.24-3.23-2.38-6.52-4.75-10.43-6a16.23,16.23,0,0,1-4.34-1.74,10.56,10.56,0,0,1-4.54-9.21c0-.94.05-1.88,0-2.81a4.12,4.12,0,0,0-3.56-4.35c-.6-.14-1.19-.33-1.89-.52.33-1.73.75-3.27.92-4.83a3.74,3.74,0,0,0-3.83-4.43l-2.67-.16c-.07-1.07-.18-2-.19-2.89,0-5.1-4.72-9.66-9.46-10.29a6.13,6.13,0,0,0-3.74.64,20.16,20.16,0,0,0-4.76,3.91c-2.28,2.63-4.37,5.44-3,9.36a28.21,28.21,0,0,1,.74,4.09c-1.22-.3-2.09-.57-3-.73a39.81,39.81,0,0,0-6.37-.94,15.34,15.34,0,0,1-11.34-4.78c-1.69-1.74-3.11-3.74-4.69-5.59s-3.46-3.18-6.14-2.24a4.61,4.61,0,0,1-1.45,0c-.54-1.22-1.06-2.42-1.6-3.6-1.34-3-2.36-3.46-5.49-2.69-1.61.41-3.23.73-4.9,1.1a19.16,19.16,0,0,1-1.24-2.52c-1.28-3.89-5.47-5.55-9.23-5.3-2.28.16-3.82,1.34-5.64,2.24A5.71,5.71,0,0,0,1077,105c-.78,2.6-1.57,5.22-1,8a9.23,9.23,0,0,1,0,1.9,44.89,44.89,0,0,0-5.54,1.34c-5.13,1.94-10.48,3.53-14.41,7.74a1.91,1.91,0,0,1-1.16.68c-2.51-.11-5.13.06-7.5-.59a15.8,15.8,0,0,1-7.64-5c-2.71-3.12-5.54-2.51-7.42.39a13.21,13.21,0,0,1-1.5,1.62c-.64-.41-1.27-.61-1.54-1-2.11-3.32-5.48-4.37-9-5.15-6.66-1.47-11.36,3-10.06,9.67a7.83,7.83,0,0,0,.3,1.08l2.63,7.07a18.49,18.49,0,0,0-7.19,10.57c-6.53,2-12.9,2.55-19.18-.55a10.58,10.58,0,0,0-1.82-.75c-3.21-.85-6.5-3-9.49.5-.1.11-.35.09-.52.13-.48-.3-.94-.62-1.42-.91-5.13-3.14-9.06-.44-11,3.7-1,2-1.07,4.52-1.39,6.83a6,6,0,0,0,2.41,5.69c1.49,1.22,2.87,2.58,4.54,4.11a20,20,0,0,0-6.37,8.69A8.78,8.78,0,0,1,960.2,173a4.6,4.6,0,0,1-1.8,1.26c-1.67.61-3.38,1.13-5.1,1.57-4.49,1.14-6,2.84-6.59,7.43a5.22,5.22,0,0,1-.43,1c-1.12-.29-2.11-.62-3.12-.78a2.77,2.77,0,0,0-1.87.17c-1.51,1.21-3,2.35-3.38,4.6-.6,4.09-3.07,5.67-7.15,5.11a5.13,5.13,0,0,0-3.21.3,20.5,20.5,0,0,0-4.1,3.75c-2.66,3.05-1,11.18,4.18,13.43,1.77.77,3.64,1.3,5.53,2a2.26,2.26,0,0,1-.29.71,23.84,23.84,0,0,0-4.7,8.53c-1.28,4-1.2,8.15-1.66,12.24a25.28,25.28,0,0,0,.66,7.8,4.93,4.93,0,0,0,.38,1.34c1.67,3.14.74,6.15-1,8.7-2,2.93-4.56,5.38-8.35,6.18-3,.64-3.84,1.93-3.85,4.91,0,.53-.06,1.06-.09,1.64-1.39.13-2.6.19-3.79.37-3.13.47-4.13,1.75-3.91,5,.16,2.47.57,4.81,2.74,6.5,1.42,1.1,1.59,2.41.72,4.2a25.9,25.9,0,0,0-1.73,6.2,3,3,0,0,0,.5,2.34c2.55,2.48,5.47,4.32,9.25,3.88,1.83-.21,3.64-.64,5.54-1-.16,4.12-.29,8-.48,11.94A23.94,23.94,0,0,0,925.91,317c.87,1.61,2.4,2.87,3.35,4.46a12.42,12.42,0,0,0,7.9,5.87,3.79,3.79,0,0,1,2.78,2.81,29.62,29.62,0,0,1,1.54,11.63,10.87,10.87,0,0,1-4,8,52.53,52.53,0,0,0-5,5.2,2.26,2.26,0,0,0-.48,1.81c.62,2.15,1.12,4.4,3.25,5.72a10.18,10.18,0,0,1,1.19,1c-2.62,1.89-2.62,1.89-4.3,5.35a1.84,1.84,0,0,1-.3.48c-1.86,1.75-1,3.36.28,4.94,1,1.3,2.09,2.58,3.17,3.92a16.84,16.84,0,0,0-1.75,3.1,5.62,5.62,0,0,0-.26,3.45c.86,1.94,1.92,3.87,4,5,1.23.66,2.44,1.39,3.6,2.16,4.1,2.73,8,1.78,10.4-2.54a9.34,9.34,0,0,1,1.42-2.4c1.61-1.53,2.09-3.5,2.55-5.52.15-.68.34-1.35.65-2.6,1.06,1.23,1.71,2.1,2.48,2.84,1.76,1.66,3.36,3.65,5.43,4.78,5.71,3.13,5.66,3,8.21,9a15.21,15.21,0,0,1,.68,11.22,4.3,4.3,0,0,0,1,4.43c1.35,1.52,2.61,3.11,4,4.74-.42.59-.87,1.18-1.28,1.81a45.93,45.93,0,0,0-2.68,4.25c-.92,1.84-.75,2.67.84,3.93a12.6,12.6,0,0,0,3.63,2c2,.68,2.46,1.2,2.06,3.19-.21,1-.59,2-.77,3-.48,2.89,1.3,6,3.85,6.66,5.38,1.42,10.43,1,14.76-2.9,2.17-1.94,4.15-4,4.48-7.19.23-2.29.74-4.55,1.2-7.24,1.16.83,2.19,1.55,3.19,2.31a15.25,15.25,0,0,0,2.66,2,7.49,7.49,0,0,1,3.82,3.11c.34.59,1.63,1.31,2,1.09,1.82-1,3.24.34,4.82.54s3,.79,4.42.7a7.3,7.3,0,0,1,5.15,1.75c1.18.92,2.39,1.81,3.53,2.79,3.5,3,5.2,6.72,4.52,11.4a4.28,4.28,0,0,0,3.65,4.83c.88.19,1.79.31,2.7.46a7.34,7.34,0,0,1,.2,1.61c-.27,2.44,1.09,3.71,3.2,4.24a9.77,9.77,0,0,0,3.84.22c2.67-.41,3-.3,3.57,2.38a12.66,12.66,0,0,1,.18,2.23c0,2.46,2.49,5.59,4.86,5.78,8.28.65,14-3.79,14.76-12.54a9,9,0,0,0-2.2-7.07,20.64,20.64,0,0,1-1.7-2.8c1.83.27,3.1.47,4.37.64a10,10,0,0,0,2.49.22c4.08-.49,8.22-.64,12.15-2.09a3.87,3.87,0,0,1,4.39,1c1.11,1.14,2.39,2.11,3.58,3.18,3.09,2.75,5.58,3.09,9.23,1.23,1.69-.87,1.91-.92,2.94.74a3.55,3.55,0,0,0,3.51,1.87,16.12,16.12,0,0,0,5.16-1c3.24-1.44,3.17-1.59,4.87,1.5.28.49.48,1,.79,1.49a13.54,13.54,0,0,0,5.79,5.13c2.91,1.28,5.89.75,8.84.87,1.91.08,3.28-1,4.49-2.5a23.64,23.64,0,0,0,4.14-7.24c1.7-4.72.88-8.6-2.61-12.07a13.39,13.39,0,0,1-1.23-1.75c1.75-.77,3.33-1.36,4.8-2.14,4.63-2.45,8.79-5.41,10.73-10.62a2.59,2.59,0,0,1,.82-1.09c2.28-1.73,7.82-1.77,10.17-.11,3.32,2.34,4.92,2.37,8,.12,1.6-1.17,1.93-1.13,3.18.46.93,1.18,1.75,2.45,2.77,3.55,1.53,1.64,2.76,1.66,4.25,0a25.09,25.09,0,0,0,2.12-3.32c2.81.47,5.65.93,8.49,1.43,1.59.28,3.36.69,4.59-.49a30.29,30.29,0,0,0,2.23-2.43,6.71,6.71,0,0,0,1.33-5.84c0-.1,0-.19,0-.28-.29-1.56-.3-3.19-.74-4.7-1-3.62-2.61-6.81-6.7-8a12.23,12.23,0,0,1-3-1.93c2.54-2.48,4.94-4.66,7.15-7a20.44,20.44,0,0,0,4.91-8.06c3.44-2.9,7.29-3.38,11.07-4.07.28-.06.54-.29.8-.28,3.77.13,5.3-2.24,6.33-5.41.62-1.9,1.25-2.05,3.24-1.48,1.53.44,3,.93,4.57,1.32a3.56,3.56,0,0,0,4.33-1.74c.75-1.25,1.54-2.48,2.36-3.8,3.45,1.19,6.29-.71,9.24-2a3.25,3.25,0,0,0,1.26-1.1c1.85-2.69,3.82-5.29,3.93-8.8.09-2.75.28-5.58-1.23-7.91-3.22-4.92-7.59-7.73-13.8-6.33a12.74,12.74,0,0,1-2,.29,12.58,12.58,0,0,1-1.72-.14c.58-1.13,1-2.05,1.49-2.9a36.16,36.16,0,0,0,5.37-17.53c0-1.09.13-2.5.79-3.17,2.68-2.71,4.74-6.15,9.48-6.15s7.42-3.91,6.93-8.54c0-.38,0-.76-.08-1.13a2.44,2.44,0,0,1,2-2.92c2.4-.64,4-2.36,5.49-4.2A6.75,6.75,0,0,0,1270.29,295.55Zm-27.8-60.86a9.1,9.1,0,0,0,.35-2.2c.16-4.86,2.87-8.42,6.06-11.64,1.71-1.73,4.84-1.66,6.82-.27a3.62,3.62,0,0,1,.42.36c1.71,1.71,1.48,7.15-.36,8.74-.21.18-.45.32-.67.5-2.9,2.38-3,4.83-.25,7.53.71.69,1.46,1.34,2.14,2a4.23,4.23,0,0,1-3.18,2.84c-3.36.81-4.9,3.64-3,6.45,1.83,2.63,1,4.4-.62,6.39-.28.34-.54.7-1,1.27l-2.74-3c-.5-.55-.89-1.43-1.5-1.61-2.23-.65-2.7-2.53-3-4.31A32,32,0,0,1,1242.49,234.69Zm3.36,20.1c3.08,3.59,4,8,4.85,12.39.5,2.56.46,5.23.82,7.83a14,14,0,0,1-1.44,7.63,52.76,52.76,0,0,0-3.23,9.25c-.68,2.95-2.35,5.69-3.61,8.5-1.64,3.67-3.28,7.34-5,11-1,2-2,3.94-3,5.74l-7.06-1.35a4.1,4.1,0,0,1,.77-4.54,51.45,51.45,0,0,0,6.29-11.24c2.38-5.28,2.69-10.47-.35-15.57a7.41,7.41,0,0,1-.47-6.77,11.54,11.54,0,0,0,0-8.42,7.23,7.23,0,0,0-1.62-2.24c-2.11-2.29-2.18-3.09-.39-5.53.23-.3.39-.65.61-.95,1.49-2,2.6-4,1-6.21.2-.4.24-.62.37-.73C1237.45,251.08,1243.29,251.81,1245.85,254.79Zm-23.68,60.44a5,5,0,0,1-1.46,4.55,10.44,10.44,0,0,0-3.2,7.56,5.09,5.09,0,0,1-2.51,4.6,9.55,9.55,0,0,0-4.06,8.25c0,1.87.11,3.74,0,5.61-.08,2.47-1.75,3.95-3.66,5.71a13.77,13.77,0,0,1-.39-2.12c0-5.8,0-11.6,0-17.4,0-3.65-.3-7.29-.33-10.94,0-3.47.21-6.93.19-10.39,0-5.7-.1-11.4-.33-17.1-.51-12.51-3.7-24.58-6.26-36.75-.61-2.93-1.05-5.91-1.86-8.78-2.12-7.44-4-15-8.5-21.52a43.24,43.24,0,0,0-6.09-7.2c-3.26-3.07-6.07-6.62-9.1-9.93-1.21-1.32-2.5-2.55-3.73-3.83-3.7-3.84-7.22-7.86-11.13-11.47a89.53,89.53,0,0,0-10.59-8.32,73.57,73.57,0,0,0-14.79-8.06,4.16,4.16,0,0,1-2-1.86,57.9,57.9,0,0,1,7.62-.59c3.45.17,6.87.82,10.31,1.22,1.81.2,3.51,1.43,5.45.46.3-.15.88.23,1.31.39,7.46,2.79,15,5.41,22.35,8.42,4.84,2,9.51,4.42,14.16,6.86,3,1.56,5.73,3.5,8.61,5.28-1.57,5.6.36,10.26,4.47,14,2.54,2.31,4.43,4.68,4.81,8.22a8.4,8.4,0,0,0,4.18,6.37c1.67,1,3.33,2.09,4.95,3.2a6.36,6.36,0,0,1,2.69,3.79c1.18,4.38,1.06,8.91,1.65,13.35.34,2.54.71,5,2.15,7.19a3.46,3.46,0,0,1-.3,4.63c-2,2.18-1.73,4.86-1.53,7.46a5.39,5.39,0,0,0,1.16,2.16c.83,1.23,1.83,2.37,2.54,3.66a4.05,4.05,0,0,1,.31,2.39,29.35,29.35,0,0,1-1.07,4.92,6.18,6.18,0,0,0,1,5.35c2.49,4.09,3.35,8.29,1.15,12.8a12.91,12.91,0,0,0-.86,2.66c-.74,3.18-3.23,5.24-5.1,7.63A9.64,9.64,0,0,0,1222.17,315.23Zm-242.4,51.89c-.68-1.65-2.61-2.78-4.11-4.27a13.65,13.65,0,0,0,.43-2,4.17,4.17,0,0,0-2.74-4.4,8.39,8.39,0,0,0-1.59-.57c-3.08-.53-4.53-2.73-5.48-5.39-1.29-3.6-2.59-7.21-3.71-10.87a48.13,48.13,0,0,1-1.28-6.32c-.72-4.49-3-8.24-5.54-11.89a5.78,5.78,0,0,1-1.33-4.38c.36-2.48-1.42-4-3.07-5.36s-1.94-1.83-1.22-3.92c.36-1.06.83-2.09,1.12-3.17.9-3.36-.12-6.52-1.18-9.63-.56-1.67-1.69-3.17-2.12-4.87a31.41,31.41,0,0,1-.94-6.89c-.06-2.71.29-5.43.47-8.14a10.5,10.5,0,0,1,.2-2c1.2-4.53,2.48-9,3.65-13.56a18.09,18.09,0,0,0,.73-4.92,3,3,0,0,1,.76-2.49,4.49,4.49,0,0,0,1-2c.72-3.09,1.47-6.16.82-9.41a5,5,0,0,1,.65-3.16,4,4,0,0,0,.11-4.52c-1.92-2.6-.11-4.29,1.08-6.21.66-1.06,1.27-2.14,1.71-2.89,3.06,10,4.17,20.87,4.41,31.87.08,3.59,1.13,7.16,1.75,10.73.47,2.68,1.13,5.34,1.37,8,.34,3.72,2,7,3.24,10.4,1.6,4.29,3.92,8.31,5.47,12.62a95.93,95.93,0,0,1,2.62,10.6c0,.09,0,.19,0,.28.81,3.1.71,6.38,1.69,9.42s2.25,6,3.45,8.9c1.1,2.69,2.21,5.38,3.43,8,2.93,6.35,7.24,11.81,11.34,17.41A70.16,70.16,0,0,0,1009.24,365c1.73,1.41,3.49,2.8,5.08,4.37a47.28,47.28,0,0,0,10.22,7.39c2,1.14,3.85,2.68,5.88,3.84,3.47,2,7,3.83,10.57,5.71.49.26,1,.4,1.55.65q5.91,2.91,11.8,5.86c.48.24.93.55,1.58.94a35.35,35.35,0,0,1-10.21,5.49c-1.13.43-2.6,0-3.9-.06-8.82-.54-17.42-2.35-26-4.31-7.15-1.64-13.53-4.91-20-8-1.6-.76-3.29-1.37-4.8-2.28a28.75,28.75,0,0,1-4.18-3.2,3.06,3.06,0,0,1-1-1.91c-.09-3.62-2.24-5.34-5.41-6.23-.17,0-.3-.21-.41-.29C979.92,370.94,980.46,368.77,979.77,367.12ZM1027.14,405c6.13-.8,12.23-1.57,18.46-.75a66,66,0,0,0,16-.2c6.33-.73,12.76-.75,19-2.4a74.83,74.83,0,0,0,9.32-3,67.88,67.88,0,0,1,11.27-3.26c5.64-1.27,11.46-2.07,16.74-4.71,4.52-2.27,9.19-4.29,13.61-6.72,3.59-2,6.94-4.39,10.36-6.66s7-4.64,10.43-7.13a58.74,58.74,0,0,0,13.13-13.34,66.17,66.17,0,0,0,8.38-16.16c1.15-3.17,2.77-6.17,3.8-9.37a127.12,127.12,0,0,0,3.31-12.43c1.36-6.32,2.7-12.67,3.63-19.06.55-3.77.33-7.66.39-11.5,0-2.32.47-4.65-.33-7a5.48,5.48,0,0,1,.08-2.78,5.5,5.5,0,0,0-.33-4.1,1.6,1.6,0,0,1-.27-1.07c.83-3.07-.37-6-.87-8.87a82,82,0,0,0-3.23-12.19,79,79,0,0,0-10-19.15c-2.45-3.63-5.56-6.82-8.41-10.17-2-2.36-4.07-4.67-6.1-7a42,42,0,0,0-10.06-8.88c-2.73-1.62-5.22-3.62-7.84-5.43a9.44,9.44,0,0,0-1.94-1.13c-4.71-1.84-9.39-3.77-14.16-5.42a100.92,100.92,0,0,0-16-4.25c-6.46-1.1-12.82-1-19.27-.91-3.93,0-7.88.79-11.7.47-5-.42-9,2.06-13.36,3.43-5.08,1.59-10,3.79-14.92,5.82a27.87,27.87,0,0,0-4.93,2.58c-4.9,3.26-9.72,6.64-14.57,10-4.36,3-7.1,7.37-9.88,11.71-1.47,2.28-2.89,4.6-4.19,7a38.77,38.77,0,0,0-1.56,3.88c-2.45,5.88-5,11.72-7.36,17.62a62.64,62.64,0,0,0-4.46,20.22c-.07,1.5-.14,3-.31,4.49-.46,4,.75,7.8,1.34,11.68.26,1.65.4,3.33.63,5a12.37,12.37,0,0,0,.43,2.18c.88,2.77,1.85,5.51,2.74,8.27,1.31,4.12,2.81,8.06,5.57,11.56,1.88,2.39,2.93,5.43,4.37,8.16.82,1.56,1.6,3.16,2.56,4.62,2.16,3.29,4.29,6.61,6.69,9.72a52.87,52.87,0,0,0,10.05,9.3c4.68,3.59,10.1,5.75,15.35,8.14,3.7,1.68,7.87,2.35,11.83,3.45a24.33,24.33,0,0,0,3,.67,20.15,20.15,0,0,0,4.15.37c2.24-.16,4.47-.52,6.69-.9,4.43-.74,8.89-1.36,13.26-2.36a69,69,0,0,0,18.44-6.57,104.75,104.75,0,0,0,15.33-9.9c3.56-2.89,7.19-5.77,9.78-9.65,1.35-2,2.45-4.21,3.76-6.25,1.62-2.51,3.38-4.93,5-7.43a36.3,36.3,0,0,0,2-3.69c.73-1.52,1.36-3.09,2.08-4.61,3.08-6.49,5.25-13.22,5.43-20.46a62.81,62.81,0,0,0-.16-8.68,36.76,36.76,0,0,0-3.4-12.68c-1.94-3.84-3.38-7.92-5.16-11.85a89.47,89.47,0,0,0-4.29-8.53,48.6,48.6,0,0,0-10.6-12.57c-2-1.68-3.82-3.59-5.93-5.11a49.71,49.71,0,0,0-8.07-5c-2.51-1.17-5.35-1.64-8.06-2.39-2-.55-4-1.06-6-1.57a50.23,50.23,0,0,0-27.74.9,25.41,25.41,0,0,0-4.51,2.27c-2.85,1.61-5.72,3.21-8.51,4.92a51.2,51.2,0,0,0-10.09,8.4,64,64,0,0,0-11,16.55,27.85,27.85,0,0,0-3.29,10.39c-.06.93-.42,1.83-.55,2.75a16.6,16.6,0,0,0-.4,4.18c1.3,10.21,3.8,20,9.13,29a44.6,44.6,0,0,0,11.46,12.45,51.15,51.15,0,0,0,8.74,5.48c4.21,2.05,8.49,4.12,13.36,4.86,7.12,1.07,14,0,21-.92,3.16-.44,5.6-2.53,8.36-3.88a30.06,30.06,0,0,0,12.67-11.66c1.79-3,3.92-5.91,4.58-9.56.57-3.12,1.94-6.1,2.49-9.22a45.93,45.93,0,0,0-.32-15.38c-.55-3.42-1.13-6.89-3.15-9.84-1.43-2.08-3.12-4-4.44-6.13a26.92,26.92,0,0,0-12.52-10.45,47.32,47.32,0,0,0-8.57-2.57c-6.7-1.5-13,.63-19.26,2.5a34.54,34.54,0,0,0-16.82,11.24,23,23,0,0,0-5.44,11.53c-.19,1.3-.51,2.58-.79,3.86-1,4.6-.33,9,.76,13.58,1,4,3.43,7,5,10.58.5,1.13,1.83,1.86,2.6,2.9,4.18,5.62,9.87,8.8,16.56,10.3,2.64.59,5.34,1,8,1.29a13.2,13.2,0,0,0,7.38-1.36c2.44-1.17,4.8-2.5,7.24-3.64a19.22,19.22,0,0,0,6.42-5.3c3.36-4,4.78-8.88,5.52-13.95a36,36,0,0,0,.25-5.87,20.54,20.54,0,0,0-5.09-12.81,48.58,48.58,0,0,0-3.29-4.19c-6.29-6.08-17.58-7.32-25.16-2.81a48,48,0,0,0-5.08,3.53,15.4,15.4,0,0,0-6.28,12.82,31.38,31.38,0,0,0,2.24,12.35,16.66,16.66,0,0,0,12.14,10.32,10.94,10.94,0,0,0,5.51-.65,21.13,21.13,0,0,0,6.22-3.17,9.75,9.75,0,0,0,3.74-7c.29-4.92-.51-9.58-5.11-12.63a7.5,7.5,0,0,1-1.12-1.25,6,6,0,0,0-9.39.79c-2.47,3.87-1.77,7.22,1.93,9.22a5.05,5.05,0,0,0,4.08.54c1.32-.42,2.64-.9,4.26-1.47.62,2.19.68,4-.9,5.66-3.69,3.87-9.71,5.53-14.51,2.06-2.69-2-3.33-4.89-3.83-7.86a42.42,42.42,0,0,1-.37-5.05,10.34,10.34,0,0,1,4.17-9.34,40.37,40.37,0,0,1,5.25-3.73c5.5-2.95,10.89-2.53,16.24.71a18,18,0,0,1,8.33,10.16,7.35,7.35,0,0,1,.51,2.18c0,3.84.07,7.7-1.18,11.42a6.76,6.76,0,0,1-.62,1.57c-4.27,6.39-9.83,11.09-17.59,12.43a18.87,18.87,0,0,1-7.52-.28,56,56,0,0,1-10.84-3.79c-3-1.42-5.16-4-7-6.81s-2.86-6.22-4.1-9.44c-1.91-4.94-.57-9.36.77-13.94.21-.71.61-1.37.84-2.08,1.8-5.74,5.84-9.79,10.41-13.29a21.45,21.45,0,0,1,6.57-3.1c4.11-1.28,8.34-2.19,12.5-3.3,3.2-.86,6.19.3,9.08,1.19a39.82,39.82,0,0,1,8,3.95,14.1,14.1,0,0,1,3.26,3,36.32,36.32,0,0,1,4.55,5.71,29.51,29.51,0,0,1,3.34,8c1.28,5.68,1.81,11.56.48,17.27-1.21,5.25-2.72,10.5-5.88,15.07a26.21,26.21,0,0,1-6.95,6.86A40.18,40.18,0,0,1,1087,316c-6.73.83-13.45.78-20-1.53-4.61-1.62-9.24-3.19-13.22-6.11-3.74-2.74-6.9-6-8.7-10.43-.74-1.8-2-3.39-2.8-5.17a54.71,54.71,0,0,1-2.75-7.35c-2-7.39-3.18-14.87-1.08-22.47a25.8,25.8,0,0,1,1.7-4.43c1.91-3.87,3.55-7.94,6-11.47,3.27-4.75,6.78-9.43,12.17-12.19,1.46-.75,2.59-2.12,4-3.07a44.4,44.4,0,0,1,16.42-7.09,48.37,48.37,0,0,1,10.64-.55,27.7,27.7,0,0,1,6.59,1.15c4.69,1.27,9.35,2.69,14,4.07,4.27,1.28,7.35,4.39,10.71,7.07.51.41.9,1,1.47,1.29,2.78,1.28,4,3.78,5.29,6.31a44.84,44.84,0,0,0,4.17,6.64,67.2,67.2,0,0,1,7.33,12.88c2.09,4.44,4,9,4.69,13.79a52.08,52.08,0,0,1,.16,16.81,63.38,63.38,0,0,1-4.28,13.08,123.18,123.18,0,0,1-10,18.48c-5.33,8.41-12.83,14-21.09,18.94a83.91,83.91,0,0,1-14.2,6.75,58.1,58.1,0,0,1-15.27,3.39,12.14,12.14,0,0,0-2.5.34c-3.61,1.13-7.24.66-10.83.09a65.85,65.85,0,0,1-20.86-7.24,72.23,72.23,0,0,1-8.13-4.95c-4.42-3.16-8.81-6.43-12.07-10.86-2.72-3.68-5.18-7.55-7.77-11.33-1.59-2.31-3.26-4.57-4.81-6.91a35.13,35.13,0,0,1-1.83-3.43c-.36-.71-.46-1.58-1.7-1.39s-1.29-1-1.33-1.71a3.65,3.65,0,0,1,.56-2.54c1.54-1.51.79-3,.22-4.44a30.07,30.07,0,0,1-1.64-8.23c-.38-3.35-1.33-6.64-1.67-10a51.93,51.93,0,0,1,.6-14.83c.75-4,1.37-8.24,3-11.93,3.13-7,5-14.53,9.11-21.15,2.12-3.4,3.54-7.24,6-10.46,2-2.59,3.93-5.26,5.91-7.87a14.12,14.12,0,0,1,1.56-1.63,70.05,70.05,0,0,1,24.8-14.52c3.63-1.23,7.05-3.1,11-3.49.26,0,.71-.13.74-.27.61-2.73,3.42-1.61,5-3.23.41,1.95,1.56,1.91,3,1.9,6.91-.06,13.83-.21,20.72.16a92.46,92.46,0,0,1,14.41,2.06c5.84,1.26,11.65,2.72,16.91,5.85,3.29,2,7,3.16,10.34,5.08a67.28,67.28,0,0,1,11.5,8c.2.19.41.38.6.59,3.85,4.36,7.87,8.58,11.53,13.1A99.55,99.55,0,0,1,1175,250.7c1.56,3.44,4.56,17.58,4.5,21.38a16.06,16.06,0,0,0,.18,1.95c.26,2.42.72,4.83.75,7.25.07,4.88.12,9.78-.23,14.64-.28,4-1.11,8-1.75,12-.51,3.15-1.12,6.28-1.66,9.42-1.36,8-4.36,15.51-7.39,23-1.09,2.7-3.19,5-4.83,7.49-.67,1-1.33,2-2,3.05s-1.4,2-2.07,3c-.41.61-1,1.27-1,1.91,0,1.93-1.31,3.16-2.42,4.28a56.94,56.94,0,0,1-12.88,10.34,31.4,31.4,0,0,0-5.14,3.45,55.51,55.51,0,0,1-10.17,6.49c-2.3,1.23-4.45,2.78-6.82,3.83-4.7,2.06-9.17,4.78-14.37,5.54a12.42,12.42,0,0,0-2.2.44c-6.92,2.32-14.11,2.85-21.3,3.45a38.35,38.35,0,0,1-13.3-1.55c-4.88-1.32-9.79-2.58-14.57-4.22-3.61-1.24-7-3-10.53-4.56-3-1.32-6-2.56-9-4.05-2.24-1.14-4.31-2.6-6.46-3.91s-4.27-2.39-6.23-3.83c-2.56-1.86-4.94-4-7.4-6-5-4.08-10.12-8.07-14.17-13.18-2.39-3-4.65-6.11-6.94-9.18a62.88,62.88,0,0,1-7.23-13c-2.4-5.61-4.57-11.29-5.2-17.44-.18-1.76-.83-3.48-1-5.24-.47-4.37-.77-8.76-1.17-13.14-.11-1.21-.28-2.41-.49-3.61a27.31,27.31,0,0,1-.17-10,58.75,58.75,0,0,0,1.05-11.46c-.05-5.08,1.18-9.85,2.6-14.61,1.38-4.58,2.74-9.17,4.32-13.68a65.44,65.44,0,0,1,3.44-7.71c3.1-6.21,6.17-12.44,9.48-18.53a36.38,36.38,0,0,1,9.41-11.43,6.72,6.72,0,0,0,2.5-3.3c.5-2.17,1.94-3.34,3.46-4.58a44.62,44.62,0,0,1,11.71-7.09c3-1.19,5.62-3.32,8.53-4.79,2.24-1.13,4.66-1.89,7-2.82s4.82-2.09,7.3-2.93c5.05-1.72,10.14-3.3,15.22-4.91a10.38,10.38,0,0,1,2.21-.41c4.86-.41,9.71-1,14.57-1.12,4.3-.1,8.61.33,12.92.58,2.15.13,4.3.58,6.44.52,5.13-.14,9.77,1.76,14.47,3.31,4.45,1.48,8.76,3.34,13.2,4.84,7.38,2.5,13.76,6.76,20.14,11.05a2.8,2.8,0,0,1,.61.58,3.5,3.5,0,0,1,.25.81l-4.16-1.59c3.73,3.11,8.84,4.21,11.93,8.65h-1.72c.09.22.11.42.22.5a40.3,40.3,0,0,1,3.5,2.82c1.16,1.18,3.23,1.78,2.83,4.1,0,.24.64.59,1,.89,6.18,5.52,11.13,12.17,16.68,18.28a19.81,19.81,0,0,1,1.66,2.6c.26.38.55,1,.88,1,2.15.27,2.42,2.11,3.12,3.56,1.85,3.79,3.72,7.56,5.43,11.41a27.61,27.61,0,0,1,1.58,5.07c1.59,6.75,3.31,13.48,4.6,20.29,2,10.59,4,21.23,3.71,32.09-.24,8.62-.55,17.25-1.2,25.84a45.24,45.24,0,0,1-2.47,12.93c-1.43,3.75-2.1,7.79-3.27,11.65-2.13,7-4.16,14-7.22,20.68a2.3,2.3,0,0,1-.83,1.09c-3.64,1.91-5,5.14-5.29,9,0,.17-.17.32-.35.66l-1.51.23c-6.64.83-9.71,5.35-11.33,11.2a3.69,3.69,0,0,1-2.75,2.82c-2.42.75-4.82,1.56-7.2,2.4-3,1-4.93,3.38-7,5.5a4.78,4.78,0,0,1-3.68,1.63c-2.67,0-4.83,1.58-6.74,3.17a5.71,5.71,0,0,1-5.41,1.31c-6-1.33-9.78.26-12.81,5.37a6.07,6.07,0,0,1-3.79,2.64c-5.08,1.62-10.16,1.18-15.31.35-2.16-.34-4.43,0-6.66.08a6.75,6.75,0,0,1-2.16-.08,13.17,13.17,0,0,0-14.24,3.15c-.12.12-.34.13-.61.23a21.37,21.37,0,0,0-2.6-2,8.45,8.45,0,0,0-7.34-.66c-2.73,1.06-5.18.3-7.56-.87-3.28-1.61-6.42-3.49-9.74-5a31.79,31.79,0,0,0-7.66-2.71,19.8,19.8,0,0,0-6.66.41c-1.89.32-3.08.12-4.13-1.76a12,12,0,0,0-6.37-5.31c-.75-.29-1.49-.63-2.77-1.18A14.92,14.92,0,0,1,1027.14,405Zm50.49-263.48c0-.14,0-.29,0-.44a10,10,0,0,1,2.26-.6c3-.1,5.23-1.77,7.43-3.58a6.84,6.84,0,0,1,2.8-1.67c3.32-.6,6.55-1.26,10.08-.2,3.26,1,6.84,1,10.29,1.19,1.59.08,2.73.26,3.32,1.87a7.5,7.5,0,0,0,1,1.67c1.25,1.73,2.64,3.1,5.1,2.81a21.83,21.83,0,0,1,4.1.34,6.85,6.85,0,0,0,6.52,5.17,5.17,5.17,0,0,0,2.69-.4c3-1.62,5.94-1,8.67.25,4.08,1.88,8,4.08,11.91,6.33a5.82,5.82,0,0,1,1.8,2.69,12.15,12.15,0,0,0,6,6.44,16.93,16.93,0,0,0,2.65.81,14.61,14.61,0,0,1,2.42.66,25.61,25.61,0,0,0,7.14,2.46c.54.08,1.12.84,1.42,1.42.41.82.51,1.79.86,2.65a4.91,4.91,0,0,0,4,3.05,35.16,35.16,0,0,1,6.65,2.17,6.13,6.13,0,0,1,3.57,4.33c-5-.53-9.79-.85-14.48-1.6a33.24,33.24,0,0,1-6.6-2.32c-1.2-.46-2.24-1.26-3.72-.8-.59.18-1.41-.36-2.13-.56-7.83-2.2-15.58-4.82-23.54-6.45-6.58-1.34-13.38-1.63-20.1-2.17a89.85,89.85,0,0,0-10.38,0c-1.47,0-2.92.71-4.39.84a29.62,29.62,0,0,1-6.71.19,100.73,100.73,0,0,0-19.63-.78,80.09,80.09,0,0,0-12.54,1.59c-3.17.69-6.14,2.25-9.24,3.32a32.84,32.84,0,0,1-3.5.71c-2.28.49-4.54,1-6.83,1.52a19.52,19.52,0,0,0-9.34,4.28,7,7,0,0,1-1.7,1c-4,1.9-7.93,3.77-12.06,5.72,0-1.29.88-2.29,1.6-3.2,2.61-3.3,4.6-7,6.86-10.5,1.57-2.44,4.1-4.36,6.46-6.2a108.26,108.26,0,0,1,13.76-9.22c5-2.78,9.71-6,14.7-8.78a103.67,103.67,0,0,1,9.77-4.25c.83-.35,1.71-.62,2.94-1.06Zm153.38,68c1,2.22,2.29,4.29,3.27,6.52a58.61,58.61,0,0,1,1.92,5.55c.17.53.15,1.13.34,1.65,2.42,6.72,2.3,13.62,1.47,20.56a24.36,24.36,0,0,1-1.37,6c-.6,1.55-2.33,2.17-3.72,3-.58-1.94-1.14-3.68-1.61-5.44a30.37,30.37,0,0,1-1.26-8.29,36.75,36.75,0,0,0-.89-7c-.6-3.28-3.5-4.71-5.72-6.64-1.54-1.34-3.37-2.35-5-3.65s-1.91-3.5-1.82-5.41c.09-2.12-.39-3.6-2.25-4.7-1-.55-1.67-1.49-2.59-2.13a10.53,10.53,0,0,1-4.72-9.54,15,15,0,0,0-.27-2.34,9.05,9.05,0,0,1,5.5.45c1.78.76,3.51,1.71,5.64.83.61-.26,1.63.26,2.38.6C1225,201.75,1228.85,204.7,1231,209.53Zm-22.07-43.9a7.54,7.54,0,0,1,2.43-1.25,1.7,1.7,0,0,1,.56,0c5.73-.36,8.93,3.37,7.72,9a3.58,3.58,0,0,1-.64,1.2c-2.22,3.1-1,6,2.76,6.72.55.11,1.1.18,1.65.3.16,0,.3.21.94.68-.8.91-1.48,1.73-2.21,2.52-1.68,1.79-1.49,3.08.67,4.16.58.29,1.22.49,1.82.73l1.76.76c-.85,1.44-1.72,2.73-2.38,4.11s.49,3-1.11,4.37c-.82-2-2.54-2.59-4.3-3.31a50.19,50.19,0,0,1-6.41-3.46,3.56,3.56,0,0,1-1.19-1.52,49.09,49.09,0,0,1-5-17.15A10.63,10.63,0,0,1,1208.94,165.63Zm-34.4-14.22a4.89,4.89,0,0,1,1.33.4c4.93,2.87,10.08,5.44,14.7,8.75,5.23,3.74,10.49,7.77,12.42,14.42,1,3.4,1.68,6.9,2.36,10.38a25.62,25.62,0,0,0,2.42,7.75,6.46,6.46,0,0,1,.42,1.4c-.72.55-1.38,1-2,1.52-1.77-2.36-3.42-4.5-5-6.71a36.14,36.14,0,0,1-2.33-3.8c-1.64-3-3-6.29-4.89-9.13-2-3-4.76-5.55-8.54-6.47-1.19-.28-2.35-.66-3.54-.92a2.6,2.6,0,0,1-2.2-2.82,6.31,6.31,0,0,0-1.1-4c-1.74-2.33-4.3-2.4-6.74-2.85s-5-.75-7.49-1.19a12.08,12.08,0,0,1-2.06-.74c.42-2.83,2.34-4.22,4.52-5.11A12.93,12.93,0,0,1,1174.54,151.41ZM1145.3,124c-1.53-3.77-1-5.69,1.75-8a6.2,6.2,0,0,1,7.11-.48c2.15,1.18,2.82,2.84,2.3,5.76-.16.92-.37,1.83-.55,2.75-.38,2,.63,3.29,2.7,3.17a36.7,36.7,0,0,0,3.8-.62,4.11,4.11,0,0,1,.4,4.12c-1.27,3.9-.44,5.21,3.58,5.39,1.34.07,1.83.61,1.94,1.84.2,2,.4,4.08.72,6.1.21,1.27.65,2.49,1,3.94a5.26,5.26,0,0,1-1.36-.08,29.64,29.64,0,0,1-11.28-6.59c-3.09-2.83-5.94-5.91-9.47-8.27-1.41-.94-2.42-2.46-3.8-3.91C1146.49,127.67,1146.12,126,1145.3,124Zm-20.91,5a11,11,0,0,1,1.37-.19c2,.12,4.09.41,6.13.43,7.32.08,13,3.69,18.11,8.42,4.32,4,8.24,8.46,13.41,11.48.13.08.17.31.3.56a13.55,13.55,0,0,0-2,1.82,18.89,18.89,0,0,0-1.38,2.94c-.74-3.19-2.93-4.34-5.26-5.49-4-2-8-4.12-11.92-6.23-3.35-1.81-6.65-1.42-10,0-2.19.95-3.56.17-4-2.17-.64-3.19-1.77-4-4.87-3.27-4,1-5.43-.27-7.76-3.4-.85-1.14-.61-2.28.65-2.39C1119.85,131.36,1121.76,129.22,1124.39,129.07Zm-43-22.36c1.46-2.12,3.44-2.57,5.92-2.18a4.61,4.61,0,0,1,4.12,3.9c.92,3.58,3.53,4.58,6.79,2.84,1.15-.61,2.43-1.46,3.66-.51a3.81,3.81,0,0,1,1.66,4.16,14.06,14.06,0,0,0-.36,2.51,2.42,2.42,0,0,0,4.13,2.1,13.37,13.37,0,0,1,2-1.59c1.8-1,3.26-.62,4.07,1.28,1.08,2.55,3.19,4.1,5.15,5.83.34.3.66.61,1,.93,0,.23-.06.46-.08.7-2.72.33-5.42.86-8.18-.06-3.19-1.08-6.44-2-9.58-3.24-5.29-2.06-10.66-4-15.43-7.18a31.45,31.45,0,0,1-4.31-3.59A4.46,4.46,0,0,1,1081.36,106.71Zm-24.31,25.63c.5-1.78,1.18-3.5,1.85-5.23.12-.29.54-.5.86-.68,2.94-1.66,5.85-3.36,8.84-4.92s6.32-1.57,9.5-2.31c3.91-.91,7.07.52,10.42,2.12a79.33,79.33,0,0,0,19.63,6.64,16.55,16.55,0,0,1,4.16,1.62,1.76,1.76,0,0,1,.83,1.48,1.8,1.8,0,0,1-1.41,1c-2.78-.14-5.58-.32-8.34-.73s-5.73-1.83-8.45-1.51c-3.66.42-7.7.53-10.68,3.49a10.1,10.1,0,0,1-2.5,1.79c-1.93,1-3.34.5-4.47-1.34s-2.4-2.15-4.12-.94c-.53.38-1,.87-1.48,1.29a2,2,0,0,1-3,0c-1.2-1.27-2.62-1.28-4.14-1.05-2.26.36-4.51.74-7.24,1.2A5.13,5.13,0,0,1,1057.05,132.34Zm4.81,9.3a22.5,22.5,0,0,0,3.42-3.15l.51.37a28.68,28.68,0,0,1-2,2.15c-4.49,4.11-8.94,8.28-13.55,12.26-3.87,3.34-7.81,6.6-12,9.63a134.94,134.94,0,0,0-19.73,18.34c-3.65,4-6.83,8.45-10.1,12.78-2.14,2.83-4,5.88-6.12,8.73a112.75,112.75,0,0,0-10.43,17.65,35.85,35.85,0,0,0-1.71,5.59,15.53,15.53,0,0,1-.68,2.13c-1.61,3.49-3.27,7-4.9,10.44a9,9,0,0,0-.56,1.28c-2,6.64-4.13,13.24-5.85,20-.85,3.33-.88,6.86-1.32,10.29-.28,2.21-.62,4.42-1,6.93a12.5,12.5,0,0,1-7.25-8.56A85,85,0,0,1,966,248.72c0-7.13-.18-14.26,0-21.39a93.8,93.8,0,0,1,2.16-19.26,5.77,5.77,0,0,1,1.61-2.8c2.3-2.1,3.4-4.92,4.87-7.52a2.92,2.92,0,0,0,.36-1.9c-.36-1.67.38-2.62,1.69-3.48a6.34,6.34,0,0,0,3.17-5.32,8.55,8.55,0,0,1,.49-1.93h1.21a8.56,8.56,0,0,0,8.91-7.92A4.31,4.31,0,0,1,992,174c3.18-2.58,6.14-5.33,10.22-6.77s7.85-3.19,10.88-6.29a16.28,16.28,0,0,0,2.57-3.24,3,3,0,0,1,2.55-1.86,3.69,3.69,0,0,0,1.57-.57,4.59,4.59,0,0,1,4.39-.27c1.58.57,3.72.09,5.48-.4a25.74,25.74,0,0,0,9.22-4.69c3.81-3.05,8.23-4.36,12.94-4.9A24.4,24.4,0,0,0,1061.86,141.64Zm-46.75-21.28a7,7,0,0,1,3.67-.92,15.43,15.43,0,0,1,3.3.61,6,6,0,0,1,4.6,3.72c1.67,3.66,5.33,4,7.68.71.54-.76,1.11-1.49,2-2.6,4,4.61,9.15,6.28,14.63,7.71-1.47,1.88-3.69,2.24-5.68,2.51-6.92.92-13.83,1-20.6-1.17-2.66-.84-5.34-1.6-8-2.51C1014.83,127.78,1013.53,121.49,1015.11,120.36Zm-4.45,23.22c.33-3.58,2.78-5.67,5.7-7.14a18.21,18.21,0,0,1,9.88-1.47c5.88.48,11.77.93,17.66,1.13,2.3.08,4.62-.6,6.94-.85,3.25-.36,3.25-.33,4.68,3.46a22.9,22.9,0,0,1-3.38.85,26.36,26.36,0,0,0-15.22,6.43c-2.76,2.36-6.2,3.42-9.54,4.61a2.79,2.79,0,0,1-3.31-.75c-1.56-1.73-2.25-1.8-4.07-.45-1.52,1.12-2.81,1.92-4.83,1-.75-.34-2,.47-3.38.84C1010.2,148.92,1010.41,146.23,1010.66,143.58ZM967,154.65c-2.34-2.11-1.73-4.54-.53-6.89s3.39-2.79,5.44-1a4.72,4.72,0,0,0,6.18.37,4.08,4.08,0,0,1,4.18-.39,6.18,6.18,0,0,1,1.8.78,9,9,0,0,0,6.12,1.52,3.85,3.85,0,0,1,1.4,0c5.11,1.8,10,.1,14.86-1a6,6,0,0,1,1.21.18,23.42,23.42,0,0,1-2.42,2.36,31.19,31.19,0,0,1-18.11,5.92c-2.5,0-5,.58-7.49.86s-5,.65-7.53.78S968.59,156,967,154.65Zm-36.39,53a5.5,5.5,0,0,1-4.43-5.95c.14-3.07,1.86-4.35,4.93-4.23a31.1,31.1,0,0,0,6.36-.68,2.27,2.27,0,0,0,1.41-1.19,52.28,52.28,0,0,0,2.53-5.93c.74-2.19,2-2.86,4.09-1.73a5.69,5.69,0,0,1,1.07.89c1,1,2.06.62,3.09.06a2.1,2.1,0,0,0,1.12-2.82,2.29,2.29,0,0,1-.08-.28c-1-4.32-1-4.32,3-6,.18-.07.34-.17.51-.24l8.42-3c.27,2,.56,4.22.8,6a21.42,21.42,0,0,0-1.72,2.76c-1.91,4.53-3.59,9.13-8,12.1-3.87,2.61-7.53,5.54-11.23,8.4S934.85,208.67,930.65,207.69Zm.89,18.66c.63-2.72.83-5.6,2.63-7.95a10.79,10.79,0,0,1,.73-1.19c4.18-4.16,8.27-8.41,12.62-12.38,1.77-1.62,4.12-2.6,6.15-3.94,3.76-2.46,7.63-4.8,10.55-8.33a8.62,8.62,0,0,0,1.91-3.4c-2.36.36-2.67,2.75-4.74,3.31,1-2.45,1-5.08,3.67-6.37l5.06,3.7.45-.45a29.18,29.18,0,0,0-2.06-2.61c-5.18-5.34-5.4-15.9,1.83-21.83A22.54,22.54,0,0,1,983,159.36c4.11-.34,8.21-.83,12.28-1.44,5.28-.78,10.61-1.44,15.45-4.53a9.1,9.1,0,0,1-.51,1.68,14.88,14.88,0,0,1-8.47,7,28.17,28.17,0,0,0-5.46,2.86c-3.26,2-6.59,4-8.9,7.19a5.7,5.7,0,0,0-1.3,3.29c-.15,4-2.75,5.72-6.69,4.63a5.23,5.23,0,0,0-2.18-.2c-1.51.25-2,1.11-1.85,2.61,0,.18.12.35.15.54.94,5,.05,6.45-4.7,7.81-.45.12-.88.29-1.53.51a41.68,41.68,0,0,1,0,5.48,8.72,8.72,0,0,1-3.35,5.67c-2.1,1.71-4.27,3.33-6.38,5a16.42,16.42,0,0,0-1.25,1.49,20.56,20.56,0,0,1-2.55,2.56,7.15,7.15,0,0,0-3,5.76,9.73,9.73,0,0,0,0,2.53c.57,2.44-.34,4.58-1.28,6.69a6.39,6.39,0,0,1-1.45,1.64c-1.91,1.93-2.36,3.08-.51,5a19.29,19.29,0,0,1,1.59,2.31,27.13,27.13,0,0,1-1.84,2.32,2.32,2.32,0,0,0-.37,3.29c2.06,2.67.89,5.38.2,8.06-.16.6-1,1-1.53,1.54s-1.48,1.06-1.72,1.76c-.52,1.51-1.69,1.74-2.89,1.71a12,12,0,0,1-9.45-4.21,2.78,2.78,0,0,1-.72-2c.72-3.12-.51-5.94-1.19-8.83A27.51,27.51,0,0,1,931.54,226.35Zm-7.88,58.88a6.18,6.18,0,0,0-1.51,1.26c-1.71,2.29-4.2,2.2-6.62,2.16-1.69,0-2.43-1.33-2.36-3.67.13-.12.25-.32.41-.35,3.18-.57,3.09-.56,2.83-3.66a8.32,8.32,0,0,0-2.95-5.54,12.48,12.48,0,0,1-2.47-3,2.67,2.67,0,0,1,.19-2.3c.24-.36,1.41-.37,2-.16a7.51,7.51,0,0,0,4.62.39c2.45-.67,3.12-1.49,2.45-4a28.47,28.47,0,0,0-1.47-3.5c10.36-4.73,10.69-6.15,13.38-11.56.92.61,1.81,1.22,2.72,1.81a3.28,3.28,0,0,1,1.5,3.1,45.41,45.41,0,0,1-2.27,13.23c-.82,2.67-1.27,5.49-3,7.8C928.9,280.19,926.7,283.1,923.66,285.23Zm13.82,37.26a4.86,4.86,0,0,1-1.7-.9c-1.64-1.65-3.27-3.33-4.77-5.11-2.9-3.42-3.12-7.73-3.69-11.89-.61-4.43.56-8.76.84-13.14.34-5.52,3.18-9.9,5.48-14.58a113.84,113.84,0,0,0,5-11,20.34,20.34,0,0,0,.94-10.1h6.77c.87.68,1,1.68.5,3-2.05,5.84-3.79,11.75-3.85,18,0,1.58-.53,3.15-.68,4.73-.55,5.91,0,11.56,3.52,16.66,1.88,2.75,2.3,5.51-.06,8.51-1.92,2.46-1.07,5.95,1.32,8,.82.71,2.06,1.54,2.12,2.4a11.6,11.6,0,0,1-.9,4.6,7.06,7.06,0,0,1-1.89,2.42,2.55,2.55,0,0,1-3.5.44A38,38,0,0,0,937.48,322.49Zm14.26,53.08a.94.94,0,0,1-.22.51c-1.75,1.86-2.34,4.19-2.76,6.62a2.86,2.86,0,0,1-.94,1.66c-.82.59-.84,1.25-.89,2.16-.11,2.14-1.37,2.84-3.43,2.06a11.48,11.48,0,0,1-1.78-.82c-4.13-2.36-4.55-3.61-2.37-7.73.83-1.57,1.66-3,.07-4.55a4.93,4.93,0,0,0-1.85-1.08,3.1,3.1,0,0,1-2.46-2.74,3.51,3.51,0,0,1,2.13-3.24,22.91,22.91,0,0,0,3.51-2.15c1.15-.9,1-2.23.37-3.33a11.18,11.18,0,0,0-2-2.35c-2.17-2.16-2.59-4.47.14-6.65a25.17,25.17,0,0,0,4.65-4.8c1.91-2.58,2.17-5.74,2.24-8.85.06-2.59,0-5.18,0-7.77a26.4,26.4,0,0,1,3.35,16.53c-.51,3.84.35,7.45,1.12,11.11.32,1.55.87,3,1.32,4.57C953.08,368.37,952.08,372,951.74,375.57Zm17.78,6.51c-1.48-1.17-3.51-1.93-4.1-4.07a1,1,0,0,0-.6-.57c-2.38-.62-3.18-2.74-4.36-4.51a47.12,47.12,0,0,1-7.54-18,35.55,35.55,0,0,1-.64-7.27c.25-7.23-1.4-14.07-3.81-20.8a10.73,10.73,0,0,1-.31-2.55l.77-.22c3.82,3.31,7.44,6.7,8,12.24.67,6.24,3.52,11.84,5.56,17.66a9,9,0,0,0,5.27,5.18c.77.33,1.58.54,2.69.91a14.54,14.54,0,0,1-.38,2.6c-.65,2-.52,2.82,1.27,4a33,33,0,0,0,3.76,1.95,37.13,37.13,0,0,0-.92,5c-.12,2.52.95,3.6,3.41,3.91a6.36,6.36,0,0,1,1.4.11c.73.27,1.74.54,2,1.11a2.36,2.36,0,0,1-.59,3.05C977.31,384.36,973.77,385.4,969.52,382.08Zm28.84,40.74c-.15,1.39-.1,2.8-.12,4.2a13.22,13.22,0,0,1-1.87,6.69c-1.35,2.28-7.19,3.89-9.67,2.73a2.48,2.48,0,0,1-1.25-1.67,10,10,0,0,1,.29-4.13,4.8,4.8,0,0,0-2.39-5.72c-.81-.48-1.65-.9-2.49-1.31-2-1-2.17-2.25-.54-3.82,1.29-1.24,2.52-2.44,2.87-4.36.54-2.91.14-3.89-2.76-4.72a3.08,3.08,0,0,1-2.25-2.88,6.72,6.72,0,0,1,.36-3.57c1-2.19.53-4.15-.18-6.24-.84-2.48-1.52-5-2.24-7.54a4.8,4.8,0,0,1,.1-1.35c.75.51,1.29.83,1.77,1.22,4.13,3.37,8.12,6.87,11.24,11.27,1.89,2.67,4.11,5.11,5.92,7.83A19.75,19.75,0,0,1,998.36,422.82Zm32.22,3.9c-.74,1.48-2,2.11-3.44,1.35-1.84-.95-3.74-.8-5.68-1-5.47-.57-10.67-1.91-14.09-6.91-1.52-2.22-3.47-4.14-5-6.31-1.32-1.8-2.34-3.81-3.57-5.67-1.91-2.89-3.79-5.79-5.86-8.56-1.33-1.77-3-3.31-4.47-5a1.81,1.81,0,0,0-.18-.21L977,386l4.68-2.78c.28.18.67.29.72.49.85,3.4,3.06,6.07,5.24,8.54,4.22,4.76,9.17,8.58,15.84,9.32,3.32.36,6.18,1.64,7.91,4.65,1.3,2.27,3.57,3.29,5.63,4.52a5,5,0,0,0,3,.23c3.3-.48,6.13.21,8.31,2.88.12.14.27.26.4.39C1032.59,418.36,1033.08,421.66,1030.58,426.72Zm35.53,38.9a5.15,5.15,0,0,1-3.71.92c-2.05-.23-2.44-.79-2.79-2.79a22.35,22.35,0,0,0-1.58-5.59c-1.21-2.58-3.31-3.23-5.85-1.91a3.63,3.63,0,0,1-3.71.12c.43-1.74.93-3.41,1.23-5.12s-.41-2.64-2.13-2.89a5.3,5.3,0,0,0-4,1,2.6,2.6,0,0,1-2.23.38c-.49-.29-.67-1.41-.66-2.16a16.48,16.48,0,0,0-6.68-14,22.22,22.22,0,0,1-1.68-1.6l3.66-5.44c4.57,1.16,9.28,2.4,12.61,6.52a3.91,3.91,0,0,0,1.08.85,21,21,0,0,1,3.35,1.89c3,2.56,5.83,5.24,8.7,7.92a3.66,3.66,0,0,1,1.11,1.58c.92,3.45,3,6.19,5.1,9C1070.88,458.16,1070.15,462.75,1066.11,465.62Zm28.14-26.05a5.44,5.44,0,0,1-3,2.38c-5,1.24-9.9,3.08-15.15,2.61a55,55,0,0,1-8.57-1.43,9,9,0,0,1-5.32-3.48c-3.06-4.46-7.75-7-12-10.07q-5.94-4.41-11.84-8.88c-.14-.11-.09-.49-.09-.48,5-2.74,9.29-.84,13.64,1.42a104.69,104.69,0,0,0,9.84,4.75c3,1.18,6.07,2.3,9.51,1,2.75-1,5.1,0,6.87,2.43s3.23,2.46,5.12-.17A7.64,7.64,0,0,1,1093,427c.43.19.83.43,1.27.59,2.53.93,3.84,3.2,3,5.66A35.83,35.83,0,0,1,1094.25,439.57ZM1144,448c.92,1.82-1.28,8.23-3.13,9.07a11.05,11.05,0,0,1-10,.07,7,7,0,0,1-3.7-4.23,5.63,5.63,0,0,0-4-4,5.17,5.17,0,0,0-4.28.6,30.71,30.71,0,0,1-3.66,1.66c-2.53-4.4-3.83-5-8.42-2-1.79,1.17-2.74,1.17-4.49-.18-2-1.6-4.12-3.17-6.33-4.86,1.59-2.52,3.17-5.21,4.94-7.76a3.63,3.63,0,0,1,3.73-1.52c3.12.57,6.26,1.12,9.3,2,4,1.13,7.82,2.57,11.73,3.84,1.7.55,3.43,1,5.12,1.55,1.51.5,2.85,1.07,4.56.23.8-.39,2.19.15,3.23.51A9.57,9.57,0,0,1,1144,448Zm0-14.53c-3,.72-5.72,2.26-8.63,3.24a22.66,22.66,0,0,1-8.87.86,39.18,39.18,0,0,1-14.18-4.18c-2.27-1.08-4.66-1.93-7-2.84a3.5,3.5,0,0,0-1.65-.26c-2.46.36-3.72-1.14-5-3,1.08-1.39,2.44-.88,3.66-.81,3.73.24,7.45.59,11.18.76s7.3-1.56,10.77-2.89a5.23,5.23,0,0,0,2.42-2.51,6.11,6.11,0,0,1,6.19-3.77,20.76,20.76,0,0,1,2.21.36,9.67,9.67,0,0,0,8.18-2c.86-.68,2-1.71,2.87-1.56a38.62,38.62,0,0,1,7.22,2.16c.66.25,1.09,1.23,1.5,1.95.55.94,1,2,1.63,3.28C1154,427.51,1150.45,431.89,1144.07,433.43Zm55.11-21.92a6,6,0,0,1,3,8.2c-.25.61-.31,1.38-.73,1.8-.61.63-1.53,1.51-2.2,1.41a34.63,34.63,0,0,1-6.13-1.62c-1-.34-1.63-2-2.82-1.33a13.17,13.17,0,0,0-3.1,3.09,8.22,8.22,0,0,0-.89,2l-.76.24c-.64-.95-1.31-1.9-1.91-2.88-.29-.48-.4-1.06-.68-1.54-1.45-2.55-3-2.77-5.12-.75-.4.39-.77.81-1.15,1.23-1.94,2.09-1.88,1.93-4.3.44-3-1.87-6.34-2.76-9.91-1.5-.68.24-1.4.36-2.27.58l-1.37-4.22c2.18-1.28,4.14-2.81,6.77-3.2A32.46,32.46,0,0,0,1171,412c5-1.65,10.25-1.88,15.41-2.56a38.25,38.25,0,0,1,6.4-.49,12.45,12.45,0,0,1,3.92,1.22A26.6,26.6,0,0,1,1199.18,411.51Zm6.78-27.62c-1.32,6.27-4.15,11.84-9.41,15.83a14.55,14.55,0,0,1-3,1.37c-.5.22-1,.4-1.53.62-2.23,1-4.41,2.09-6.7,2.88a120.9,120.9,0,0,1-20.15,4.92c-2.82.46-5.53,1.66-8.75,2.67l-2.71-1.76a17.91,17.91,0,0,1,8.63-5.85c1.44-.4,2.95-.54,4.42-.8a7.56,7.56,0,0,0,5.42-4.09c1.18-2.12,2.36-4.25,3.35-6.46,1.14-2.55,3-3.78,5.73-3.54a4.33,4.33,0,0,0,4.85-3c.78-2,1.66-3.89,2.76-6.43.8-.69,3,.55,4.06-1.19.89-1.42,1.73-2.87,2.68-4.46a3.37,3.37,0,0,0,4.34-1.46c.81-1.22,2-.94,3.21.49A11.46,11.46,0,0,1,1206,383.89Zm36.38-30.62a17.63,17.63,0,0,1,2.78-.3c4,.16,6,2.34,5.82,6.32-.09,2.61,0,5.24-1.68,7.54-1.26,1.7-3.09,2.36-4.88,3.1-.43.17-1.07-.12-1.59-.29s-1-.47-1.54-.67c-3.82-1.48-5.1-.55-5,3.63.06,2.79-.87,3.42-3.4,2a12.05,12.05,0,0,0-6-1.1c-2,0-4,2.27-4.32,4.52-.35,2.55-1,3-3.6,3.15a13.36,13.36,0,0,0-3.76.75,31.58,31.58,0,0,0-3.78,1.87c-1.14.6-2.28,1.23-3.86,2.07a14.89,14.89,0,0,0-.18-8.67,4.05,4.05,0,0,1,.44-3.2c2.15-4.22,5.54-7.24,9.37-9.86,1.84-1.26,3.7-2.51,5.47-3.86,2-1.53,4-3.14,5.89-4.75a4.57,4.57,0,0,1,3-1C1235.14,354.34,1238.74,353.72,1242.34,353.27Zm-2.42-24.16a59.06,59.06,0,0,1-8.14,18.42,5.88,5.88,0,0,1-.86,1.11c-3.09,2.86-6.06,5.87-9.34,8.49-3.57,2.86-7.47,5.31-11.17,8a60.64,60.64,0,0,0-6.29,5.1,2.53,2.53,0,0,1-3.26.64,3.34,3.34,0,0,1,.43-3.39c.54-.76.84-1.7,1.43-2.42,3-3.69,5.82-7.56,9.54-10.61,2-1.67,4-3.34,4.9-6a9.05,9.05,0,0,0-.54-6.3c-1.17-3.12-.28-4.92,2.92-5.82a4.22,4.22,0,0,0,2.72-3.81c.09-2,.18-3.91.39-5.86.24-2.13,1.8-3.53,3.31-4.7s2.49-2.19,2.56-4.2c3.89.36,5-.32,6.3,3.82l2.17-.31c.17.15.45.3.57.52a36,36,0,0,1,2.11,4.27A5.28,5.28,0,0,1,1239.92,329.11Zm25.19-31a5,5,0,0,1-5.52,2.84,7.55,7.55,0,0,0-.83-.13c-2.79,0-4.09,1.71-2.88,4.22a11.71,11.71,0,0,1,1.28,4.53c.11,2.08-.06,2.39-2,3a32,32,0,0,0-5.34,1.72,74.71,74.71,0,0,0-6.52,4.29c-.3.2-.58.41-.87.61l-.61-.27a38.83,38.83,0,0,1,1-6c1.89-5.78,3.74-11.6,7.14-16.75a7.83,7.83,0,0,0,.7-1.53c.58-1.62,1.49-2.75,3.38-2.9a4.92,4.92,0,0,0,2.36-.85c2.09-1.44,4.45-1.35,6.78-1.32a2.22,2.22,0,0,1,1.76,1C1265.88,293,1266.53,295.54,1265.11,298.13Z" transform="translate(-906.52 -99.21)"/><path class="cls-1" d="M1091.59,283.88c.62,2.19.68,4-.9,5.66-3.69,3.87-9.71,5.53-14.51,2.06-2.7-2-3.33-4.89-3.83-7.86a42.42,42.42,0,0,1-.37-5.05,10.34,10.34,0,0,1,4.17-9.34,40.37,40.37,0,0,1,5.25-3.73c5.5-2.95,10.89-2.53,16.24.71a18,18,0,0,1,8.33,10.16,7.35,7.35,0,0,1,.51,2.18c0,3.84.07,7.71-1.18,11.42a6.94,6.94,0,0,1-.62,1.57c-4.27,6.39-9.83,11.09-17.59,12.43a18.87,18.87,0,0,1-7.52-.28,56,56,0,0,1-10.84-3.79c-3-1.42-5.16-4-7-6.81s-2.86-6.22-4.1-9.44c-1.91-4.94-.57-9.36.77-13.94.21-.71.61-1.37.83-2.08,1.81-5.74,5.85-9.8,10.42-13.29a21.45,21.45,0,0,1,6.57-3.1c4.11-1.28,8.33-2.19,12.5-3.31,3.2-.85,6.19.31,9.08,1.2a39.82,39.82,0,0,1,8,3.95,14.1,14.1,0,0,1,3.26,3,36.32,36.32,0,0,1,4.55,5.71,29.86,29.86,0,0,1,3.35,8c1.27,5.68,1.8,11.56.47,17.27-1.21,5.25-2.72,10.5-5.88,15.07a26.06,26.06,0,0,1-6.95,6.86A40.06,40.06,0,0,1,1087,316c-6.73.83-13.45.78-20-1.53-4.61-1.62-9.24-3.19-13.22-6.11-3.74-2.74-6.9-6-8.7-10.43-.74-1.8-2-3.39-2.8-5.18a53.71,53.71,0,0,1-2.75-7.35c-2-7.39-3.18-14.86-1.08-22.46a26.12,26.12,0,0,1,1.7-4.43c1.91-3.87,3.55-7.94,6-11.47,3.26-4.75,6.78-9.43,12.17-12.19,1.46-.75,2.59-2.12,4-3.07a44.4,44.4,0,0,1,16.42-7.09,48.37,48.37,0,0,1,10.64-.55,27.7,27.7,0,0,1,6.59,1.15c4.69,1.27,9.35,2.69,14,4.07,4.27,1.28,7.35,4.39,10.71,7.07.51.4.9,1,1.47,1.29,2.78,1.28,4,3.78,5.29,6.31a45.68,45.68,0,0,0,4.17,6.64,67.2,67.2,0,0,1,7.33,12.88c2.09,4.44,4,9,4.69,13.79a52.08,52.08,0,0,1,.16,16.81,62.78,62.78,0,0,1-4.28,13.08,123.67,123.67,0,0,1-10,18.48c-5.33,8.41-12.83,14-21.09,18.94a83.65,83.65,0,0,1-14.21,6.75,57.94,57.94,0,0,1-15.26,3.39,11.5,11.5,0,0,0-2.5.34c-3.61,1.13-7.24.66-10.83.09a65.85,65.85,0,0,1-20.86-7.24,72.23,72.23,0,0,1-8.13-4.95c-4.41-3.16-8.81-6.43-12.07-10.86-2.72-3.68-5.18-7.55-7.77-11.33-1.59-2.31-3.26-4.57-4.81-6.91a35.13,35.13,0,0,1-1.83-3.43c-.36-.71-.46-1.58-1.69-1.39s-1.3-1-1.34-1.71a3.65,3.65,0,0,1,.56-2.54c1.53-1.5.79-3,.22-4.44a30.07,30.07,0,0,1-1.64-8.23c-.37-3.35-1.32-6.63-1.67-10a51.93,51.93,0,0,1,.6-14.83c.75-4,1.37-8.24,3-11.93,3.13-7,5-14.53,9.11-21.15,2.12-3.4,3.54-7.24,6-10.46,2-2.59,3.93-5.26,5.91-7.87a14.12,14.12,0,0,1,1.56-1.63,69.9,69.9,0,0,1,24.8-14.52c3.63-1.22,7.05-3.1,11-3.49.26,0,.71-.13.74-.27.61-2.73,3.42-1.61,5-3.23.41,1.95,1.56,1.92,3,1.9,6.91-.06,13.83-.21,20.72.16a92.46,92.46,0,0,1,14.41,2.06c5.84,1.26,11.64,2.72,16.91,5.85,3.29,2,7,3.15,10.34,5.08a67.28,67.28,0,0,1,11.5,8,8.35,8.35,0,0,1,.6.59c3.86,4.36,7.87,8.58,11.53,13.1A99.55,99.55,0,0,1,1175,250.7c1.56,3.44,4.56,17.58,4.5,21.38a16.06,16.06,0,0,0,.18,1.95c.26,2.42.72,4.83.76,7.25.06,4.88.11,9.78-.24,14.64-.28,4-1.11,8-1.75,12-.51,3.15-1.12,6.28-1.66,9.43-1.36,8-4.36,15.51-7.39,23-1.09,2.71-3.19,5-4.83,7.5-.67,1-1.33,2-2,3.05s-1.4,2-2.07,3c-.4.61-1,1.27-1,1.91,0,1.93-1.32,3.16-2.42,4.29a57.17,57.17,0,0,1-12.88,10.33,30.9,30.9,0,0,0-5.13,3.45,55.34,55.34,0,0,1-10.18,6.48c-2.3,1.24-4.45,2.79-6.82,3.84-4.7,2.06-9.17,4.78-14.37,5.54a12.42,12.42,0,0,0-2.2.44c-6.91,2.32-14.11,2.85-21.3,3.45a38.59,38.59,0,0,1-13.3-1.55c-4.88-1.32-9.79-2.59-14.57-4.22-3.61-1.24-7-3-10.53-4.56-3-1.32-6-2.57-9-4.05-2.24-1.14-4.31-2.6-6.46-3.91s-4.27-2.39-6.23-3.83c-2.56-1.86-4.94-4-7.4-6-5-4.08-10.12-8.07-14.17-13.18-2.39-3-4.65-6.11-6.94-9.18a62.88,62.88,0,0,1-7.23-13c-2.4-5.61-4.57-11.29-5.2-17.44-.18-1.76-.83-3.48-1-5.24-.47-4.37-.77-8.76-1.17-13.14-.11-1.2-.28-2.41-.49-3.61a27.31,27.31,0,0,1-.17-10,58.75,58.75,0,0,0,1.05-11.46c-.05-5.08,1.18-9.85,2.6-14.61,1.38-4.58,2.74-9.17,4.32-13.68a67.12,67.12,0,0,1,3.44-7.71c3.1-6.21,6.17-12.44,9.48-18.53a36.27,36.27,0,0,1,9.42-11.43,6.75,6.75,0,0,0,2.49-3.3c.5-2.17,1.94-3.34,3.46-4.58a44.46,44.46,0,0,1,11.71-7.09c3-1.19,5.62-3.32,8.53-4.79,2.24-1.13,4.66-1.89,7-2.83s4.82-2.08,7.3-2.92c5.05-1.72,10.14-3.3,15.22-4.91a10.38,10.38,0,0,1,2.21-.41c4.86-.41,9.7-1,14.56-1.12,4.31-.1,8.62.33,12.93.58,2.15.13,4.3.58,6.44.52,5.13-.14,9.77,1.76,14.47,3.31,4.44,1.48,8.76,3.34,13.2,4.84,7.38,2.5,13.76,6.76,20.14,11.05a2.8,2.8,0,0,1,.61.58,3.5,3.5,0,0,1,.25.81l-4.17-1.59c3.74,3.12,8.85,4.21,11.94,8.65h-1.72c.09.22.11.42.22.5a38.51,38.51,0,0,1,3.5,2.82c1.16,1.18,3.23,1.78,2.83,4.1,0,.24.64.59,1,.89,6.18,5.52,11.13,12.17,16.67,18.28a19.87,19.87,0,0,1,1.67,2.6c.26.38.55,1,.88,1,2.15.27,2.42,2.11,3.13,3.56,1.84,3.79,3.71,7.56,5.42,11.41a27.61,27.61,0,0,1,1.58,5.07c1.59,6.75,3.31,13.48,4.6,20.29,2,10.59,4,21.23,3.71,32.09-.24,8.62-.55,17.25-1.2,25.84a45.24,45.24,0,0,1-2.47,12.93c-1.43,3.75-2.1,7.79-3.27,11.65-2.13,7-4.16,14-7.22,20.68a2.36,2.36,0,0,1-.83,1.09c-3.64,1.91-5,5.14-5.29,9,0,.17-.17.32-.35.66-.42.06-1,.16-1.51.22-6.64.84-9.71,5.36-11.33,11.21a3.69,3.69,0,0,1-2.75,2.82c-2.42.75-4.82,1.56-7.2,2.4-3,1-4.93,3.37-7,5.5a4.78,4.78,0,0,1-3.68,1.63c-2.67,0-4.83,1.58-6.74,3.17a5.74,5.74,0,0,1-5.41,1.31c-6-1.33-9.78.26-12.81,5.36a6,6,0,0,1-3.79,2.65c-5.08,1.62-10.16,1.18-15.31.35-2.16-.34-4.43,0-6.65.08a6.8,6.8,0,0,1-2.17-.08,13.17,13.17,0,0,0-14.24,3.15c-.12.12-.34.13-.61.23a21.37,21.37,0,0,0-2.6-2,8.45,8.45,0,0,0-7.34-.66c-2.73,1.06-5.18.3-7.56-.87-3.28-1.61-6.42-3.49-9.74-5a32.2,32.2,0,0,0-7.66-2.7,19.8,19.8,0,0,0-6.66.41c-1.89.32-3.08.12-4.12-1.76a12.1,12.1,0,0,0-6.38-5.31c-.75-.29-1.49-.63-2.77-1.18a14.92,14.92,0,0,1,1.48-.41c6.13-.8,12.23-1.56,18.46-.75a66,66,0,0,0,16-.2c6.33-.72,12.76-.75,19-2.4a73.2,73.2,0,0,0,9.32-3,67.88,67.88,0,0,1,11.27-3.26c5.63-1.27,11.46-2.07,16.74-4.71,4.52-2.27,9.19-4.28,13.61-6.72,3.59-2,6.94-4.39,10.36-6.66s7-4.64,10.43-7.13a58.74,58.74,0,0,0,13.13-13.34,66.17,66.17,0,0,0,8.38-16.16c1.15-3.17,2.77-6.17,3.8-9.37a127.12,127.12,0,0,0,3.31-12.43c1.36-6.32,2.7-12.66,3.63-19.06.55-3.77.33-7.66.39-11.5,0-2.32.48-4.65-.33-7a5.37,5.37,0,0,1,.08-2.78,5.5,5.5,0,0,0-.33-4.1,1.6,1.6,0,0,1-.27-1.07c.82-3.07-.37-6-.87-8.87a80.8,80.8,0,0,0-3.23-12.19,79.67,79.67,0,0,0-10-19.15c-2.47-3.63-5.57-6.82-8.42-10.17-2-2.36-4.07-4.67-6.1-7a42,42,0,0,0-10.06-8.88c-2.72-1.62-5.22-3.62-7.84-5.43a9.44,9.44,0,0,0-1.94-1.13c-4.71-1.84-9.39-3.77-14.16-5.42a100.92,100.92,0,0,0-16-4.25c-6.46-1.1-12.82-1-19.27-.91-3.93,0-7.88.79-11.7.47-5-.42-9,2.06-13.36,3.43-5.08,1.59-10,3.79-14.92,5.82a27.53,27.53,0,0,0-4.93,2.58c-4.9,3.26-9.72,6.64-14.57,10-4.36,3-7.1,7.37-9.88,11.71-1.47,2.28-2.89,4.6-4.19,7a38.77,38.77,0,0,0-1.56,3.88c-2.45,5.88-5,11.72-7.36,17.62a62.7,62.7,0,0,0-4.46,20.22c-.08,1.5-.14,3-.31,4.49-.46,4,.75,7.8,1.34,11.68.26,1.65.4,3.33.63,5a12.37,12.37,0,0,0,.43,2.18c.89,2.77,1.86,5.51,2.74,8.27,1.31,4.12,2.82,8.06,5.57,11.56,1.88,2.39,2.93,5.43,4.37,8.16.82,1.56,1.6,3.16,2.56,4.62,2.16,3.29,4.29,6.61,6.69,9.72a52.87,52.87,0,0,0,10.05,9.3c4.68,3.59,10.1,5.75,15.35,8.14,3.7,1.68,7.87,2.35,11.83,3.45a24.33,24.33,0,0,0,3,.67,19.46,19.46,0,0,0,4.15.36,65.88,65.88,0,0,0,6.69-.89c4.43-.74,8.89-1.36,13.26-2.36a69,69,0,0,0,18.44-6.57,104.75,104.75,0,0,0,15.33-9.9c3.56-2.89,7.19-5.77,9.78-9.65,1.35-2,2.44-4.21,3.76-6.25,1.62-2.51,3.38-4.92,5-7.43a35.41,35.41,0,0,0,2-3.7c.73-1.51,1.35-3.08,2.08-4.6,3.08-6.49,5.25-13.22,5.43-20.46a62.81,62.81,0,0,0-.16-8.68,36.76,36.76,0,0,0-3.4-12.68c-1.94-3.84-3.38-7.92-5.17-11.85a87.1,87.1,0,0,0-4.28-8.53,48.76,48.76,0,0,0-10.6-12.57c-2-1.68-3.82-3.59-5.93-5.11a49.71,49.71,0,0,0-8.07-5c-2.51-1.17-5.35-1.64-8.06-2.39-2-.55-4-1.06-6-1.57a50.23,50.23,0,0,0-27.74.9,25.41,25.41,0,0,0-4.51,2.27c-2.86,1.61-5.72,3.21-8.51,4.92a51.26,51.26,0,0,0-10.1,8.4,64.34,64.34,0,0,0-11,16.54,27.77,27.77,0,0,0-3.29,10.41c-.06.92-.42,1.82-.55,2.74a16.6,16.6,0,0,0-.4,4.18c1.3,10.21,3.8,20,9.13,29a44.6,44.6,0,0,0,11.46,12.45,51.15,51.15,0,0,0,8.74,5.48c4.21,2.06,8.49,4.13,13.36,4.86,7.12,1.07,14,0,21-.92,3.15-.44,5.6-2.53,8.36-3.88a30.06,30.06,0,0,0,12.67-11.66c1.79-3,3.92-5.91,4.58-9.56.57-3.12,1.94-6.1,2.49-9.22a45.93,45.93,0,0,0-.32-15.38c-.55-3.42-1.13-6.89-3.15-9.84-1.43-2.08-3.12-4-4.44-6.13a26.87,26.87,0,0,0-12.52-10.45,47.32,47.32,0,0,0-8.57-2.57c-6.7-1.5-13,.63-19.26,2.5a34.54,34.54,0,0,0-16.82,11.24,23,23,0,0,0-5.44,11.53c-.19,1.3-.51,2.58-.79,3.86-1,4.6-.33,9,.76,13.58,1,4,3.43,7,5,10.58.51,1.13,1.83,1.86,2.6,2.9,4.18,5.62,9.87,8.8,16.56,10.3,2.64.59,5.34,1,8,1.29a13.2,13.2,0,0,0,7.38-1.36c2.44-1.17,4.8-2.5,7.24-3.64a19.11,19.11,0,0,0,6.42-5.3c3.36-4,4.78-8.88,5.52-13.95a34.87,34.87,0,0,0,.25-5.87,20.54,20.54,0,0,0-5.09-12.81,46.7,46.7,0,0,0-3.29-4.19c-6.29-6.07-17.58-7.32-25.16-2.81a48,48,0,0,0-5.08,3.53,15.37,15.37,0,0,0-6.28,12.82,31.53,31.53,0,0,0,2.24,12.35,16.66,16.66,0,0,0,12.14,10.32,10.94,10.94,0,0,0,5.51-.65,21.13,21.13,0,0,0,6.22-3.17,9.75,9.75,0,0,0,3.74-7c.29-4.92-.51-9.58-5.11-12.63a7.5,7.5,0,0,1-1.12-1.25,6,6,0,0,0-9.39.79c-2.47,3.88-1.77,7.22,1.93,9.22a5,5,0,0,0,4.07.54C1088.65,284.93,1090,284.45,1091.59,283.88Z" transform="translate(-906.52 -99.21)"/><path class="cls-1" d="M958.23,224c3.06,10,4.17,20.87,4.41,31.87.08,3.59,1.13,7.16,1.75,10.74.47,2.67,1.13,5.33,1.37,8,.34,3.72,2,7,3.24,10.4,1.6,4.29,3.92,8.31,5.47,12.62a95.93,95.93,0,0,1,2.62,10.6c0,.08,0,.19,0,.28.81,3.1.71,6.38,1.69,9.42s2.25,5.95,3.45,8.9c1.1,2.69,2.21,5.38,3.43,8,2.93,6.35,7.24,11.81,11.34,17.41A70.16,70.16,0,0,0,1009.24,365c1.73,1.41,3.49,2.8,5.08,4.37a47.42,47.42,0,0,0,10.22,7.4c2,1.13,3.85,2.67,5.88,3.83,3.47,2,7,3.83,10.57,5.71.49.26,1,.4,1.55.65q5.91,2.91,11.8,5.86c.48.24.93.55,1.59.94a35.28,35.28,0,0,1-10.22,5.49c-1.13.43-2.6,0-3.9-.06-8.83-.54-17.42-2.35-26-4.31-7.15-1.63-13.53-4.91-20-8-1.6-.76-3.29-1.37-4.8-2.28a28.75,28.75,0,0,1-4.18-3.2,3,3,0,0,1-1-1.92c-.1-3.61-2.25-5.33-5.42-6.22-.17,0-.3-.21-.41-.29,0-2,.54-4.15-.15-5.8s-2.61-2.78-4.11-4.27a13.94,13.94,0,0,0,.43-2,4.15,4.15,0,0,0-2.74-4.4,8.39,8.39,0,0,0-1.59-.57c-3.08-.53-4.53-2.73-5.48-5.39-1.29-3.6-2.6-7.21-3.71-10.87a48.13,48.13,0,0,1-1.28-6.32c-.72-4.49-3-8.24-5.54-11.88a5.81,5.81,0,0,1-1.33-4.39c.36-2.48-1.42-4-3.07-5.36s-2-1.83-1.22-3.93c.36-1.05.83-2.08,1.12-3.16.9-3.35-.12-6.52-1.18-9.62-.56-1.68-1.69-3.18-2.12-4.88a31.41,31.41,0,0,1-.94-6.89c-.06-2.71.29-5.43.48-8.14a9.72,9.72,0,0,1,.19-2c1.2-4.53,2.48-9,3.65-13.56a18.09,18.09,0,0,0,.73-4.92,3,3,0,0,1,.76-2.49,4.49,4.49,0,0,0,1-2c.72-3.09,1.47-6.16.82-9.41a5,5,0,0,1,.65-3.16,4,4,0,0,0,.11-4.52c-1.92-2.6-.11-4.29,1.09-6.21C957.18,225.8,957.79,224.72,958.23,224Z" transform="translate(-906.52 -99.21)"/><path class="cls-1" d="M1207.33,351.51a12.83,12.83,0,0,1-.39-2.12c0-5.8,0-11.6,0-17.4,0-3.65-.3-7.29-.33-10.94,0-3.47.21-6.93.19-10.39,0-5.7-.1-11.4-.33-17.1-.51-12.51-3.7-24.58-6.26-36.75-.61-2.93-1.05-5.91-1.86-8.78-2.12-7.44-4-15-8.5-21.52a43.72,43.72,0,0,0-6.09-7.21c-3.26-3.06-6.07-6.61-9.1-9.92-1.2-1.32-2.5-2.55-3.73-3.83-3.7-3.84-7.22-7.86-11.13-11.46a87.79,87.79,0,0,0-10.59-8.33,73.76,73.76,0,0,0-14.78-8.06,4.14,4.14,0,0,1-2-1.86,57.9,57.9,0,0,1,7.62-.59c3.45.17,6.87.82,10.31,1.21,1.81.21,3.51,1.44,5.45.47.3-.15.88.23,1.31.39,7.46,2.79,15,5.41,22.35,8.42,4.84,2,9.51,4.42,14.15,6.86,3,1.56,5.74,3.5,8.62,5.28-1.57,5.6.36,10.26,4.47,14,2.53,2.31,4.43,4.68,4.81,8.22a8.37,8.37,0,0,0,4.18,6.37c1.68,1,3.33,2.09,4.95,3.2a6.37,6.37,0,0,1,2.69,3.78c1.18,4.39,1.06,8.91,1.65,13.36.34,2.54.71,5,2.15,7.19a3.46,3.46,0,0,1-.3,4.63c-2,2.18-1.73,4.85-1.53,7.46a5.27,5.27,0,0,0,1.16,2.16c.83,1.23,1.83,2.36,2.54,3.66a4.07,4.07,0,0,1,.31,2.4,29.45,29.45,0,0,1-1.07,4.91,6.18,6.18,0,0,0,1,5.35c2.48,4.09,3.35,8.28,1.15,12.8a12.72,12.72,0,0,0-.86,2.66c-.74,3.18-3.24,5.24-5.1,7.63a9.64,9.64,0,0,0-2.18,7.58,5,5,0,0,1-1.47,4.55,10.47,10.47,0,0,0-3.19,7.56,5.09,5.09,0,0,1-2.51,4.6,9.55,9.55,0,0,0-4.06,8.25c0,1.87.11,3.74,0,5.61C1210.91,348.27,1209.24,349.75,1207.33,351.51Z" transform="translate(-906.52 -99.21)"/><path class="cls-1" d="M1124,142.91a6.85,6.85,0,0,0,6.52,5.17,5.17,5.17,0,0,0,2.69-.4c3-1.62,5.94-1,8.68.25,4.07,1.88,8,4.08,11.9,6.33a5.82,5.82,0,0,1,1.8,2.69,12.15,12.15,0,0,0,6,6.44,18.07,18.07,0,0,0,2.65.81,15.64,15.64,0,0,1,2.42.65,25.31,25.31,0,0,0,7.14,2.47c.54.08,1.12.84,1.42,1.42.41.82.51,1.79.86,2.65a4.91,4.91,0,0,0,4,3.05,35.16,35.16,0,0,1,6.65,2.17,6.13,6.13,0,0,1,3.57,4.33c-5-.53-9.79-.85-14.48-1.6a33.24,33.24,0,0,1-6.6-2.32c-1.2-.46-2.24-1.26-3.72-.8-.59.18-1.41-.36-2.12-.56-7.84-2.19-15.59-4.82-23.55-6.45-6.57-1.34-13.38-1.63-20.1-2.17a89.85,89.85,0,0,0-10.38,0c-1.47,0-2.92.71-4.39.85a30.13,30.13,0,0,1-6.7.18,100.12,100.12,0,0,0-19.64-.78,80.09,80.09,0,0,0-12.54,1.59c-3.17.69-6.14,2.25-9.24,3.32a32.84,32.84,0,0,1-3.5.71c-2.28.49-4.54,1-6.83,1.52a19.6,19.6,0,0,0-9.35,4.28,7.31,7.31,0,0,1-1.69,1c-4,1.9-7.93,3.77-12.06,5.72,0-1.29.88-2.29,1.6-3.2,2.61-3.3,4.6-7,6.86-10.5,1.57-2.44,4.11-4.37,6.46-6.2a108.26,108.26,0,0,1,13.76-9.22c5-2.78,9.71-6,14.7-8.78a104.81,104.81,0,0,1,9.77-4.25c.83-.36,1.71-.62,2.94-1.06l-1.89-.65,0-.44a9.82,9.82,0,0,1,2.26-.6c3-.1,5.23-1.77,7.43-3.58a6.78,6.78,0,0,1,2.8-1.67c3.32-.6,6.55-1.27,10.08-.2,3.26,1,6.84,1,10.29,1.2,1.59.07,2.72.25,3.32,1.86a7.5,7.5,0,0,0,1,1.67c1.25,1.73,2.64,3.1,5.09,2.81A21.87,21.87,0,0,1,1124,142.91Z" transform="translate(-906.52 -99.21)"/><path class="cls-1" d="M1065.79,138.87c-.65.71-1.25,1.49-2,2.14-4.49,4.11-8.94,8.28-13.55,12.26-3.87,3.34-7.81,6.6-12,9.63a135,135,0,0,0-19.74,18.34c-3.65,4-6.82,8.45-10.09,12.78-2.14,2.84-4,5.88-6.12,8.73a112.75,112.75,0,0,0-10.43,17.65,35.85,35.85,0,0,0-1.71,5.59,15.53,15.53,0,0,1-.68,2.13c-1.61,3.49-3.27,7-4.9,10.44a9,9,0,0,0-.56,1.28c-2,6.64-4.13,13.24-5.85,20-.85,3.33-.88,6.86-1.32,10.29-.28,2.22-.62,4.42-1,6.93a12.5,12.5,0,0,1-7.25-8.56A84.48,84.48,0,0,1,966,248.72c0-7.13-.19-14.26,0-21.39a93.8,93.8,0,0,1,2.16-19.26,5.84,5.84,0,0,1,1.61-2.81c2.3-2.09,3.4-4.91,4.87-7.51a2.91,2.91,0,0,0,.36-1.9c-.36-1.67.38-2.62,1.68-3.48a6.33,6.33,0,0,0,3.18-5.32,8.55,8.55,0,0,1,.49-1.93h1.2a8.56,8.56,0,0,0,8.92-7.92A4.31,4.31,0,0,1,992,174c3.18-2.58,6.14-5.33,10.22-6.77,3.93-1.39,7.85-3.19,10.88-6.29a16.28,16.28,0,0,0,2.57-3.24,3,3,0,0,1,2.55-1.86,3.69,3.69,0,0,0,1.57-.57,4.59,4.59,0,0,1,4.39-.27c1.58.57,3.72.09,5.48-.4a25.74,25.74,0,0,0,9.22-4.69c3.81-3.05,8.23-4.36,12.94-4.9a24.4,24.4,0,0,0,10-3.39,23,23,0,0,0,3.42-3.15Z" transform="translate(-906.52 -99.21)"/><path class="cls-1" d="M965.06,186.1c1.65,1.21,3.35,2.46,5.06,3.7l.45-.45a29.18,29.18,0,0,0-2.06-2.61c-5.18-5.34-5.4-15.9,1.83-21.83A22.54,22.54,0,0,1,983,159.36c4.11-.34,8.21-.83,12.28-1.44,5.27-.78,10.61-1.44,15.45-4.53a8.42,8.42,0,0,1-.52,1.68,14.81,14.81,0,0,1-8.46,7,28.78,28.78,0,0,0-5.46,2.87c-3.26,2-6.59,4-8.9,7.19a5.7,5.7,0,0,0-1.3,3.29c-.15,4-2.75,5.72-6.69,4.63a5.23,5.23,0,0,0-2.18-.2c-1.5.25-2,1.11-1.85,2.61,0,.18.12.35.15.54.94,5,.05,6.45-4.71,7.81-.44.12-.87.29-1.52.5a41.81,41.81,0,0,1,0,5.49,8.72,8.72,0,0,1-3.35,5.67c-2.1,1.71-4.27,3.34-6.38,5a16.42,16.42,0,0,0-1.25,1.49,20.56,20.56,0,0,1-2.55,2.56,7.17,7.17,0,0,0-3,5.76,9.64,9.64,0,0,0,0,2.52c.57,2.45-.34,4.59-1.28,6.7a6.39,6.39,0,0,1-1.45,1.64c-1.9,1.93-2.36,3.08-.51,5a19.29,19.29,0,0,1,1.59,2.31,25.52,25.52,0,0,1-1.84,2.31,2.34,2.34,0,0,0-.37,3.3c2.06,2.67.9,5.38.19,8.06-.15.6-1,1-1.52,1.54s-1.48,1.06-1.72,1.76c-.52,1.51-1.69,1.74-2.89,1.71a12,12,0,0,1-9.45-4.21,2.78,2.78,0,0,1-.72-2c.72-3.12-.5-5.94-1.19-8.83a27.51,27.51,0,0,1,0-12.79c.63-2.72.83-5.6,2.63-7.95a10.79,10.79,0,0,1,.73-1.19c4.18-4.16,8.28-8.41,12.62-12.39,1.77-1.61,4.12-2.59,6.15-3.93,3.76-2.46,7.63-4.8,10.56-8.33a8.73,8.73,0,0,0,1.9-3.4c-2.36.36-2.67,2.75-4.74,3.31C962.38,190,962.35,187.39,965.06,186.1Z" transform="translate(-906.52 -99.21)"/><path class="cls-1" d="M939.57,255.79h6.77c.87.68,1,1.68.5,3-2.05,5.84-3.79,11.76-3.85,18,0,1.58-.53,3.15-.68,4.73-.55,5.91,0,11.56,3.52,16.66,1.88,2.75,2.3,5.51-.06,8.51-1.92,2.46-1.07,5.95,1.32,8,.82.71,2,1.55,2.12,2.4a11.6,11.6,0,0,1-.9,4.6,7,7,0,0,1-1.9,2.42,2.54,2.54,0,0,1-3.49.44,38,38,0,0,0-5.44-2.16,4.7,4.7,0,0,1-1.7-.9c-1.64-1.65-3.27-3.34-4.77-5.11-2.9-3.42-3.12-7.73-3.69-11.89-.61-4.43.56-8.76.83-13.14.35-5.52,3.19-9.9,5.49-14.58a111.38,111.38,0,0,0,5-11A20.11,20.11,0,0,0,939.57,255.79Z" transform="translate(-906.52 -99.21)"/><path class="cls-1" d="M1235.26,317.11l-7.06-1.35a4.1,4.1,0,0,1,.77-4.54,51.45,51.45,0,0,0,6.29-11.24c2.39-5.28,2.69-10.47-.34-15.57a7.38,7.38,0,0,1-.48-6.77,11.54,11.54,0,0,0,0-8.42,7.12,7.12,0,0,0-1.62-2.24c-2.11-2.3-2.18-3.09-.39-5.53.23-.31.39-.65.61-.95,1.49-2,2.6-4,1-6.21.2-.4.24-.62.37-.73,3.08-2.48,8.93-1.75,11.48,1.23,3.08,3.59,4,8,4.85,12.39.5,2.56.46,5.23.82,7.82a14,14,0,0,1-1.44,7.64,52.76,52.76,0,0,0-3.23,9.25c-.68,2.95-2.35,5.69-3.61,8.5-1.64,3.67-3.28,7.34-5,11C1237.3,313.37,1236.2,315.31,1235.26,317.11Z" transform="translate(-906.52 -99.21)"/><path class="cls-1" d="M1156.46,412.17l-2.71-1.75a17.91,17.91,0,0,1,8.63-5.85c1.43-.4,2.95-.54,4.42-.8a7.56,7.56,0,0,0,5.42-4.09c1.18-2.12,2.36-4.25,3.35-6.46,1.14-2.55,3-3.78,5.73-3.54a4.33,4.33,0,0,0,4.85-3c.78-2,1.66-3.89,2.76-6.43.8-.69,3,.55,4.06-1.19.89-1.42,1.73-2.88,2.68-4.46a3.37,3.37,0,0,0,4.34-1.46c.81-1.22,2-.94,3.21.49a11.49,11.49,0,0,1,2.77,10.24c-1.33,6.27-4.16,11.84-9.42,15.83a14.72,14.72,0,0,1-3,1.37c-.51.22-1,.4-1.54.62-2.23,1-4.41,2.09-6.7,2.88a120.9,120.9,0,0,1-20.15,4.92C1162.39,410,1159.68,411.17,1156.46,412.17Z" transform="translate(-906.52 -99.21)"/><path class="cls-2" d="M1207.52,385.89a14.89,14.89,0,0,0-.18-8.67,4.05,4.05,0,0,1,.44-3.2c2.14-4.22,5.54-7.24,9.37-9.86,1.84-1.27,3.7-2.51,5.47-3.86,2-1.52,4-3.14,5.89-4.75a4.57,4.57,0,0,1,3-1c3.62-.2,7.22-.82,10.82-1.27a17.63,17.63,0,0,1,2.78-.3c4,.16,6,2.34,5.82,6.32-.09,2.61,0,5.24-1.68,7.54-1.26,1.7-3.09,2.35-4.88,3.1-.42.17-1.08-.12-1.59-.29s-1-.47-1.54-.67c-3.82-1.48-5.1-.55-5,3.63.06,2.79-.87,3.42-3.4,2a12,12,0,0,0-6-1.11c-2,0-4,2.27-4.32,4.52-.35,2.55-1,3-3.6,3.15a13.36,13.36,0,0,0-3.76.75,31.58,31.58,0,0,0-3.78,1.87C1210.24,384.42,1209.1,385,1207.52,385.89Z" transform="translate(-906.52 -99.21)"/><path class="cls-1" d="M1038.35,420.22c5-2.74,9.29-.84,13.64,1.42a104.69,104.69,0,0,0,9.84,4.75c3,1.18,6.07,2.3,9.51,1,2.75-1,5.1,0,6.87,2.43s3.23,2.46,5.12-.17A7.64,7.64,0,0,1,1093,427c.43.19.84.43,1.27.59,2.53.93,3.84,3.2,3,5.66a35.83,35.83,0,0,1-2.93,6.35,5.52,5.52,0,0,1-3,2.39c-5,1.23-9.91,3.07-15.16,2.6a53.79,53.79,0,0,1-8.57-1.43,9,9,0,0,1-5.32-3.48c-3.06-4.46-7.75-7-12-10.07q-5.94-4.41-11.84-8.88C1038.3,420.59,1038.35,420.21,1038.35,420.22Z" transform="translate(-906.52 -99.21)"/><path class="cls-1" d="M1228.52,317.81c3.89.35,5-.33,6.3,3.81l2.17-.31c.17.15.45.3.57.53a36,36,0,0,1,2.11,4.27,5.24,5.24,0,0,1,.25,3,59.06,59.06,0,0,1-8.14,18.42,6.32,6.32,0,0,1-.86,1.11c-3.09,2.86-6.06,5.87-9.34,8.49-3.57,2.86-7.47,5.31-11.17,8a59.27,59.27,0,0,0-6.29,5.09,2.53,2.53,0,0,1-3.26.64,3.36,3.36,0,0,1,.43-3.39c.54-.76.84-1.7,1.43-2.42,3-3.69,5.82-7.56,9.54-10.61,2-1.67,4-3.33,4.9-6a9,9,0,0,0-.54-6.3c-1.17-3.12-.28-4.92,2.92-5.82a4.25,4.25,0,0,0,2.73-3.81c.08-2,.17-3.91.38-5.86.24-2.13,1.8-3.53,3.31-4.7S1228.45,319.81,1228.52,317.81Z" transform="translate(-906.52 -99.21)"/><path class="cls-1" d="M1232.92,252.84c-.58-1.94-1.14-3.68-1.61-5.44a30.36,30.36,0,0,1-1.26-8.28,36.44,36.44,0,0,0-.89-7c-.6-3.29-3.51-4.72-5.72-6.65-1.54-1.34-3.37-2.35-5-3.65s-1.91-3.5-1.82-5.41c.09-2.12-.39-3.6-2.25-4.7-1-.55-1.67-1.49-2.58-2.13a10.54,10.54,0,0,1-4.73-9.54,16.34,16.34,0,0,0-.27-2.34,9.05,9.05,0,0,1,5.5.45c1.78.76,3.51,1.71,5.64.83.61-.26,1.63.26,2.38.6,4.64,2.12,8.49,5.07,10.65,9.9,1,2.22,2.3,4.29,3.27,6.52a55.92,55.92,0,0,1,1.92,5.55c.17.53.15,1.13.34,1.65,2.42,6.72,2.3,13.62,1.47,20.56a24.83,24.83,0,0,1-1.37,6C1236,251.35,1234.31,252,1232.92,252.84Z" transform="translate(-906.52 -99.21)"/><path class="cls-1" d="M1156.55,422.3c-2.59,5.21-6.09,9.59-12.48,11.13-3,.72-5.72,2.26-8.63,3.24a22.66,22.66,0,0,1-8.87.86,39.37,39.37,0,0,1-14.18-4.18c-2.27-1.08-4.66-1.93-7-2.84a3.5,3.5,0,0,0-1.65-.26c-2.46.36-3.72-1.14-5-3,1.08-1.39,2.44-.89,3.66-.81,3.73.24,7.45.59,11.19.76s7.28-1.56,10.76-2.89a5.19,5.19,0,0,0,2.42-2.51,6.11,6.11,0,0,1,6.19-3.77,20.76,20.76,0,0,1,2.21.36,9.67,9.67,0,0,0,8.18-2c.86-.68,2-1.71,2.86-1.56a38.49,38.49,0,0,1,7.23,2.16c.66.25,1.09,1.23,1.5,1.95C1155.47,420,1155.9,421,1156.55,422.3Z" transform="translate(-906.52 -99.21)"/><path class="cls-3" d="M1032.32,431.9c1.27-1.87,2.36-3.49,3.67-5.44,4.57,1.16,9.28,2.41,12.61,6.52a3.57,3.57,0,0,0,1.08.84,21.84,21.84,0,0,1,3.35,1.9c3,2.56,5.83,5.24,8.7,7.92a3.66,3.66,0,0,1,1.11,1.58c.92,3.45,3,6.2,5.1,9,2.94,4,2.21,8.55-1.83,11.42a5.1,5.1,0,0,1-3.71.91c-2.05-.22-2.44-.78-2.79-2.78a22.35,22.35,0,0,0-1.58-5.59c-1.21-2.58-3.31-3.23-5.85-1.91a3.61,3.61,0,0,1-3.71.12c.43-1.74.94-3.41,1.23-5.12s-.41-2.64-2.13-2.89a5.3,5.3,0,0,0-4,1,2.6,2.6,0,0,1-2.23.38c-.49-.29-.67-1.41-.66-2.16a16.5,16.5,0,0,0-6.67-14A22.3,22.3,0,0,1,1032.32,431.9Z" transform="translate(-906.52 -99.21)"/><path class="cls-1" d="M948.93,324.08c3.82,3.31,7.44,6.7,8,12.24.67,6.24,3.52,11.84,5.56,17.66a9,9,0,0,0,5.27,5.18c.77.33,1.58.54,2.69.91a14.68,14.68,0,0,1-.38,2.6c-.65,2-.52,2.82,1.27,4a33.88,33.88,0,0,0,3.76,1.95,37.13,37.13,0,0,0-.92,5c-.12,2.52.95,3.6,3.41,3.91a6.36,6.36,0,0,1,1.4.11c.73.27,1.74.54,2,1.11a2.36,2.36,0,0,1-.59,3.05c-3.14,2.54-6.68,3.58-10.93.25-1.48-1.16-3.51-1.92-4.1-4.06a1,1,0,0,0-.6-.56c-2.38-.63-3.18-2.75-4.35-4.53a46.88,46.88,0,0,1-7.55-18,35.55,35.55,0,0,1-.64-7.27c.25-7.23-1.4-14.07-3.81-20.8a10.73,10.73,0,0,1-.31-2.55Z" transform="translate(-906.52 -99.21)"/><path class="cls-1" d="M977,386l4.69-2.78c.27.18.66.29.71.49.85,3.4,3.06,6.07,5.24,8.54,4.22,4.76,9.17,8.57,15.84,9.32,3.32.36,6.18,1.64,7.91,4.66,1.3,2.26,3.57,3.28,5.63,4.51a5,5,0,0,0,3,.23c3.3-.48,6.13.21,8.31,2.88.12.14.27.25.4.39,3.86,4.14,4.35,7.43,1.85,12.49-.74,1.49-2,2.12-3.44,1.36-1.84-.95-3.74-.8-5.68-1-5.47-.57-10.67-1.91-14.09-6.91-1.52-2.22-3.47-4.14-5-6.32-1.32-1.79-2.34-3.8-3.57-5.66-1.91-2.89-3.79-5.79-5.86-8.56-1.33-1.77-3-3.31-4.47-5a1.24,1.24,0,0,0-.18-.21Z" transform="translate(-906.52 -99.21)"/><path class="cls-4" d="M1115.27,451.15c-2.53-4.4-3.83-5-8.41-2-1.8,1.16-2.75,1.16-4.5-.19-2-1.6-4.12-3.17-6.33-4.86,1.59-2.52,3.17-5.2,4.94-7.76a3.63,3.63,0,0,1,3.73-1.52c3.12.57,6.26,1.13,9.31,2,4,1.13,7.81,2.57,11.72,3.84,1.7.55,3.43,1,5.12,1.55,1.51.5,2.85,1.07,4.56.23.8-.39,2.19.15,3.23.51a9.57,9.57,0,0,1,5.39,5c.92,1.82-1.28,8.23-3.13,9.07a11.05,11.05,0,0,1-10,.07,7,7,0,0,1-3.7-4.23,5.63,5.63,0,0,0-4-4,5.2,5.2,0,0,0-4.28.6A30.71,30.71,0,0,1,1115.27,451.15Z" transform="translate(-906.52 -99.21)"/><path class="cls-5" d="M976.22,389.13c.75.51,1.29.83,1.77,1.22,4.13,3.37,8.12,6.87,11.24,11.27,1.89,2.67,4.11,5.12,5.92,7.83a19.75,19.75,0,0,1,3.21,13.37c-.15,1.39-.1,2.8-.12,4.2a13.22,13.22,0,0,1-1.87,6.69c-1.35,2.28-7.19,3.89-9.67,2.73a2.48,2.48,0,0,1-1.25-1.67,10,10,0,0,1,.29-4.13,4.8,4.8,0,0,0-2.39-5.72c-.81-.48-1.65-.9-2.49-1.31-2-1-2.17-2.25-.54-3.82,1.29-1.24,2.52-2.44,2.87-4.36.54-2.91.14-3.89-2.76-4.72a3.08,3.08,0,0,1-2.25-2.88,6.68,6.68,0,0,1,.36-3.56c1-2.2.53-4.16-.18-6.25-.84-2.48-1.52-5-2.24-7.54A4.78,4.78,0,0,1,976.22,389.13Z" transform="translate(-906.52 -99.21)"/><path class="cls-1" d="M1206.2,196c-1.77-2.35-3.42-4.49-5-6.7a36.14,36.14,0,0,1-2.33-3.8c-1.64-3.05-3-6.29-4.89-9.13-2-3-4.76-5.55-8.54-6.46-1.19-.29-2.35-.67-3.54-.93a2.6,2.6,0,0,1-2.2-2.82,6.31,6.31,0,0,0-1.1-4c-1.74-2.32-4.3-2.4-6.74-2.85s-5-.75-7.49-1.19a12.08,12.08,0,0,1-2.06-.74c.42-2.83,2.34-4.22,4.52-5.11a12.93,12.93,0,0,1,7.7-.92,4.56,4.56,0,0,1,1.33.4c4.93,2.87,10.08,5.44,14.7,8.75,5.23,3.74,10.49,7.77,12.42,14.42,1,3.4,1.68,6.9,2.36,10.39a25.64,25.64,0,0,0,2.42,7.74,6.46,6.46,0,0,1,.42,1.4Z" transform="translate(-906.52 -99.21)"/><path class="cls-1" d="M1057.28,134.3a5.13,5.13,0,0,1-.23-2c.5-1.78,1.18-3.51,1.85-5.23.12-.29.54-.5.86-.68,2.94-1.66,5.85-3.36,8.84-4.92s6.32-1.57,9.5-2.31c3.91-.91,7.07.52,10.42,2.12a79.33,79.33,0,0,0,19.63,6.64,16.18,16.18,0,0,1,4.16,1.62,1.78,1.78,0,0,1,.83,1.48,1.8,1.8,0,0,1-1.41,1c-2.78-.14-5.58-.32-8.34-.73s-5.73-1.83-8.45-1.51c-3.66.42-7.7.53-10.68,3.49a10.1,10.1,0,0,1-2.5,1.79c-1.93,1-3.34.5-4.47-1.34s-2.4-2.15-4.12-.94c-.53.37-1,.87-1.48,1.29a2,2,0,0,1-3,0c-1.2-1.28-2.62-1.29-4.14-1.06C1062.26,133.45,1060,133.84,1057.28,134.3Z" transform="translate(-906.52 -99.21)"/><path class="cls-6" d="M946.21,332.52a26.4,26.4,0,0,1,3.35,16.53c-.51,3.84.35,7.45,1.12,11.11.32,1.55.87,3,1.32,4.57,1.08,3.64.08,7.23-.26,10.84a1,1,0,0,1-.22.51c-1.75,1.86-2.34,4.19-2.76,6.62a2.81,2.81,0,0,1-.94,1.66,2.37,2.37,0,0,0-.89,2.16c-.11,2.14-1.38,2.84-3.43,2.06a12.49,12.49,0,0,1-1.78-.82c-4.13-2.36-4.55-3.61-2.37-7.73.83-1.57,1.66-3,.07-4.55a5,5,0,0,0-1.85-1.08,3.1,3.1,0,0,1-2.46-2.74,3.51,3.51,0,0,1,2.13-3.24,23.73,23.73,0,0,0,3.51-2.15c1.15-.9,1-2.23.37-3.33a10.65,10.65,0,0,0-2-2.35c-2.17-2.16-2.59-4.48.15-6.65a25.42,25.42,0,0,0,4.64-4.8c1.91-2.58,2.17-5.74,2.24-8.85C946.25,337.7,946.21,335.11,946.21,332.52Z" transform="translate(-906.52 -99.21)"/><path class="cls-7" d="M962.67,176.52c.27,2,.56,4.22.79,6a21.22,21.22,0,0,0-1.71,2.76c-1.91,4.53-3.59,9.13-8,12.1-3.87,2.61-7.53,5.54-11.23,8.4s-7.68,2.91-11.89,1.94a5.52,5.52,0,0,1-4.42-6c.14-3.07,1.86-4.35,4.93-4.23a31.88,31.88,0,0,0,6.36-.67,2.31,2.31,0,0,0,1.41-1.2,52.28,52.28,0,0,0,2.53-5.93c.74-2.19,2-2.86,4.08-1.73a5.39,5.39,0,0,1,1.08.89c1,1,2.06.62,3.09.06a2.1,2.1,0,0,0,1.12-2.82,2.76,2.76,0,0,1-.08-.27c-1-4.33-1-4.33,3-6,.18-.07.34-.17.51-.24Z" transform="translate(-906.52 -99.21)"/><path class="cls-8" d="M918.82,262.91c10.36-4.73,10.69-6.15,13.38-11.56.92.61,1.81,1.22,2.72,1.81a3.28,3.28,0,0,1,1.5,3.1,45.41,45.41,0,0,1-2.27,13.23c-.82,2.67-1.27,5.49-3,7.8-2.22,2.9-4.42,5.81-7.46,7.94a6.41,6.41,0,0,0-1.51,1.26c-1.72,2.28-4.21,2.2-6.62,2.16-1.69,0-2.43-1.33-2.36-3.67.13-.12.25-.32.41-.35,3.18-.57,3.09-.56,2.82-3.66a8.27,8.27,0,0,0-2.94-5.54,12.53,12.53,0,0,1-2.47-3,2.65,2.65,0,0,1,.19-2.29c.24-.36,1.41-.37,2-.16a7.51,7.51,0,0,0,4.62.39c2.45-.67,3.12-1.49,2.45-4A30.11,30.11,0,0,0,918.82,262.91Z" transform="translate(-906.52 -99.21)"/><path class="cls-1" d="M1055.52,138.71a21.61,21.61,0,0,1-3.38.84,26.44,26.44,0,0,0-15.22,6.44c-2.76,2.36-6.2,3.42-9.54,4.61a2.79,2.79,0,0,1-3.31-.75c-1.56-1.73-2.25-1.8-4.07-.45-1.52,1.12-2.81,1.92-4.83,1-.75-.35-2,.47-3.38.84-1.59-2.31-1.38-5-1.13-7.66.33-3.57,2.78-5.66,5.7-7.13a18.24,18.24,0,0,1,9.89-1.47c5.87.48,11.76.93,17.65,1.13,2.3.08,4.62-.6,6.94-.85C1054.09,134.89,1054.09,134.92,1055.52,138.71Z" transform="translate(-906.52 -99.21)"/><path class="cls-9" d="M1185.51,425.28c-.64-1-1.31-1.91-1.91-2.89-.29-.48-.4-1.06-.68-1.54-1.45-2.55-3.05-2.77-5.11-.75-.41.39-.78.81-1.16,1.22-1.94,2.11-1.88,1.94-4.3.45-3-1.87-6.34-2.76-9.91-1.5-.68.24-1.4.36-2.27.58l-1.37-4.22c2.18-1.28,4.14-2.81,6.77-3.2A32.46,32.46,0,0,0,1171,412c5-1.65,10.25-1.88,15.41-2.56a38.25,38.25,0,0,1,6.4-.49,12.45,12.45,0,0,1,3.92,1.22,26.6,26.6,0,0,1,2.45,1.35,6,6,0,0,1,3,8.2c-.25.61-.31,1.37-.73,1.8-.61.63-1.53,1.51-2.2,1.41a34.63,34.63,0,0,1-6.13-1.62c-1-.34-1.63-2-2.82-1.33a13.36,13.36,0,0,0-3.1,3.09,8.22,8.22,0,0,0-.89,2Z" transform="translate(-906.52 -99.21)"/><path class="cls-1" d="M1163.71,149.77a13.55,13.55,0,0,0-2,1.82,18.89,18.89,0,0,0-1.38,2.94c-.74-3.19-2.93-4.34-5.26-5.49-4-2-8-4.12-11.92-6.24-3.35-1.8-6.65-1.41-10,0-2.19.95-3.56.17-4-2.17-.64-3.19-1.77-4-4.87-3.27-4,1-5.43-.27-7.76-3.4-.85-1.14-.61-2.28.65-2.39,2.67-.24,4.58-2.38,7.21-2.53a11,11,0,0,1,1.37-.19c2,.12,4.09.41,6.13.43,7.32.07,13,3.69,18.11,8.42,4.32,4,8.24,8.46,13.41,11.48C1163.54,149.29,1163.58,149.52,1163.71,149.77Z" transform="translate(-906.52 -99.21)"/><path class="cls-10" d="M1224.36,182.27c-.8.91-1.48,1.74-2.21,2.51-1.68,1.8-1.49,3.09.67,4.17.58.29,1.22.49,1.82.74s1,.43,1.76.75c-.85,1.44-1.72,2.73-2.38,4.11s.49,3-1.11,4.38c-.82-2-2.54-2.6-4.3-3.32a50.19,50.19,0,0,1-6.41-3.46,3.56,3.56,0,0,1-1.19-1.52,48.94,48.94,0,0,1-5-17.15,10.62,10.62,0,0,1,3-7.85,7.54,7.54,0,0,1,2.43-1.25,2,2,0,0,1,.56-.06c5.73-.35,8.93,3.38,7.72,9a3.37,3.37,0,0,1-.64,1.21c-2.22,3.1-1,6,2.76,6.72.54.11,1.1.18,1.65.3C1223.58,181.63,1223.72,181.8,1224.36,182.27Z" transform="translate(-906.52 -99.21)"/><path class="cls-11" d="M1162.41,126.62a4.11,4.11,0,0,1,.4,4.12c-1.27,3.9-.44,5.21,3.58,5.39,1.34.07,1.83.61,1.94,1.84.2,2,.4,4.08.72,6.1.21,1.27.65,2.49,1,3.94a5.23,5.23,0,0,1-1.35-.08,29.42,29.42,0,0,1-11.27-6.6c-3.1-2.82-6-5.9-9.48-8.26-1.41-.94-2.43-2.46-3.8-3.91,2.31-1.49,1.94-3.12,1.12-5.14-1.53-3.77-1-5.69,1.75-8a6.22,6.22,0,0,1,7.11-.47c2.15,1.18,2.82,2.84,2.3,5.76-.16.92-.37,1.83-.55,2.75-.38,2,.63,3.29,2.7,3.17A36.7,36.7,0,0,0,1162.41,126.62Z" transform="translate(-906.52 -99.21)"/><path class="cls-12" d="M1257,239.68a4.23,4.23,0,0,1-3.18,2.84c-3.36.81-4.9,3.64-3,6.45,1.83,2.63,1,4.4-.62,6.39-.28.35-.54.7-1,1.27l-2.74-3c-.5-.55-.89-1.43-1.5-1.61-2.23-.65-2.7-2.53-3-4.31a32,32,0,0,1,.4-13,9.7,9.7,0,0,0,.35-2.2c.16-4.86,2.88-8.42,6.06-11.65,1.71-1.72,4.84-1.65,6.82-.26a3.62,3.62,0,0,1,.42.36c1.7,1.71,1.48,7.15-.36,8.74-.21.18-.45.33-.67.5-2.9,2.38-3,4.83-.25,7.53C1255.57,238.4,1256.32,239.05,1257,239.68Z" transform="translate(-906.52 -99.21)"/><path class="cls-13" d="M1119.35,126.68c-2.71.33-5.41.86-8.17-.07-3.19-1.07-6.44-2-9.58-3.23-5.29-2.06-10.66-4-15.43-7.18a32.11,32.11,0,0,1-4.31-3.58,4.48,4.48,0,0,1-.5-5.91c1.46-2.12,3.44-2.57,5.92-2.18a4.62,4.62,0,0,1,4.12,3.9c.92,3.58,3.53,4.58,6.79,2.84,1.14-.61,2.43-1.46,3.66-.51a3.81,3.81,0,0,1,1.66,4.16,14.06,14.06,0,0,0-.36,2.51,2.42,2.42,0,0,0,4.13,2.1,13.37,13.37,0,0,1,2-1.59c1.8-1,3.26-.62,4.07,1.28,1.08,2.55,3.19,4.1,5.15,5.83.34.3.66.62,1,.93Z" transform="translate(-906.52 -99.21)"/><path class="cls-14" d="M1241.79,319a38.83,38.83,0,0,1,1-6c1.89-5.78,3.74-11.6,7.14-16.75a7.83,7.83,0,0,0,.7-1.53c.58-1.62,1.49-2.75,3.38-2.9a4.92,4.92,0,0,0,2.36-.85c2.08-1.44,4.45-1.35,6.78-1.32a2.23,2.23,0,0,1,1.76,1c1,2.47,1.63,5,.21,7.58a5,5,0,0,1-5.52,2.85,7.55,7.55,0,0,0-.83-.13c-2.79,0-4.09,1.71-2.88,4.22a11.71,11.71,0,0,1,1.28,4.53c.11,2.08-.06,2.39-2,3a31.41,31.41,0,0,0-5.34,1.72,74.71,74.71,0,0,0-6.52,4.29c-.3.2-.58.41-.87.61Z" transform="translate(-906.52 -99.21)"/><path class="cls-15" d="M1007.7,148.23a22.45,22.45,0,0,1-2.42,2.36,31.26,31.26,0,0,1-18.11,5.92c-2.5,0-5,.58-7.49.86s-5,.65-7.53.78-3.56-2.11-5.11-3.5c-2.34-2.11-1.73-4.54-.53-6.89s3.39-2.79,5.44-1a4.72,4.72,0,0,0,6.18.37,4.1,4.1,0,0,1,4.19-.39,6.36,6.36,0,0,1,1.79.78,9,9,0,0,0,6.12,1.52,3.64,3.64,0,0,1,1.4,0c5.11,1.8,10,.1,14.86-1A6,6,0,0,1,1007.7,148.23Z" transform="translate(-906.52 -99.21)"/><path class="cls-16" d="M1036.31,121.88c4,4.61,9.14,6.27,14.63,7.71-1.47,1.88-3.69,2.24-5.68,2.5-6.92.93-13.83,1-20.6-1.16-2.66-.84-5.34-1.6-8-2.51-1.85-.64-3.15-6.93-1.57-8.06a7,7,0,0,1,3.68-.92,15,15,0,0,1,3.3.61,6,6,0,0,1,4.59,3.72c1.67,3.66,5.33,4,7.67.71C1034.9,123.72,1035.47,123,1036.31,121.88Z" transform="translate(-906.52 -99.21)"/></svg>