<svg id="Layer_30" data-name="Layer 30" xmlns="http://www.w3.org/2000/svg" xmlns:xlink="http://www.w3.org/1999/xlink" viewBox="0 0 349.71 390.59"><defs><style>.cls-1{fill:url(#radial-gradient);}.cls-2{fill:url(#radial-gradient-2);}.cls-3{fill:url(#radial-gradient-4);}.cls-4{fill:url(#radial-gradient-6);}.cls-5{fill:url(#radial-gradient-8);}</style><radialGradient id="radial-gradient" cx="1823.7" cy="1544" r="495.78" gradientUnits="userSpaceOnUse"><stop offset="0" stop-color="#d6ca71"/><stop offset="0.39" stop-color="#93884f"/><stop offset="1" stop-color="#261c17"/></radialGradient><radialGradient id="radial-gradient-2" cx="1899.32" cy="1369.76" r="334.73" xlink:href="#radial-gradient"/><radialGradient id="radial-gradient-4" cx="2096.12" cy="1438.15" r="27.76" xlink:href="#radial-gradient"/><radialGradient id="radial-gradient-6" cx="1879.89" cy="1476.51" r="691.67" xlink:href="#radial-gradient"/><radialGradient id="radial-gradient-8" cx="1850.98" cy="1530.71" r="154.38" gradientUnits="userSpaceOnUse"><stop offset="0" stop-color="#ff9500"/><stop offset="0.15" stop-color="#fd9001"/><stop offset="0.33" stop-color="#f78003"/><stop offset="0.53" stop-color="#ed6606"/><stop offset="0.75" stop-color="#df430a"/><stop offset="0.98" stop-color="#ce150f"/><stop offset="1" stop-color="#cc1010"/></radialGradient></defs><path d="M1934.81,1390.85c3.52,8.69,2.07,16.65-1.31,24.63-.64,1.52.52,4,1.34,5.9,1.7,3.88,3.72,7.62,5.62,11.45,14.86,8.79,30.54,17.08,45.11,27,11.39,7.76,22.65,16.06,31.83,26.67,6.87,7.94,14.29,15.45,20.72,23.73,4.64,6,8.23,12.83,12,19.47a189.9,189.9,0,0,1,10.12,19.78c3,7.23,6.15,14.69,7.4,22.35,2.95,17.93,4.94,36,7,54.09.42,3.7-.66,7.58-1.07,11.38-.23,2.13-1,4.3-.7,6.36.77,6.13-2.16,11.1-4.55,16.27-.3.65-1.11,1.15-1.19,1.78-1.23,9.53-9.31,15.28-12.93,23.49a14.23,14.23,0,0,1-2.72,4.21c-12.56,12.74-24.25,26.9-42,32.72a188.6,188.6,0,0,1-30.72,6.9,117.28,117.28,0,0,1-33.52-.14c-10.61-1.47-21.24-3.44-30.94-8.46a34.74,34.74,0,0,0-17.29-3.85c-6.21.16-12.5-.77-18.62,0-13.76,1.62-27.38,4.43-41.15,5.91-19.68,2.12-38.58-.14-55.86-11.18a113.91,113.91,0,0,1-20.43-16.8,51.25,51.25,0,0,1-9.85-13.92c-5.78-12.55-10.9-25.4-15.93-38.27-1.17-3-.82-6.61-1.32-9.91a127.35,127.35,0,0,1-1-32.82,172.91,172.91,0,0,1,5.6-30.26,7.77,7.77,0,0,0,.66-2.78c-.92-7.72,3.43-13.57,6.66-19.91,5.07-10,9.78-20.08,15.75-29.64,6.64-10.64,12.22-22.18,21.61-30.55,7.08-6.32,12-14.82,20.54-19.64,3.17-1.78,5.41-5.19,8.23-7.68,6-5.33,11.82-10.95,18.28-15.68,5.36-3.92,11.44-6.92,17.38-10,2.3-1.17,4-2.19,4.46-5,1.63-11,6.83-20.25,14.26-28.43,1.65-1.83,2.36-4.51,3.54-6.78,4.48-8.54,9.52-17,19.32-19.83,7.15-2.08,13.53-4.64,17.56-11,6.89-10.94,18.45-14.63,29.43-19,12.35-4.89,25.08-5,37.88-1.14,13.51,4.07,27,8.3,40.67,11.66,9,2.21,18.33,3,27.52,4.43,6.62,1,13,2.45,18.45,6.85,5.2,4.19,10.82,7.87,16.33,11.67,6.35,4.38,6.48,9.11,1,14.34a61,61,0,0,0-17.44,29.12c-1,3.84.4,8.5,1.41,12.61,2.78,11.31,0,22.07-4.09,32.19-4.7,11.67-16.5,14.24-27.67,9.29a19.68,19.68,0,0,1-11.07-11.28c-2.67-6.43-8-11.78-12.29-17.49a6.26,6.26,0,0,0-3.53-2.3c-12-2.08-16.91-11.48-21.9-20.86-3.94-7.4-8-14.94-14.65-20.14-5.59-4.36-12-7.73-18.23-11.22C1944.53,1389,1940.21,1389,1934.81,1390.85Zm47.13,124.81,1.27-1.17c-4.71-8.58-9.75-17-14-25.8-2.87-6-4.5-12.51-6.91-18.71a14.86,14.86,0,0,0-3.58-5.77,43.55,43.55,0,0,0-17.62-9.23c-4.13-1.11-7.37-3.21-9.47-7.06-1.81-3.35-3.78-6.62-5.83-9.83-1.72-2.7-3.1-6.39-5.62-7.66a46.17,46.17,0,0,0-15-4.41c-6.57-.76-13.29,0-19.91-.43-8.27-.51-14.9,2.79-20.91,7.91-4.88,4.15-9.61,8.49-14.54,12.58a25.86,25.86,0,0,1-6.55,4.21c-13,5.24-25,12.1-34.85,22.22-8,8.22-15.46,17-23.48,25.16-6.2,6.35-12.12,12.74-16.38,20.69-6.32,11.78-14,22.86-17.3,36.08-2.73,10.9-5.73,21.74-8.22,32.7-2.22,9.78-4.6,19.64-3.39,29.79,1.16,9.72.86,20.17,4.53,28.89,5.21,12.39,11.2,24.63,19.2,35.89,8.71,12.24,19.7,21.46,31.94,29.4,3.74,2.44,9,2.89,13.67,3.45a73.18,73.18,0,0,0,14.35.1c11.15-.87,22.45-1.31,32.86-6,14.28-6.46,29.16-6.43,44.23-4.5a31.27,31.27,0,0,1,13.92,5.35,26.74,26.74,0,0,0,10,3.71c9.84,1.85,19.74,3.42,29.66,4.84,17.68,2.51,35.27,2.53,52.53-2.82,2.27-.7,4.81-1.3,6.58-2.73,8.3-6.74,16.43-13.69,24.51-20.69,12.54-10.86,19.37-25.17,24-40.69,6.81-22.8,6.78-45.87,1-68.74-2.5-9.88-7.81-19-10.67-28.82-3.54-12.18-10.54-22.43-16.63-33.18-6.62-11.69-16.56-20.87-25.31-30.9-9.5-10.87-21.76-18.6-33.45-26.9-2-1.39-4.41-2.07-8.08-3.74.89,3.92,1.07,6.3,2,8.37q5.49,12.84,11.32,25.53c8.07,17.6,16.24,35.16,24.31,52.77,1.12,2.46,2.86,5,.35,8.45-1.45-.93-3.05-1.51-4-2.63a169.84,169.84,0,0,1-10.42-13.7c-9-13.72-20.69-25.09-31.81-36.93-7.51-8-15.7-15.35-23.74-22.82-12.36-11.45-23.48-24.34-38.58-33.31v-8.93a45.78,45.78,0,0,1,4.58,3.19c3,2.75,5.62,5.92,8.79,8.41,11.42,9,23.61,16.91,33,28.41,6.77,8.3,15,15.43,22.38,23.22C1971.85,1504.34,1976.84,1510.05,1981.94,1515.66Zm-54.71-137c2.37-.21,5-.88,7.37-.54a69,69,0,0,1,11.12,2.76c4.32,1.37,9,2.37,12.7,4.77,13.43,8.66,24.89,19.32,32.1,34,3.35,6.82,8.14,12.2,15.81,14.72a16.21,16.21,0,0,1,10.13,9.3c2.24,4.93,5.79,9.34,9.19,13.64,1.82,2.31,4.52,3.93,6.82,5.86l1.31-.78c-1.06-5.8-2.1-11.61-3.18-17.41-1-5.62-2.47-11.21-3.12-16.88-1.28-11.13,6.63-23.58,17-26.24a12.66,12.66,0,0,0,8.61-6.93,41,41,0,0,1,11.41-13.62,28.68,28.68,0,0,0,2.68-2.91c-7.34-6.29-15-11-24-12.92-5.82-1.19-12-.85-17.73-2.25-11.13-2.68-22.09-6.08-33.1-9.24-7.81-2.25-15.5-5-23.41-6.75a52.9,52.9,0,0,0-16.38-1.23c-11.6,1.17-22.18,5.68-31.91,12.12-4.32,2.87-7.49,6.54-8.13,11.82Zm-63,47.6c15.29-7.93,31.16-9.09,47-10.17-.77-5.32-.53-5.72-3.54-7.62a140.39,140.39,0,0,0-14.38-7.67c-5.58-2.66-14.49-1-18.32,3.58a108.79,108.79,0,0,0-8,11C1865.1,1418.26,1863.49,1421.46,1864.2,1426.22Zm182.09,37.22c7.06-4.74,7.69-10.45,7.29-16.69-.27-4.24-.06-8.52-.12-12.78,0-1.66-.3-3.32-.3-5q0-7.44.2-14.86c0-1.37.34-2.72.6-4.69-7,2.57-11.86,6.61-13.81,13.14-3.39,11.32-2.51,22.65,1.6,33.66C2042.69,1458.74,2044.62,1460.85,2046.29,1463.44Zm-119.86-69.69c-4.5-3.94-9.22-8.33-14.26-12.32-1.72-1.37-4.32-2.65-6.36-2.44-9.19,1-17.54,4-24.26,12.35,5.24.94,9.83,2.21,14.46,2.45a25.75,25.75,0,0,1,12.2,3.58,54.29,54.29,0,0,0,5.64,3.1c3.58,1.6,7,3.12,7.25,7.89.05,1,1.67,1.82,3,3.14C1924.88,1405.45,1925.58,1400.19,1926.43,1393.75Zm11.57,48.81c4.52,6.18,19.06,13.06,26.84,12.28C1955.58,1450.09,1948.93,1442.4,1938,1442.56Zm129.76-52.82a20.54,20.54,0,0,0-9.15,13C2064.69,1399.81,2066.78,1395.21,2067.76,1389.74Z" transform="translate(-1732.17 -1339.57)"/><path class="cls-1" d="M1981.94,1515.66c-5.1-5.61-10.09-11.32-15.31-16.8-7.42-7.79-15.61-14.92-22.38-23.22-9.39-11.5-21.58-19.42-33-28.41-3.17-2.49-5.81-5.66-8.79-8.41a45.78,45.78,0,0,0-4.58-3.19v8.93c15.1,9,26.22,21.86,38.58,33.31,8,7.47,16.23,14.83,23.74,22.82,11.12,11.84,22.82,23.21,31.81,36.93a169.84,169.84,0,0,0,10.42,13.7c.91,1.12,2.51,1.7,4,2.63,2.51-3.41.77-6-.35-8.45-8.07-17.61-16.24-35.17-24.31-52.77q-5.81-12.7-11.32-25.53c-.88-2.07-1.06-4.45-2-8.37,3.67,1.67,6.12,2.35,8.08,3.74,11.69,8.3,24,16,33.45,26.9,8.75,10,18.69,19.21,25.31,30.9,6.09,10.75,13.09,21,16.63,33.18,2.86,9.81,8.17,18.94,10.67,28.82,5.8,22.87,5.83,45.94-1,68.74-4.63,15.52-11.46,29.83-24,40.69-8.08,7-16.21,14-24.51,20.69-1.77,1.43-4.31,2-6.58,2.73-17.26,5.35-34.85,5.33-52.53,2.82-9.92-1.42-19.82-3-29.66-4.84a26.74,26.74,0,0,1-10-3.71,31.27,31.27,0,0,0-13.92-5.35c-15.07-1.93-30-2-44.23,4.5-10.41,4.71-21.71,5.15-32.86,6a73.18,73.18,0,0,1-14.35-.1c-4.66-.56-9.93-1-13.67-3.45-12.24-7.94-23.23-17.16-31.94-29.4-8-11.26-14-23.5-19.2-35.89-3.67-8.72-3.37-19.17-4.53-28.89-1.21-10.15,1.17-20,3.39-29.79,2.49-11,5.49-21.8,8.22-32.7,3.3-13.22,11-24.3,17.3-36.08,4.26-7.95,10.18-14.34,16.38-20.69,8-8.21,15.49-16.94,23.48-25.16,9.83-10.12,21.83-17,34.85-22.22a25.86,25.86,0,0,0,6.55-4.21c4.93-4.09,9.66-8.43,14.54-12.58,6-5.12,12.64-8.42,20.91-7.91,6.62.41,13.34-.33,19.91.43a46.17,46.17,0,0,1,15,4.41c2.52,1.27,3.9,5,5.62,7.66,2,3.21,4,6.48,5.83,9.83,2.1,3.85,5.34,5.95,9.47,7.06a43.55,43.55,0,0,1,17.62,9.23,14.86,14.86,0,0,1,3.58,5.77c2.41,6.2,4,12.75,6.91,18.71,4.24,8.8,9.28,17.22,14,25.8ZM1933,1605.05c1.37,1.93,2.76,3,2.91,4.24,1,8.26,7.24,13.79,10.7,20.76.42.85.92,1.68,1.32,2.54,3.14,6.77,3.27,7.07,9.89,4,16.54-7.75,33.89-13,51.5-17.61,4.13-1.07,8.51-1.39,12.48-2.86,5.69-2.1,6.31-8,1.58-11.72a75.6,75.6,0,0,1-7.25-5.78c-13.07-13.25-25.89-26.73-39.05-39.89-14.22-14.22-27.12-29.59-40.1-44.9-3.24-3.82-6.27-7.81-9.52-11.62-7.26-8.55-14.92-16.78-20-26.94-2.17-4.32-3.79-4.88-8.53-4.12-5.39.86-10.82,1.46-16.25,2.06-2.85.31-5.74.29-8.6.57-7.65.75-10.29,3.16-12.21,10.41-1.09,4.15-2.6,8.19-3.91,12.28q-10.08,31.42-20.17,62.87c-.14.45-.17.94-.31,1.4-5.53,18.79-10.7,37.71-16.83,56.31-2,6-2.17,12.69-6.33,18.07-1.48,1.91.13,4.1,2.43,5.09,3.24,1.38,6.45,2.84,9.76,4a7.71,7.71,0,0,0,3.44,0c1.39-.19,2.83-1,4.12-.78,11.29,1.83,22.55,3.86,33.83,5.77,6.1,1,12.2,2.2,18.36,2.79,5.73.55,7.27-1.54,6.8-7.1-.55-6.39-.65-12.82-1.1-19.22-.32-4.56,1.8-7.1,6-8.52C1909.48,1613.24,1921,1609.21,1933,1605.05Zm-17.62,78.38c-3.41-.65-7.4-.37-10-2.13-5.34-3.54-11-4.27-17-4.44-11.72-.31-23.47-.13-35.13-1.1-6.29-.52-13.07-1.86-18.48-4.88a144.12,144.12,0,0,1-23.84-17.07c-6.76-5.85-14.39-11.22-17.43-20.5a45.87,45.87,0,0,0-5.4-10.83,6.94,6.94,0,0,0-5.2-2.76c-2.71.12-3,3-2.54,5a20.79,20.79,0,0,0,2.82,7.2c8.69,12.56,17.56,25,26.4,37.43,2.75,3.89,5.14,8.15,8.44,11.5,6.85,7,14.24,13.41,21.33,20.13,4.91,4.66,6.55,4.35,10.27-1.42,5.31-8.21,12.43-13.5,22.76-13.58,6.92,0,13.83-.57,20.75-.81,5.18-.18,10.48-.87,14.46,2Zm-92-133.28a22.5,22.5,0,0,0,1.83-3.56c1.24-4.33,1.82-8.93,3.6-13,4.93-11.37,9.94-22.75,15.64-33.75,9.88-19,20.52-37.67,34.8-53.92.79-.89,1.34-3,.83-3.79-.93-1.42-3.11-3.45-4.11-3.14-3.45,1.1-7.68,2.29-9.68,4.92-4,5.24-6.86,11.37-9.88,17.3-6.5,12.75-12.7,25.67-19.25,38.4-2.15,4.17-3.65,8.87-7.67,12,2.8-16.14,7-31.75,14.3-46.52a16.55,16.55,0,0,0-8.67,10c-2.28,7.31-4.95,14.53-6.58,22-3.38,15.39-6.17,30.91-9.22,46.37C1818.71,1546.36,1819.8,1548.41,1823.36,1550.15Z" transform="translate(-1732.17 -1339.57)"/><path class="cls-2" d="M1927.23,1378.62l-14.77-8.71c.64-5.28,3.81-9,8.13-11.82,9.73-6.44,20.31-10.95,31.91-12.12a52.9,52.9,0,0,1,16.38,1.23c7.91,1.75,15.6,4.5,23.41,6.75,11,3.16,22,6.56,33.1,9.24,5.75,1.4,11.91,1.06,17.73,2.25,9.05,1.87,16.69,6.63,24,12.92a28.68,28.68,0,0,1-2.68,2.91,41,41,0,0,0-11.41,13.62,12.66,12.66,0,0,1-8.61,6.93c-10.34,2.66-18.25,15.11-17,26.24.65,5.67,2.07,11.26,3.12,16.88,1.08,5.8,2.12,11.61,3.18,17.41l-1.31.78c-2.3-1.93-5-3.55-6.82-5.86-3.4-4.3-7-8.71-9.19-13.64a16.21,16.21,0,0,0-10.13-9.3c-7.67-2.52-12.46-7.9-15.81-14.72-7.21-14.68-18.67-25.34-32.1-34-3.72-2.4-8.38-3.4-12.7-4.77a69,69,0,0,0-11.12-2.76C1932.18,1377.74,1929.6,1378.41,1927.23,1378.62Zm123.12,11.74c-2.3-2.46-4-.72-5.56.63-4.73,4.15-10.2,4.88-16.08,3.62-6.84-1.47-13.44-3.6-18.85-8.29-12.69-11-27.49-17-44-19.12-2.23-.28-4.69-1.42-6.35,1.21.32.61.43,1.2.77,1.4a23.25,23.25,0,0,0,3.81,2c12.4,4.62,24.06,10.5,34.49,18.81,7.82,6.22,13.66,13.3,13.67,23.88a32.18,32.18,0,0,0,.31,5,17.92,17.92,0,0,0,11.52,14c-.38-1.34-.34-2.79-1-3.43-4.74-4.33-6.55-9.71-6.75-16-.35-11.43-6-19.79-15.32-26.13-3.55-2.43-6.69-5.44-10-8.19,3.1.64,5.46,2.21,7.84,3.75,7.8,5,14.73,11.33,24,14C2033.58,1400.63,2042.88,1399.71,2050.35,1390.36Z" transform="translate(-1732.17 -1339.57)"/><path class="cls-2" d="M1864.2,1426.22c-.71-4.76.9-8,2.82-10.91a108.79,108.79,0,0,1,8-11c3.83-4.54,12.74-6.24,18.32-3.58a140.39,140.39,0,0,1,14.38,7.67c3,1.9,2.77,2.3,3.54,7.62C1895.36,1417.13,1879.49,1418.29,1864.2,1426.22Z" transform="translate(-1732.17 -1339.57)"/><path class="cls-3" d="M2046.29,1463.44c-1.67-2.59-3.6-4.7-4.54-7.19-4.11-11-5-22.34-1.6-33.66,1.95-6.53,6.83-10.57,13.81-13.14-.26,2-.56,3.32-.6,4.69q-.18,7.42-.2,14.86c0,1.65.27,3.31.3,5,.06,4.26-.15,8.54.12,12.78C2054,1453,2053.35,1458.7,2046.29,1463.44Z" transform="translate(-1732.17 -1339.57)"/><path class="cls-2" d="M1926.43,1393.75c-.85,6.44-1.55,11.7-2.35,17.75-1.31-1.32-2.93-2.19-3-3.14-.27-4.77-3.67-6.29-7.25-7.89a54.29,54.29,0,0,1-5.64-3.1,25.75,25.75,0,0,0-12.2-3.58c-4.63-.24-9.22-1.51-14.46-2.45,6.72-8.34,15.07-11.39,24.26-12.35,2-.21,4.64,1.07,6.36,2.44C1917.21,1385.42,1921.93,1389.81,1926.43,1393.75Z" transform="translate(-1732.17 -1339.57)"/><path class="cls-4" d="M1938,1442.56c10.93-.16,17.58,7.53,26.84,12.28C1957.06,1455.62,1942.52,1448.74,1938,1442.56Z" transform="translate(-1732.17 -1339.57)"/><path class="cls-3" d="M2067.76,1389.74c-1,5.47-3.07,10.07-9.15,13A20.54,20.54,0,0,1,2067.76,1389.74Z" transform="translate(-1732.17 -1339.57)"/><path d="M1933,1605.05c-12,4.16-23.53,8.19-35.06,12.07-4.2,1.42-6.32,4-6,8.52.45,6.4.55,12.83,1.1,19.22.47,5.56-1.07,7.65-6.8,7.1-6.16-.59-12.26-1.76-18.36-2.79-11.28-1.91-22.54-3.94-33.83-5.77-1.29-.21-2.73.59-4.12.78a7.71,7.71,0,0,1-3.44,0c-3.31-1.2-6.52-2.66-9.76-4-2.3-1-3.91-3.18-2.43-5.09,4.16-5.38,4.35-12.07,6.33-18.07,6.13-18.6,11.3-37.52,16.83-56.31.14-.46.17-1,.31-1.4q10.08-31.44,20.17-62.87c1.31-4.09,2.82-8.13,3.91-12.28,1.92-7.25,4.56-9.66,12.21-10.41,2.86-.28,5.75-.26,8.6-.57,5.43-.6,10.86-1.2,16.25-2.06,4.74-.76,6.36-.2,8.53,4.12,5.1,10.16,12.76,18.39,20,26.94,3.25,3.81,6.28,7.8,9.52,11.62,13,15.31,25.88,30.68,40.1,44.9,13.16,13.16,26,26.64,39.05,39.89a75.6,75.6,0,0,0,7.25,5.78c4.73,3.7,4.11,9.62-1.58,11.72-4,1.47-8.35,1.79-12.48,2.86-17.61,4.57-35,9.86-51.5,17.61-6.62,3.09-6.75,2.79-9.89-4-.4-.86-.9-1.69-1.32-2.54-3.46-7-9.65-12.5-10.7-20.76C1935.77,1608.06,1934.38,1607,1933,1605.05Zm78.49,4.93c.91-5.53-2.13-7.77-4.77-10.16-9.56-8.66-20.1-16.44-28.5-26.1-10.61-12.19-22.41-23.57-30.41-37.93-1.61-2.89-4.08-5.3-6.24-7.87-10.74-12.81-21.44-25.66-32.31-38.37-3.26-3.82-7-7.33-12.54-7.35-5.7,0-11.42-.12-17.09.32-9.36.71-10.68.54-13.77,10.33-1.44,4.54-2.38,9.23-3.78,13.78-3.29,10.71-6.77,21.36-10.09,32.06-4,12.77-8,25.54-11.73,38.38-5.15,17.55-10.08,35.16-15.18,53,18.16,4.79,35.4,10.34,54,10.36,2.48-5.94,2.4-12.12,2.25-18.31-.18-7.8,3.07-10.47,10.37-12.35a336.5,336.5,0,0,0,36.69-11.71c7.37-2.83,9.52-2.75,12.51,4.43q4.14,9.91,8.61,19.7c2.73,6,4.45,6.7,10.6,4.75,12.93-4.1,25.87-8.18,38.77-12.37C2003.18,1613.18,2007.36,1611.5,2011.5,1610Z" transform="translate(-1732.17 -1339.57)"/><path d="M1915.39,1683.43l-7.87,3.75c-4-2.83-9.28-2.14-14.46-2-6.92.24-13.83.77-20.75.81-10.33.08-17.45,5.37-22.76,13.58-3.72,5.77-5.36,6.08-10.27,1.42-7.09-6.72-14.48-13.16-21.33-20.13-3.3-3.35-5.69-7.61-8.44-11.5-8.84-12.45-17.71-24.87-26.4-37.43a20.79,20.79,0,0,1-2.82-7.2c-.47-2.1-.17-4.93,2.54-5a6.94,6.94,0,0,1,5.2,2.76,45.87,45.87,0,0,1,5.4,10.83c3,9.28,10.67,14.65,17.43,20.5a144.12,144.12,0,0,0,23.84,17.07c5.41,3,12.19,4.36,18.48,4.88,11.66,1,23.41.79,35.13,1.1,6,.17,11.7.9,17,4.44C1908,1683.06,1912,1682.78,1915.39,1683.43Zm-20.77-1.2.27-1.5c-8.33-.39-16.71-1.59-25-1-15.14,1-29.43-.88-42.93-8.06-2.6-1.38-5.6-2-8.42-3l-.88,1.48c7.62,8.81,15.4,17.44,24.73,24,9.21-8.39,19.63-11.28,30.8-11.84C1880.34,1681.94,1887.49,1682.23,1894.62,1682.23Z" transform="translate(-1732.17 -1339.57)"/><path d="M1823.36,1550.15c-3.56-1.74-4.65-3.79-4.06-6.77,3-15.46,5.84-31,9.22-46.37,1.63-7.45,4.3-14.67,6.58-22a16.55,16.55,0,0,1,8.67-10c-7.27,14.77-11.5,30.38-14.3,46.52,4-3.08,5.52-7.78,7.67-12,6.55-12.73,12.75-25.65,19.25-38.4,3-5.93,5.89-12.06,9.88-17.3,2-2.63,6.23-3.82,9.68-4.92,1-.31,3.18,1.72,4.11,3.14.51.79,0,2.9-.83,3.79-14.28,16.25-24.92,34.87-34.8,53.92-5.7,11-10.71,22.38-15.64,33.75-1.78,4.09-2.36,8.69-3.6,13A22.5,22.5,0,0,1,1823.36,1550.15Z" transform="translate(-1732.17 -1339.57)"/><path d="M2050.35,1390.36c-7.47,9.35-16.77,10.27-27.56,7.14-9.29-2.68-16.22-9-24-14-2.38-1.54-4.74-3.11-7.84-3.75,3.32,2.75,6.46,5.76,10,8.19,9.27,6.34,15,14.7,15.32,26.13.2,6.29,2,11.67,6.75,16,.7.64.66,2.09,1,3.43a17.92,17.92,0,0,1-11.52-14,32.18,32.18,0,0,1-.31-5c0-10.58-5.85-17.66-13.67-23.88-10.43-8.31-22.09-14.19-34.49-18.81a23.25,23.25,0,0,1-3.81-2c-.34-.2-.45-.79-.77-1.4,1.66-2.63,4.12-1.49,6.35-1.21,16.54,2.08,31.34,8.14,44,19.12,5.41,4.69,12,6.82,18.85,8.29,5.88,1.26,11.35.53,16.08-3.62C2046.33,1389.64,2048.05,1387.9,2050.35,1390.36Z" transform="translate(-1732.17 -1339.57)"/><path class="cls-5" d="M2011.5,1610c-4.14,1.52-8.32,3.2-12.59,4.58-12.9,4.19-25.84,8.27-38.77,12.37-6.15,2-7.87,1.24-10.6-4.75q-4.45-9.78-8.61-19.7c-3-7.18-5.14-7.26-12.51-4.43a336.5,336.5,0,0,1-36.69,11.71c-7.3,1.88-10.55,4.55-10.37,12.35.15,6.19.23,12.37-2.25,18.31-18.62,0-35.86-5.57-54-10.36,5.1-17.83,10-35.44,15.18-53,3.76-12.84,7.76-25.61,11.73-38.38,3.32-10.7,6.8-21.35,10.09-32.06,1.4-4.55,2.34-9.24,3.78-13.78,3.09-9.79,4.41-9.62,13.77-10.33,5.67-.44,11.39-.34,17.09-.32,5.54,0,9.28,3.53,12.54,7.35,10.87,12.71,21.57,25.56,32.31,38.37,2.16,2.57,4.63,5,6.24,7.87,8,14.36,19.8,25.74,30.41,37.93,8.4,9.66,18.94,17.44,28.5,26.1C2009.37,1602.21,2012.41,1604.45,2011.5,1610ZM1886,1585.49a49,49,0,0,0,5.61.58c8.94-.37,17.28-4.13,26.49-3.87,6.48.18,7.61-4.92,3.53-10.31A114.7,114.7,0,0,1,1913,1558c-1.84-3.32-2.94-7-4.62-10.45-3.7-7.55-13.95-8.9-19.08-2.57a4.49,4.49,0,0,0-1,2.6c-.11,5.22.08,10.44-.14,15.65-.18,4.23-.81,8.44-1.23,12.66C1886.62,1578.89,1886.33,1581.84,1886,1585.49Z" transform="translate(-1732.17 -1339.57)"/><path class="cls-4" d="M1894.62,1682.23c-7.13,0-14.28-.29-21.4.07-11.17.56-21.59,3.45-30.8,11.84-9.33-6.54-17.11-15.17-24.73-24l.88-1.48c2.82,1,5.82,1.59,8.42,3,13.5,7.18,27.79,9.11,42.93,8.06,8.26-.57,16.64.63,25,1Z" transform="translate(-1732.17 -1339.57)"/><path d="M1886,1585.49c.36-3.65.65-6.6,1-9.56.42-4.22,1-8.43,1.23-12.66.22-5.21,0-10.43.14-15.65a4.49,4.49,0,0,1,1-2.6c5.13-6.33,15.38-5,19.08,2.57,1.68,3.41,2.78,7.13,4.62,10.45a114.7,114.7,0,0,0,8.65,13.85c4.08,5.39,3,10.49-3.53,10.31-9.21-.26-17.55,3.5-26.49,3.87A49,49,0,0,1,1886,1585.49Zm27.45-11c-4.13-9.76-8.51-18-16.47-25.44-3.66,10.21-1.46,19.25-1.49,28.78Z" transform="translate(-1732.17 -1339.57)"/><path class="cls-4" d="M1913.42,1574.52l-18,3.34c0-9.53-2.17-18.57,1.49-28.78C1904.91,1556.47,1909.29,1564.76,1913.42,1574.52Z" transform="translate(-1732.17 -1339.57)"/></svg>