<svg id="Layer_26" data-name="Layer 26" xmlns="http://www.w3.org/2000/svg" xmlns:xlink="http://www.w3.org/1999/xlink" viewBox="0 0 378.39 488.92"><defs><style>.cls-1{fill:url(#radial-gradient);}.cls-2{fill:url(#radial-gradient-3);}.cls-3{fill:url(#radial-gradient-4);}.cls-4{fill:url(#radial-gradient-6);}.cls-5{fill:url(#radial-gradient-9);}.cls-6{fill:url(#radial-gradient-10);}.cls-7{fill:url(#radial-gradient-11);}.cls-8{fill:url(#radial-gradient-12);}.cls-9{fill:url(#radial-gradient-13);}.cls-10{fill:url(#radial-gradient-14);}.cls-11{fill:url(#radial-gradient-15);}.cls-12{fill:url(#radial-gradient-16);}.cls-13{fill:url(#radial-gradient-17);}.cls-14{fill:url(#radial-gradient-18);}.cls-15{fill:url(#radial-gradient-19);}.cls-16{fill:url(#radial-gradient-20);}.cls-17{fill:url(#radial-gradient-21);}.cls-18{fill:url(#radial-gradient-22);}.cls-19{fill:url(#radial-gradient-23);}.cls-20{fill:url(#radial-gradient-24);}</style><radialGradient id="radial-gradient" cx="223.48" cy="2899.86" r="275.17" gradientUnits="userSpaceOnUse"><stop offset="0" stop-color="#7bbd72"/><stop offset="0.25" stop-color="#77b872"/><stop offset="0.57" stop-color="#6ca873"/><stop offset="0.91" stop-color="#5a8f75"/><stop offset="1" stop-color="#558775"/></radialGradient><radialGradient id="radial-gradient-3" cx="254.49" cy="2875.5" r="227.5" gradientUnits="userSpaceOnUse"><stop offset="0" stop-color="#fff"/><stop offset="0.11" stop-color="#fafafa"/><stop offset="0.24" stop-color="#ecebea"/><stop offset="0.4" stop-color="#d5d2d0"/><stop offset="0.56" stop-color="#b5afac"/><stop offset="0.73" stop-color="#8c837e"/><stop offset="0.9" stop-color="#5b4e47"/><stop offset="1" stop-color="#3d2d25"/></radialGradient><radialGradient id="radial-gradient-4" cx="222.8" cy="2849.78" r="346.86" xlink:href="#radial-gradient"/><radialGradient id="radial-gradient-6" cx="294.63" cy="2854.78" r="483.36" gradientUnits="userSpaceOnUse"><stop offset="0" stop-color="#d6ca71"/><stop offset="0.39" stop-color="#93884f"/><stop offset="1" stop-color="#261c17"/></radialGradient><radialGradient id="radial-gradient-9" cx="202.68" cy="3038.39" r="107.79" gradientUnits="userSpaceOnUse"><stop offset="0" stop-color="#baf3bb"/><stop offset="0.25" stop-color="#b6eeba"/><stop offset="0.57" stop-color="#acdeb9"/><stop offset="0.91" stop-color="#9bc5b6"/><stop offset="1" stop-color="#96bdb5"/></radialGradient><radialGradient id="radial-gradient-10" cx="189.91" cy="3037.24" r="106.76" xlink:href="#radial-gradient-9"/><radialGradient id="radial-gradient-11" cx="249.93" cy="2770.8" r="50.34" xlink:href="#radial-gradient-9"/><radialGradient id="radial-gradient-12" cx="156.68" cy="3037.94" r="93.89" xlink:href="#radial-gradient-9"/><radialGradient id="radial-gradient-13" cx="238.39" cy="2776.02" r="50.28" xlink:href="#radial-gradient-9"/><radialGradient id="radial-gradient-14" cx="258.04" cy="2775.11" r="50.2" xlink:href="#radial-gradient-9"/><radialGradient id="radial-gradient-15" cx="215.08" cy="3105.3" r="67.66" xlink:href="#radial-gradient-9"/><radialGradient id="radial-gradient-16" cx="158.49" cy="2983.19" r="67.3" xlink:href="#radial-gradient-9"/><radialGradient id="radial-gradient-17" cx="150.23" cy="3009.35" r="83.68" xlink:href="#radial-gradient-9"/><radialGradient id="radial-gradient-18" cx="282.89" cy="2774.01" r="52.75" xlink:href="#radial-gradient-9"/><radialGradient id="radial-gradient-19" cx="273.34" cy="2775.99" r="50.82" xlink:href="#radial-gradient-9"/><radialGradient id="radial-gradient-20" cx="266.51" cy="2773.69" r="51.19" xlink:href="#radial-gradient-9"/><radialGradient id="radial-gradient-21" cx="193.79" cy="2972.3" r="53.84" xlink:href="#radial-gradient-9"/><radialGradient id="radial-gradient-22" cx="191.3" cy="3113.28" r="46.64" xlink:href="#radial-gradient-9"/><radialGradient id="radial-gradient-23" cx="202.14" cy="3129.53" r="9.94" xlink:href="#radial-gradient-9"/><radialGradient id="radial-gradient-24" cx="242" cy="3159.79" r="2.14" xlink:href="#radial-gradient-9"/></defs><path d="M455.32,2790.32c-7.23-4.77-14.4-9.63-21.65-14.36-9.87-6.45-19.85-12.73-29.68-19.25-6.5-4.31-12.71-9.07-19.24-13.34-6.24-4.08-13-7.42-19.05-11.74-18.77-13.36-37.33-27-55.93-40.6-2.56-1.87-3.77-1.91-5.38.73a47.1,47.1,0,0,0-2.29,4.93,3,3,0,0,1-.82,0c-.49-.15-1-.33-1.45-.53-3.81-1.57-4.71-1.29-6.62,2.19-.62,1.13-1.17,2.31-1.43,2.83-3.23-.62-6-.73-8.48-1.73s-4.52-2.87-6.91-4.45l-2.88,3.58c-3.63-1.21-3.62-1.13-7.72-.47a8,8,0,0,1-3.48-.51c-1.65-.51-3.2-1.36-4.86-1.85-3.27-1-4.28-.51-5.93,2.45-.73,1.3-1.33,2.67-1.94,3.91-9.56-2-9.56-2-12.26-.72-.27,4.09-.42,8.24-.84,12.36-1,10.19-2.18,20.37-3.22,30.55-.69,6.73-.86,13.54-2,20.2-2.39,14.18-5.3,28.28-7.88,42.43q-1.83,10-3.23,20c-.81,5.81-1.34,11.66-2,17.86-4.63-.76-6,1.79-7.12,5.28-3.36,10.39-7,20.69-10.59,31a25.26,25.26,0,0,1-1.81,3.74c-2.75,5-5.66,9.95-6,15.88a5.39,5.39,0,0,1-1.11,2.33c-2.32,3.46-4.58,7-7.06,10.31-8.12,11-16.27,22-23.7,33.48-6.26,9.72-13.61,18.79-20.92,27.78-11.37,14-23.1,27.73-34.72,41.53-7.14,8.48-13.85,17.34-23.25,23.65-3.36,2.26-2.93,5.34.55,7.42.44.26,1,.4,1.4.67,4.24,2.66,8.7,5.05,12.65,8.1s7.09,7,11,10.09c6.93,5.44,14.38,10.22,21.2,15.79,11.15,9.11,22.07,18.52,32.92,28,10.05,8.8,19.91,17.83,29.79,26.83,5.89,5.38,11.49,11.09,17.51,16.32,7.85,6.81,16,13.27,24,20,1.5,1.27,2.86,1,4.65,1,3.51,0,4.49-3.69,7.43-4.3.61.51,1.17.9,1.65,1.39a19.74,19.74,0,0,1,1.69,2c2.66,3.47,2.75,3.48,6.28.4a11.86,11.86,0,0,1,1.81-1c1.22,1.26,2.57,2.52,3.76,3.91,2.14,2.51,3.25,2.51,5.16-.23.85-1.21,1.6-2.5,2.34-3.66l9.4,5.81,4.46-4.14c2.82,1.34,5.81,2.37,8,.38s4-1.51,6-.25c1.47.91,2.89,1.91,4.31,2.9,3.27,2.25,4.53,1.81,6.72-1.26q11.79-16.49,23.87-32.76c6-8.07,12.65-15.67,18.21-24,7.39-11.08,15.12-22,20.84-34.11a27.69,27.69,0,0,1,2.3-3.46c1.35-2,2.77-3.95,4-6,2.51-4.14,5-8.33,7.4-12.52,4.53-7.77,9-15.58,13.59-23.31a17.53,17.53,0,0,1,3.06-3.28c1.08-1.06,2.71-1.83,3.28-3.09,1.7-3.76,2.87-7.75,4.49-11.54,2.39-5.57,5-11.07,7.51-16.58,3.42-7.39,7-14.72,10.34-22.13,1.64-3.6,3-7.31,4.78-11.64-3.63-2.77-1.79-6.52-.61-10.35,1.07-3.47,1.82-7,2.69-10.56,1.24-5.05,2.51-10.09,3.69-15.16,1.41-6.08,2.92-12.14,4.1-18.27,2.08-10.88,3.94-21.8,5.89-32.7,1.49-8.35,3.14-16.67,4.43-25s2.12-16.51,3.33-24.75c.4-2.7,1.72-5.28,2-8,.87-10,1.43-20,2.19-30C458.09,2794.05,457.67,2791.87,455.32,2790.32ZM293.08,2716.5c.5-3.87.68-7.92,3.72-11.07.68-.71.47-2.27.67-3.43,4.18-.29,5,.43,4.62,4.26-1.94,19.66-4,39.26-9.21,58.46a480.5,480.5,0,0,1-15.07,47c-4,10.33-7.4,20.89-11.1,31.33a15.14,15.14,0,0,1-1.38,2.76c-.11.18-.62.13-1.62.31a14.43,14.43,0,0,1,1.87-8.66c6.47-12.92,10.36-26.76,14.6-40.48,4.12-13.31,5.55-27.12,7.92-40.74C290.39,2743.08,291.36,2729.73,293.08,2716.5Zm-2.11-3.88c-.61,5-1.17,10-1.8,15-.73,5.82-1.31,11.68-2.28,17.47-2.29,13.64-4.26,27.37-7.36,40.84-2.24,9.73-5.91,19.16-9.26,28.61s-7.07,18.8-10.73,28.15c-.53,1.34-.61,3.66-3.88,2.8,2.15-5.73,4.53-10.92,6-16.36,2.38-8.47,4.12-17.12,6.24-25.67q4.76-19.09,9.68-38.16c3-11.63,3.8-23.56,5.27-35.41,1-7.77,3-15.42,4.61-23.54C290.5,2708,291.29,2710,291,2712.62Zm-12.31-1.48c.33-2.46,1.31-4.83,2.14-7.78,3.42,2.64,3,5.1,2.6,7.5-.7,4.1-1.68,8.15-2.19,12.27-.87,7-1.35,14.14-2.19,21.2-1.54,13-5,25.49-8.54,38-2.26,8-4.94,15.87-7.3,23.84-1.22,4.16-1.93,8.48-3.26,12.6-2.45,7.59-5.15,15.1-7.82,22.61a4.52,4.52,0,0,1-2.74,2.64q3.06-11.64,6.1-23.3c2.17-8.35,4.64-16.58,6.14-25.15,2.33-13.44,5.56-26.76,9-40C274.44,2741,276.65,2726.08,278.66,2711.14Zm-9.89-4.64,7.51,2.41c-.33,3.53-.58,7-1,10.36-.67,5.67-1.36,11.35-2.22,17a14.39,14.39,0,0,1-1.85,5.9c-2.17,3.13-2.55,6.67-3.32,10.16-1.87,8.44-3.59,16.91-5.7,25.29-3.16,12.59-6.52,25.12-10,37.62-.92,3.32-2.57,6.43-3.79,9.68-1.34,3.55-2.58,7.15-3.85,10.73-1.07,3-2,6.11-4.78,8.08C250.49,2798.37,262.56,2753.46,268.77,2706.5ZM254,2716.68c.61-5.08,2.15-10,3.34-15.41,1.64.54,2.9,1,4.19,1.37,3.06.8,3.76,2.65,3.72,5.78-.14,11.7-2.46,23.06-4.71,34.44-2.36,11.88-4.75,23.77-7.53,35.56-2.38,10.13-5.36,20.11-8,30.17-2.42,9-4.77,18.11-7.23,27.14a39.72,39.72,0,0,1-1.87,4.61l-1.19-.3c.48-4,.82-8.08,1.48-12.07,1.87-11.28,4.42-22.49,5.65-33.84,1-9.17,4-18,4.66-27.08C247.75,2750.06,251.94,2733.54,254,2716.68Zm-8.56-10.37a17.61,17.61,0,0,1,3.73.29c2.79.77,3.65,2.12,3.17,5-1.93,11.64-4.05,23.24-5.85,34.89-1,6.16-1.06,12.44-2.12,18.57-1.91,11.1-4.18,22.14-6.42,33.17q-4,19.89-8.33,39.72a24.61,24.61,0,0,1-2.07,5.84c-.37.75-1.63,1-3.18,1.95C231.45,2798.72,238.4,2752.72,245.41,2706.31Zm-33.65,155.53a40.27,40.27,0,0,1,4.24-8.16,5.87,5.87,0,0,1,4-1.9c8.43-.65,16.8-1.92,25.36-1,4.73.51,9.64-.82,14.9,1a50.12,50.12,0,0,1,0,6.4c-1.22,8.92-5.41,16.65-9.62,24.44-3.35,6.19-9.18,10.23-13,16-1.87,2.86-5.17,2.21-8.11,1.95-2.37-.21-4.74-.33-7.11-.54-8-.7-16.08-.31-23.85-3.33C203,2885.06,207.28,2873.42,211.76,2861.84Zm25.48,48.46c-1,1.95-1.9,3.91-3,5.75-4.22,7.18-8.5,14.31-12.73,21.47-5.65,9.54-11.33,19.06-16.9,28.65-6,10.37-13.44,19.75-20.86,29.12a94,94,0,0,0-6.69,9.25,146.88,146.88,0,0,1-19.92,25.24c-1.76,1.85-3.86,3.38-5.8,5.06l-1-.92c3.33-3.91,6.9-7.64,9.94-11.76,7.7-10.43,15.14-21,22.74-31.55,2.44-3.36,5.13-6.53,7.6-9.86,10.65-14.3,19.86-29.53,28.83-44.91q7-12.11,14-24.28C234.17,2910.35,234.74,2909,237.24,2910.3ZM124,3051.2c3.49,3.69,7.32,7.05,10.39,11.27-9.43-7.37-18.85-14.74-28.53-22.29,1-1.13,1.85-2.38,2-2.29,3.18,1.64,4.61-1,6.09-2.67,2.41-2.7,4.4-5.76,6.58-8.65a25.79,25.79,0,0,1,3.53-4.45c5.74-4.88,10.12-10.87,14.54-16.88,3.58-4.86,7.79-9.26,11.42-14.09,3.83-5.08,7.2-10.51,11-15.63,3.56-4.83,7.4-9.43,11.07-14.18a62.87,62.87,0,0,0,4.14-5.88c2.81-4.72,5.49-9.52,8.21-14.29.18-.3.28-.65.47-.93,4.24-6.1,8.29-12.34,12.78-18.24,3.51-4.62,5.88-9.75,8.28-14.94.79-1.69,1.35-4.25,5.25-2.61-2.94,5.32-5.61,10.33-8.44,15.24-6.33,11-12.29,22.16-19.22,32.71Q170,2973,155.09,2992.71c-8,10.61-17,20.48-25.52,30.73-2.08,2.51-3.63,5.49-5.85,7.86-3.26,3.49-6.89,6.63-10.83,10.36C115.52,3045.43,120.48,3047.52,124,3051.2Zm68.5-135.09c2.11-3.39,4-6.9,6.16-10.26.65-1,1.77-1.72,3.16-3-.09,4-7.91,18.56-15.7,30.2-6.25,9.35-12.31,18.83-18.67,28.11s-13,18.84-19.89,27.92-13.95,17.66-21.34,26.13-15.25,16.48-23.39,25.21c2.23,2,4.1,4,6.2,5.65,14.25,11.29,29,21.95,41.8,35,9,9.15,19,17.22,28.46,25.93,2.7,2.5,4.92,5.52,7.61,8.63a.85.85,0,0,0,.36-.21l0-.06c0,.05-.07.2-.17.53l-.23-.26h0a22.29,22.29,0,0,1-2.53-1.75c-28.36-24.82-56.7-49.66-85.58-75,3.86-4.3,6.88-8.36,10.59-11.65,7.94-7.05,14.52-15.29,21.41-23.27,5.43-6.3,11-12.53,16.11-19.06,5.79-7.34,11.59-14.72,16.68-22.54C173.4,2947.13,182.84,2931.56,192.45,2916.11ZM203,3138c-1.7-2.27-4.71-3.51-6.85-5.5-6.23-5.76-12.14-11.87-18.5-17.47-7.41-6.52-15.22-12.57-22.75-18.95-6.47-5.46-12.78-11.12-19.19-16.65a99.39,99.39,0,0,0-8.79-7.27c-12.56-8.52-22.8-19.71-34.26-29.49a15.24,15.24,0,0,1-1.45-1.71c2.59-3.25,5.1-6.47,7.69-9.62q11-13.44,22.11-26.81c5.65-6.79,11.27-13.61,17.11-20.25,10.53-12,20.82-24.16,29.73-37.44a290,290,0,0,1,17.81-24.41c-.57,1-1.11,2-1.72,2.94-7.77,12.29-15.34,24.72-23.4,36.82-5.47,8.2-11.4,16.13-17.57,23.82s-12.87,14.91-19.34,22.34c-3,3.4-5.75,6.95-8.85,10.22-5.24,5.52-10.63,10.89-16,16.27-3.69,3.7-3.72,5.27.39,8.7,9.31,7.76,18.72,15.39,28,23.17,2.38,2,4.32,4.52,6.68,6.56,11.92,10.31,24,20.5,35.87,30.84,7.07,6.14,14.07,12.36,20.9,18.75,9.5,8.89,18.82,18,28.19,27,1.18,1.13,2.23,2.41,3.34,3.62C216.07,3147.91,208.09,3144.76,203,3138Zm-11.14-18c7.58,5.6,14.82,11.58,20.54,19.19A177.52,177.52,0,0,1,191.87,3119.94Zm51.71,41.77-3.65-3.73h-.26c-.09-.14-.17-.29-.25-.44-5.68-4.5-11.55-8.79-16.95-13.61-9.94-8.89-19.59-18.1-29.33-27.19-9.25-8.63-18.46-17.31-27.71-25.94-3-2.84-6.14-5.61-9.18-8.44a139.35,139.35,0,0,1-13.44-13.8,9.63,9.63,0,0,1,2.24,1.14c8,7.17,15.93,14.43,23.95,21.57,7,6.22,14.11,12.26,21.07,18.48,10.07,9,20.14,18,30.05,27.24,5.84,5.41,11.41,11.12,17,16.81a16.42,16.42,0,0,1,2.31,3.74l.39.31.12.12c2.28-.09,3.2,1.57,4.4,2.87Zm18.58,7.66c-2.46-1.94-5-3.81-7.37-5.83-10.83-9.17-21.78-18.22-32.4-27.63-10.47-9.29-20.55-19-30.9-28.46Q177.86,3095,164,3082.86c-11.06-9.7-22.23-19.29-33.36-28.92-2.36-2-4.72-4.07-7.11-6.07-2.09-1.77-4.22-3.5-6.67-5.53,2.17-2.34,3.3-4.26,5-5.23,3.16-1.81,5-4.61,7.16-7.35,8.8-11.15,17.86-22.1,26.83-33.13,4.66-5.72,9.65-11.21,13.91-17.22s7.67-12.59,11.69-18.77c2.63-4,5.71-7.79,8.53-11.72a29.41,29.41,0,0,0,2-3.59c1.57-3,2.6-6.51,4.75-9a146.49,146.49,0,0,0,13.8-20.05c2-3.26,4.15-6.37,6.28-9.52.94-1.38,2.09-2.38,4.92-.78-2.5,4.69-4.62,9.42-7.4,13.73q-11.11,17.27-22.73,34.23c-7.86,11.42-16,22.67-24.07,33.92q-10.93,15.21-22.1,30.25c-2.58,3.47-5.46,6.71-8.24,10-3,3.6-6.14,7.08-9,10.77s-2.4,5.24.93,8.31c7.89,7.28,15.41,15,23.64,21.86,16,13.33,29.67,29.19,46.5,41.57,3.31,2.44,5.84,5.91,9,8.65,4.8,4.22,9.92,8.09,14.7,12.34,11.66,10.37,23.23,20.86,34.79,31.35,1.87,1.7,3.52,3.63,5.27,5.46C262.7,3168.72,262.43,3169.05,262.16,3169.37Zm11.79,1c-7.7-7.3-16.7-12.88-25.16-19.18-6.51-4.84-12.27-10.68-18.38-16.05s-12.24-10.72-18.37-16.07c-.78-.68-1.66-1.26-2.43-2-10.53-9.52-21.09-19-31.55-28.61-11-10.08-21.79-20.32-32.75-30.41-5.57-5.13-11.31-10.09-17.49-15.59,3.51-3.7,6.33-7.52,10-10.29,5.42-4.13,8.68-9.85,12.58-15.09,8.46-11.34,17-22.68,25-34.33,5.85-8.5,13.2-15.93,17.8-25.35,1.66-3.38,4.31-6.26,6.4-9.44,4.64-7,9.14-14.18,13.82-21.19,2.49-3.73,5.45-7.16,7.82-11,1.9-3.06,3.23-6.48,5.05-10.22l5.64,1.32c-27.85,48.8-58.18,95-97,136,3.53,2.95,7.1,5.66,10.35,8.7,6.46,6,12.68,12.32,19.14,18.35,5.71,5.31,11.58,10.43,17.43,15.58,8.2,7.21,16.4,14.42,24.67,21.55q13.78,11.88,27.72,23.6c8,6.66,16.15,13.07,24.08,19.78,2.33,2,4.07,4.64,6.18,6.89,2.7,2.9,5.44,5.76,8.29,8.5a52.41,52.41,0,0,0,4.83,3.72C276.32,3171.6,275.21,3171.54,274,3170.35Zm-7.58-15q-10.94-9.2-21.78-18.49c-3.68-3.14-7.3-6.36-11-9.52-8.65-7.45-17.37-14.82-26-22.35-11.33-9.92-22.37-20.18-33.88-29.89-8.49-7.17-16.14-15.15-23.9-23-1.44-1.47-3.29-2.52-4.83-3.9s-2.81-2.61-1.9-5.56a24,24,0,0,1,9.49,5.71c5.31,4.95,10.62,9.93,15.58,15.22,9.41,10,20,18.66,30.53,27.45,9.57,8,18.72,16.54,28.22,24.64,8.84,7.51,17.91,14.75,26.86,22.13,2.41,2,4.81,4,7.14,6.05,5.43,4.84,10.85,9.69,16.21,14.61,3.26,3,6.39,6.1,10.14,9.7C278.57,3165.6,272.47,3160.44,266.37,3155.3Zm127.87-122.08a74,74,0,0,1-4.9,10.89c-3.52,6.33-7.33,12.5-11.08,18.71-9.51,15.72-18.67,31.68-28.71,47.06-6.62,10.12-14.55,19.38-21.88,29-2.73,3.59-5.39,7.24-8.14,10.81-4.88,6.31-9.82,12.58-14.7,18.88-.74,1-1.3,2.06-1.95,3.09l-1.59-.53c-1.55-6.53-8-7.6-12.08-11.34-5.47-5-11.51-9.48-17.42-14-4.26-3.27-8.83-6.13-13.05-9.45-4.46-3.52-8.73-7.3-13-11.1-6.29-5.64-12.51-11.37-18.68-17.13-6.58-6.15-13-12.42-19.63-18.57-2.4-2.24-4.75-4.71-7.55-6.35-6.74-3.93-11.39-10.09-17-15.21-6.77-6.17-13.34-12.57-20-18.85-2.65-2.49-5.34-4.94-8.34-7.72,3.89-5.48,7.34-10.61,11.07-15.54,5.11-6.76,10.49-13.32,15.64-20.06,6.62-8.65,13.14-17.38,19.68-26.1a30.48,30.48,0,0,0,2.2-3.52c2.38-4.2,4.67-8.45,7.07-12.63,4.58-8,9.16-15.92,13.82-23.82q6.47-11,13.14-21.82a44.32,44.32,0,0,1,3.79-4.64l4.3,1.71c0,.79.17,1.38,0,1.77-1.26,2.46-2.51,4.93-3.93,7.31-5.22,8.79-10.4,17.61-15.78,26.3-6.48,10.47-13,20.89-19.78,31.19-3.31,5-7.14,9.77-10.71,14.66-1.84,2.52-3.75,5-5.38,7.66s-3.21,5.31-6.16,6.85c-.81.42-1.25,1.55-1.94,2.46,2.09,3,4.14,5.73,6.05,8.6,4.45,6.69,5.78,13.62,1.64,21-1.67,3-3.64,5.46-7.11,6.42a9.36,9.36,0,0,0-2.33,1.15c-2.64,1.62-3,3.73-1,6a9.64,9.64,0,0,0,1.2,1c9.8,8.27,19.67,16.45,29.37,24.84,12.58,10.87,25,22,37.55,32.86,10,8.62,20.08,17,30.13,25.56a2.81,2.81,0,0,1,.41.33c2.91,4.23,6.85,5.73,12.54,4.07a47.72,47.72,0,0,0,0-5.59c-.84-7.59,7.52-18,17.54-18.9,4.52-.43,8.35,2,11.84,4.51s4.48,2.86,7.37-.46q7.16-8.21,13.85-16.8c5.85-7.52,11.71-15,17.15-22.87,3.94-5.68,7.14-11.88,10.8-17.77,4.19-6.75,8.73-13.3,12.75-20.15,3.14-5.33,5.72-11,8.55-16.51.39-.75.8-1.48,1.17-2.18C394.74,3029.48,395.36,3030.12,394.24,3033.22Zm-124.59-61a82.75,82.75,0,0,0,17.83,25.28c2.14,2,4,4.46,6.32,6.17,5.29,3.84,10.53,8,16.38,10.75,3.7,1.75,8.47,1.58,12.77,1.64a76.61,76.61,0,0,0,13.44-1.05c6.95-1.16,13.08-4.45,18.64-8.66,4-3,5-3.21,8.67-.58,6.2,4.41,12.45,8.77,18.65,13.18,1.81,1.29,3.53,2.7,5.62,4.31-1.48,3.38-2.76,6.56-4.23,9.66-3.58,7.5-7.27,14.94-12.32,21.64-1.65,2.2-2.7,4.84-4.17,7.19-5.7,9.11-11.22,18.35-17.27,27.22-4.57,6.71-9.79,13-14.81,19.37-2.55,3.25-5.27,6.37-8,9.47a5.26,5.26,0,0,1-7,1.33c-1.38-.73-2.81-1.35-4.25-2-8.4-3.53-15.44-2-21.73,4.44-4.45,4.54-8.35,9.28-9.23,15.85-.06.42-.61.78-1.29,1.59-2.44-1.5-5.11-2.74-7.31-4.55-5.35-4.39-10.46-9.08-15.72-13.59-2.1-1.81-4.46-3.33-6.51-5.18-8.6-7.79-17.06-15.73-25.7-23.46-7.09-6.33-14.4-12.4-21.54-18.67-6-5.24-12.91-9.4-17.75-15.9-.82-1.09-1.55-2.24-2.44-3.54,4.1-6.39,9.48-11.93,9.77-20.16.29-8.08-4.62-13.9-8.09-21.07,3.32-4.19,6.78-8.45,10.11-12.81,2.4-3.16,4.68-6.41,6.92-9.68,3.81-5.58,7.7-11.11,11.28-16.84,6.31-10.12,13-20.1,18.44-30.67,4.27-8.22,9.86-15.43,14.7-23.57l15.52,10.94c-.51,6.39-1.44,12.35-1.36,18.31A57.52,57.52,0,0,0,269.65,2972.25Zm4.16-35.38,81.52,63.18c-.56,2.58-1.78,4-4,4.62-11.58,3.33-23.17,5.6-35.33,2.81-7.94-1.82-14.36-6.3-20.28-11.23a71.22,71.22,0,0,1-13.79-15.45c-6.21-9.44-9.91-20.14-12.3-31.2C268.62,2944.94,269.13,2940.58,273.81,2936.87Zm146.92,41.31c-5.78,13.38-11.53,26.77-17.38,40.12-1.23,2.8-2.81,5.45-4.39,8.47-1.47-.91-2.77-1.31-3.4-2.18-2.15-3-5.05-4.91-7.95-7.07-9.41-7-18.44-14.47-27.77-21.56-4.34-3.29-9.12-6-13.56-9.18-7-5-14-10.2-20.95-15.37-9.46-7-19-14-28.29-21.27-7.92-6.2-15.8-12.51-23.13-19.38a100.75,100.75,0,0,0-9.36-8c-7.53-5.52-14.37-12-21.53-18-2.22-1.87-1.87-3.62-.49-5.87,4.53-7.38,9.12-14.74,13.19-22.38,2.76-5.17,4.69-10.8,7-16.21.94-2.18,1.94-4.34,3-6.73,6.73,3,11.37,8,16.6,12.12a29.25,29.25,0,0,0,4.18,3.06c8.16,4.3,15.43,9.9,22.65,15.55,5.18,4.06,10,8.58,15.28,12.5,8.18,6.08,16.68,11.71,24.9,17.74,6.14,4.5,12,9.39,18.07,14,8.85,6.64,17.87,13.05,26.68,19.73q12.22,9.27,24.15,18.92A9.14,9.14,0,0,1,420.73,2978.18Zm-23.93-46.54c0-6.87-2-13.35-3.76-19.86-2.65-9.75-8.5-17.76-15-25.14-5.67-6.46-13.21-10.79-21.2-13.83a72.32,72.32,0,0,0-23.93-4.6,48.67,48.67,0,0,0-16.37,2.47c-13,4.23-13.63,4-24.36-4.13-2.74-2.09-5.71-3.86-8.54-5.83-1-.69-1.86-1.53-3.27-2.71,2-5,3.88-9.74,5.71-14.54,1.73-4.53,3.58-9,5-13.65,2.25-7.26,4-14.69,6.32-21.92,3.44-10.54,7.25-21,10.88-31.43a37.17,37.17,0,0,0,1.31-4.49c.85-3.95,2.93-6.35,7.21-6.89,7.1-.89,11.64-5.14,15.14-11.27,2.72-4.75,4.89-9.44,4.91-15.38,5.78.87,86.56,52.9,92.59,58.26-.08.32-.07.76-.28,1-7.52,7.25-9,16.82-8.94,26.38.07,8.15,3.2,15.86,10.57,20.45,4.34,2.7,5.86,5.91,5.17,10.74-1.63,11.31-2.61,22.68-5.83,33.77-2.51,8.63-3.84,17.61-5.67,26.44-2.46,11.88-4.85,23.78-7.38,35.64a53.16,53.16,0,0,1-2.28,6.56,23.09,23.09,0,0,1-2.64-1.35c-4.34-3.18-8.6-6.46-13-9.58-1.68-1.2-2.66-2.41-2.5-4.67C397,2938.58,396.78,2935.1,396.8,2931.64Zm-5,8.6a16.43,16.43,0,0,1-3.32-1.62c-8-6.31-15.94-12.78-24-19s-15.93-12.21-24.06-18.09c-9.12-6.6-18.41-13-27.62-19.43l-3.72-2.57c3.22-3.77,6.56-3.94,9.47-4.12a119.13,119.13,0,0,1,18.12.07,102.9,102.9,0,0,1,16.83,3.16,37.26,37.26,0,0,1,10.43,4.48c10.06,6.43,18.95,14.14,22.87,25.93C390.1,2919,394,2928.93,391.8,2940.24Zm60.34-143.69c-1.32,1.82-.88,3.54-1,5.36-.27,3.46-.7,6.9-1,10.36-.54,6.91-.82,13.84-1.59,20.72-.91,8.09-2.14,16.15-3.37,24.2-1.62,10.63-3.22,21.26-5.12,31.84-1.5,8.36-3.37,16.67-5.21,25q-5.19,23.34-10.55,46.65a18.12,18.12,0,0,1-1.32,3.14c-2-.13-2.76-.82-2.42-2.69,2.73-15.17,5.22-30.4,8.15-45.54,2-10.37,4.72-20.61,6.88-30.95,1.35-6.43,2.29-12.94,3.36-19.42.82-4.94,1.44-9.93,2.36-14.86.87-4.71-.34-7.54-4.48-9.64-1.24-.62-2.37-1.46-3.64-2-6.85-2.94-8.47-8.8-8.28-15.38a36,36,0,0,1,4.7-16.38,15.48,15.48,0,0,1,3-3.46c4.12-3.95,3.59-8.27-1.2-11.53-9.73-6.63-19.55-13.13-29-20.18-10.88-8.13-22.75-14.57-34.35-21.51-6.67-4-13-8.57-19.64-12.65-5.32-3.26-9.9-7.33-14.67-11.28-2.63-2.17-6.05-5.12-11-4.39,1.81,3.08,2.08,6.41,5.35,8.53,2.7,1.75,3.72,5.1,3.3,8.3a31.46,31.46,0,0,1-8,17.15c-2.69,2.94-6.35,5.47-11.16,3.59-1-.39-2.72.18-3.77.84-2.81,1.79-3.82,4.72-4.52,7.88a389.05,389.05,0,0,1-15.64,52.27c-3.53,9.42-7.22,18.79-10.84,28.18-.49,1.27-1,2.52-1.8,4.42l-6.13-3.8c9.55-24.67,18.36-49.12,24.67-74.29a521.18,521.18,0,0,0,13.75-78c2.81,1.73,4.58,2.7,6.23,3.85,15.76,11.05,31.43,22.23,47.28,33.16,10.68,7.36,21.65,14.3,32.39,21.59,14.05,9.53,28,19.28,42,28.8,4.52,3.06,9,6.23,14.5,7.59A2.88,2.88,0,0,1,452.14,2796.55Z" transform="translate(-79.54 -2689.69)"/><path class="cls-1" d="M388,3023.29c-1.47,3.37-2.75,6.56-4.23,9.65-3.58,7.51-7.27,14.95-12.31,21.65-1.66,2.19-2.7,4.84-4.17,7.19-5.7,9.11-11.22,18.35-17.27,27.22-4.57,6.71-9.79,13-14.81,19.37-2.56,3.25-5.28,6.37-8,9.47a5.23,5.23,0,0,1-7,1.32c-1.38-.72-2.82-1.35-4.26-1.95-8.39-3.53-15.43-2-21.73,4.44-4.44,4.54-8.34,9.28-9.22,15.85-.06.42-.61.77-1.29,1.59-2.45-1.5-5.11-2.74-7.31-4.55-5.35-4.4-10.46-9.09-15.72-13.59-2.11-1.81-4.46-3.33-6.51-5.19-8.6-7.78-17.06-15.72-25.71-23.46-7.08-6.33-14.4-12.39-21.53-18.66-6-5.24-12.91-9.41-17.76-15.9-.81-1.09-1.54-2.24-2.43-3.54,4.1-6.4,9.48-11.93,9.77-20.17.28-8.07-4.63-13.89-8.09-21.06,3.31-4.19,6.78-8.45,10.1-12.81,2.41-3.16,4.69-6.41,6.93-9.69,3.81-5.57,7.7-11.1,11.27-16.83,6.32-10.13,13-20.1,18.45-30.67,4.27-8.22,9.86-15.43,14.7-23.57l15.51,10.94c-.51,6.38-1.43,12.35-1.35,18.31a57.27,57.27,0,0,0,5.67,23.59,82.84,82.84,0,0,0,17.83,25.29c2.15,2,4,4.46,6.32,6.17,5.3,3.84,10.53,8,16.39,10.75,3.7,1.75,8.46,1.58,12.76,1.64a75.78,75.78,0,0,0,13.45-1.06c6.95-1.15,13.07-4.44,18.63-8.65,4-3,5-3.21,8.68-.58,6.2,4.41,12.44,8.76,18.64,13.18C384.15,3020.27,385.88,3021.68,388,3023.29Z" transform="translate(-79.54 -2689.69)"/><path class="cls-1" d="M336.88,2738.44c5.78.87,86.56,52.9,92.59,58.25-.09.33-.07.77-.28,1-7.53,7.25-9,16.82-8.95,26.38.07,8.15,3.21,15.86,10.57,20.44,4.35,2.71,5.87,5.92,5.17,10.74-1.62,11.31-2.61,22.69-5.83,33.78-2.5,8.63-3.83,17.61-5.66,26.44-2.46,11.88-4.85,23.77-7.38,35.64a57.36,57.36,0,0,1-2.28,6.56,20.69,20.69,0,0,1-2.64-1.36c-4.34-3.17-8.6-6.45-13-9.57-1.69-1.2-2.67-2.41-2.51-4.68.25-3.45.08-6.93.09-10.4,0-6.86-2-13.34-3.76-19.85-2.65-9.75-8.49-17.76-15-25.14-5.67-6.46-13.21-10.79-21.2-13.83a72.36,72.36,0,0,0-23.93-4.6,48.67,48.67,0,0,0-16.37,2.47c-13,4.22-13.63,4-24.36-4.13-2.74-2.09-5.71-3.86-8.54-5.84-1-.68-1.86-1.53-3.27-2.7,2-5,3.87-9.74,5.71-14.54,1.73-4.53,3.58-9,5-13.65,2.25-7.26,4-14.7,6.32-21.92,3.43-10.54,7.25-21,10.88-31.43a39.67,39.67,0,0,0,1.31-4.49c.85-3.95,2.93-6.35,7.2-6.89,7.1-.89,11.64-5.14,15.15-11.27C334.68,2749.07,336.86,2744.37,336.88,2738.44Z" transform="translate(-79.54 -2689.69)"/><path class="cls-2" d="M399,3026.77c-1.48-.91-2.77-1.31-3.4-2.18-2.15-3-5.06-4.91-8-7.07-9.4-7-18.43-14.47-27.76-21.56-4.34-3.29-9.12-6-13.56-9.18-7-5-14-10.2-20.95-15.37-9.47-7-19-14-28.29-21.27-7.92-6.21-15.8-12.51-23.13-19.38a99.34,99.34,0,0,0-9.36-8c-7.54-5.52-14.37-12-21.53-18-2.23-1.87-1.87-3.62-.49-5.87,4.52-7.39,9.11-14.75,13.19-22.38,2.76-5.17,4.69-10.8,7-16.21.94-2.18,1.94-4.34,3-6.73,6.73,3,11.36,8,16.6,12.12a28.69,28.69,0,0,0,4.18,3.06c8.16,4.3,15.42,9.9,22.64,15.55,5.19,4.06,10,8.58,15.29,12.5,8.17,6.08,16.68,11.71,24.89,17.74,6.14,4.5,12,9.39,18.08,14,8.84,6.64,17.86,13.05,26.68,19.73q12.22,9.27,24.15,18.92a9.15,9.15,0,0,1,2.47,11q-8.66,20.07-17.37,40.12C402.12,3021.1,400.54,3023.74,399,3026.77Z" transform="translate(-79.54 -2689.69)"/><path class="cls-3" d="M308,2697c2.82,1.73,4.59,2.7,6.23,3.85,15.77,11.05,31.44,22.23,47.28,33.16,10.68,7.36,21.66,14.3,32.4,21.58,14.05,9.54,28,19.29,42,28.81,4.52,3.06,9,6.22,14.5,7.59a2.89,2.89,0,0,1,1.67,4.58c-1.33,1.82-.89,3.53-1,5.36-.26,3.46-.69,6.9-1,10.36-.55,6.91-.82,13.84-1.59,20.72-.91,8.09-2.15,16.15-3.37,24.2-1.62,10.62-3.22,21.26-5.12,31.84-1.5,8.36-3.38,16.67-5.22,25q-5.18,23.34-10.54,46.65a18.93,18.93,0,0,1-1.32,3.14c-2-.13-2.76-.83-2.42-2.69,2.73-15.18,5.22-30.4,8.14-45.54,2-10.37,4.72-20.61,6.89-30.95,1.34-6.43,2.29-12.94,3.36-19.42.82-5,1.44-9.93,2.36-14.86.87-4.71-.35-7.54-4.48-9.64-1.24-.63-2.38-1.46-3.65-2-6.84-2.95-8.46-8.8-8.27-15.38a35.88,35.88,0,0,1,4.69-16.38,15.55,15.55,0,0,1,3-3.46c4.12-3.95,3.59-8.27-1.2-11.53-9.73-6.63-19.56-13.13-29-20.18-10.88-8.13-22.76-14.57-34.35-21.51-6.68-4-13-8.57-19.65-12.65-5.31-3.26-9.9-7.34-14.67-11.28-2.62-2.17-6.05-5.12-11-4.39,1.8,3.08,2.07,6.41,5.35,8.53,2.69,1.75,3.72,5.1,3.3,8.3a31.44,31.44,0,0,1-8,17.15c-2.68,2.94-6.35,5.47-11.15,3.59-1-.39-2.72.17-3.77.84-2.81,1.79-3.83,4.71-4.53,7.87a387.27,387.27,0,0,1-15.63,52.28c-3.54,9.42-7.22,18.79-10.84,28.18-.49,1.27-1,2.52-1.81,4.42-2.27-1.41-4.21-2.62-6.13-3.8,9.55-24.67,18.37-49.13,24.67-74.29A519.91,519.91,0,0,0,308,2697Z" transform="translate(-79.54 -2689.69)"/><path class="cls-3" d="M301.29,3171.17c-1.55-6.53-8-7.6-12.08-11.34-5.48-5-11.51-9.48-17.42-14-4.26-3.27-8.84-6.13-13.05-9.45-4.46-3.52-8.73-7.3-13-11.1q-9.43-8.48-18.69-17.13c-6.58-6.15-13-12.42-19.62-18.57-2.41-2.25-4.75-4.71-7.55-6.35-6.74-3.94-11.39-10.09-17-15.21-6.77-6.18-13.34-12.57-20-18.85-2.65-2.49-5.33-4.95-8.33-7.72,3.88-5.48,7.34-10.61,11.06-15.54,5.12-6.76,10.49-13.33,15.65-20.06,6.62-8.65,13.14-17.38,19.68-26.1a34.54,34.54,0,0,0,2.2-3.52c2.37-4.2,4.67-8.45,7.07-12.63,4.57-8,9.15-15.92,13.82-23.83q6.47-11,13.13-21.82a45.5,45.5,0,0,1,3.8-4.63l4.3,1.71c0,.79.17,1.38,0,1.77-1.26,2.46-2.52,4.93-3.93,7.31-5.22,8.79-10.4,17.61-15.78,26.3-6.48,10.47-13,20.89-19.78,31.19-3.31,5-7.15,9.76-10.71,14.65-1.84,2.53-3.75,5-5.38,7.67s-3.21,5.31-6.17,6.84c-.81.42-1.25,1.56-1.94,2.47,2.09,3,4.15,5.73,6.06,8.6,4.44,6.69,5.78,13.61,1.64,21-1.67,3-3.64,5.47-7.11,6.43a9.19,9.19,0,0,0-2.33,1.15c-2.64,1.62-3,3.73-1,6a10.6,10.6,0,0,0,1.2,1c9.79,8.27,19.67,16.45,29.37,24.84,12.58,10.87,25,22,37.54,32.86,10,8.62,20.09,17,30.14,25.56.13.11.31.19.4.33,2.92,4.22,6.85,5.73,12.55,4.07a47.72,47.72,0,0,0,0-5.59c-.84-7.59,7.51-18,17.54-18.91,4.52-.42,8.34,2,11.84,4.52s4.48,2.85,7.37-.46q7.14-8.21,13.85-16.8c5.85-7.52,11.71-15,17.14-22.87,3.95-5.68,7.14-11.88,10.8-17.77,4.2-6.75,8.73-13.3,12.76-20.15,3.13-5.33,5.72-11,8.55-16.51.38-.75.79-1.48,1.17-2.18,3.76,1.15,4.37,1.79,3.25,4.89a73.33,73.33,0,0,1-4.89,10.89c-3.53,6.33-7.34,12.5-11.09,18.7-9.51,15.73-18.66,31.69-28.71,47.06-6.61,10.13-14.54,19.39-21.88,29.05-2.72,3.59-5.38,7.24-8.14,10.81-4.87,6.31-9.81,12.57-14.69,18.88a35,35,0,0,0-1.95,3.09Z" transform="translate(-79.54 -2689.69)"/><path class="cls-4" d="M273.81,2936.87l81.52,63.18c-.56,2.57-1.79,4-4,4.62-11.59,3.33-23.17,5.6-35.33,2.81-7.95-1.82-14.37-6.3-20.29-11.23a71.45,71.45,0,0,1-13.79-15.45c-6.2-9.44-9.9-20.14-12.29-31.21C268.61,2944.93,269.13,2940.58,273.81,2936.87Z" transform="translate(-79.54 -2689.69)"/><path class="cls-2" d="M260.24,2851.8a50.12,50.12,0,0,1,0,6.4c-1.22,8.92-5.42,16.65-9.63,24.44-3.34,6.19-9.17,10.23-12.95,16-1.86,2.86-5.16,2.21-8.1,1.95-2.37-.21-4.75-.34-7.12-.54-8-.7-16.08-.32-23.84-3.33,4.4-11.69,8.72-23.33,13.2-34.91a40,40,0,0,1,4.23-8.16,5.85,5.85,0,0,1,4-1.9c8.43-.65,16.8-1.92,25.36-1C250.07,2851.29,255,2850,260.24,2851.8Z" transform="translate(-79.54 -2689.69)"/><path class="cls-4" d="M309.06,2879.49c3.22-3.77,6.56-3.94,9.47-4.12a119.13,119.13,0,0,1,18.12.07,102.8,102.8,0,0,1,16.84,3.15,37.58,37.58,0,0,1,10.43,4.49c10.06,6.43,18.95,14.14,22.86,25.93,3.31,10,7.18,19.92,5,31.23a16.51,16.51,0,0,1-3.33-1.62c-8-6.31-15.93-12.78-24-19s-15.94-12.21-24.07-18.09c-9.11-6.6-18.4-13-27.61-19.43C311.66,2881.27,310.52,2880.5,309.06,2879.49Z" transform="translate(-79.54 -2689.69)"/><path class="cls-5" d="M134.87,3042.92c3.53,2.95,7.09,5.66,10.35,8.69,6.46,6,12.67,12.33,19.14,18.35,5.7,5.31,11.58,10.44,17.43,15.59,8.19,7.21,16.39,14.42,24.67,21.55q13.78,11.88,27.71,23.6c8,6.66,16.15,13.07,24.08,19.78,2.33,2,4.08,4.64,6.18,6.89,2.71,2.89,5.44,5.76,8.3,8.5a54.07,54.07,0,0,0,4.82,3.72c-1.24,2-2.34,1.95-3.6.76-7.71-7.3-16.7-12.88-25.17-19.18-6.5-4.84-12.27-10.68-18.38-16.05s-12.23-10.72-18.36-16.07c-.79-.69-1.67-1.26-2.44-2-10.52-9.53-21.09-19-31.54-28.61-11-10.08-21.79-20.32-32.75-30.41-5.58-5.13-11.31-10.09-17.49-15.59,3.51-3.7,6.33-7.52,10-10.29,5.41-4.13,8.67-9.85,12.58-15.09,8.46-11.34,17-22.68,25-34.33,5.86-8.5,13.21-15.93,17.81-25.35,1.65-3.38,4.31-6.26,6.4-9.44,4.63-7,9.14-14.18,13.82-21.19,2.49-3.73,5.45-7.16,7.82-11,1.9-3.05,3.23-6.47,5.05-10.21l5.64,1.32C204,2955.73,173.68,3001.87,134.87,3042.92Z" transform="translate(-79.54 -2689.69)"/><path class="cls-6" d="M221.73,2905.93c-2.5,4.69-4.62,9.42-7.39,13.73q-11.13,17.27-22.74,34.23c-7.85,11.42-16,22.67-24.06,33.92q-10.93,15.21-22.1,30.25c-2.58,3.47-5.47,6.71-8.24,10-3,3.6-6.14,7.08-9,10.77s-2.41,5.24.93,8.31c7.89,7.28,15.4,15,23.63,21.86,16,13.33,29.68,29.19,46.51,41.57,3.31,2.44,5.84,5.91,9,8.65,4.81,4.22,9.93,8.09,14.7,12.34,11.67,10.37,23.23,20.86,34.79,31.35,1.87,1.7,3.52,3.63,5.28,5.46l-.83,1c-2.46-1.94-5-3.81-7.36-5.83-10.84-9.17-21.78-18.22-32.4-27.63s-20.55-19-30.9-28.46Q177.86,3095,164,3082.86c-11.06-9.71-22.23-19.29-33.36-28.92q-3.52-3.06-7.1-6.07c-2.1-1.77-4.22-3.5-6.67-5.53,2.16-2.34,3.3-4.26,5-5.23,3.16-1.82,5-4.61,7.15-7.35,8.81-11.16,17.87-22.11,26.84-33.13,4.66-5.72,9.65-11.21,13.91-17.22s7.67-12.59,11.69-18.77c2.63-4,5.71-7.79,8.53-11.72a29.35,29.35,0,0,0,2-3.59c1.57-3,2.61-6.51,4.76-9a147.39,147.39,0,0,0,13.8-20.05c2-3.26,4.14-6.38,6.28-9.52C217.75,2905.33,218.91,2904.33,221.73,2905.93Z" transform="translate(-79.54 -2689.69)"/><path class="cls-7" d="M257.31,2701.27c1.64.54,2.89,1,4.19,1.37,3.05.8,3.76,2.65,3.72,5.78-.14,11.7-2.46,23.06-4.71,34.44-2.36,11.88-4.75,23.77-7.53,35.56-2.39,10.13-5.36,20.11-8,30.17-2.41,9-4.77,18.1-7.23,27.14a40.38,40.38,0,0,1-1.86,4.61l-1.2-.31c.49-4,.82-8.07,1.48-12.06,1.87-11.29,4.42-22.49,5.66-33.84,1-9.18,4-18,4.66-27.08,1.31-17,5.5-33.51,7.52-50.37C254.57,2711.6,256.12,2706.63,257.31,2701.27Z" transform="translate(-79.54 -2689.69)"/><path class="cls-8" d="M222.16,3153.45c-6.1-5.55-14.07-8.69-19.15-15.46-1.7-2.27-4.71-3.51-6.86-5.5-6.22-5.76-12.13-11.88-18.49-17.48-7.41-6.51-15.22-12.57-22.76-18.94-6.46-5.47-12.77-11.12-19.18-16.65a98.09,98.09,0,0,0-8.8-7.27c-12.55-8.53-22.79-19.71-34.25-29.49a15.23,15.23,0,0,1-1.46-1.71c2.6-3.25,5.11-6.47,7.7-9.63q11-13.43,22.1-26.8c5.65-6.8,11.28-13.61,17.11-20.25,10.54-12,20.82-24.16,29.74-37.44a287.74,287.74,0,0,1,17.81-24.41c-.57,1-1.12,2-1.72,2.94-7.77,12.29-15.34,24.72-23.41,36.82-5.46,8.2-11.39,16.13-17.56,23.82s-12.88,14.91-19.34,22.34c-3,3.4-5.75,6.95-8.85,10.21-5.24,5.52-10.63,10.9-16,16.28-3.69,3.7-3.73,5.27.38,8.7,9.31,7.76,18.73,15.39,28,23.17,2.39,2,4.33,4.52,6.68,6.55,11.93,10.32,24,20.51,35.88,30.85,7.06,6.14,14.06,12.36,20.9,18.75,9.49,8.89,18.82,18,28.19,27C220,3151,221.05,3152.24,222.16,3153.45Z" transform="translate(-79.54 -2689.69)"/><path class="cls-9" d="M245.41,2706.31a17.66,17.66,0,0,1,3.73.29c2.79.77,3.64,2.12,3.17,5-1.93,11.64-4.05,23.24-5.85,34.89-1,6.16-1.07,12.44-2.12,18.57-1.92,11.1-4.18,22.14-6.43,33.17q-4,19.89-8.32,39.72a24.61,24.61,0,0,1-2.07,5.84c-.38.75-1.64,1-3.18,1.95C231.44,2798.72,238.4,2752.72,245.41,2706.31Z" transform="translate(-79.54 -2689.69)"/><path class="cls-10" d="M268.77,2706.5l7.51,2.41c-.33,3.53-.58,7-1,10.36-.68,5.67-1.36,11.35-2.22,17a14.39,14.39,0,0,1-1.85,5.9c-2.17,3.13-2.55,6.66-3.32,10.16-1.87,8.44-3.59,16.91-5.7,25.29-3.16,12.58-6.52,25.12-10,37.62-.92,3.32-2.58,6.43-3.8,9.67-1.34,3.56-2.58,7.15-3.84,10.74-1.07,3-2,6.11-4.79,8.08C250.48,2798.37,262.56,2753.46,268.77,2706.5Z" transform="translate(-79.54 -2689.69)"/><path class="cls-11" d="M143.13,3042.54a24.19,24.19,0,0,1,9.5,5.72c5.31,4.95,10.61,9.93,15.58,15.22,9.41,10,20,18.65,30.53,27.45,9.57,8,18.71,16.54,28.22,24.63,8.83,7.52,17.91,14.76,26.86,22.14,2.41,2,4.8,4,7.13,6.05q8.16,7.26,16.22,14.6c3.25,3,6.39,6.11,10.14,9.71-8.75-2.46-14.85-7.62-20.95-12.76q-10.92-9.2-21.77-18.49c-3.68-3.14-7.31-6.36-11-9.52-8.65-7.45-17.37-14.82-26-22.35-11.33-9.92-22.38-20.18-33.88-29.89-8.5-7.17-16.14-15.15-23.91-23.05-1.44-1.46-3.28-2.52-4.83-3.89C143.63,3046.86,142.23,3045.5,143.13,3042.54Z" transform="translate(-79.54 -2689.69)"/><path class="cls-12" d="M211.16,2904.45c-2.94,5.32-5.6,10.33-8.44,15.24-6.32,11-12.28,22.16-19.21,32.71Q170,2973,155.08,2992.71c-8,10.6-17,20.47-25.51,30.73-2.08,2.51-3.64,5.49-5.85,7.86-3.26,3.49-6.9,6.63-10.84,10.36,2.64,3.77,7.59,5.86,11.07,9.54s7.32,7.05,10.39,11.27l-28.53-22.3c1-1.13,1.85-2.37,2-2.29,3.18,1.65,4.61-1,6.09-2.67,2.4-2.69,4.39-5.75,6.58-8.64a26.23,26.23,0,0,1,3.52-4.45c5.75-4.88,10.12-10.87,14.55-16.88,3.58-4.86,7.78-9.27,11.42-14.09,3.83-5.08,7.2-10.51,11-15.63,3.55-4.83,7.4-9.44,11.07-14.18a62.87,62.87,0,0,0,4.14-5.88c2.81-4.72,5.48-9.52,8.21-14.29a10.12,10.12,0,0,1,.47-.93c4.23-6.1,8.28-12.34,12.77-18.24,3.52-4.62,5.89-9.75,8.29-14.94C206.7,2905.37,207.27,2902.81,211.16,2904.45Z" transform="translate(-79.54 -2689.69)"/><path class="cls-13" d="M98.69,3038.9c3.86-4.3,6.88-8.37,10.58-11.65,8-7.05,14.53-15.29,21.42-23.27,5.43-6.3,11-12.53,16.11-19.06,5.79-7.34,11.59-14.72,16.67-22.54,9.93-15.26,19.37-30.82,29-46.28,2.11-3.38,4-6.89,6.16-10.26.64-1,1.76-1.71,3.15-3-.08,4-7.9,18.56-15.69,30.2-6.25,9.35-12.31,18.83-18.67,28.11s-13,18.83-19.89,27.92-13.95,17.66-21.35,26.13-15.24,16.47-23.38,25.21c2.22,2,4.1,4,6.19,5.65,14.26,11.28,29,21.95,41.8,35,9,9.14,19,17.21,28.46,25.93,2.78,2.57,5.05,5.69,7.84,8.89.23-.74.22-.57.13-.48s-.34.26-.41.21a22.17,22.17,0,0,1-2.52-1.75C155.91,3089,127.57,3064.2,98.69,3038.9Z" transform="translate(-79.54 -2689.69)"/><path class="cls-14" d="M263.7,2846.08a14.51,14.51,0,0,1,1.88-8.66c6.46-12.92,10.35-26.76,14.6-40.49,4.12-13.3,5.55-27.12,7.92-40.73,2.28-13.12,3.26-26.47,5-39.7.5-3.87.68-7.92,3.72-11.07.68-.71.47-2.27.67-3.43,4.18-.29,5,.43,4.61,4.26-1.94,19.66-4,39.26-9.21,58.46a482.19,482.19,0,0,1-15.06,47c-4,10.33-7.4,20.89-11.11,31.33a15.76,15.76,0,0,1-1.37,2.76C265.22,2846,264.7,2845.9,263.7,2846.08Z" transform="translate(-79.54 -2689.69)"/><path class="cls-15" d="M255.65,2845.47c2.16-5.73,4.53-10.93,6.06-16.36,2.38-8.47,4.11-17.13,6.24-25.67q4.76-19.11,9.68-38.16c3-11.63,3.8-23.56,5.26-35.41,1-7.78,3-15.42,4.62-23.54,3,1.65,3.78,3.67,3.46,6.29-.61,5-1.18,10-1.8,15-.73,5.83-1.31,11.69-2.29,17.47-2.29,13.65-4.25,27.38-7.35,40.85-2.24,9.73-5.91,19.16-9.26,28.6s-7.07,18.81-10.74,28.16C259,2844,258.93,2846.33,255.65,2845.47Z" transform="translate(-79.54 -2689.69)"/><path class="cls-16" d="M280.8,2703.36c3.41,2.64,3,5.1,2.6,7.5-.7,4.1-1.69,8.15-2.19,12.27-.87,7-1.35,14.14-2.19,21.2-1.54,13-5,25.49-8.54,38-2.27,8-5,15.88-7.3,23.85-1.23,4.16-1.93,8.48-3.26,12.6-2.45,7.59-5.15,15.1-7.83,22.61a4.53,4.53,0,0,1-2.73,2.64c2-7.77,4.08-15.53,6.1-23.3,2.17-8.35,4.64-16.58,6.13-25.15,2.34-13.44,5.57-26.76,9-40,3.82-14.64,6-29.52,8.05-44.47C279,2708.68,280,2706.31,280.8,2703.36Z" transform="translate(-79.54 -2689.69)"/><path class="cls-17" d="M150.35,3033.92c3.33-3.91,6.89-7.65,9.94-11.77,7.7-10.42,15.13-21,22.74-31.54,2.43-3.36,5.12-6.53,7.6-9.86,10.64-14.3,19.86-29.53,28.82-44.91,4.71-8.07,9.36-16.18,14-24.28.7-1.21,1.26-2.56,3.77-1.26-1,1.95-1.9,3.9-3,5.75-4.21,7.17-8.49,14.31-12.73,21.47-5.64,9.54-11.33,19.06-16.9,28.65-6,10.37-13.43,19.75-20.85,29.12a92.83,92.83,0,0,0-6.69,9.25,148.14,148.14,0,0,1-19.92,25.24c-1.77,1.85-3.86,3.38-5.8,5.06Z" transform="translate(-79.54 -2689.69)"/><path class="cls-18" d="M239.79,3157.87c-5.79-4.62-11.8-9-17.32-13.93-9.94-8.89-19.59-18.1-29.34-27.19q-13.87-13-27.7-25.94c-3-2.84-6.14-5.61-9.18-8.44a138.24,138.24,0,0,1-13.44-13.8,9.63,9.63,0,0,1,2.24,1.14c8,7.17,15.92,14.42,23.94,21.57,7,6.21,14.11,12.25,21.08,18.48,10.07,9,20.14,18,30.05,27.23,5.84,5.42,11.41,11.13,17,16.82a21.64,21.64,0,0,1,2.56,4.18Z" transform="translate(-79.54 -2689.69)"/><path class="cls-19" d="M191.87,3119.93c7.58,5.61,14.81,11.59,20.54,19.2A177.61,177.61,0,0,1,191.87,3119.93Z" transform="translate(-79.54 -2689.69)"/><path class="cls-20" d="M239.67,3158c2.46-.24,3.4,1.51,4.65,2.86l-.75.86c-1.25-1.28-2.51-2.57-3.77-3.84Z" transform="translate(-79.54 -2689.69)"/></svg>