<svg id="Layer_24" data-name="Layer 24" xmlns="http://www.w3.org/2000/svg" xmlns:xlink="http://www.w3.org/1999/xlink" viewBox="0 0 493.49 322.98"><defs><style>.cls-1{fill:url(#radial-gradient);}.cls-2{fill:url(#radial-gradient-2);}.cls-3{fill:url(#radial-gradient-3);}</style><radialGradient id="radial-gradient" cx="1170.94" cy="788.22" r="112.56" gradientUnits="userSpaceOnUse"><stop offset="0" stop-color="#ff9500"/><stop offset="0.15" stop-color="#fd9001"/><stop offset="0.33" stop-color="#f78003"/><stop offset="0.53" stop-color="#ed6606"/><stop offset="0.75" stop-color="#df430a"/><stop offset="0.98" stop-color="#ce150f"/><stop offset="1" stop-color="#cc1010"/></radialGradient><radialGradient id="radial-gradient-2" cx="863.13" cy="786.2" r="138.88" xlink:href="#radial-gradient"/><radialGradient id="radial-gradient-3" cx="1042.02" cy="817.25" r="99.84" gradientUnits="userSpaceOnUse"><stop offset="0" stop-color="#ff9500"/><stop offset="0.11" stop-color="#f57a03"/><stop offset="0.3" stop-color="#e65408"/><stop offset="0.48" stop-color="#db360b"/><stop offset="0.66" stop-color="#d3210e"/><stop offset="0.84" stop-color="#ce140f"/><stop offset="1" stop-color="#cc1010"/></radialGradient></defs><path d="M881.84,1022.66c-6.06-13.55-12.35-27-18.13-40.67-4.79-11.35-9.44-22.8-13.3-34.48-3.07-9.27-6-18.84-7-28.49-2.77-27.16-6.5-54.35-4.52-81.77,1.34-18.51,1.94-37.13,6.78-55.24,1-3.7,1-7.68,1.21-11.54.12-2.48,1.15-3.9,3.52-4.1,5.2-.44,10.41-1,15.61-1a145.26,145.26,0,0,1,49.13,8.82c17.6,6.44,35.52,12,53,18.87,14,5.47,27.43,12.22,41.12,18.42.61.27,1.17.69,1.78,1,2.32,1,4.87,3.1,6.9,2.68,1.63-.33,2.53-3.78,3.94-5.71,1.17-1.62,2.34-3.49,4-4.48,7.2-4.37,14.4-8.48,23.12-9.74,9.76-1.41,18.39.11,26.46,5.73,4.95,3.45,5,3.3,9.42-.71.62-.57,1.35-1,2-1.55,13.92-11.08,22.59-10.17,38.29,3.72,2.5,2.22,3.95,2.93,6.71.71,9.34-7.52,18.69-15.05,28.32-22.19,13.57-10.06,27.25-20,41.19-29.53,8.62-5.9,17.73-11.11,26.76-16.39a181.39,181.39,0,0,1,33.78-14.89c6.23-2.11,12.35-4.6,18.67-6.41,6.48-1.87,7.86-.83,10.57,5.1,8.66,18.9,15.31,38.56,21.71,58.28,3,9.11,4.32,18.75,6.33,28.16,1.69,7.93,3,15.95,5,23.79,3.83,15.16,5.61,30.58,6.44,46.12.61,11.3,1.67,22.66,1.05,33.92-.86,15.46-3.07,30.85-4.82,46.27-.39,3.46-1.25,6.87-1.94,10.3-1,4.78-4.58,6.25-8.7,6.09-10-.41-20-.34-29.8-2.07-18.45-3.28-36.9-6.91-55-11.82-18.22-5-36-11.47-53.91-17.65-10-3.47-19.85-7.6-29.74-11.52-3.62-1.44-6.87-1.42-9.73,1.57a3,3,0,0,1-1.19.92c-9.18,2.34-17.81,7.08-27.79,5.91-2.58-.3-6-.34-7.8,1.05-5.76,4.38-12.24,3.14-18.53,3.51-4,.24-8.1,0-12.1.42a36.15,36.15,0,0,1-22-4.46,13.55,13.55,0,0,1-2.8-2.15c-4.64-4.45-6.09-4.68-11.31-.55-4.63,3.66-8.91,7.75-13.45,11.53a272.33,272.33,0,0,0-24.25,23c-7.13,7.58-15.64,13.95-24.05,20.18-13.16,9.76-26.79,18.88-40.13,28.39-9.85,7-20.69,12.09-31.84,16.54-5.91,2.36-7.27,1.78-11.12-3.1-2.18-2.77-4.72-5.27-7.1-7.89ZM1210.69,819c.16.46.33.91.5,1.37-1.3.57-2.56,1.54-3.89,1.64a109.66,109.66,0,0,0-49.39,15.4c-6.61,3.94-13,8-16.34,15.34a13.4,13.4,0,0,0-1.47,6.14c.6,7.58,1.66,15.12,2.38,22.68a6.4,6.4,0,0,0,4.06,5.8,151.8,151.8,0,0,0,34.62,11.23c8.91,1.82,18,2.85,26.9,4.6,3.43.68,6.66,2.39,10,3.62l-.23,1a13.72,13.72,0,0,1-2.81.41c-6.24-.28-12.52-.28-18.7-1-16.08-2-32.3-3.36-47.67-9.12a23.08,23.08,0,0,0-4.75-.75c-.11,1.81-.56,3.69-.21,5.41a7.56,7.56,0,0,0,2.39,3.72c4.38,4,8.78,7.9,13.41,11.54,4.09,3.22,8.19,6.67,12.82,8.91,13.07,6.32,26.23,12.46,40.45,16,13.44,3.36,26.6,8,40.16,10.74,18.69,3.73,37.44,7.59,56.68,7.79,6.49.07,7.12.36,8.24-5.82,2.31-12.77,5-25.56,5.93-38.46a276.25,276.25,0,0,0-3.19-64.66c-3.14-19-6.85-37.92-10.74-56.79-1.91-9.25-4.87-18.28-7.21-27.45a227.56,227.56,0,0,0-15.34-41.77c-1.61-3.38-3.66-4.49-7.23-3-4.69,1.92-9.47,3.64-14.24,5.35a235.78,235.78,0,0,0-51.28,25.21c-11.39,7.56-23,14.79-34.36,22.36-4.92,3.28-9.56,7-14.23,10.6-10.54,8.19-21,16.49-31.56,24.64-2.94,2.27-3.14,4.73-1.93,8,2.63,7.12,3.24,7.58,9,2.77,8.24-6.83,18.09-10.49,27.65-14.71,14.82-6.54,29.78-12.78,44.69-19.11a30.14,30.14,0,0,1,3.52-1c.85,5.27-2.57,6.26-5.8,7.4-22,7.79-42.47,18.37-59.65,34.56-.86.8-1.59,1.75-2.38,2.63C1169.67,825.46,1189.77,820.33,1210.69,819Zm-304.26-13,.4-1.22c.82.11,1.65.19,2.46.35,15.62,2.91,31.33,5.44,46.83,8.91,9.84,2.2,19.41,5.7,29,8.79a149.5,149.5,0,0,1,31.32,14.27c2.79,1.67,3.43,1,3.51-2.18.15-5.63-3.83-8.13-7.94-10.07-18.66-8.76-37.36-17.44-56.19-25.82a182.61,182.61,0,0,0-21.42-7.79c-13.59-4.1-27.17-8.42-41-11.41-10-2.17-20.45-2.32-30.69-3.44-6.2-.68-6.7-.41-8.52,5.72-1.08,3.66-2.7,7.27-3.12,11-1.15,10.4-1.84,20.86-2.64,31.3-.75,9.77-2.31,19.59-1.92,29.32.6,14.66,2.23,29.3,4.07,43.86,1.95,15.43,4.55,30.77,9.73,45.54a644.19,644.19,0,0,0,29.74,70.46c1.69,3.45,4.26,6.47,6.31,9.76,1.59,2.57,3.43,2.79,5.93,1.27,7.06-4.3,14.37-8.21,21.23-12.8,11.1-7.4,22-15.13,32.82-22.89,4.67-3.33,9.12-7,13.52-10.65,10.11-8.45,19.29-17.93,29-26.75,10.28-9.33,18.26-20.29,26.75-30.94,1.94-2.44,2.71-5.82,4-8.77-4.09-1-5.89,2.59-8.37,4.47-11.41,8.71-22.47,17.89-34,26.41-5.45,4-11.71,6.92-17.63,10.28-.33.19-.9,0-1.42-.09.18-.48.21-.91.44-1.07a218.67,218.67,0,0,0,30.6-25.73c8.24-8.22,17.31-15.62,24.06-25.29,4.37-6.26,3.91-10.25-3.41-12.89-9-3.26-18.36-6.39-27.79-7.42A83,83,0,0,0,958,883.83c-4,1.27-8.19,2.08-12.32,3-.94.2-2-.17-3.77-.36,5.94-3.26,11-6.27,17.07-6.27a5.53,5.53,0,0,0,1.48-.32c16.49-4.83,33.39-7,50.49-8,3.57-.2,8.17.42,9.92-3.58,1.94-4.45-1.7-7.89-3.83-11.45a2.44,2.44,0,0,0-.35-.37c-7.42-7.93-15.58-15.08-25-20.35s-19.36-9.6-29-14.4a145.16,145.16,0,0,0-39-12.4C917.87,808.32,912.15,807.16,906.43,806.05Zm206.84,80.84c0,7.73-.09,15.78,0,23.83.13,9.17,2.14,11.31,11.1,12.27,6.12.66,7.29-.31,7.54-6.7.24-6.23.51-12.47.36-18.7-.25-11-.48-21.92-1.33-32.83-.66-8.4-1.36-17-3.68-25-3.16-10.92-6.35-21.91-13.81-31.25-5.45-6.85-11.37-7.9-16.55-3a16.41,16.41,0,0,0-2.2,3.51,18.64,18.64,0,0,0,4.14,1.18c3.49.17,7,0,10.51.11.71,0,1.41.64,2.11,1a8.39,8.39,0,0,1-1.57,2.17,7.28,7.28,0,0,1-2.81,1.12c-4.62,1-9.23,2.34-13.9,2.62-6.32.39-12.31-.85-17.28-5.6a19.78,19.78,0,0,0-7.91-4.15c-9-2.67-18-2.33-27.06-.11-5.89,1.45-9.66,5.59-9.9,11.71-.28,7.41-.28,14.83-.57,22.24-.49,12.31-.37,24.5,1.43,36.82,2.34,15.87,4.82,31.32,14.94,44.58,4.93,6.46,12.94,9.71,21,6.8-1.7-1.83-3.41-3.45-4.87-5.27-3.89-4.86-8-9.6-11.41-14.76-3-4.55-1-7.63,4.55-7.54,5,.09,9.61,5.49,10.23,12.24l-8.46-5.8c5.61,13.54,17.29,20.08,32.59,20.71-2.53-4.21-5.41-8.69-8-13.34-7.64-13.92-10.89-29-11.15-44.74A25.48,25.48,0,0,1,1073,862c.49-1.34,2.59-3,3.92-3,5.88.19,13.13,10.31,12,17.56-2.41-3.21-4.31-5.92-6.43-8.44a14.57,14.57,0,0,0-3.17-2.21c-.78,1.2-2.13,2.35-2.22,3.6a50.17,50.17,0,0,0,0,11.62c2.18,13.38,8.3,25.27,14.78,37a12.79,12.79,0,0,0,1.47,2.05c4.84,5.74,11.35,6.89,18.59,7.39-1.73-5.2-3-9.71-4.74-14.05a56.52,56.52,0,0,1-3.86-22.83q.33-11.13,1.2-22.26c.14-1.82,1.26-3.57,1.93-5.35,2.06.94,4.36,1.58,6.1,2.92,1,.78,1.21,2.68,1.6,4.12s.45,3,.83,4.46c1.88,7.17,4,14.3,5.7,21.51,1.23,5,.53,12.22-1.37,15.83C1118.32,902.87,1117.26,894.24,1113.27,886.89Z" transform="translate(-838.33 -712.83)"/><path d="M881.84,1022.66l.75.81a8.19,8.19,0,0,1-1.72.65c-.13,0-.39-.74-.59-1.14Z" transform="translate(-838.33 -712.83)"/><path d="M880.49,763.91h-.88a4.66,4.66,0,0,1,.15-.83s.41-.06.45,0A4.38,4.38,0,0,1,880.49,763.91Z" transform="translate(-838.33 -712.83)"/><path class="cls-1" d="M1210.69,819c-20.92,1.3-41,6.43-61.17,13.17.79-.88,1.52-1.83,2.38-2.63,17.18-16.19,37.6-26.77,59.65-34.56,3.23-1.14,6.65-2.13,5.8-7.4a30.14,30.14,0,0,0-3.52,1c-14.91,6.33-29.87,12.57-44.69,19.11-9.56,4.22-19.41,7.88-27.65,14.71-5.81,4.81-6.42,4.35-9-2.77-1.21-3.27-1-5.73,1.93-8,10.57-8.15,21-16.45,31.56-24.64,4.67-3.62,9.31-7.32,14.23-10.6,11.37-7.57,23-14.8,34.36-22.36a235.78,235.78,0,0,1,51.28-25.21c4.77-1.71,9.55-3.43,14.24-5.35,3.57-1.46,5.62-.35,7.23,3a227.56,227.56,0,0,1,15.34,41.77c2.34,9.17,5.3,18.2,7.21,27.45,3.89,18.87,7.6,37.78,10.74,56.79a276.25,276.25,0,0,1,3.19,64.66c-.92,12.9-3.62,25.69-5.93,38.46-1.12,6.18-1.75,5.89-8.24,5.82-19.24-.2-38-4.06-56.68-7.79-13.56-2.7-26.72-7.38-40.16-10.74-14.22-3.56-27.38-9.7-40.45-16-4.63-2.24-8.73-5.69-12.82-8.91-4.63-3.64-9-7.59-13.41-11.54a7.56,7.56,0,0,1-2.39-3.72c-.35-1.72.1-3.6.21-5.41a23.08,23.08,0,0,1,4.75.75c15.37,5.76,31.59,7.12,47.67,9.12,6.18.76,12.46.76,18.7,1a13.72,13.72,0,0,0,2.81-.41l.23-1c-3.32-1.23-6.55-2.94-10-3.62-8.92-1.75-18-2.78-26.9-4.6a151.8,151.8,0,0,1-34.62-11.23,6.4,6.4,0,0,1-4.06-5.8c-.72-7.56-1.78-15.1-2.38-22.68a13.4,13.4,0,0,1,1.47-6.14c3.32-7.31,9.73-11.4,16.34-15.34A109.66,109.66,0,0,1,1207.3,822c1.33-.1,2.59-1.07,3.89-1.64C1211,819.94,1210.85,819.49,1210.69,819Z" transform="translate(-838.33 -712.83)"/><path class="cls-2" d="M906.43,806.05c5.72,1.11,11.44,2.27,17.18,3.3a145.16,145.16,0,0,1,39,12.4c9.68,4.8,19.62,9.14,29,14.4s17.62,12.42,25,20.35a2.44,2.44,0,0,1,.35.37c2.13,3.56,5.77,7,3.83,11.45-1.75,4-6.35,3.38-9.92,3.58-17.1,1-34,3.12-50.49,8a5.53,5.53,0,0,1-1.48.32c-6.11,0-11.13,3-17.07,6.27,1.77.19,2.83.56,3.77.36,4.13-.89,8.3-1.7,12.32-3a83,83,0,0,1,34.14-3.29c9.43,1,18.78,4.16,27.79,7.42,7.32,2.64,7.78,6.63,3.41,12.89-6.75,9.67-15.82,17.07-24.06,25.29a218.67,218.67,0,0,1-30.6,25.73c-.23.16-.26.59-.44,1.07.52,0,1.09.28,1.42.09,5.92-3.36,12.18-6.27,17.63-10.28,11.55-8.52,22.61-17.7,34-26.41,2.48-1.88,4.28-5.47,8.37-4.47-1.3,3-2.07,6.33-4,8.77-8.49,10.65-16.47,21.61-26.75,30.94-9.72,8.82-18.9,18.3-29,26.75-4.4,3.68-8.85,7.32-13.52,10.65-10.85,7.76-21.72,15.49-32.82,22.89-6.86,4.59-14.17,8.5-21.23,12.8-2.5,1.52-4.34,1.3-5.93-1.27-2-3.29-4.62-6.31-6.31-9.76a644.19,644.19,0,0,1-29.74-70.46c-5.18-14.77-7.78-30.11-9.73-45.54-1.84-14.56-3.47-29.2-4.07-43.86-.39-9.73,1.17-19.55,1.92-29.32.8-10.44,1.49-20.9,2.64-31.3.42-3.73,2-7.34,3.12-11,1.82-6.13,2.32-6.4,8.52-5.72,10.24,1.12,20.68,1.27,30.69,3.44,13.85,3,27.43,7.31,41,11.41a182.61,182.61,0,0,1,21.42,7.79c18.83,8.38,37.53,17.06,56.19,25.82,4.11,1.94,8.09,4.44,7.94,10.07-.08,3.22-.72,3.85-3.51,2.18a149.5,149.5,0,0,0-31.32-14.27c-9.64-3.09-19.21-6.59-29-8.79-15.5-3.47-31.21-6-46.83-8.91-.81-.16-1.64-.24-2.46-.35Z" transform="translate(-838.33 -712.83)"/><path class="cls-3" d="M1113.27,886.89c4,7.35,5,16,6.15,25.06,1.9-3.61,2.6-10.78,1.37-15.83-1.75-7.21-3.82-14.34-5.7-21.51-.38-1.46-.44-3-.83-4.46s-.6-3.34-1.6-4.12c-1.74-1.34-4-2-6.1-2.92-.67,1.78-1.79,3.53-1.93,5.35q-.87,11.12-1.2,22.26a56.52,56.52,0,0,0,3.86,22.83c1.73,4.34,3,8.85,4.74,14.05-7.24-.5-13.75-1.65-18.59-7.39a12.79,12.79,0,0,1-1.47-2.05c-6.48-11.71-12.6-23.6-14.78-37a50.17,50.17,0,0,1,0-11.62c.09-1.25,1.44-2.4,2.22-3.6a14.57,14.57,0,0,1,3.17,2.21c2.12,2.52,4,5.23,6.43,8.44,1.08-7.25-6.17-17.37-12-17.56-1.33,0-3.43,1.63-3.92,3a25.48,25.48,0,0,0-1.66,8.91c.26,15.74,3.51,30.82,11.15,44.74,2.56,4.65,5.44,9.13,8,13.34-15.3-.63-27-7.17-32.59-20.71l8.46,5.8c-.62-6.75-5.21-12.15-10.23-12.24-5.52-.09-7.6,3-4.55,7.54,3.45,5.16,7.52,9.9,11.41,14.76,1.46,1.82,3.17,3.44,4.87,5.27-8,2.91-16.06-.34-21-6.8-10.12-13.26-12.6-28.71-14.94-44.58-1.8-12.32-1.92-24.51-1.43-36.82.29-7.41.29-14.83.57-22.24.24-6.12,4-10.26,9.9-11.71,9.06-2.22,18.1-2.56,27.06.11a19.78,19.78,0,0,1,7.91,4.15c5,4.75,11,6,17.28,5.6,4.67-.28,9.28-1.66,13.9-2.62a7.28,7.28,0,0,0,2.81-1.12,8.39,8.39,0,0,0,1.57-2.17c-.7-.35-1.4-1-2.11-1-3.5-.11-7,.06-10.51-.11a18.64,18.64,0,0,1-4.14-1.18,16.41,16.41,0,0,1,2.2-3.51c5.18-4.85,11.1-3.8,16.55,3,7.46,9.34,10.65,20.33,13.81,31.25,2.32,8,3,16.62,3.68,25,.85,10.91,1.08,21.88,1.33,32.83.15,6.23-.12,12.47-.36,18.7-.25,6.39-1.42,7.36-7.54,6.7-9-1-11-3.1-11.1-12.27C1113.18,902.67,1113.27,894.62,1113.27,886.89Z" transform="translate(-838.33 -712.83)"/></svg>