<svg id="Layer_23" data-name="Layer 23" xmlns="http://www.w3.org/2000/svg" xmlns:xlink="http://www.w3.org/1999/xlink" viewBox="0 0 449.9 332.51"><defs><style>.cls-1{fill:url(#radial-gradient);}.cls-2{fill:url(#radial-gradient-2);}.cls-3{fill:url(#radial-gradient-3);}.cls-4{fill:url(#radial-gradient-4);}.cls-5{fill:url(#radial-gradient-5);}.cls-6{fill:url(#radial-gradient-6);}.cls-7{fill:url(#radial-gradient-9);}.cls-8{fill:url(#radial-gradient-12);}.cls-9{fill:url(#radial-gradient-15);}</style><radialGradient id="radial-gradient" cx="904" cy="1587.05" r="333.21" gradientUnits="userSpaceOnUse"><stop offset="0" stop-color="#627f82"/><stop offset="0.15" stop-color="#5e7a7d"/><stop offset="0.33" stop-color="#526b6d"/><stop offset="0.54" stop-color="#3f5153"/><stop offset="0.76" stop-color="#242e30"/><stop offset="0.99" stop-color="#020202"/><stop offset="1"/></radialGradient><radialGradient id="radial-gradient-2" cx="938.24" cy="1592.65" r="187.99" gradientUnits="userSpaceOnUse"><stop offset="0" stop-color="#6bc6ff"/><stop offset="0.12" stop-color="#6bc1ff"/><stop offset="0.27" stop-color="#6bb1ff"/><stop offset="0.44" stop-color="#6b97fe"/><stop offset="0.63" stop-color="#6b73fe"/><stop offset="0.81" stop-color="#6c46fd"/><stop offset="1" stop-color="#6c12fc"/></radialGradient><radialGradient id="radial-gradient-3" cx="1248.5" cy="1498.72" r="63.37" gradientUnits="userSpaceOnUse"><stop offset="0" stop-color="#fff"/><stop offset="0.18" stop-color="#fafafa"/><stop offset="0.41" stop-color="#ebeaea"/><stop offset="0.66" stop-color="#d3d1d0"/><stop offset="0.93" stop-color="#b2afad"/><stop offset="1" stop-color="#a8a4a2"/></radialGradient><radialGradient id="radial-gradient-4" cx="1152.92" cy="1359.81" r="35.54" xlink:href="#radial-gradient-3"/><radialGradient id="radial-gradient-5" cx="1000.49" cy="1441.54" r="152.88" xlink:href="#radial-gradient-3"/><radialGradient id="radial-gradient-6" cx="1001.84" cy="1621.6" r="136.63" xlink:href="#radial-gradient-2"/><radialGradient id="radial-gradient-9" cx="1245.66" cy="1466.26" r="37.55" xlink:href="#radial-gradient-3"/><radialGradient id="radial-gradient-12" cx="1190.81" cy="1443.35" r="152.99" xlink:href="#radial-gradient"/><radialGradient id="radial-gradient-15" cx="1152.82" cy="1524.52" r="58.37" xlink:href="#radial-gradient-3"/></defs><path d="M1142.84,1546c-.32-.52-.68-.86-.62-1a1.23,1.23,0,0,1,.78-.7c.26,0,.59.29.88.45Z" transform="translate(-881.92 -1378.34)"/><path d="M962.14,1523.8c.25-6.75.27-13.49.78-20.18.93-12.2,3.13-24.12,8.79-35.17,4.53-8.85,8.45-18,13.54-26.55,3.49-5.83,8.45-10.79,12.9-16,4.21-5,9.57-8.59,14.85-12.31,5.62-3.95,11-8.33,16.73-12a139.41,139.41,0,0,1,14.8-7.85c5.18-2.5,10.35-5.14,15.79-6.92a160.15,160.15,0,0,1,20.36-5.16c7.57-1.43,15.24-2.32,22.91-3.12a54.66,54.66,0,0,1,10.06.27c5.13.43,10.48-.12,15.09,3a3.87,3.87,0,0,0,1.64.32c9.5,1.26,18.53,4.3,27.41,7.7,4,1.54,7.93,3.24,12,4.64,6,2.06,11.63,5.43,17.36,8.32,6.24,3.15,12.47,6.29,18.61,9.63a181.76,181.76,0,0,1,19,11.32c7.55,5.38,14,12,21.4,17.51,2.62,2,5,2.71,8.15,1.93,14.58-3.63,29.45-3.94,44.34-3.39,4.69.18,9.75.08,13.32,3.94a83.19,83.19,0,0,1,7.86,9.81c2.49,3.69,4.31,7.84,6.77,11.55,3.06,4.61,4.08,9.8,5,15a7.43,7.43,0,0,1-2.33,6.93c-2.83,2.4-6.14,4.81-9.64,5.74-9.14,2.43-17.79,6-26.45,9.69-7.36,3.11-14.55,6.64-21.93,9.69-10.94,4.51-21.43,9.76-30.88,16.95-1.11.84-2.1,1.83-2.81,2.46.75,7.92,1.58,15.41,2.11,22.92a35.56,35.56,0,0,1-.63,8c-1.06,6.63-1.87,13.35-3.55,19.84-1.76,6.79-4.53,13.26-9.9,18.25a10.09,10.09,0,0,0-3.43,7.36c-.16,3.7-2.38,6.75-4.91,9.52-5,5.48-11.47,9-17.22,13.48-8.05,6.27-17.39,10.09-26.45,14.47-2.4,1.15-4.77,2.39-7.16,3.56-12,5.89-23.87,11.88-35.91,17.59-4.55,2.16-9.43,3.62-14.13,5.46-2.61,1-5.15,2.18-7.74,3.23-3,1.2-6,2.27-9,3.53-4.9,2.08-9.67,4.49-14.64,6.36-7.08,2.65-14.22,5.23-21.49,7.32-10.64,3-21.39,5.73-32.14,8.36q-12.06,2.94-24.25,5.33c-4.39.86-8.88,1.19-13.33,1.7-5.85.66-11.71,1.22-17.56,1.9-6.4.74-12.73,1.78-19.24.71-5.25-.87-10.6-1-15.88-1.71-1.92-.25-3.73-1.2-5.64-1.59-3.24-.66-6.38-2.3-9.83-1.13-4.87-1.81-9.55-3.66-13-8.11-3.93-5.11-6.48-10.78-8.78-16.68-3.15-8.11-6.6-16.11-9.56-24.29-3.63-10-7.4-20.05-10.14-30.34-2.69-10.08-3.65-20.47.09-30.69a10.67,10.67,0,0,0,.86-4.11c-.26-4.32,1.91-7.5,4.44-10.59,3.82-4.66,7.4-9.54,11.5-13.93a65.82,65.82,0,0,1,9.42-7.73c4.42-3.23,9.21-6,13.47-9.37C936,1540.54,949.38,1533,962.14,1523.8Zm31,16.53a13.64,13.64,0,0,0,2.54-.68c11.84-6.37,23.86-12.45,35.44-19.27,8.06-4.75,16.92-7.21,25.44-10.64a2.51,2.51,0,0,1,1.25-.06c4.87.7,9.55,1.68,13.72,4.73,6,4.36,9.39,10.38,12,17,4,10.33,7.84,20.74,11.56,31.19,4.93,13.88,9.7,27.82,14.49,41.75,1,2.9,1.07,6.39,2.79,8.72,2.86,3.89,1.68,7.8.41,11.12-2.45,6.42-7.47,11.08-13.28,14.77-10.84,6.87-23,11-34.39,16.78a25.51,25.51,0,0,1-3.07,1.38c-13.53,4.68-27.1,9.23-40.59,14-12,4.27-24.12,8.49-35.94,13.31-12.86,5.24-25.56,10.86-39,14.44a61.5,61.5,0,0,0-6.53,2.66c2.53.55,4,.85,5.47,1.19,11.76,2.67,23.57,3.39,35.49,1.11,8.41-1.61,16.84-3.08,25.26-4.63,2.2-.41,4.41-.84,6.59-1.38,8.72-2.17,17.41-4.46,26.14-6.58a207.91,207.91,0,0,0,33.18-10.68c5-2.15,10.09-4.18,15.22-6,9.75-3.53,19.61-6.75,29.33-10.37,5-1.85,9.8-4.19,14.62-6.46,9.89-4.65,20-9,29.5-14.26,6.36-3.52,12.82-6.85,19.18-10.35,9.11-5,18.34-9.74,26.32-16.56,6-5.14,8.63-11.12,6.18-19-1.37-4.41-3-8.85-3.52-13.39a44.78,44.78,0,0,0-6.34-17.5c-3.85.85-7.64,1.8-11.48,2.5a42.91,42.91,0,0,1-26.64-3.84,54.65,54.65,0,0,1-7.65-5.09c-5.36-3.8-7.21-9.8-9.71-15.43-3.75-8.44-2.78-17.09.54-25,3-7,9.16-11.91,16.33-15a108,108,0,0,1,10.34-3.26c-.62-2.22-.88-4.36-1.77-6.19-2.46-5-5.09-10-7.83-14.88s-5.41-9.78-9.9-13.47a10.53,10.53,0,0,0-7.27-2.56c-2,0-3.92.22-5.89.29a84.12,84.12,0,0,0-15.87,1.7c-6.27,1.42-12.67,2.3-19,3.43-6.19,1.09-12.4,2.16-18.58,3.33-4.42.83-8.8,1.81-13.19,2.74-5.21,1.1-10.45,2.12-15.62,3.38-3.49.84-6.38,3-9.5,4.65-4.78,2.49-10,4.19-14.86,6.77-11.25,6-22.67,11.65-34.11,17.28a6,6,0,0,0-3.63,5.1c-1,6.37-2.26,12.7-3.29,19.07C993.46,1534.78,993.37,1537.38,993.09,1540.33Zm.3,5.28a43.81,43.81,0,0,0,1.5,4.73c1.77,4,3.76,7.84,5.48,11.83,5.07,11.8,9.11,24,15.56,35.25a4.11,4.11,0,0,1-2.44,5.74c-2.53.78-5,1.66-7.5,2.56A166.77,166.77,0,0,0,976.48,1620c-3,1.86-6,3.35-10.25,2.88-3.23-8.63-6.2-17.67-10-26.36s-6-18.33-11.13-27c-1.76.78-3.16,1.37-4.53,2-5.45,2.58-10.83,5.34-16.36,7.74-10.34,4.47-19.9,10.35-29.54,16.07a26.54,26.54,0,0,0-5.27,4.8c-.54.57-.54,1.65-.83,2.62l73.42,23a28.78,28.78,0,0,1-1.17,3.28c-.55,1.13-1.44,2.09-2,3.22-2.34,5.1-4.51,10.26-6.9,15.33-4.18,8.88-8.4,17.74-12.76,26.53-2.55,5.16-5.44,10.15-8.1,15.25-1,1.94-2.09,3.91-1.76,6.5a23.26,23.26,0,0,0,4.74,0c5.61-1.22,11.22-2.47,16.74-4,4-1.13,7.95-2.68,11.88-4.15,11.56-4.33,23-8.84,34.66-13.05,15.16-5.5,29.78-12.32,45.32-17,13.54-4,26.63-9.67,39.7-15.13a70.38,70.38,0,0,0,22.84-15.57c1.72-1.73,2.61-3.58,1.91-5.76l-73.9-25a22.81,22.81,0,0,1,2.19-10.24c7.25-17.49,14.6-34.93,21.72-52.47a77.09,77.09,0,0,0,5-17.67,7,7,0,0,0-6.49-1.52,51.4,51.4,0,0,0-8.39,2.73c-8,3.71-16,7.62-23.88,11.52-3,1.49-6,3.1-8.88,4.78C1007.6,1537.25,1000.73,1541.31,993.39,1545.61Zm28-54c7.18-3.12,13.14-7,19.85-9.49,11.67-4.27,23-9.43,35.36-11.69,14.62-2.66,29.11-6,43.68-9,7.7-1.56,15.47-2.74,23.38-2.29,4.08.24,8.07.68,11.68,3a9.45,9.45,0,0,0,4,1.08,127.58,127.58,0,0,1,29.84,6.76,7.64,7.64,0,0,0,7.49-.88c3.74-2.47,4-3.79,1-7.25-2.11-2.42-4.33-4.74-6.46-7.14-4.39-5-8.87-9.78-14.81-13-2.21-1.19-4.36-2.49-6.55-3.72-3.9-2.21-7.7-4.64-11.76-6.53-4.4-2.05-9.1-3.47-13.58-5.39a77.09,77.09,0,0,0-18-5.51c-11.73-1.9-23.1-6.29-35.28-5-7.13-1.77-14.2.31-21.29.53a182.41,182.41,0,0,0-19.23,1.87c-5.94.83-11.56,2.68-15.22,8a62.84,62.84,0,0,0-4.13,6.8c-3.29,6.36-6.66,12.69-9.61,19.2-3.78,8.37-4,17.48-4.1,26.42C1017.64,1482.67,1019.66,1486.94,1021.42,1491.57ZM1303.05,1447a24.71,24.71,0,0,0-3.14.72c-6.36,2.57-12.91,4.77-19,7.86-11.25,5.72-22.23,12-33.3,18-6.15,3.36-12.16,7-18.42,10.15-11.57,5.82-22.21,13.1-32.9,20.31-4.88,3.28-9.49,7-14.16,10.52-2,1.53-3.78,3.32-5.73,4.9-1.36,1.1-1.29,2.34-.77,3.77,3.35,9.13,7.39,17.88,14,25.23,2,2.19,3.86,2.49,6.33.89,3.4-2.22,6.77-4.49,10.13-6.76s6.46-4.47,9.75-6.62,6.86-3.58,9.5-6.18,6.24-4,9.07-6.52c2.49-2.18,5.89-3.32,8.4-5.49,3.71-3.18,8.16-4.88,12.41-6.91,8.47-4.05,17.14-7.69,25.74-11.49,6.27-2.78,12.6-5.47,18.82-8.37,6.46-3,13.65-4.34,19.51-8.76,2.73-2.06,2.88-1.88,1.93-5.07-2.76-9.19-6.39-18-12.5-25.51C1307.09,1449.75,1304.73,1448.4,1303.05,1447ZM1046.4,1413.9a19.39,19.39,0,0,0,2.24,0c6.09-.84,12.17-1.87,18.28-2.54,9.95-1.1,19.89.06,29.84.36a151.91,151.91,0,0,1,29.59,3.8c9.81,2.26,19.45,5.32,29.07,8.33,6.17,1.93,11.68,5.36,16.95,9.05,2.75,1.93,5.26,4.19,7.94,6.23,1.32,1,2.94,1.67,4.14,2.8,4.89,4.61,9.67,9.31,14.47,14,2.67,2.62,5.28,5.3,7.94,8,1.89-1.12,3.4-2.12,5-2.94a149.35,149.35,0,0,1,25.22-10.47,66.3,66.3,0,0,0,6.26-2.64c-5.24-5.23-9.68-10.09-14.59-14.43a142.44,142.44,0,0,0-14.61-11.28c-4.62-3.12-9.68-5.59-14.53-8.38-4.5-2.6-8.72-5.85-13.49-7.75-11.72-4.67-23.63-8.87-35.56-13-9.66-3.34-19.71-4.07-29.87-3.39-4.89.33-9.81.49-14.68,1-5.7.63-11.4,1.4-17,2.49-4,.77-7.79,2.32-11.74,3.26-11.36,2.69-20.64,9.22-29.83,15.93C1047.13,1412.57,1047,1413,1046.4,1413.9Zm75.42-28.53v-.76c-6.85-.21-13.7-.71-20.54-.56-8.12.17-16.26.69-24.09,3.26-2.94,1-6,1.56-8.89,2.62-6.58,2.39-13.24,4.63-19.59,7.55-7.62,3.52-15.08,7.46-22.37,11.64a110.93,110.93,0,0,0-14.56,9.93,133.39,133.39,0,0,0-11.47,11.1c-7.4,7.59-13.19,16.36-18.48,25.49-6.19,10.68-9.18,22.56-12.73,34.21-2.26,7.44-2.61,15.2-2.5,23,0,3.19-.45,6.45.87,9.59l49.22-28.11c-.85-2.47-1.8-4.66-2.35-6.94-1.62-6.73-2.73-13.49-.85-20.4a68.58,68.58,0,0,0,1.68-7.75c1.12-7.51,4.59-14.1,7.92-20.74,1.9-3.8,3.08-7.86,5.46-11.56,3.5-5.41,6.51-11.14,11.45-15.38,4.13-3.54,8.22-7.22,13.52-9.13a58.42,58.42,0,0,0,6.44-3.08c8.17-4.17,16.63-7.45,25.74-8.86,6.93-1.07,13.84-2.3,20.78-3.29C1111.57,1386.42,1116.7,1386,1121.82,1385.37ZM1068,1518c-.7,1.3-1.39,2.47-2,3.69s-1,2.59-1.58,3.88c-2.22,5.29-4.54,10.53-6.62,15.87-1.67,4.3-3,8.76-4.57,13.09-3.78,10.26-7.77,20.44-11.38,30.75-.9,2.55-1.24,5.08-4.73,5.65,23.47,9.41,47.46,16.32,71.5,24.44a14.47,14.47,0,0,0,0-3c-1.52-5.67-2.89-11.39-4.72-17-3-9-6.21-18-9.46-27-4.45-12.24-8.89-24.48-13.57-36.63C1078.57,1525.89,1075.23,1520.59,1068,1518Zm-179.94,87.77c-1.64,3.4-1.48,6.29-1.13,9.26,1.2,10.09,4.31,19.69,7.62,29.22,2.38,6.88,5.23,13.6,7.6,20.48a84.12,84.12,0,0,0,13.61,24.48,18.22,18.22,0,0,0,6.67,5.63c11.5-22.42,21.66-45.25,33-67.77C933.33,1618.49,910.53,1613.12,888.05,1605.81Zm60.69-37.8c2.44,8.38,6.16,16.32,9.76,24.35s5.17,16.76,9.31,24.73c4.4-1.85,8.45-3.13,12.06-5.19,4.68-2.66,9.65-4.42,14.6-6.39,5.53-2.22,11.16-4.47,16.35-8.59-7-16.4-12.72-33.17-21.61-49.29-7,3.81-13.41,7.52-20,10.84S955.81,1564.74,948.74,1568Zm248.67-92.6c3.19,2.14,6.06,4.08,8.95,6,2,1.33,3.88,2.77,4.59,5.27a7,7,0,0,0,1.26,1.76c7-3.71,13.87-7.25,20.63-11s13.4-7.67,20.2-11.34,13.69-7.09,20.55-10.63l20.33-10.48a22.35,22.35,0,0,0-9.29-.73c-8.14,1.47-16.29,3-24.27,5.15-9.6,2.59-19.06,5.75-28.53,8.82-4,1.29-7.88,2.91-11.78,4.48a65.42,65.42,0,0,0-7.27,3.33C1207.78,1468.85,1202.09,1470.44,1197.41,1475.41ZM891.69,1592.68c1.08-.44,1.73-.63,2.32-1,8-4.37,16-8.77,24-13.13,1.1-.61,2.26-1.1,3.41-1.63,8-3.66,16.09-7.28,24.08-11a3.76,3.76,0,0,0,1.8-2.4c1.36-7.14,2.59-14.3,3.78-21.46a30.65,30.65,0,0,0,0-4.28c-3.63,2.25-6.78,4-9.73,6.07q-11.88,8.28-23.61,16.77c-6.13,4.44-12.31,8.83-17.2,14.73C896.43,1580.3,892.19,1585.16,891.69,1592.68Zm100.88-80.19c-2.35,1.27-4.23,2.09-5.92,3.22-4.42,2.94-8.64,6.21-13.15,9-5.24,3.24-10.71,6.09-16.07,9.12-1.31.74-2.82,1.24-3.1,3.11-1,6.78-2.15,13.54-3.14,20.32a41.76,41.76,0,0,0,0,5.43c2.54-1,4.42-1.56,6.11-2.46,9.24-5,18.43-10,27.66-15a3.9,3.9,0,0,0,2.35-3.11c1.54-8.83,3.28-17.62,4.94-26.42C992.36,1514.87,992.4,1514.06,992.57,1512.49ZM1220.7,1594a34.54,34.54,0,0,0,8.78-17.27c1.32-7,2.54-14,1.49-21.26-.66-4.55-.81-9.18-1.55-13.71-.3-1.79-1.55-3.43-2.46-5.32-6.53,3.41-12.63,6.45-17.62,11.38-1.43,1.41-2,2.66-1.32,4.37a13.67,13.67,0,0,1,.06,9.1c-.87,2.85-.23,5.16,1,7.59,2.85,5.78,5.68,11.56,8.43,17.37C1218.6,1588.63,1219.5,1591.1,1220.7,1594Zm-51.08-75.61a24.11,24.11,0,0,0,3.5-1.78,2.05,2.05,0,0,0,.64-1.77,2.15,2.15,0,0,0-1.51-1.18,3.9,3.9,0,0,0-2.38.42,36.92,36.92,0,0,0-6,3.88c-4.88,4.29-7.89,9.53-6.6,16.3.56,3,1.68,5.86,2.48,8.8.29,1.06.94,2.5.51,3.17-1.26,2,.1,3.35.87,4.58a38.81,38.81,0,0,0,5,6.15,8.6,8.6,0,0,0,3.55,2.13c6.89,2.11,13.77,2.31,20.38-1,1.05-.54,1.76-1.76,2.71-2.77-1.71-1-3.11-1.47-4-2.41-3.86-4.06-7.59-8.26-9.89-13.48C1175.87,1532.5,1172.81,1525.6,1169.62,1518.4Zm15-11.16c4.55-3.28,8.61-5.81,12.2-8.9s8.13-4.42,11.42-7.93c-12.86-13.31-27.64-21.39-46.57-23.37C1170.91,1480,1177.5,1493.52,1184.6,1507.24Zm16.71,44.51-1.16-.44c-1.58,1.77-3.87,3.3-4.58,5.37a6.5,6.5,0,0,1-4.66,4.31c-2.38.82-4.88,1.28-7.33,1.88-5,1.22-9.77,0-14.48-1.21a11.09,11.09,0,0,1-4.72-3.29,49.24,49.24,0,0,1-6-7.5c-4.51-7.2-7.54-14.82-4.72-23.52,1.43-4.38,3-8.49,6.56-12,2.59-2.52,5-4.28,8.48-4.75a3.84,3.84,0,0,0,1.22-.31c2.77-1.5,5.1-1,7.07,1.44.15.19.51.21.91.36.4-.21.9-.45,1.38-.72s1-.56,1.38-.79c-.52-1.56-.8-2.64-1.25-3.65-1.17-2.64-2.09-3-5-2.53a38,38,0,0,0-21.69,12,12,12,0,0,0-3,4.52,47.2,47.2,0,0,0-2,15.75c.24,3.82,2.33,6.86,3.34,10.32,2.76,9.43,10.35,13.41,18.44,16.92a17.36,17.36,0,0,0,9.89,1.31c2.07-.34,4.24-.23,6.23-.81,4.84-1.38,9.62-3,14.35-4.68a3.42,3.42,0,0,0,2-2.34A32.51,32.51,0,0,0,1201.31,1551.75Z" transform="translate(-881.92 -1378.34)"/><path class="cls-1" d="M993.09,1540.33c.28-2.95.37-5.55.78-8.11,1-6.37,2.29-12.7,3.29-19.07a6,6,0,0,1,3.63-5.1c11.44-5.63,22.86-11.3,34.11-17.28,4.85-2.58,10.08-4.28,14.86-6.77,3.12-1.63,6-3.81,9.5-4.65,5.17-1.26,10.41-2.28,15.62-3.38,4.39-.93,8.77-1.91,13.19-2.74,6.18-1.17,12.39-2.24,18.58-3.33,6.35-1.13,12.75-2,19-3.43a84.12,84.12,0,0,1,15.87-1.7c2-.07,3.92-.25,5.89-.29a10.53,10.53,0,0,1,7.27,2.56c4.49,3.69,7.17,8.58,9.9,13.47s5.37,9.85,7.83,14.88c.89,1.83,1.15,4,1.77,6.19a108,108,0,0,0-10.34,3.26c-7.17,3.06-13.38,7.94-16.33,15-3.32,7.89-4.29,16.54-.54,25,2.5,5.63,4.35,11.63,9.71,15.43a54.65,54.65,0,0,0,7.65,5.09,42.91,42.91,0,0,0,26.64,3.84c3.84-.7,7.63-1.65,11.48-2.5a44.78,44.78,0,0,1,6.34,17.5c.54,4.54,2.15,9,3.52,13.39,2.45,7.85-.16,13.83-6.18,19-8,6.82-17.21,11.55-26.32,16.56-6.36,3.5-12.82,6.83-19.18,10.35-9.54,5.28-19.61,9.61-29.5,14.26-4.82,2.27-9.64,4.61-14.62,6.46-9.72,3.62-19.58,6.84-29.33,10.37-5.13,1.86-10.21,3.89-15.22,6a207.91,207.91,0,0,1-33.18,10.68c-8.73,2.12-17.42,4.41-26.14,6.58-2.18.54-4.39,1-6.59,1.38-8.42,1.55-16.85,3-25.26,4.63-11.92,2.28-23.73,1.56-35.49-1.11-1.47-.34-2.94-.64-5.47-1.19a61.5,61.5,0,0,1,6.53-2.66c13.47-3.58,26.17-9.2,39-14.44,11.82-4.82,23.9-9,35.94-13.31,13.49-4.79,27.06-9.34,40.59-14a25.51,25.51,0,0,0,3.07-1.38c11.36-5.81,23.55-9.91,34.39-16.78,5.81-3.69,10.83-8.35,13.28-14.77,1.27-3.32,2.45-7.23-.41-11.12-1.72-2.33-1.79-5.82-2.79-8.72-4.79-13.93-9.56-27.87-14.49-41.75-3.72-10.45-7.54-20.86-11.56-31.19-2.56-6.59-6-12.61-12-17-4.17-3.05-8.85-4-13.72-4.73a2.51,2.51,0,0,0-1.25.06c-8.52,3.43-17.38,5.89-25.44,10.64-11.58,6.82-23.6,12.9-35.44,19.27A13.64,13.64,0,0,1,993.09,1540.33Zm110.15,115,.33.73c1.69-.51,3.38-1,5.06-1.53,1.47-.45,2.91-1,4.39-1.37,5.27-1.48,10.31-3.39,14.73-6.79,5.54-4.26,10.11-9.36,10.62-16.48a58.35,58.35,0,0,0-1.18-16.73c-2.13-9.42-5.16-18.63-7.83-27.93-.66-2.28-1.26-4.59-2.08-6.82-2.56-7-5.36-13.88-7.8-20.91-3.84-11-8-21.89-13.41-32.22-3.72-7.07-7.64-14-11.44-21.06-.67-1.23-1-2.71-1.83-3.77a53.59,53.59,0,0,0-17.55-14.75,9.82,9.82,0,0,0-4-1.1c-3.2-.08-6.43.37-9.62.18-10.23-.62-17.6,5.22-25.46,10.53.45.34.61.53.66.5,3.48-1.74,7.22-2.61,10.92-3.73,4.15-1.26,8.17-2.72,12.53-3.21a27.89,27.89,0,0,1,18.54,4.08c8.22,5.24,13.48,13.11,17.47,21.7,5,10.8,9.46,21.87,14.1,32.84,4,9.55,8.14,19.09,12,28.72,6.08,15.09,9.87,30.75,10.34,47.06.19,6.3-1.09,12.36-6.37,16.72-2,1.66-4.11,3.27-6.21,4.83a74.15,74.15,0,0,1-15.42,9.36A7.26,7.26,0,0,0,1103.24,1655.36Z" transform="translate(-881.92 -1378.34)"/><path class="cls-2" d="M993.39,1545.61c7.34-4.3,14.21-8.36,21.12-12.35,2.91-1.68,5.87-3.29,8.88-4.78,7.93-3.9,15.86-7.81,23.88-11.52a51.4,51.4,0,0,1,8.39-2.73,7,7,0,0,1,6.49,1.52,77.09,77.09,0,0,1-5,17.67c-7.12,17.54-14.47,35-21.72,52.47a22.81,22.81,0,0,0-2.19,10.24l73.9,25c.7,2.18-.19,4-1.91,5.76a70.38,70.38,0,0,1-22.84,15.57c-13.07,5.46-26.16,11.08-39.7,15.13-15.54,4.64-30.16,11.46-45.32,17-11.61,4.21-23.1,8.72-34.66,13.05-3.93,1.47-7.85,3-11.88,4.15-5.52,1.55-11.13,2.8-16.74,4a23.26,23.26,0,0,1-4.74,0c-.33-2.59.76-4.56,1.76-6.5,2.66-5.1,5.55-10.09,8.1-15.25,4.36-8.79,8.58-17.65,12.76-26.53,2.39-5.07,4.56-10.23,6.9-15.33.52-1.13,1.41-2.09,2-3.22a28.78,28.78,0,0,0,1.17-3.28l-73.42-23c.29-1,.29-2,.83-2.62a26.54,26.54,0,0,1,5.27-4.8c9.64-5.72,19.2-11.6,29.54-16.07,5.53-2.4,10.91-5.16,16.36-7.74,1.37-.65,2.77-1.24,4.53-2,5.13,8.67,7.31,18.19,11.13,27s6.75,17.73,10,26.36c4.23.47,7.21-1,10.25-2.88a166.77,166.77,0,0,1,29.51-14.24c2.48-.9,5-1.78,7.5-2.56a4.11,4.11,0,0,0,2.44-5.74c-6.45-11.2-10.49-23.45-15.56-35.25-1.72-4-3.71-7.86-5.48-11.83A43.81,43.81,0,0,1,993.39,1545.61Z" transform="translate(-881.92 -1378.34)"/><path class="cls-3" d="M1303.05,1447c1.68,1.37,4,2.72,5.64,4.68,6.11,7.52,9.74,16.32,12.5,25.51,1,3.19.8,3-1.93,5.07-5.86,4.42-13,5.74-19.51,8.76-6.22,2.9-12.55,5.59-18.82,8.37-8.6,3.8-17.27,7.44-25.74,11.49-4.25,2-8.7,3.73-12.41,6.91-2.51,2.17-5.91,3.31-8.4,5.49-2.83,2.48-6.32,3.84-9.07,6.52s-6.33,4.11-9.5,6.18-6.49,4.42-9.75,6.62-6.73,4.54-10.13,6.76c-2.47,1.6-4.36,1.3-6.33-.89-6.58-7.35-10.62-16.1-14-25.23-.52-1.43-.59-2.67.77-3.77,1.95-1.58,3.74-3.37,5.73-4.9,4.67-3.57,9.28-7.24,14.16-10.52,10.69-7.21,21.33-14.49,32.9-20.31,6.26-3.14,12.27-6.79,18.42-10.15,11.07-6.06,22.05-12.29,33.3-18,6.09-3.09,12.64-5.29,19-7.86A24.71,24.71,0,0,1,1303.05,1447Z" transform="translate(-881.92 -1378.34)"/><path class="cls-4" d="M1046.4,1413.9c.59-.91.73-1.33,1-1.55,9.19-6.71,18.47-13.24,29.83-15.93,4-.94,7.76-2.49,11.74-3.26,5.62-1.09,11.32-1.86,17-2.49,4.87-.54,9.79-.7,14.68-1,10.16-.68,20.21,0,29.87,3.39,11.93,4.13,23.84,8.33,35.56,13,4.77,1.9,9,5.15,13.49,7.75,4.85,2.79,9.91,5.26,14.53,8.38a142.44,142.44,0,0,1,14.61,11.28c4.91,4.34,9.35,9.2,14.59,14.43a66.3,66.3,0,0,1-6.26,2.64,149.35,149.35,0,0,0-25.22,10.47c-1.61.82-3.12,1.82-5,2.94-2.66-2.68-5.27-5.36-7.94-8-4.8-4.71-9.58-9.41-14.47-14-1.2-1.13-2.82-1.79-4.14-2.8-2.68-2-5.19-4.3-7.94-6.23-5.27-3.69-10.78-7.12-16.95-9.05-9.62-3-19.26-6.07-29.07-8.33a151.91,151.91,0,0,0-29.59-3.8c-10-.3-19.89-1.46-29.84-.36-6.11.67-12.19,1.7-18.28,2.54A19.39,19.39,0,0,1,1046.4,1413.9Z" transform="translate(-881.92 -1378.34)"/><path class="cls-5" d="M1121.82,1385.37c-5.12.58-10.25,1.05-15.35,1.78-6.94,1-13.85,2.22-20.78,3.29-9.11,1.41-17.57,4.69-25.74,8.86a58.42,58.42,0,0,1-6.44,3.08c-5.3,1.91-9.39,5.59-13.52,9.13-4.94,4.24-8,10-11.45,15.38-2.38,3.7-3.56,7.76-5.46,11.56-3.33,6.64-6.8,13.23-7.92,20.74a68.58,68.58,0,0,1-1.68,7.75c-1.88,6.91-.77,13.67.85,20.4.55,2.28,1.5,4.47,2.35,6.94l-49.22,28.11c-1.32-3.14-.83-6.4-.87-9.59-.11-7.75.24-15.51,2.5-23,3.55-11.65,6.54-23.53,12.73-34.21,5.29-9.13,11.08-17.9,18.48-25.49a133.39,133.39,0,0,1,11.47-11.1,110.93,110.93,0,0,1,14.56-9.93c7.29-4.18,14.75-8.12,22.37-11.64,6.35-2.92,13-5.16,19.59-7.55,2.89-1.06,6-1.66,8.89-2.62,7.83-2.57,16-3.09,24.09-3.26,6.84-.15,13.69.35,20.54.56Z" transform="translate(-881.92 -1378.34)"/><path class="cls-6" d="M1068,1518c7.24,2.55,10.58,7.85,12.88,13.81,4.68,12.15,9.12,24.39,13.57,36.63,3.25,9,6.48,17.91,9.46,27,1.83,5.56,3.2,11.28,4.72,17a14.47,14.47,0,0,1,0,3c-24-8.12-48-15-71.5-24.44,3.49-.57,3.83-3.1,4.73-5.65,3.61-10.31,7.6-20.49,11.38-30.75,1.6-4.33,2.9-8.79,4.57-13.09,2.08-5.34,4.4-10.58,6.62-15.87.54-1.29,1-2.61,1.58-3.88S1067.29,1519.34,1068,1518Z" transform="translate(-881.92 -1378.34)"/><path class="cls-6" d="M888.05,1605.81c22.48,7.31,45.28,12.68,67.33,21.3-11.3,22.52-21.46,45.35-33,67.77a18.22,18.22,0,0,1-6.67-5.63,84.12,84.12,0,0,1-13.61-24.48c-2.37-6.88-5.22-13.6-7.6-20.48-3.31-9.53-6.42-19.13-7.62-29.22C886.57,1612.1,886.41,1609.21,888.05,1605.81Z" transform="translate(-881.92 -1378.34)"/><path class="cls-1" d="M948.74,1568c7.07-3.27,13.86-6.21,20.46-9.54s13-7,20-10.84c8.89,16.12,14.66,32.89,21.61,49.29-5.19,4.12-10.82,6.37-16.35,8.59-5,2-9.92,3.73-14.6,6.39-3.61,2.06-7.66,3.34-12.06,5.19-4.14-8-5.73-16.76-9.31-24.73S951.18,1576.39,948.74,1568Z" transform="translate(-881.92 -1378.34)"/><path class="cls-7" d="M1197.41,1475.41c4.68-5,10.37-6.56,15.37-9.32a65.42,65.42,0,0,1,7.27-3.33c3.9-1.57,7.79-3.19,11.78-4.48,9.47-3.07,18.93-6.23,28.53-8.82,8-2.14,16.13-3.68,24.27-5.15a22.35,22.35,0,0,1,9.29.73l-20.33,10.48c-6.86,3.54-13.77,7-20.55,10.63s-13.42,7.64-20.2,11.34-13.62,7.24-20.63,11a7,7,0,0,1-1.26-1.76c-.71-2.5-2.57-3.94-4.59-5.27C1203.47,1479.49,1200.6,1477.55,1197.41,1475.41Z" transform="translate(-881.92 -1378.34)"/><path class="cls-1" d="M891.69,1592.68c.5-7.52,4.74-12.38,8.83-17.32,4.89-5.9,11.07-10.29,17.2-14.73q11.71-8.49,23.61-16.77c2.95-2,6.1-3.82,9.73-6.07a30.65,30.65,0,0,1,0,4.28c-1.19,7.16-2.42,14.32-3.78,21.46a3.76,3.76,0,0,1-1.8,2.4c-8,3.76-16.05,7.38-24.08,11-1.15.53-2.31,1-3.41,1.63-8,4.36-16,8.76-24,13.13C893.42,1592.05,892.77,1592.24,891.69,1592.68Z" transform="translate(-881.92 -1378.34)"/><path class="cls-1" d="M992.57,1512.49c-.17,1.57-.21,2.38-.35,3.16-1.66,8.8-3.4,17.59-4.94,26.42a3.9,3.9,0,0,1-2.35,3.11c-9.23,5-18.42,10.07-27.66,15-1.69.9-3.57,1.45-6.11,2.46a41.76,41.76,0,0,1,0-5.43c1-6.78,2.12-13.54,3.14-20.32.28-1.87,1.79-2.37,3.1-3.11,5.36-3,10.83-5.88,16.07-9.12,4.51-2.78,8.73-6,13.15-9C988.34,1514.58,990.22,1513.76,992.57,1512.49Z" transform="translate(-881.92 -1378.34)"/><path class="cls-8" d="M1220.7,1594c-1.2-2.91-2.1-5.38-3.22-7.75-2.75-5.81-5.58-11.59-8.43-17.37-1.2-2.43-1.84-4.74-1-7.59a13.67,13.67,0,0,0-.06-9.1c-.67-1.71-.11-3,1.32-4.37,5-4.93,11.09-8,17.62-11.38.91,1.89,2.16,3.53,2.46,5.32.74,4.53.89,9.16,1.55,13.71,1,7.21-.17,14.26-1.49,21.26A34.54,34.54,0,0,1,1220.7,1594Z" transform="translate(-881.92 -1378.34)"/><path class="cls-1" d="M1169.62,1518.4c3.19,7.2,6.25,14.1,9.29,21,2.3,5.22,6,9.42,9.89,13.48.89.94,2.29,1.41,4,2.41-1,1-1.66,2.23-2.71,2.77-6.61,3.34-13.49,3.14-20.38,1a8.6,8.6,0,0,1-3.55-2.13,38.81,38.81,0,0,1-5-6.15c-.77-1.23-2.13-2.61-.87-4.58.43-.67-.22-2.11-.51-3.17-.8-2.94-1.92-5.81-2.48-8.8-1.29-6.77,1.72-12,6.6-16.3a36.92,36.92,0,0,1,6-3.88,3.9,3.9,0,0,1,2.38-.42,2.15,2.15,0,0,1,1.51,1.18,2.05,2.05,0,0,1-.64,1.77A24.11,24.11,0,0,1,1169.62,1518.4Z" transform="translate(-881.92 -1378.34)"/><path class="cls-8" d="M1184.6,1507.24c-7.1-13.72-13.69-27.23-22.95-40.2,18.93,2,33.71,10.06,46.57,23.37-3.29,3.51-7.94,4.93-11.42,7.93S1189.15,1504,1184.6,1507.24Z" transform="translate(-881.92 -1378.34)"/><path class="cls-9" d="M1201.31,1551.75a32.51,32.51,0,0,1,.59,5.69,3.42,3.42,0,0,1-2,2.34c-4.73,1.7-9.51,3.3-14.35,4.68-2,.58-4.16.47-6.23.81a17.36,17.36,0,0,1-9.89-1.31c-8.09-3.51-15.68-7.49-18.44-16.92-1-3.46-3.1-6.5-3.34-10.32a47.2,47.2,0,0,1,2-15.75,12,12,0,0,1,3-4.52,38,38,0,0,1,21.69-12c2.87-.51,3.79-.11,5,2.53.45,1,.73,2.09,1.25,3.65-.4.23-.88.52-1.38.79s-1,.51-1.38.72c-.4-.15-.76-.17-.91-.36-2-2.41-4.3-2.94-7.07-1.44a3.84,3.84,0,0,1-1.22.31c-3.47.47-5.89,2.23-8.48,4.75-3.59,3.48-5.13,7.59-6.56,12-2.82,8.7.21,16.32,4.72,23.52a49.24,49.24,0,0,0,6,7.5,11.09,11.09,0,0,0,4.72,3.29c4.71,1.23,9.52,2.43,14.48,1.21,2.45-.6,5-1.06,7.33-1.88a6.5,6.5,0,0,0,4.66-4.31c.71-2.07,3-3.6,4.58-5.37Z" transform="translate(-881.92 -1378.34)"/><path d="M1103.24,1655.36a7.26,7.26,0,0,1,1.49-1.15,74.15,74.15,0,0,0,15.42-9.36c2.1-1.56,4.18-3.17,6.21-4.83,5.28-4.36,6.56-10.42,6.37-16.72-.47-16.31-4.26-32-10.34-47.06-3.87-9.63-8-19.17-12-28.72-4.64-11-9.08-22-14.1-32.84-4-8.59-9.25-16.46-17.47-21.7a27.89,27.89,0,0,0-18.54-4.08c-4.36.49-8.38,1.95-12.53,3.21-3.7,1.12-7.44,2-10.92,3.73,0,0-.21-.16-.66-.5,7.86-5.31,15.23-11.15,25.46-10.53,3.19.19,6.42-.26,9.62-.18a9.82,9.82,0,0,1,4,1.1,53.59,53.59,0,0,1,17.55,14.75c.85,1.06,1.16,2.54,1.83,3.77,3.8,7,7.72,14,11.44,21.06,5.43,10.33,9.57,21.21,13.41,32.22,2.44,7,5.24,13.93,7.8,20.91.82,2.23,1.42,4.54,2.08,6.82,2.67,9.3,5.7,18.51,7.83,27.93a58.35,58.35,0,0,1,1.18,16.73c-.51,7.12-5.08,12.22-10.62,16.48-4.42,3.4-9.46,5.31-14.73,6.79-1.48.42-2.92.92-4.39,1.37-1.68.52-3.37,1-5.06,1.53Z" transform="translate(-881.92 -1378.34)"/></svg>