<svg id="Layer_17" data-name="Layer 17" xmlns="http://www.w3.org/2000/svg" xmlns:xlink="http://www.w3.org/1999/xlink" viewBox="0 0 340.12 513.93"><defs><style>.cls-1{fill:url(#linear-gradient);}.cls-2{fill:url(#radial-gradient);}.cls-3{fill:url(#radial-gradient-2);}.cls-4{fill:#8c2a2a;}.cls-5{fill:url(#radial-gradient-3);}.cls-6{fill:url(#radial-gradient-4);}.cls-7{fill:url(#radial-gradient-5);}.cls-8{fill:url(#radial-gradient-6);}.cls-9{fill:url(#radial-gradient-7);}.cls-10{fill:url(#linear-gradient-2);}.cls-11{fill:#cdeea9;}.cls-12{fill:#19481b;}.cls-13{fill:#accf5e;}.cls-14{fill:#46903a;}.cls-15{fill:#40932d;}.cls-16{fill:url(#radial-gradient-8);}.cls-17{fill:url(#radial-gradient-9);}.cls-18{fill:url(#radial-gradient-10);}.cls-19{fill:url(#radial-gradient-11);}.cls-20{fill:url(#radial-gradient-12);}.cls-21{fill:url(#radial-gradient-13);}.cls-22{fill:url(#radial-gradient-14);}.cls-23{fill:#fff;}.cls-24{fill:url(#radial-gradient-15);}.cls-25{fill:#51b336;}.cls-26{fill:url(#radial-gradient-17);}.cls-27{fill:url(#radial-gradient-18);}.cls-28{fill:url(#radial-gradient-19);}.cls-29{fill:url(#radial-gradient-20);}.cls-30{fill:url(#radial-gradient-21);}</style><linearGradient id="linear-gradient" x1="1027.43" y1="2338.4" x2="1050.97" y2="2332.59" gradientUnits="userSpaceOnUse"><stop offset="0" stop-color="#cfe9ff"/><stop offset="0.12" stop-color="#cce4fa"/><stop offset="0.27" stop-color="#c2d6ea"/><stop offset="0.43" stop-color="#b1c0d0"/><stop offset="0.61" stop-color="#9aa0ac"/><stop offset="0.8" stop-color="#7c777e"/><stop offset="0.99" stop-color="#594747"/><stop offset="1" stop-color="#574444"/></linearGradient><radialGradient id="radial-gradient" cx="1122.51" cy="2366.01" r="101.1" gradientUnits="userSpaceOnUse"><stop offset="0" stop-color="#f0c7b9"/><stop offset="0.15" stop-color="#edc2b3"/><stop offset="0.36" stop-color="#e3b4a3"/><stop offset="0.58" stop-color="#d39c88"/><stop offset="0.83" stop-color="#bd7b63"/><stop offset="1" stop-color="#ab6044"/></radialGradient><radialGradient id="radial-gradient-2" cx="1097.31" cy="2355.49" r="30.05" gradientUnits="userSpaceOnUse"><stop offset="0" stop-color="#cc8e78"/><stop offset="0.26" stop-color="#c88972"/><stop offset="0.59" stop-color="#be7a62"/><stop offset="0.96" stop-color="#ad6347"/><stop offset="1" stop-color="#ab6044"/></radialGradient><radialGradient id="radial-gradient-3" cx="1025.04" cy="2152.66" r="164.14" gradientUnits="userSpaceOnUse"><stop offset="0" stop-color="#fff"/><stop offset="0.18" stop-color="#fafafa"/><stop offset="0.41" stop-color="#ebeaea"/><stop offset="0.66" stop-color="#d3d1d0"/><stop offset="0.93" stop-color="#b2afad"/><stop offset="1" stop-color="#a8a4a2"/></radialGradient><radialGradient id="radial-gradient-4" cx="1029.64" cy="2204.94" r="77.23" xlink:href="#radial-gradient-3"/><radialGradient id="radial-gradient-5" cx="1045.26" cy="2178.17" r="29.28" gradientUnits="userSpaceOnUse"><stop offset="0" stop-color="#ff9500"/><stop offset="0.15" stop-color="#fd9001"/><stop offset="0.33" stop-color="#f78003"/><stop offset="0.53" stop-color="#ed6606"/><stop offset="0.75" stop-color="#df430a"/><stop offset="0.98" stop-color="#ce150f"/><stop offset="1" stop-color="#cc1010"/></radialGradient><radialGradient id="radial-gradient-6" cx="1035.62" cy="2184.47" r="129.8" gradientUnits="userSpaceOnUse"><stop offset="0" stop-color="#fff"/><stop offset="1" stop-color="#70cfff"/></radialGradient><radialGradient id="radial-gradient-7" cx="966.95" cy="2146.76" r="299.37" xlink:href="#radial-gradient-6"/><linearGradient id="linear-gradient-2" x1="1059.2" y1="2467.22" x2="1082.74" y2="2461.42" xlink:href="#linear-gradient"/><radialGradient id="radial-gradient-8" cx="1083.71" cy="1969.26" r="12.09" gradientUnits="userSpaceOnUse"><stop offset="0" stop-color="#accf5e"/><stop offset="0.14" stop-color="#a7ca5c"/><stop offset="0.31" stop-color="#97bc54"/><stop offset="0.5" stop-color="#7da449"/><stop offset="0.71" stop-color="#598338"/><stop offset="0.92" stop-color="#2c5924"/><stop offset="1" stop-color="#19481b"/></radialGradient><radialGradient id="radial-gradient-9" cx="928.12" cy="2121" r="344.13" xlink:href="#linear-gradient"/><radialGradient id="radial-gradient-10" cx="1036.65" cy="2312.72" r="18.81" gradientTransform="translate(1530.25 1100.13) rotate(74.51) scale(1 0.35)" xlink:href="#linear-gradient"/><radialGradient id="radial-gradient-11" cx="1054.79" cy="2381.01" r="91.46" xlink:href="#radial-gradient-2"/><radialGradient id="radial-gradient-12" cx="1034.3" cy="2351.6" r="4.32" xlink:href="#radial-gradient-2"/><radialGradient id="radial-gradient-13" cx="1179.52" cy="2203.39" r="82.39" xlink:href="#radial-gradient-2"/><radialGradient id="radial-gradient-14" cx="1155.99" cy="2147.51" r="68.42" xlink:href="#radial-gradient-2"/><radialGradient id="radial-gradient-15" cx="1181.88" cy="2145.96" r="1.16" xlink:href="#radial-gradient-3"/><radialGradient id="radial-gradient-17" cx="1165.77" cy="2242.07" r="18.16" gradientTransform="translate(2474.81 2253.39) rotate(153.43) scale(1 0.27)" gradientUnits="userSpaceOnUse"><stop offset="0" stop-color="#df9ca3"/><stop offset="0.48" stop-color="#b57379"/><stop offset="1" stop-color="#8b4b50"/></radialGradient><radialGradient id="radial-gradient-18" cx="1199.58" cy="2153.14" r="108.22" xlink:href="#radial-gradient-3"/><radialGradient id="radial-gradient-19" cx="1189.6" cy="2143.4" r="8.12" xlink:href="#radial-gradient-5"/><radialGradient id="radial-gradient-20" cx="1184.93" cy="2144.5" r="25.93" xlink:href="#radial-gradient-3"/><radialGradient id="radial-gradient-21" cx="1195.29" cy="2127.93" r="2.4" xlink:href="#radial-gradient-2"/></defs><path class="cls-1" d="M1038.5,2319.59c-2.82.68-3.26,3.07-3.91,5.27.1.45.16.82.26,1.18,2.17,7.7,4.42,15.37,6.48,23.1.52,1.94,1.75,1.5,2.79,1.2q7.71-2.21,15.34-4.7a2.32,2.32,0,0,0,1-2,65.06,65.06,0,0,0-2-9c-1.29-4-2.19-8.44-4.66-11.6C1050,2318.23,1044.21,2318.22,1038.5,2319.59Z" transform="translate(-895.73 -1959.05)"/><path class="cls-2" d="M1116.42,2358.06c-2.48.11-3.8,3.25-2.55,5.53,1.39,2.56,2.81,5.12,4.44,7.52,1.32,1.94,3.51,1.45,4.93.47a79.84,79.84,0,0,0,7.17-6.27c-2.31-2-4.58-4.47-7.36-6.09A12.6,12.6,0,0,0,1116.42,2358.06Z" transform="translate(-895.73 -1959.05)"/><path class="cls-3" d="M1063.4,2344.43c4.87-.18,10.47-.37,16.08-.6,4-.17,8,.06,10.92,3.32,4.1,4.52,7.94,9.29,12.26,13.57,3.47,3.42,4,7.31,3.13,11.64s.2,6.27,4.49,6.49a107.25,107.25,0,0,0,13.77-.23c3.85-.3,5.5-4,8.06-6.24.75-.64.44-2.51.62-3.81a6.79,6.79,0,0,0-7.41,3.31c-2,3.06-5.87,3.14-7.87.1a73.1,73.1,0,0,1-5.7-10,5.26,5.26,0,0,1,.79-4.48c1.08-1.34,3-2,4.75-3-5.44-6.09-11-12.43-16.75-18.65-.57-.62-1.86-.67-2.84-.81-5.74-.81-11.51-1.42-17.23-2.38-3.48-.59-6.88-1.08-10.28.15-2,.73-3.93,1.69-6,2.33s-2.84,1.44-2,3.67A38.54,38.54,0,0,1,1063.4,2344.43Z" transform="translate(-895.73 -1959.05)"/><path class="cls-4" d="M931.1,2117.27l-.26-.22-.89,1.1.31.33Z" transform="translate(-895.73 -1959.05)"/><path class="cls-5" d="M1037.15,2164.07c2.12-.58,3.54-2.1,3.22-4.15-.1-.6-2.73-1-4.24-1.13a3.58,3.58,0,0,0-2.65.63c-.87.89-1.84,2.24-1.77,3.34,0,.79,1.69,1.5,2.4,2.06C1035.52,2164.47,1036.34,2164.3,1037.15,2164.07Z" transform="translate(-895.73 -1959.05)"/><path class="cls-6" d="M1002.89,2161.79s-2.59,1-3.35,1.3q-7.81,2.77-15.61,5.61a2.47,2.47,0,0,0-1.4.91,2.55,2.55,0,0,0,.2,2.19c3.22,7.53,7,14.89,12.17,21.25,12.79,15.76,33.74,24.11,54,22.73,19.93-1.37,38.36-11.31,58.16-13.89,2.77-.36,9-.53,6.62-4.6a65.86,65.86,0,0,0-6.86-9.33,87.79,87.79,0,0,0-16.81-15.4l-.26-.18a50.67,50.67,0,0,1-27.16,25.15,45.79,45.79,0,0,1-36.76-1.85,41.85,41.85,0,0,1-21.89-29.32C1003.67,2164.94,1002.89,2161.79,1002.89,2161.79Z" transform="translate(-895.73 -1959.05)"/><path class="cls-7" d="M1020,2163.05c-.33-1.49-.86-4.31-.86-4.31l-10.47,1.31s2.12,15.29,4.65,21c4.34,9.86,13.54,13.76,23.36,15.7a55,55,0,0,0,15.75.45c6.13-.6,12.06-2.09,17.29-6.13a32.16,32.16,0,0,0,11.86-18.52c.42-1.72.33-4.24-.67-5.45-1.24-1.5-3.66-2-5.64-3a38.27,38.27,0,0,1-10.23,14.32,26.93,26.93,0,0,1-30.12,3.63C1027,2177.92,1022,2171.77,1020,2163.05Z" transform="translate(-895.73 -1959.05)"/><path class="cls-8" d="M1124.72,2213.57c-.19-2.93-4.06-3.86-7-3.65-6.82.5-13.38,2.77-19.81,5.12q-12.17,4.46-24.13,9.39a5.72,5.72,0,0,0-2.83,1.93c-.93,1.47-.34,3.41.51,4.93a17.32,17.32,0,0,0,19,8,18.31,18.31,0,0,1-22.9,2.35c-4.33-3-7.3-7.88-12.12-10s-10.33-1-15.44.22a3.05,3.05,0,0,0-1.94,1,2.93,2.93,0,0,0-.14,2.33,36.55,36.55,0,0,0,16.89,23c-15.64,4.06-29-15.58-45.09-14.41-3.45.26-6.76,1.48-10.2,1.88s-7.31-.21-9.51-2.88a40.47,40.47,0,0,0,8.07-5.18c2.79-2.29,5.41-5.29,5.58-8.89s-3.4-7.37-6.78-6.13a48.88,48.88,0,0,0-8.75,23c-6.75-4.18-6.28-13.85-7.24-21.73-1.78-14.49-10.87-26.88-19.65-38.55-2.19-2.9-4.48-5.89-7.66-7.64s-7.54-1.93-10.17.59c-3.28,3.13-2.42,8.48-1.32,12.88-1.62,1-3.53-.74-4.49-2.36-6.28-10.64-2.64-25.94,7.75-32.62a6.1,6.1,0,0,0,2.66-2.48c1-2.63-2.15-4.8-3.69-7.17-2.23-3.47-.69-8.34,2.34-11.13s7.14-4,11.1-5.15c1.24-.35,2.84-.59,3.58.46a3.63,3.63,0,0,1,.29,2.38,13.43,13.43,0,0,0,4,10.55,2.68,2.68,0,0,0,1.7.94c1.61,0,2.11-2.16,2-3.76a36.79,36.79,0,0,0-5.68-16.57l34.49-5.54a3.8,3.8,0,0,1,2.22.09c1.46.69,1.44,2.73,1.39,4.35a19.51,19.51,0,0,0,7.39,15.67l.4.3q-3-12.24-6-24.49a52.92,52.92,0,0,0,36-.09q-.63,12.55-1.24,25.1a4.45,4.45,0,0,0,.59,3.08,4.09,4.09,0,0,0,2.18,1.17c3.52,1,7.54,1.05,10.61-.94s4.61-6.51,2.51-9.51-6.3-3.22-9.21-5.32c-5.78-4.18-3.36-14.45,3.11-17.47s14.37-.25,19.67,4.53c8.82,8,12.12,20.41,12.77,32.27.14,2.61.72,5.93,3.28,6.48a49.72,49.72,0,0,1,26.91-22.51,31.89,31.89,0,0,0-6.85,27.8c1.4,5.93,4.49,11.3,7.55,16.58l9.15,15.82,4.46,7.71c1,1.66,2.58,6.19,4.46,6.72,1.13-2.29,1-6,1.26-8.59q.43-4.53.57-9.09a137,137,0,0,0-.67-18.23,128.26,128.26,0,0,0-8.67-35.13,106.7,106.7,0,0,0-25.39-37.55c-26.12-24.55-65.57-33.54-100.06-23.77s-63.08,37.58-74.81,71.45c-7.34,21.19-8.33,44.73-1.59,66.12,5.73,18.17,16.87,34.42,30.88,47.33,18.28,16.83,42,28.21,66.76,29.79,22.91,1.46,46.11-5.53,64.92-18.68s33.23-32.26,41.56-53.64A6,6,0,0,0,1124.72,2213.57Z" transform="translate(-895.73 -1959.05)"/><path class="cls-9" d="M1019.83,2288.47C930,2274.54,915.51,2217.23,915.51,2175s20.7-84.17,82.39-96.37,102.05,36,102.05,36-57-35.85-103.7-22.82-71.44,47.52-71.22,87.33c.11,19.18,7,40.15,32.08,61.62,77.19,66,157.76-21.74,164.72-16.81-6.56,12.69-19.38,36-44.63,49.23C1053.62,2285.58,1025.35,2289.33,1019.83,2288.47Z" transform="translate(-895.73 -1959.05)"/><path class="cls-10" d="M1083,2453.63q-8.18,2.07-16.24,4.57c-.52.15-1,1.6-.91,2.31.91,4.55,6.94,9.41,12.42,9.64a12.51,12.51,0,0,0,9.38-5.85c2.06-3.45.61-6.93-1.88-9.78A3.37,3.37,0,0,0,1083,2453.63Z" transform="translate(-895.73 -1959.05)"/><path class="cls-11" d="M1087.71,1982.9a10.63,10.63,0,0,1,.49,1.64c.3,1.38.34,2.81.59,5a20.64,20.64,0,0,1-.93,4.12c-1.61,4-3.42,7.92-5.2,11.85-3.59,7.88-7.41,15.66-10.76,23.64-3.54,8.46-5.83,17.28-5.73,26.58,0,1.58.22,2.78,2.19,3.32a24.74,24.74,0,0,1,6.44,2.79c6.61,4.12,13.33,8.11,19.58,12.73A125.33,125.33,0,0,1,1117.7,2097a3.73,3.73,0,0,0,2.68,1.44,49.67,49.67,0,0,0,8-1.72c16.1-4.88,30.57-13.16,44.8-21.85a42.44,42.44,0,0,0,8.06-6.13c3.43-3.5,7.93-6.3,5.66-12.95-3.33-9.75-5.49-19.77-12-28.27a113.89,113.89,0,0,0-25-24.16,129,129,0,0,0-12.55-8.11c-7.5-4.06-15-8.39-23-11.22-3.54-1.25-6.64-3.31-10.21-4.37-2-.61-3.9-1.33-5.93.1C1097.29,1980.34,1090,1982.36,1087.71,1982.9Z" transform="translate(-895.73 -1959.05)"/><path class="cls-12" d="M1094.36,2081.22a126.13,126.13,0,0,0,12.8,21.75c-1.53.23-3.1.43-4.67.61l-9.75-22Z" transform="translate(-895.73 -1959.05)"/><path class="cls-13" d="M1154.11,2060.12a236.22,236.22,0,0,1,9.16,22.59,160,160,0,0,1-30.89,14.21c-4.32-7.57-8.48-15.24-12.41-23.07A267.59,267.59,0,0,0,1154.11,2060.12Z" transform="translate(-895.73 -1959.05)"/><path class="cls-13" d="M1193.38,2059.65a122.64,122.64,0,0,1-13.86,12.11c-.64-4.2-3.21-12.15-7.88-21.79a79.88,79.88,0,0,0,12-9.87Z" transform="translate(-895.73 -1959.05)"/><path class="cls-13" d="M1081.3,2036.07a130,130,0,0,0,4.15,21.32,174.27,174.27,0,0,1-21.74,2.56l3.5-21.29S1072.8,2037.91,1081.3,2036.07Z" transform="translate(-895.73 -1959.05)"/><path class="cls-13" d="M1130.44,2019.23q6.3,9,11.79,18.33a210.28,210.28,0,0,1-32.78,13.77q-4.31-10-8.1-20.47A172,172,0,0,0,1130.44,2019.23Z" transform="translate(-895.73 -1959.05)"/><path class="cls-13" d="M1170.3,2019.82a137.57,137.57,0,0,1-11.58,8.19,152,152,0,0,0-14.29-17.51,68.32,68.32,0,0,0,7.74-6.75Z" transform="translate(-895.73 -1959.05)"/><path class="cls-12" d="M1179.52,2071.76a164,164,0,0,1-16.25,10.95,236.22,236.22,0,0,0-9.16-22.59,142.46,142.46,0,0,0,17.53-10.15C1176.31,2059.61,1178.88,2067.56,1179.52,2071.76Z" transform="translate(-895.73 -1959.05)"/><path class="cls-14" d="M1171.64,2050a142.46,142.46,0,0,1-17.53,10.15q-5.33-11.48-11.88-22.56c6.55-3.41,12.09-6.73,16.49-9.55A161,161,0,0,1,1171.64,2050Z" transform="translate(-895.73 -1959.05)"/><path class="cls-12" d="M1158.72,2028c-4.4,2.82-9.94,6.14-16.49,9.55q-5.48-9.3-11.79-18.33a98.92,98.92,0,0,0,14-8.73A152,152,0,0,1,1158.72,2028Z" transform="translate(-895.73 -1959.05)"/><path class="cls-14" d="M1144.43,2010.5a98.92,98.92,0,0,1-14,8.73q-7.76-11.13-16.7-21.9a90.09,90.09,0,0,0,9.78-4.69A129.8,129.8,0,0,1,1144.43,2010.5Z" transform="translate(-895.73 -1959.05)"/><path class="cls-13" d="M1098.34,1979.8v-.22a101.39,101.39,0,0,1-11.84,2.87l-5.85,21.3s.72,0,2,0a92.51,92.51,0,0,1,5.71-18.14c1.28,5.93,2.68,11.71,4.21,17.38a89.54,89.54,0,0,0,21.14-5.7q-7.32-8.82-15.4-17.41v0l-.18-.19Z" transform="translate(-895.73 -1959.05)"/><path class="cls-13" d="M1123.52,1992.64c2.18-1.22,4.37-2.57,6.57-4.07l-27.38-10.9s-.76.73-4.37,1.91v.22A110.05,110.05,0,0,1,1123.52,1992.64Z" transform="translate(-895.73 -1959.05)"/><path class="cls-12" d="M1123.52,1992.64a90.09,90.09,0,0,1-9.78,4.69q-7.4-8.92-15.58-17.6A110.15,110.15,0,0,1,1123.52,1992.64Z" transform="translate(-895.73 -1959.05)"/><path class="cls-15" d="M1179.18,2075l-15.58,8.67c-.11-.31-.21-.62-.33-.93a164,164,0,0,0,16.25-10.95C1179.82,2073.72,1179.7,2074.87,1179.18,2075Z" transform="translate(-895.73 -1959.05)"/><path class="cls-12" d="M1092.6,2003a75.11,75.11,0,0,1-9.92.76,92.51,92.51,0,0,1,5.71-18.14C1089.67,1991.58,1091.07,1997.36,1092.6,2003Z" transform="translate(-895.73 -1959.05)"/><path class="cls-14" d="M1101.35,2030.86c-7.45,2.29-14.4,4-20,5.21a104.44,104.44,0,0,1,1.38-32.28,75.11,75.11,0,0,0,9.92-.76C1095.19,2012.63,1098.12,2021.88,1101.35,2030.86Z" transform="translate(-895.73 -1959.05)"/><path class="cls-12" d="M1109.45,2051.33a189,189,0,0,1-24,6.06,130,130,0,0,1-4.15-21.32c5.65-1.22,12.6-2.92,20-5.21Q1105.13,2041.33,1109.45,2051.33Z" transform="translate(-895.73 -1959.05)"/><path class="cls-14" d="M1120,2073.85c-12.09,4-21.89,6.48-25.61,7.37a152.12,152.12,0,0,1-8.91-23.83,189,189,0,0,0,24-6.06Q1114.39,2062.85,1120,2073.85Z" transform="translate(-895.73 -1959.05)"/><path class="cls-12" d="M1132.38,2096.92a145.66,145.66,0,0,1-25.22,6,126.13,126.13,0,0,1-12.8-21.75c3.72-.89,13.52-3.38,25.61-7.37C1123.9,2081.68,1128.06,2089.35,1132.38,2096.92Z" transform="translate(-895.73 -1959.05)"/><path class="cls-15" d="M1132.85,2097.73l-20.84,9.86c-.46.39-2.29-1.28-4.85-4.62a145.66,145.66,0,0,0,25.22-6Z" transform="translate(-895.73 -1959.05)"/><path class="cls-11" d="M1108.72,1979.7a8.39,8.39,0,0,0,2.92,1.22,121.67,121.67,0,0,1,83.53,80.86c-.07-.24,1.5-1.35,1.61-1.78.2-.75-.38-2.24-.53-3q-.55-3-1.25-5.88-1.38-5.87-3.27-11.59a115.28,115.28,0,0,0-9.8-21.87,96.56,96.56,0,0,0-12.12-16.58c-13.84-15.14-33.49-25.48-53.9-26.12-1.44,0-2.88,0-4.33,0s-3.52.45-4,2A2.7,2.7,0,0,0,1108.72,1979.7Z" transform="translate(-895.73 -1959.05)"/><path class="cls-12" d="M1200.8,2060c-3.51,4.34-2.13-1.06-7.42,4.1-4.39-6.82-9.82-26.81-14.92-33.19,5.29-4.44,4.7-3.76,9-8.62C1194.32,2030.5,1199.19,2056,1200.8,2060Z" transform="translate(-895.73 -1959.05)"/><path class="cls-14" d="M1187.51,2022.24c-4.35,4.86-3.76,4.18-9,8.62-5.25-6.6-10.51-13.45-16.49-19.6a123.69,123.69,0,0,0,10.7-10.44C1179.7,2007,1182.75,2016.46,1187.51,2022.24Z" transform="translate(-895.73 -1959.05)"/><path class="cls-12" d="M1172.67,2000.82a123.69,123.69,0,0,1-10.7,10.44c-5-5.17-11.71-8.9-17.22-13.76a74.52,74.52,0,0,0,9.9-10.32A148.57,148.57,0,0,1,1172.67,2000.82Z" transform="translate(-895.73 -1959.05)"/><path class="cls-14" d="M1154.65,1987.18a99.19,99.19,0,0,1-11.53,11.78c-12.4-11-41.77-19.23-37.1-21.33C1109.45,1968,1140,1977.71,1154.65,1987.18Z" transform="translate(-895.73 -1959.05)"/><path class="cls-12" d="M1137.3,1978.13c-1.14,4.26-2.77,7.52-7.92,10.44,0,0-18.43-5.18-23.93-10,4.2-3.69,0,0,3.4-4.17C1118.88,1972.23,1137.3,1978.13,1137.3,1978.13Z" transform="translate(-895.73 -1959.05)"/><path class="cls-16" d="M1081.9,1979.5c2.38,0,4,.59,5.07,2a31.63,31.63,0,0,1,4.17-1.07c2.33-.31,7-2.86,7.61-5.24,1.29-5.45-3.37-11.75-9.25-12.17-2.1-.15-4.44-.35-6.33.37-6,2.34-6.7,10.61-3.33,15.18A2.87,2.87,0,0,0,1081.9,1979.5Z" transform="translate(-895.73 -1959.05)"/><path class="cls-13" d="M1073.46,2017.41c-2.16,5.87-4.24,11.78-6.28,17.69-2.88-.53-12-2.17-21.46-3.47a172.76,172.76,0,0,1,10.49-18.79C1062.29,2013.58,1068.69,2014.94,1073.46,2017.41Z" transform="translate(-895.73 -1959.05)"/><path class="cls-13" d="M1084.77,1990.47c-1.85,4.31-3.82,8.57-5.71,12.87-2.57-.65-8-1.93-14.12-2.9a139.38,139.38,0,0,1,15.4-17.13C1084,1983,1086.31,1986.88,1084.77,1990.47Z" transform="translate(-895.73 -1959.05)"/><path class="cls-12" d="M1079.06,2003.34c-1.33,3-2.61,6.07-3.77,9.16-.62,1.64-1.23,3.27-1.83,4.91-4.77-2.47-11.17-3.83-17.25-4.57,3-4.65,5.93-8.79,8.73-12.4C1071,2001.41,1076.49,2002.69,1079.06,2003.34Z" transform="translate(-895.73 -1959.05)"/><path class="cls-14" d="M1052.05,1999.18q-.73.72-1.44,1.47c-3.61,3.83-7.54,7.42-11,11.38h-.3c-1.13,0-1.78,0-1.78,0l11.73-12.87c.52,0,1,0,1.58,0Z" transform="translate(-895.73 -1959.05)"/><path class="cls-14" d="M1080.65,2003.75l-6.07,14.28c-.36-.21-.73-.42-1.12-.62.6-1.64,1.21-3.27,1.83-4.91,1.16-3.09,2.44-6.13,3.77-9.16C1080.08,2003.59,1080.65,2003.75,1080.65,2003.75Z" transform="translate(-895.73 -1959.05)"/><path class="cls-14" d="M1026,2030H1027c-1.94,3-3.83,6.11-5.71,9.18a54.74,54.74,0,0,0-3.14,6.11l-2,0v0l5.71-9.87L1025,2030Z" transform="translate(-895.73 -1959.05)"/><path class="cls-12" d="M1067.18,2035.1c-1.67,4.79-2.09,9.46-3.74,14.25-.3.86-2.25,8.61-2.25,8.61s-16.52-2.88-25-3.92c2-5.34,7.24-17.69,9.49-22.41C1055.19,2032.93,1064.3,2034.57,1067.18,2035.1Z" transform="translate(-895.73 -1959.05)"/><path class="cls-14" d="M1068.11,2035.28l-6.08,17.3-.36-.21a15.88,15.88,0,0,1,.54-2.9c1.66-4.79,3.3-9.58,5-14.37Z" transform="translate(-895.73 -1959.05)"/><path class="cls-14" d="M1045.72,2031.63c-2.25,4.72-7.53,17.07-9.49,22.41-8.88-1.07-18.48-.69-22.22-.78,1-2.16,6.14-12.19,7.32-14.11,1.88-3.07,3.77-6.13,5.71-9.18A161.73,161.73,0,0,1,1045.72,2031.63Z" transform="translate(-895.73 -1959.05)"/><path class="cls-11" d="M1056.21,2012.84a172.76,172.76,0,0,0-10.49,18.79A161.73,161.73,0,0,0,1027,2030c3.22-5.07,6.56-10.06,10.13-14.87.79-1,1.62-2.07,2.48-3.07A127.69,127.69,0,0,1,1056.21,2012.84Z" transform="translate(-895.73 -1959.05)"/><path class="cls-14" d="M1064.94,2000.44c-2.8,3.61-5.76,7.75-8.73,12.4a127.69,127.69,0,0,0-16.56-.81c3.42-4,7.35-7.55,11-11.38q.71-.75,1.44-1.47A92.32,92.32,0,0,1,1064.94,2000.44Z" transform="translate(-895.73 -1959.05)"/><path class="cls-11" d="M1080.34,1983.31a139.38,139.38,0,0,0-15.4,17.13,92.32,92.32,0,0,0-12.89-1.26c5.08-4.91,11.14-8.49,17.11-12.21a25,25,0,0,1,11.12-3.66Z" transform="translate(-895.73 -1959.05)"/><path class="cls-17" d="M1119.88,2252.55c3.87-4.82,7.79-9.86,10.36-15.41,3.75-8.09,6.52-16.66,9.3-25.16,4-12.15,3.86-24.85,4.65-40.1-.62-5.14-1.32-12.91-2.53-20.61-1.4-8.84-3.54-17.46-8.24-25.32-4-6.65-7.36-13.69-12.16-19.82-4.47-5.71-8.55-11.88-13.79-16.78-6.82-6.38-13.71-12.72-22-17.59a114.22,114.22,0,0,0-27-11.16c-4-1.15-8.39-1.25-12.45-2.37-9.28-2.57-18.76-2.92-28.25-2.92-3.91,0-7.8,1.23-11.73,1.55a103.14,103.14,0,0,0-26,6c-10.53,3.72-19.84,9.66-28.84,15.93-9.57,6.67-18.63,14.13-25.66,23.65-9,12.19-17.74,24.53-22.32,39.24a59.76,59.76,0,0,0-2.31,7.52c-1,6.09-2.08,12.22-2.59,18.38a119.84,119.84,0,0,0,2.23,35.39,83.84,83.84,0,0,0,4.2,12.5c2.26,5.75,4.31,11.64,7.26,17a157.88,157.88,0,0,0,19,27.61c10.44,12.07,23.19,20.76,36.77,28.61,6.4,3.7,13.34,5.61,20.46,6.95,9.7,1.84,19.4,4.26,29.2,4.88,15,.95,29.6-2.13,43.71-7.35a73.15,73.15,0,0,0,6.88-2.5c6.67-3.24,13.45-6.34,19.82-10.11a112.56,112.56,0,0,0,17.29-12.06A127.36,127.36,0,0,0,1119.88,2252.55Zm-33.26,17.66q-2.91,2.07-6,3.94a111.33,111.33,0,0,1-164.53-128.43A111,111,0,0,1,945.58,2099a127.38,127.38,0,0,1,26-18.69,119.93,119.93,0,0,1,38.21-13.71,97.07,97.07,0,0,1,12.14-1.19c31.84-1.08,63.94,13.49,84.69,37.85a111.92,111.92,0,0,1,17,27.07,122.2,122.2,0,0,1,9,30.73,124.49,124.49,0,0,1,.85,32.09c-.27,2.67-.64,5.33-1.09,8-.41,2.38-1.48,4.3-2.1,6.61a110.29,110.29,0,0,1-5.09,14.68,114.18,114.18,0,0,1-16,26.58A112.4,112.4,0,0,1,1086.62,2270.21Z" transform="translate(-895.73 -1959.05)"/><path class="cls-18" d="M1042.25,2315.14c4.52.08,9,.92,13.54,1.43a11.62,11.62,0,0,1,.79-3c1.83-3.39.92-6.8.19-10.16-.47-2.14-1.69-2.89-4.21-2.13a109,109,0,0,1-14,3.17c-4.16.68-8.41.79-12.61,1.31-.57.07-1.55,1.12-1.48,1.58.83,5.7,1.79,11.38,7.22,15.13C1034.08,2318.26,1037.29,2315.05,1042.25,2315.14Z" transform="translate(-895.73 -1959.05)"/><path class="cls-19" d="M1055.67,2399.81c4.93.49,9.9,1.22,14.82,1,5.52-.21,11-1.33,16.5-2,3.81-.49,7.54-1.52,11.49-.37a44.29,44.29,0,0,0,8.62,1.29,2.82,2.82,0,0,0,2.35-1.2c1.46-4.75-.73-10.84-4.81-13.84-3.26-2.39-6.49-4.82-9.85-7.07-4.06-2.7-8.53-4.7-13.49-4-6.31.94-12.53,2.38-18.79,3.64-1.83.38-3.74,1.46-5.44,1.18s-3.94-1.64-4.34-3c-.61-2,1.74-1.75,3.17-1.84,6.76-.39,13.63-.14,20.24-1.34,7.07-1.29,13.64-.26,20.27,1.65,1.95.57,3.68.93,5.06-.91,1.62-2.19,3.72-4.41,2-7.36a47.3,47.3,0,0,0-4.45-5.78c-2.22-2.71-4.36-5.5-6.79-8-2-2-4.25-5.1-6.54-5.23-7.57-.43-15.4-.74-22.75.77-9.8,2-19.41,5.37-28.78,9-6.7,2.57-13.1,6.06-17.87,11.94-3.08,3.79-6.74,7.94-6.59,12.42.17,4.91-2.13,8.14-3.94,11.89-2.23,4.63-3,9.37-1,14.19,1.14,2.84,2.9,5.44,4.25,8.22.28.57.1,2-.14,2.09-2.85.78-2.64,3.28-2.29,5a12.88,12.88,0,0,0,4.8,8,5,5,0,0,1,1.59,3.14c.33,2.7-.38,5.71.58,8.09,1.56,3.83,4,7.3,6.29,10.83a15.07,15.07,0,0,0,13.77,7.23c3.33-.07,6.65-.76,10-1.16a8.63,8.63,0,0,1-2.72,1.26c-3.38.81-6.77,1.5-10.15,2.28-5.07,1.17-8.7-.39-11.36-4.91a47.25,47.25,0,0,0-3-5.09,19.59,19.59,0,0,1-4.27-14.37,6.18,6.18,0,0,0-1.57-4.16c-4.16-4.63-6.53-9.62-4.43-16a4,4,0,0,0-.2-2.09c-1.21-4.53-2.6-9-3.64-13.58a7.62,7.62,0,0,1,.57-4.29c1.75-4.3,3.73-8.51,5.65-12.83-.3,0-.56,0-.62.09-6.21,9.07-9.11,19-7.25,29.95.77,4.52,2.43,8.91,3.08,13.44,1.88,13,6,24.85,16.7,33.44,1.42,1.14,3.12,2.42,4.81,2.62,5.7.68,11.13-1,16.55-2.56,7.69-2.14,15.37-4.33,23.09-6.37,8.83-2.34,17.47-5.12,25.43-9.76,3.95-2.32,5.56-8,3-11.32-.37-.48-.93-1.12-1.44-1.15-3.18-.2-6.37-.24-9.55-.35-2.89-.11-5.78-.2-8.66-.39-3.32-.23-6.37-1.88-10-1.08-3.15.7-6.52.4-9.8.41-.61,0-1.22-.59-1.83-.91.32-.61.55-1.68,1-1.77,2-.46,4.45-1.43,6.14-.75,3.31,1.33,6.4,2,9.9,1.2a18.86,18.86,0,0,1,4.51-.06c5.26.15,10.51.47,15.77.46,11.74,0,22.25-12.37,20.32-23.88a3.87,3.87,0,0,0-2.25-2.36,38.16,38.16,0,0,0-7.61-2.09,105.33,105.33,0,0,0-12.53-1.16c-2.3-.07-4.61.77-6.93,1q-13.31,1.39-26.63,2.65a9.94,9.94,0,0,1-2.41-.37C1052.31,2400,1053.06,2399.56,1055.67,2399.81Z" transform="translate(-895.73 -1959.05)"/><path class="cls-20" d="M1035.61,2353.31c4-1.59,4.1-1.73,1.82-5.69l-7.77,7.17.57.78C1032,2354.82,1033.8,2354,1035.61,2353.31Z" transform="translate(-895.73 -1959.05)"/><path class="cls-21" d="M1187.5,2243.64c-2.64,4.47-9.19,9.05-11.11,10-17.69,8.56-28.05-4.2-28.05-4.2s-16.13,1.84-20.64,2.52a4.36,4.36,0,0,0-2.28,1.66c-1.8,2.17-3.28,4.63-5.23,6.63-4.58,4.69-9.36,9.18-14.28,14a10.45,10.45,0,0,0,1.15.71c6.18,2.64,12.41,5.17,18.56,7.91,10.32,4.61,21.06,7.72,32.37,8.09,10.91.36,20.28-3.71,28.39-11,6.76-6.11,9.83-13.85,11.12-22.59.45-3,1.3-6,1.72-9s.54-6.23.81-9.54c-3.32.88-6,1.87-8.73,2.22A4.6,4.6,0,0,0,1187.5,2243.64Zm-26.07,22c5.71-4,11.64-7.14,18.91-4.51C1173.27,2259.37,1167.46,2263,1161.43,2265.66Z" transform="translate(-895.73 -1959.05)"/><path class="cls-22" d="M1157.7,2135.21a2.46,2.46,0,0,0-1.26.07l-10.7,2.47c-.89.21-1.91.51-2.28,1.34a3,3,0,0,0,0,1.9c5.49,24.46,6.31,50.47-1.62,74.24a5.91,5.91,0,0,0-.45,3.22c.26,1.06,1.45,2,2.45,1.51.26-1.81.68-3.74,2-5a7.54,7.54,0,0,1,5.09-1.63,23.23,23.23,0,0,1,9.28,1.67c2.63,1.06,5.07,2.61,7.79,3.43s6,.75,8.08-1.13,2.55-4.86,3.71-7.39c1.41-3,4-5.82,3.79-9.17a11,11,0,0,0-1.44-4.16c-5.09-9.9-11.52-19.17-15.2-29.68l-.54,2.21a28.22,28.22,0,0,1,1.64-17.87c.27-.6.52-1.41,0-1.84a1.54,1.54,0,0,0-1.2-.21l-4.87.52a17.72,17.72,0,0,1,9.62-4.68c.09-1.61-.76-3.1-1.51-4.52-.89-1.7-1.72-3.66-.7-5.49a2.3,2.3,0,0,1,2.84-1.1,2.27,2.27,0,0,1,1.29,1.84,6.36,6.36,0,0,1,.09,1,6.23,6.23,0,0,0,.39,2.69c.43.81,1.57,1.33,2.28.76a5.45,5.45,0,0,0,.09-4.49,6.23,6.23,0,0,1-.75-2,2.67,2.67,0,0,1,2-2.48l.05,0a2.11,2.11,0,0,1,2.64,2.27,3.15,3.15,0,0,0,0,.81,2,2,0,0,0,2.35,1.71,12.14,12.14,0,0,0,0-3.71,2.35,2.35,0,0,0-1.73-2.23,6.55,6.55,0,0,0-3.28.19c-3.33.79-9.51,2.33-9.51,2.33s-1.69,4.71-2.41,6.29a14.74,14.74,0,0,1-2.39,4.08,4.69,4.69,0,0,1-5.09,1.55,2.92,2.92,0,0,1-1.84-2.25c-.24-1.65,1.1-2.65,1.86-3.91C1158.88,2137.27,1158.87,2135.55,1157.7,2135.21Z" transform="translate(-895.73 -1959.05)"/><path class="cls-23" d="M1182.36,2219.93h24.41C1201.73,2217.66,1185.54,2217.93,1182.36,2219.93Z" transform="translate(-895.73 -1959.05)"/><path class="cls-24" d="M1180.67,2145.8a.54.54,0,0,0,0,.22.75.75,0,0,0,.09.3,1.27,1.27,0,0,0,2.16.28.62.62,0,0,0,.15-.37,1.49,1.49,0,0,0-.29-.83A1.15,1.15,0,0,0,1180.67,2145.8Z" transform="translate(-895.73 -1959.05)"/><path class="cls-21" d="M1197.46,2151.62a3.12,3.12,0,0,0-.11,2.33c1.38,2.65,3.35,5,3.48,8.22.18,4.19.41,8.38.49,12.57,0,.53-.81,1.07-1.25,1.6a7.71,7.71,0,0,1-.84-1.5c-.9-2.87-1.56-5.83-2.67-8.6a41.17,41.17,0,0,0-3.3-5.59l-.79.35c1.51,6,2.79,12,4.66,17.88a3.91,3.91,0,0,0,4.93,2.29c2-.67,1.86-2.27,1.73-3.92a5.83,5.83,0,0,1,.42-1.73c.55.36,1.44.61,1.6,1.1,1.55,4.77,1.57,9.18-2.29,13.2a5,5,0,0,1-5.28,1.59c-1.91-.47-4-.85-4.57-3.48-.76-3.77-1.8-7.49-2.64-11.25-1.2-5.34-3.32-10.45-4-15.92,0-.11-.26-.2-.52-.4-2,1.26-2.9,2.73-1.35,5a13.34,13.34,0,0,1,1.43,3c3.13,9.08,6,18.21,4.8,28a20,20,0,0,1-.68,2.61,12.9,12.9,0,0,1-1.48-2.62c-1.23-4.22-2.19-8.53-6.08-11.37-1.33-1-.88-2.29.63-2.29,2.13,0,1.88-1.08,1.45-2.3-1-2.92-2-5.84-3.21-8.69-1-2.4-1.66-5.45-5.59-3.88.44-1.28.79-2.22,1.06-3.19a12.14,12.14,0,0,0,.24-1.71c-.67,0-1.53-.16-2,.18-1.61,1.23-3.08,2.64-5.33,4.63.44-4.2.89-7.77,1.14-11.35a22.47,22.47,0,0,0-.43-4.14c-4.73,6.44-3.64,13.25-1,19.31a187.48,187.48,0,0,0,13,24.28c2.24,3.64,2.59,7.34,3,11.2a2.16,2.16,0,0,1-1.15,1.7c-2.61.87-3.1,2.86-3.14,4.61,5.31-.22,10.59-.54,15.87-.62,2.23,0,6.84,2.07,9.08,2.34,2.91.36,2-2.3,1.67-5.49-.14-1.55.4-3.16.58-4.75,1.07-9.35,2.5-18.7.3-28.1C1207.18,2167.61,1205.31,2158.29,1197.46,2151.62Z" transform="translate(-895.73 -1959.05)"/><path class="cls-13" d="M1200.8,2119c-3.27,1.15-6.61,2.13-10,3-6.12,1.55-12.27,3-18.43,4.39l-14.85-18.17c6.68-2.7,14.16-5.94,21.77-9.61h0Z" transform="translate(-895.73 -1959.05)"/><path class="cls-13" d="M1231.1,2097.12a29.29,29.29,0,0,1-3.32,5.4,225.62,225.62,0,0,1-27-15.49h0a137.74,137.74,0,0,0,16.81-11.89l1.84.92a28,28,0,0,1,11.75,10.51C1233.38,2090.09,1232.72,2093.76,1231.1,2097.12Z" transform="translate(-895.73 -1959.05)"/><path class="cls-11" d="M1227.78,2102.52a25.08,25.08,0,0,1-8.76,7.19c-4,2-7.56,5-11.66,6.75-2.15.93-4.34,1.77-6.56,2.54l-21.45-20.4c7.22-3.49,14.56-7.37,21.42-11.57A225.62,225.62,0,0,0,1227.78,2102.52Z" transform="translate(-895.73 -1959.05)"/><path class="cls-11" d="M1217.6,2075.13a137.74,137.74,0,0,1-16.81,11.89h0c-6.86,4.2-14.2,8.08-21.42,11.57h0c-7.61,3.67-15.09,6.91-21.77,9.61l14.85,18.17c-4.66,1-9.32,2.09-14,3.15-4.87,1.09-9.79,1.95-14.64,3.07-1.89.43-3,0-3.78-1.79a121.37,121.37,0,0,0-7.32-13.41v0a165.77,165.77,0,0,0-10-14.12,7.83,7.83,0,0,1-.9-1.74c7-2.49,13.91-4.57,20.51-7.4.92-.4,1.83-.8,2.73-1.21,6.3-2.84,12.44-6.06,18.54-9.27,6.31-3.33,12.43-7,18.68-10.38l2.8-1.49a83.12,83.12,0,0,1,12.28-5.17c1.43-.48,3.51.12,5,.84C1207.5,2069.89,1212.52,2072.58,1217.6,2075.13Z" transform="translate(-895.73 -1959.05)"/><path class="cls-12" d="M1179.34,2098.6c-7.61,3.67-15.09,6.91-21.77,9.61l-12.51-15.3-.45-.56c6.55-3,12.75-6.46,18.06-9.61l.93.9Z" transform="translate(-895.73 -1959.05)"/><path class="cls-12" d="M1219.08,2073.85c-.48.43-1,.85-1.48,1.28a137.74,137.74,0,0,1-16.81,11.89h0c-6-4.07-12-8.55-18.49-13.77-.72-.58-1.46-1.17-2.2-1.79l12-6.15,8.94-1.27Z" transform="translate(-895.73 -1959.05)"/><path class="cls-25" d="M1200.77,2087c-6.86,4.2-14.2,8.08-21.42,11.57h0l-15.74-15-.93-.9c10-5.95,16.85-11,16.85-11l.56-.29c.74.62,1.48,1.21,2.2,1.79C1188.74,2078.48,1194.73,2083,1200.77,2087Z" transform="translate(-895.73 -1959.05)"/><path class="cls-13" d="M1179.52,2071.76s-6.83,5-16.85,11l-.58-.55,17.43-11.18.56.46Z" transform="translate(-895.73 -1959.05)"/><path class="cls-11" d="M1230,2103.58l-26.59,17.87-2.58-2.45-21.45-20.4c7.22-3.49,14.56-7.37,21.42-11.57a225.62,225.62,0,0,0,27,15.49Z" transform="translate(-895.73 -1959.05)"/><path class="cls-25" d="M1157.57,2108.21c-14.31,5.82-24.87,9.19-24.87,9.19L1120,2100.83c8.07-1.54,16.62-4.74,24.64-8.48Z" transform="translate(-895.73 -1959.05)"/><path class="cls-13" d="M1144.61,2092.35c-8,3.74-16.57,6.94-24.64,8.48l24.22-9Z" transform="translate(-895.73 -1959.05)"/><path class="cls-11" d="M1173.69,2127.93l-32.38,7L1120,2100.83l12.72,16.55v0s10.56-3.37,24.87-9.19l14.85,18.17Z" transform="translate(-895.73 -1959.05)"/><path class="cls-26" d="M1168.54,2238.21c-4.36,2.85-9.45,4.56-14.21,6.8-1.06.5-2.41,1.4-.82,2.4,3.7,2.31,5.44,4.19,11.86,4.46s12.36-1.53,16.72-6.55c1.73-2,1.88-4.74,0-5.63C1177.79,2237.72,1173.79,2234.78,1168.54,2238.21Z" transform="translate(-895.73 -1959.05)"/><path class="cls-27" d="M1195.14,2161c1.59,3.74,3.3,7.42,5,11.12l.89-.18c-.52-3.29-.92-6.61-1.61-9.86a5.77,5.77,0,0,0-1.88-2.72,2.14,2.14,0,0,0-2-.22C1195.14,2159.33,1194.92,2160.49,1195.14,2161Z" transform="translate(-895.73 -1959.05)"/><path class="cls-28" d="M1186.16,2148.18c-1.42,2.43-3.63,2.41-7,2.76,4.35,1.32,7.53.36,9.09-2.51,1.26-2.3.74-5.45-.64-6.7C1187.37,2144.16,1187.58,2145.75,1186.16,2148.18Z" transform="translate(-895.73 -1959.05)"/><path class="cls-29" d="M1181.33,2154.46c-3.86-.12-4.13.14-4.46,4.6,1.42-.21,2.78-.46,4.16-.62,6.93-.78,13.69-7.52,13.8-14.28,0-1.76-1.2-3.68-2.26-5.25-.3-.45-2,.07-2.71.11.91,2.49,2.17,4.5,2.32,6.6C1192.55,2150.78,1187.56,2154.66,1181.33,2154.46Z" transform="translate(-895.73 -1959.05)"/><path class="cls-30" d="M1194.08,2130.7l.94.28,1.77-5.68-1.21-.42C1192.59,2126.16,1194.31,2128.69,1194.08,2130.7Z" transform="translate(-895.73 -1959.05)"/><path class="cls-27" d="M1186.47,2185.45c.37,2.33,1.94,4.48,3,6.7.87-9.87-2.43-18.64-6.3-27.41-1.94,1-1.89,2-1.19,3.58,1.74,3.95,3.17,8,4.92,12C1187.77,2182.27,1186.23,2183.94,1186.47,2185.45Z" transform="translate(-895.73 -1959.05)"/><path class="cls-27" d="M1190.45,2163c-.3.76-1,1.62-.85,2.27,1.58,6.66,3.32,13.28,5,19.92.59,2.38,1.41,4.64,4.27,4.87,3.1.25,4.4-2.23,5.61-4.43.52-1,.29-2.35.45-4-4.12,2.32-8.26.52-9.38-3.61-1.23-4.52-2.48-9.05-3.81-13.55C1191.55,2163.92,1190.89,2163.49,1190.45,2163Z" transform="translate(-895.73 -1959.05)"/><path d="M1223.29,2188.91c6.83-.2,7,3,6.74,4.58-1.08,6-3.07,11.76-7.79,15.93a14.5,14.5,0,0,1-11.26,3.8c2.46-10.38,3.76-20.51,1.57-31-2.3-11-4.18-21.94-9.7-32-1.61-2.94-1.52-6.9-1.84-10.43-.44-4.83-.3-9.73-.88-14.55-.23-1.83,0-2.53,1.62-3.16,3-1.19,6-2.37,8.82-3.81,7.34-3.72,15.06-6.67,20.48-13.56,6.34-8.08,6.68-18.82-.67-26.12-5-5-10.61-9.13-17.51-11.51-4.82-1.68-8.61-4.38-9.94-10.39-4.33-19.55-14.09-36.66-25.82-52.63-6.62-9-16-15.18-25.23-21.06-5.22-3.31-11.33-5.38-17.25-7.37a56.61,56.61,0,0,0-23.32-3c-2.25.2-4.43,1.34-6.6,2.17-2.66,1-3.34.62-3.24-2.08.19-5.49-4.27-11.37-9.58-12.56-2-.46-4.23-1.47-6.13-1.1-7.52,1.42-12.27,7.5-12.51,15.07-.06,1.6-.29,3.65-1.28,4.68a68.21,68.21,0,0,1-8.14,6.9c-3.32,2.56-6.94,4.74-10.12,7.46a89.06,89.06,0,0,0-9.65,9.48c-7.4,8.6-15.12,17-21.64,26.27-4.72,6.69-7.69,14.59-11.46,21.93-.36.7-.86,1.65-1.48,1.83-2.16.64-4.4.92-6.58,1.45-5.56,1.38-11.25,2.43-16.63,4.31-6.46,2.27-12.74,5.11-18.95,8-3.65,1.7-7,4.07-10.5,6a91.26,91.26,0,0,0-23.71,18.4c-1.27,1.37-2.59,2.7-3.88,4.06-3.07,3.24-6.42,6.28-9.12,9.8-3.37,4.38-6.3,9.11-9.22,13.81a144.66,144.66,0,0,0-7.4,13,64.74,64.74,0,0,0-6.24,22.74c-.72,8.4-1.75,16.85-1.47,25.24.32,9.64,1.94,19.24,3,28.86a7.53,7.53,0,0,0,.48,1.88c2.3,6,4.37,12.15,7,18a157.39,157.39,0,0,0,9.57,18.41,92.75,92.75,0,0,0,10.82,13.72,242.14,242.14,0,0,0,17.62,17.48c4.05,3.58,9,6.11,13.43,9.27a81.37,81.37,0,0,0,30.3,13.29c11,2.34,22.2,3.89,33.24,5.77-.25.78-1.11,2.14-1,3.4a15.31,15.31,0,0,0,1.77,5.91c1.93,3.3,3.28,6.94,7.1,9.08,2,1.13,3.26,4,4.33,6.27.94,2,1,4.37,1.69,6.53,1.1,3.66.9,7.08-1.72,10a20.88,20.88,0,0,1-3.62,3.15c-6.5,4.49-11.39,10.6-16,16.76-3.73,5-6.5,10.76-9.27,16.39a87.63,87.63,0,0,0-6.41,15.61c-1.68,6.2-2.9,12.55-1.48,19.22a76.05,76.05,0,0,0,3.6,12.65c2.05,5.12,3.34,10.55,5.3,15.71a31.07,31.07,0,0,0,10.63,14.48c.94.69,2.43,2.31,3.34,3.09,2.29,1.95,9.29,3.52,13.92,3.4,4.14-.1,8.27-1.59,12.36-2.64,3.55-.9,7-2.16,10.56-3.05,1.14-.28,2.83-.34,3.61.3,1.49,1.19,2.32,3.17,3.76,4.46,2.73,2.47,4.93,6.23,9.14,6,5.09-.27,10.38-.12,15-3,.91-.55,2.19-1.4,2.28-2.22.36-3.5.95-7.14.35-10.52-1.1-6.08-1.09-7.64,3.85-11a13.82,13.82,0,0,0,6.05-9.14c1-5.12,3.64-9.37,7-13.32,3.15-3.68,5.42-7.89,5.23-13-.07-2.13-.66-4.55.12-6.35,2-4.73,2.77-9.28.39-14-.94-1.88-2-3.7-3-5.53,1.75-.19,3.58-.55,5.41-.57,8.69-.06,14.87-4.43,19.59-11.31,1.21-1.76.81-7.22-.7-8.64a117.41,117.41,0,0,0-9.22-8.22c-7-5.35-13.46-11.14-18.49-18.47a12.74,12.74,0,0,0-9.31-5.66c-7.43-.9-14.82-2.2-22.23-3.23a10.21,10.21,0,0,0-3.8.35c-3.09.78-6.12,1.78-9.21,2.57-.57.15-1.8-.17-1.88-.47a106.8,106.8,0,0,1-2.27-11.56c-.17-1.4,1.16-2.9,1.45-4.43,1.12-5.73,1-11.38-1.7-16.41,6.77-2.86,13.41-5.49,19.91-8.45,8.49-3.85,16.75-8.17,24-14.17a2.43,2.43,0,0,1,3.43-.18,63.73,63.73,0,0,0,18.35,8.57c5.45,1.42,10.73,3.54,16.14,5.13,8.89,2.63,17.88,4.71,27.27,3.89,6.85-.62,13.25-2.65,18.27-7.42,8-7.63,12.49-17.31,15-28,1.69-7.23,3.37-14.47,5.1-21.69a5.35,5.35,0,0,1,1.17-2.48c1.9-1.84,3.94-3.52,5.95-5.22a76.74,76.74,0,0,0,18.75-23.61c2.68-5.11,2.17-9.92.29-14.88C1230.32,2187.44,1226,2187.45,1223.29,2188.91Zm-20.92-121.47c5.75,2.74,11.35,5.78,17.07,8.61a28,28,0,0,1,11.75,10.51c2.19,3.53,1.53,7.2-.09,10.56a26.17,26.17,0,0,1-12.08,12.59c-4,2-7.56,5-11.66,6.75a112.69,112.69,0,0,1-16.51,5.53c-10.75,2.73-21.59,5.09-32.41,7.54-4.87,1.09-9.79,1.95-14.64,3.07-1.89.43-3,0-3.78-1.79a141.43,141.43,0,0,0-17.3-27.55,7.83,7.83,0,0,1-.9-1.74c7-2.49,13.91-4.57,20.51-7.4,7.26-3.12,14.28-6.8,21.27-10.48,7.24-3.82,14.23-8.08,21.48-11.87a83.12,83.12,0,0,1,12.28-5.17C1198.79,2066.12,1200.87,2066.72,1202.37,2067.44ZM1195,2131l-.94-.28c.23-2-1.5-4.54,1.5-5.82l1.21.42Zm2.5,28.38a5.77,5.77,0,0,1,1.88,2.72c.68,3.25,1.09,6.57,1.61,9.85-.3.07-.6.14-.89.19-1.68-3.69-3.39-7.38-5-11.11a2,2,0,0,1,.37-1.88A2.17,2.17,0,0,1,1197.52,2159.36Zm-16.5-.91c-1.36.14-2.73.4-4.15.61.33-4.46.6-4.72,4.46-4.6,6.24.2,11.22-3.68,10.85-8.84-.15-2.1-1.41-4.12-2.32-6.59.68-.05,2.4-.57,2.71-.12,1.06,1.57,2.29,3.49,2.26,5.25C1194.72,2150.93,1188,2157.66,1181,2158.45Zm10.7,6c1.33,4.5,2.58,9,3.81,13.56,1.13,4.12,5.27,5.93,9.37,3.6-.14,1.63.08,3-.45,4-1.2,2.2-2.49,4.68-5.6,4.42-2.86-.22-3.67-2.48-4.27-4.86-1.66-6.65-3.4-13.26-5-19.92-.16-.66.54-1.51.85-2.27C1190.89,2163.49,1191.55,2163.92,1191.72,2164.49Zm-4.82,15.81c-1.75-3.94-3.18-8-4.93-12-.69-1.58-.74-2.62,1.2-3.58,3.87,8.77,7.17,17.54,6.3,27.42-1.06-2.23-2.63-4.38-3-6.71C1186.23,2183.94,1187.76,2182.27,1186.9,2180.3Zm-10.5-44.61a5.45,5.45,0,0,1-.09,4.49,1.63,1.63,0,0,1-2.28-.76,5.8,5.8,0,0,1-.38-2.69,8,8,0,0,0-.09-1,2.17,2.17,0,0,0-4.14-.73c-1,1.82-.19,3.78.7,5.48.75,1.42,1.6,2.92,1.51,4.53a17.63,17.63,0,0,0-9.62,4.67l4.87-.52a1.5,1.5,0,0,1,1.2.21c.5.43.25,1.23,0,1.84a28.26,28.26,0,0,0-1.64,17.86c.18-.72.36-1.46.54-2.2,3.68,10.51,10.11,19.78,15.19,29.68a11.06,11.06,0,0,1,1.45,4.16c.23,3.35-2.38,6.12-3.79,9.17-1.17,2.53-1.62,5.54-3.71,7.38s-5.36,1.95-8.07,1.14-5.17-2.36-7.8-3.43a23.41,23.41,0,0,0-9.28-1.67,7.54,7.54,0,0,0-5.09,1.63c-1.33,1.26-1.75,3.19-2,5-1,.46-2.19-.45-2.45-1.51a6,6,0,0,1,.45-3.22c7.93-23.77,7.11-49.78,1.63-74.23a3,3,0,0,1,0-1.91,3,3,0,0,1,2.27-1.33l10.7-2.48a2.47,2.47,0,0,1,1.26-.07c1.17.34,1.19,2.06.56,3.11-.76,1.26-2.1,2.26-1.86,3.91a2.92,2.92,0,0,0,1.84,2.25,4.69,4.69,0,0,0,5.09-1.54,15.09,15.09,0,0,0,2.39-4.09c.72-1.58,2.41-6.29,2.41-6.29s6.18-1.54,9.51-2.33a6.47,6.47,0,0,1,3.29-.19,2.35,2.35,0,0,1,1.72,2.23c0,1.27.4,2.4,0,3.7-1,.36-2.14-.63-2.33-1.7a3.16,3.16,0,0,1,0-.81,2.11,2.11,0,0,0-2.65-2.27h-.05a2.7,2.7,0,0,0-1.95,2.49A6.32,6.32,0,0,0,1176.4,2135.69Zm5.65,104c1.92.9,1.76,3.65,0,5.65-4.35,5-10.3,6.81-16.72,6.54s-8.17-2.15-11.86-4.46c-1.59-1-.23-1.89.82-2.39,4.75-2.25,9.85-4,14.21-6.81C1173.79,2234.78,1177.79,2237.72,1182.05,2239.68Zm4-91.3c1.56-2.73,1.36-4.33,1.62-6.65,1.39,1.25,1.9,4.4.64,6.7-1.56,2.87-4.74,3.83-9.09,2.51C1181.88,2150.52,1184.45,2151.11,1186,2148.38Zm-2.92-2.15a.68.68,0,0,1-.16.36,1.27,1.27,0,0,1-2.16-.27,1.51,1.51,0,0,1-.1-.3.81.81,0,0,1,0-.22,1.15,1.15,0,0,1,2.12-.39A1.53,1.53,0,0,1,1183.09,2146.23Zm-75.48-169.31c.45-1.51,2.39-1.9,4-2s2.89-.06,4.33,0c20.41.64,40.07,11,53.9,26.12a96.56,96.56,0,0,1,12.12,16.58,115.91,115.91,0,0,1,9.8,21.87c1.26,3.81,2.35,7.68,3.27,11.58q.69,2.94,1.25,5.89c.15.76.73,2.26.53,3-.11.42-1.6,1.49-1.6,1.76a121.73,121.73,0,0,0-83.54-80.84,8.58,8.58,0,0,1-2.92-1.22A2.7,2.7,0,0,1,1107.61,1976.92Zm-3.51,2.71c3.56,1.06,6.66,3.12,10.2,4.37,8,2.83,15.45,7.17,23,11.22a132.78,132.78,0,0,1,12.55,8.1,113.94,113.94,0,0,1,25,24.17c6.55,8.5,8.71,18.53,12,28.28,2.27,6.65-2.23,9.44-5.66,12.94a42,42,0,0,1-8.06,6.12c-14.23,8.71-28.7,17-44.79,21.85a48,48,0,0,1-8,1.73,3.73,3.73,0,0,1-2.68-1.44,125.33,125.33,0,0,0-23.32-22.36c-6.25-4.62-13-8.61-19.59-12.73a24.67,24.67,0,0,0-6.43-2.79c-2-.54-2.17-1.74-2.19-3.32-.1-9.3,2.19-18.12,5.74-26.58,3.34-8,7.16-15.77,10.75-23.64,1.78-3.93,3.59-7.86,5.21-11.86a21.76,21.76,0,0,0,.92-4.11c-.25-2.23-.29-3.67-.59-5a9.61,9.61,0,0,0-.5-1.64c2.29-.54,9.59-2.56,10.46-3.17C1100.19,1978.31,1102.06,1979,1104.1,1979.63Zm-20.93-16.19c1.89-.73,4.23-.53,6.33-.38,5.88.42,10.54,6.72,9.25,12.16-.57,2.39-5.28,4.94-7.61,5.25a31.63,31.63,0,0,0-4.17,1.07c-1.07-1.45-2.69-2-5.07-2a2.91,2.91,0,0,1-2.07-.89C1076.47,1974,1077.14,1965.77,1083.17,1963.44Zm-61.84,75.71c5-8.19,10.12-16.36,15.84-24.05,3.91-5.24,8.92-9.67,13.44-14.45,5.35-5.69,12-9.6,18.55-13.68a25,25,0,0,1,11.12-3.66c3.65-.33,6,3.55,4.49,7.16-3.15,7.35-6.67,14.55-9.48,22-4.61,12.23-8.81,24.62-13.08,37-.76,2.18-.36,5.5-1.78,6.51s-4.4-.34-6.7-.58c-9-1-17.89-2-26.85-2.78-3.7-.31-7.46,0-12,0C1017.3,2047.53,1018.91,2043.09,1021.33,2039.15Zm10.39,283.29c-5.43-3.75-6.39-9.44-7.22-15.13-.06-.47.91-1.5,1.48-1.58,4.2-.51,8.45-.63,12.61-1.32a109,109,0,0,0,14-3.15c2.52-.77,3.74,0,4.21,2.12.73,3.36,1.64,6.77-.19,10.16a12.22,12.22,0,0,0-.8,3c-4.51-.5-9-1.34-13.53-1.42C1037.29,2315.05,1034.07,2318.26,1031.72,2322.44Zm5.72,25.17c2.27,4,2.21,4.11-1.83,5.7-1.81.71-3.59,1.5-5.38,2.26l-.57-.78Zm50.17,116.69a12.55,12.55,0,0,1-9.38,5.86c-5.48-.24-11.51-5.1-12.43-9.65-.13-.71.41-2.16.91-2.31q8.07-2.49,16.25-4.57a3.37,3.37,0,0,1,2.77.89C1088.22,2457.37,1089.67,2460.85,1087.61,2464.3Zm-34-60.34q13.32-1.26,26.63-2.65c2.33-.24,4.63-1.09,6.93-1a105.14,105.14,0,0,1,12.53,1.16,38.16,38.16,0,0,1,7.61,2.09,3.87,3.87,0,0,1,2.25,2.36c1.93,11.51-8.58,23.85-20.32,23.88-5.26,0-10.51-.31-15.76-.46a18.42,18.42,0,0,0-4.52.07c-3.5.78-6.59.12-9.91-1.21-1.68-.68-4.09.3-6.13.75-.44.1-.67,1.16-1,1.77.61.32,1.23.92,1.83.91,3.27,0,6.65.29,9.79-.41,3.6-.8,6.64.85,10,1.07,2.88.2,5.77.29,8.66.4,3.18.12,6.37.14,9.55.35.51,0,1.07.67,1.44,1.15,2.58,3.35,1,9-3,11.31-8,4.65-16.59,7.42-25.42,9.76-7.72,2.05-15.4,4.24-23.09,6.38-5.42,1.51-10.85,3.24-16.55,2.56-1.69-.2-3.4-1.48-4.81-2.62-10.65-8.58-14.82-20.4-16.7-33.43-.65-4.54-2.31-8.93-3.08-13.45-1.86-11,1-20.89,7.25-29.94.06-.09.31-.06.62-.09-1.92,4.31-3.9,8.52-5.65,12.82a7.71,7.71,0,0,0-.57,4.29c1,4.57,2.43,9.06,3.64,13.58a4,4,0,0,1,.2,2.09c-2.11,6.34.27,11.33,4.43,16a6.18,6.18,0,0,1,1.57,4.17,19.53,19.53,0,0,0,4.27,14.36,48.93,48.93,0,0,1,3,5.09c2.66,4.52,6.28,6.08,11.36,4.91,3.37-.78,6.78-1.47,10.15-2.28a8.36,8.36,0,0,0,2.71-1.26c-3.32.41-6.64,1.08-10,1.16a15.07,15.07,0,0,1-13.76-7.23c-2.25-3.53-4.73-7-6.29-10.83-1-2.38-.26-5.4-.58-8.09a5.09,5.09,0,0,0-1.59-3.15,12.83,12.83,0,0,1-4.8-8c-.35-1.77-.55-4.26,2.29-5.06.24-.06.41-1.51.14-2.08-1.35-2.78-3.11-5.38-4.25-8.22-1.93-4.82-1.18-9.56,1-14.19,1.81-3.74,4.1-7,3.94-11.88-.16-4.49,3.51-8.63,6.58-12.43,4.77-5.88,11.18-9.37,17.88-11.94,9.37-3.59,19-6.94,28.78-9,7.34-1.51,15.19-1.2,22.75-.77,2.29.13,4.57,3.21,6.54,5.24,2.43,2.49,4.57,5.28,6.78,8a47.47,47.47,0,0,1,4.47,5.78c1.72,3-.36,5.17-2,7.36-1.37,1.84-3.11,1.48-5,.91-6.63-1.91-13.2-2.94-20.27-1.65-6.61,1.2-13.48.95-20.23,1.34-1.44.09-3.78-.2-3.19,1.84.41,1.36,2.71,2.73,4.35,3s3.61-.81,5.45-1.17c6.25-1.27,12.47-2.71,18.78-3.65,5-.75,9.43,1.25,13.49,4,3.36,2.24,6.59,4.67,9.85,7.06,4.08,3,6.27,9.09,4.81,13.85a2.84,2.84,0,0,1-2.35,1.19,44.29,44.29,0,0,1-8.62-1.29c-4-1.15-7.68-.13-11.49.37-5.5.71-11,1.82-16.5,2-4.92.18-9.89-.55-14.82-1-2.61-.26-3.36.2-4.51,3.78A10,10,0,0,0,1053.57,2404Zm76.83-38.65a78.44,78.44,0,0,1-7.16,6.27c-1.42,1-3.62,1.48-4.93-.46-1.63-2.42-3-5-4.45-7.53-1.24-2.28.08-5.42,2.56-5.53a12.52,12.52,0,0,1,6.63,1.16C1125.83,2360.84,1128.1,2363.34,1130.4,2365.31Zm-66.17-30.19c2-.65,4-1.62,6-2.34,3.4-1.23,6.81-.74,10.28-.15,5.72,1,11.49,1.57,17.23,2.38,1,.14,2.27.19,2.84.81,5.72,6.22,11.31,12.56,16.75,18.65-1.72,1-3.67,1.66-4.74,3a5.22,5.22,0,0,0-.8,4.49,73,73,0,0,0,5.7,10c2,3,5.84,3,7.87-.1a6.79,6.79,0,0,1,7.41-3.31c-.18,1.3.13,3.17-.62,3.81-2.56,2.23-4.21,5.94-8,6.24a107.47,107.47,0,0,1-13.78.23c-4.29-.22-5.36-2.21-4.49-6.49s.34-8.22-3.12-11.64c-4.33-4.29-8.17-9.06-12.27-13.57-3-3.26-6.88-3.49-10.92-3.32-5.6.23-11.21.42-16.08.6a38.54,38.54,0,0,0-1.21-5.65C1061.38,2336.55,1062.27,2335.74,1064.23,2335.12Zm-5.74-.45a65.53,65.53,0,0,1,2,9,2.32,2.32,0,0,1-1,2q-7.62,2.51-15.34,4.7c-1,.3-2.28.74-2.79-1.2-2-7.73-4.3-15.4-6.48-23.1-.11-.36-.16-.73-.26-1.18.64-2.2,1.09-4.59,3.91-5.27,5.71-1.38,11.53-1.37,15.33,3.49C1056.3,2326.25,1057.2,2330.7,1058.49,2334.67Zm29.48-54.08c-6.37,3.76-13.15,6.86-19.82,10.11-2.18,1.05-4.59,1.64-6.88,2.49-14.11,5.22-28.72,8.3-43.71,7.36-9.8-.63-19.5-3.05-29.2-4.89-7.12-1.35-14.05-3.25-20.46-6.95-13.58-7.85-26.33-16.54-36.77-28.61a157.88,157.88,0,0,1-19-27.61c-3-5.39-5-11.29-7.26-17a83.57,83.57,0,0,1-4.2-12.51,119.77,119.77,0,0,1-2.23-35.38c.51-6.16,1.55-12.28,2.59-18.38a63.2,63.2,0,0,1,2.3-7.52c4.58-14.71,13.32-27.05,22.33-39.24,7-9.53,16.09-17,25.66-23.64,9-6.29,18.31-12.22,28.84-15.94a103.61,103.61,0,0,1,26-6c3.94-.31,7.83-1.53,11.74-1.53,9.49,0,19,.34,28.25,2.91,4.06,1.12,8.4,1.22,12.44,2.37a113.87,113.87,0,0,1,27,11.16c8.24,4.87,15.13,11.21,22,17.59,5.24,4.9,9.32,11.07,13.79,16.77,4.8,6.14,8.17,13.17,12.15,19.82,4.72,7.87,6.85,16.49,8.25,25.33,1.21,7.7,1.91,15.47,2.53,20.61-.79,15.25-.68,28-4.66,40.1-2.77,8.5-5.54,17.07-9.29,25.16-2.57,5.55-6.49,10.59-10.36,15.41a127.36,127.36,0,0,1-14.62,16A113.82,113.82,0,0,1,1088,2280.59Zm111.25-32.35c-.42,3-1.27,6-1.72,9-1.29,8.74-4.36,16.48-11.12,22.59-8.1,7.33-17.48,11.4-28.39,11-11.31-.37-22-3.48-32.37-8.09-6.14-2.74-12.38-5.28-18.56-7.92a9.05,9.05,0,0,1-1.15-.7c4.92-4.79,9.7-9.28,14.28-14,2-2,3.43-4.46,5.22-6.63a4.5,4.5,0,0,1,2.29-1.67c4.51-.67,20.64-2.51,20.64-2.51s10.36,12.76,28.05,4.21c1.92-.94,8.47-5.51,11.11-10a4.6,4.6,0,0,1,3.8-2.72c2.75-.34,5.41-1.34,8.73-2.22C1199.76,2242,1199.64,2245.15,1199.22,2248.24Zm-16.86-28.31c3.19-2,19.37-2.27,24.41,0Zm26.67-15c-.19,1.59-1.13,8.59-1.13,8.59a51.07,51.07,0,0,0-11.39-1.83c-6.08-.24-9.38,1.54-14.68,1.76,0-1.75.52-3.74,3.13-4.61a2.16,2.16,0,0,0,1.15-1.7c-.46-3.86-.81-7.56-3-11.2a188.78,188.78,0,0,1-13-24.28c-2.58-6.06-3.68-12.86,1-19.32a23.56,23.56,0,0,1,.43,4.14c-.25,3.59-.7,7.16-1.14,11.36,2.25-2,3.72-3.4,5.33-4.63.44-.34,1.3-.13,2-.18a13.54,13.54,0,0,1-.22,1.71c-.27,1-.63,1.9-1.07,3.19,3.93-1.57,4.59,1.48,5.59,3.87,1.19,2.86,2.21,5.78,3.21,8.69.43,1.24.68,2.32-1.45,2.32-1.51,0-2,1.31-.63,2.28,3.88,2.85,4.85,7.15,6.08,11.37a13.25,13.25,0,0,0,1.48,2.63,20.6,20.6,0,0,0,.68-2.62c1.26-9.83-1.67-19-4.8-28a13.14,13.14,0,0,0-1.43-3c-1.55-2.31-.64-3.78,1.35-5,.26.19.5.28.52.39.71,5.47,2.83,10.58,4,15.92.84,3.76,1.88,7.48,2.64,11.26.52,2.62,2.66,3,4.57,3.47a5,5,0,0,0,5.27-1.58c3.87-4,3.85-8.44,2.3-13.21-.15-.49-1-.73-1.59-1.09a5.51,5.51,0,0,0-.43,1.71c.13,1.66.32,3.26-1.73,3.93a3.92,3.92,0,0,1-4.93-2.29c-1.87-5.86-3.16-11.9-4.66-17.88l.79-.35a39.59,39.59,0,0,1,3.3,5.59c1.11,2.77,1.77,5.73,2.67,8.6a7.77,7.77,0,0,0,.85,1.5c.43-.53,1.25-1.08,1.23-1.6-.06-4.19-.3-8.38-.47-12.57-.13-3.19-2.11-5.57-3.5-8.22a3.18,3.18,0,0,1,.12-2.33c7.84,6.67,9.72,16,11.86,25.21C1211.52,2186.23,1210.09,2195.58,1209,2204.93Z" transform="translate(-895.73 -1959.05)"/><path d="M1125.17,2222.37a110.29,110.29,0,0,0,5.09-14.68c.62-2.31,1.69-4.23,2.1-6.61.45-2.64.82-5.3,1.09-8a124.49,124.49,0,0,0-.85-32.09,122.2,122.2,0,0,0-9-30.73,111.92,111.92,0,0,0-17-27.07c-20.75-24.36-52.85-38.93-84.69-37.85a97.07,97.07,0,0,0-12.14,1.19,119.93,119.93,0,0,0-38.21,13.71,127.38,127.38,0,0,0-26,18.69,111,111,0,0,0-29.46,46.76,111.4,111.4,0,0,0,164.53,128.43q3.06-1.87,6-3.94a112.4,112.4,0,0,0,22.57-21.26A114.18,114.18,0,0,0,1125.17,2222.37ZM930.84,2117.05l.26.22-.84,1.21-.31-.33Zm151.76,152.63c-18.81,13.15-42,20.14-64.92,18.68-24.79-1.58-48.48-13-66.76-29.79-14-12.91-25.15-29.16-30.88-47.33-6.74-21.39-5.75-44.93,1.59-66.12,11.73-33.87,40.31-61.68,74.81-71.45s73.94-.78,100.06,23.77a106.7,106.7,0,0,1,25.39,37.55,128.26,128.26,0,0,1,8.67,35.13,137,137,0,0,1,.67,18.23q-.13,4.56-.57,9.09c-.24,2.59-.13,6.3-1.26,8.59-1.88-.53-3.5-5.06-4.46-6.72l-4.46-7.71-9.15-15.82c-3.06-5.28-6.15-10.65-7.55-16.58a31.89,31.89,0,0,1,6.85-27.8,49.72,49.72,0,0,0-26.91,22.51c-2.56-.55-3.14-3.87-3.28-6.48-.65-11.86-4-24.32-12.77-32.27-5.3-4.78-13.21-7.54-19.67-4.53s-8.89,13.29-3.11,17.47c2.91,2.1,7.15,2.38,9.21,5.32s.56,7.51-2.51,9.51-7.09,1.92-10.61.94a4.09,4.09,0,0,1-2.18-1.17,4.45,4.45,0,0,1-.59-3.08q.61-12.55,1.24-25.1a52.92,52.92,0,0,1-36,.09q3,12.24,6,24.49l-.4-.3a19.51,19.51,0,0,1-7.39-15.67c0-1.62.07-3.66-1.39-4.35a3.8,3.8,0,0,0-2.22-.09l-34.49,5.54a36.79,36.79,0,0,1,5.68,16.57c.15,1.6-.35,3.8-2,3.76a2.68,2.68,0,0,1-1.7-.94,13.43,13.43,0,0,1-4-10.55,3.63,3.63,0,0,0-.29-2.38c-.74-1.05-2.34-.81-3.58-.46-4,1.13-8.08,2.35-11.1,5.15s-4.57,7.66-2.34,11.13c1.54,2.37,4.74,4.54,3.69,7.17a6.1,6.1,0,0,1-2.66,2.48c-10.39,6.68-14,22-7.75,32.62,1,1.62,2.87,3.32,4.49,2.36-1.1-4.4-2-9.75,1.32-12.88,2.63-2.52,7-2.34,10.17-.59s5.47,4.74,7.66,7.64c8.78,11.67,17.87,24.06,19.65,38.55,1,7.88.49,17.55,7.24,21.73a48.88,48.88,0,0,1,8.75-23c3.38-1.24,6.95,2.53,6.78,6.13s-2.79,6.6-5.58,8.89a40.47,40.47,0,0,1-8.07,5.18c2.2,2.67,6.08,3.29,9.51,2.88s6.75-1.62,10.2-1.88c16.11-1.17,29.45,18.47,45.09,14.41a36.55,36.55,0,0,1-16.89-23,2.93,2.93,0,0,1,.14-2.33,3.05,3.05,0,0,1,1.94-1c5.11-1.17,10.64-2.31,15.44-.22s7.79,7,12.12,10a18.31,18.31,0,0,0,22.9-2.35,17.32,17.32,0,0,1-19-8c-.85-1.52-1.44-3.46-.51-4.93a5.72,5.72,0,0,1,2.83-1.93q12-4.93,24.13-9.39c6.43-2.35,13-4.62,19.81-5.12,2.93-.21,6.8.72,7,3.65a6,6,0,0,1-.56,2.47C1115.83,2237.42,1101.42,2256.54,1082.6,2269.68Zm-47.66-87.57a26.93,26.93,0,0,0,30.12-3.63,38.27,38.27,0,0,0,10.23-14.32c2,1,4.4,1.48,5.64,3,1,1.21,1.09,3.73.67,5.45a32.16,32.16,0,0,1-11.86,18.52c-5.23,4-11.16,5.53-17.29,6.13a55,55,0,0,1-15.75-.45c-9.82-1.94-19-5.84-23.36-15.7-2.53-5.75-4.65-21-4.65-21l10.47-1.31s.53,2.82.86,4.31C1022,2171.77,1027,2177.92,1034.94,2182.11Zm-3.23-19.35c-.07-1.1.9-2.45,1.77-3.34a3.58,3.58,0,0,1,2.65-.63c1.51.18,4.14.53,4.24,1.13.32,2-1.1,3.57-3.22,4.15-.81.23-1.63.4-3,.75C1033.4,2164.26,1031.75,2163.55,1031.71,2162.76Zm-5.9,32.92a45.79,45.79,0,0,0,36.76,1.85,50.67,50.67,0,0,0,27.16-25.15l.26.18a87.79,87.79,0,0,1,16.81,15.4,65.86,65.86,0,0,1,6.86,9.33c2.35,4.07-3.85,4.24-6.62,4.6-19.8,2.58-38.23,12.52-58.16,13.89-20.24,1.38-41.19-7-54-22.73-5.16-6.36-8.95-13.72-12.17-21.25a2.55,2.55,0,0,1-.2-2.19,2.47,2.47,0,0,1,1.4-.91q7.79-2.84,15.61-5.61c.76-.27,3.35-1.3,3.35-1.3s.78,3.15,1,4.57A41.85,41.85,0,0,0,1025.81,2195.68Z" transform="translate(-895.73 -1959.05)"/><path d="M1161.43,2265.66c6-2.67,11.84-6.29,18.91-4.51C1173.07,2258.52,1167.14,2261.63,1161.43,2265.66Z" transform="translate(-895.73 -1959.05)"/></svg>